<svg xmlns="http://www.w3.org/2000/svg" viewBox="0 0 176.74 176.74"><defs><style>.cls-1{fill:#6c2912;}.cls-2{fill:#fff;}.cls-3{fill:#6c2910;}</style></defs><g id="Capa_2" data-name="Capa 2"><g id="Capa_1-2" data-name="Capa 1"><circle class="cls-1" cx="88.37" cy="88.37" r="88.37"/><circle class="cls-2" cx="88.37" cy="88.37" r="75.53"/><path class="cls-3" d="M120.81,31.53q7.48,7.44,15,14.9c1.2,1.2,1.18,2.14,0,3.36q-12,12-24,24c-1.2,1.2-2.13,1.19-3.36,0-1.65-1.64-3.32-3.26-4.92-5-.58-.62-.9-.54-1.43,0q-1.69,1.8-3.49,3.48c-.5.46-.47.73,0,1.19,3.7,3.66,7.38,7.35,11,11,1.5,1.5,1.49,2.36,0,3.89-1.18,1.18-2.36,2.38-3.57,3.54-.44.43-.5.65,0,1.19a4.72,4.72,0,0,0,5.26,1.88c5.54-1.11,10.54.53,14.78,4.33,1.51,1.36,1.54,2.31.09,3.77-2.9,2.9-5.8,5.82-8.73,8.7-.51.5-.63.77-.06,1.35a1.84,1.84,0,0,1,0,2.67,1.87,1.87,0,0,1-2.74,0c-.56-.55-.81-.4-1.27.07q-4.33,4.38-8.71,8.72c-1.49,1.5-2.44,1.48-3.83-.11a17.5,17.5,0,0,1-4-16.61,1.34,1.34,0,0,0-.43-1.6c-.84-.68-1.48-2.1-2.36-2.07s-1.53,1.33-2.29,2.07l-2,2c-1.38,1.37-2.3,1.38-3.66,0-3.69-3.68-7.38-7.35-11-11.06-.57-.57-.88-.57-1.42,0-1.11,1.21-2.29,2.36-3.48,3.49-.47.45-.53.72,0,1.21,1.7,1.64,3.36,3.32,5,5,1.27,1.28,1.28,2.18,0,3.43q-12,12-24,24c-1.27,1.27-2.18,1.28-3.43,0l-14-14c-1.26-1.26-1.27-2.19,0-3.43q12-12,24-24c1.28-1.29,2.18-1.27,3.5,0,1.63,1.62,3.27,3.22,4.86,4.88.51.52.81.64,1.36,0,1.13-1.23,2.33-2.41,3.55-3.56.51-.48.44-.74,0-1.19-2.71-2.67-5.37-5.38-8.07-8a10.88,10.88,0,0,1-3.53-9.13,9.27,9.27,0,0,1,1.36-4.15.85.85,0,0,0-.15-1.3c-1.18-1.1-2.3-2.26-3.42-3.41s-1.17-2.14,0-3.29q4-4.05,8.06-8.06c1.21-1.2,2.17-1.19,3.37,0s2.3,2.25,3.41,3.42a.85.85,0,0,0,1.22.19,10.49,10.49,0,0,1,13.13,1.92c2.76,2.72,5.5,5.45,8.2,8.22.56.57.84.51,1.34,0q1.73-1.83,3.56-3.56c.47-.44.45-.69,0-1.13-1.7-1.65-3.36-3.33-5-5-1.3-1.3-1.3-2.2,0-3.51l23.9-23.89c.33-.33.7-.63,1.05-.94Zm-37.93,68c.16-.15.37-.33.56-.52,5.61-5.61,11.22-11.24,16.86-16.83.57-.57.55-.86,0-1.42q-6.93-6.87-13.81-13.79c-1.57-1.57-1.57-1.57-3.13,0q-8,8-16,16c-.29.29-.85.5-.24,1.11q7.62,7.55,15.19,15.16C82.47,99.3,82.58,99.51,82.88,99.5Zm17,13.15a14.34,14.34,0,0,0,1.69,6.58c1,1.9,1,1.9,2.52.42l.87-.87,16.55-16.55c.84-.84.83-.83-.21-1.51a13.21,13.21,0,0,0-7.67-2.15A14,14,0,0,0,99.9,112.65ZM132,48.12a7,7,0,0,0-.49-.55c-3.62-3.63-7.26-7.26-10.87-10.9-.39-.39-.63-.47-1.06,0q-2.21,2.28-4.5,4.49c-.45.44-.32.68.06,1q5.46,5.43,10.88,10.89c.38.38.62.48,1,0,1.47-1.53,3-3,4.49-4.51C131.66,48.46,131.79,48.3,132,48.12Zm-8.23,8.18c-.16-.18-.29-.34-.43-.48q-5.47-5.48-11-11c-.34-.35-.57-.48-1,0-1.52,1.57-3.08,3.11-4.64,4.64-.37.36-.3.58,0,.91q5.53,5.51,11,11c.32.32.53.43.91,0,1.55-1.59,3.13-3.15,4.7-4.72A4.91,4.91,0,0,0,123.73,56.3Zm-8.25,8.24-.38-.41L104,53c-.3-.31-.5-.34-.82,0q-2.3,2.36-4.64,4.65c-.34.34-.37.55,0,.91q5.56,5.53,11.1,11.1c.31.32.52.32.83,0,1.56-1.58,3.14-3.15,4.71-4.72A4.24,4.24,0,0,0,115.48,64.54ZM71.35,108.7c-.15-.17-.27-.34-.41-.48q-5.52-5.5-11-11c-.34-.35-.56-.36-.9,0-1.51,1.54-3,3.07-4.58,4.57-.39.37-.38.59,0,1q5.53,5.5,11,11c.34.35.55.38.9,0,1.53-1.57,3.09-3.11,4.64-4.66C71.11,109,71.21,108.86,71.35,108.7Zm-20.19-3.61a2.6,2.6,0,0,0-.28.23c-1.6,1.6-3.19,3.21-4.8,4.78-.43.43-.13.63.14.9q5.47,5.48,11,11c.36.37.59.42,1,0,1.5-1.55,3-3.07,4.56-4.58.38-.36.41-.59,0-1q-5.53-5.49-11-11C51.56,105.28,51.44,105.08,51.16,105.09Zm3.72,20.07c-.14-.16-.25-.29-.37-.41-3.69-3.7-7.4-7.4-11.09-11.12-.45-.45-.66-.21-1,.11-1.46,1.48-2.93,3-4.42,4.42-.39.38-.49.61-.05,1.06q5.51,5.44,11,10.95c.35.35.58.47,1,.05,1.5-1.55,3-3.06,4.56-4.59C54.62,125.49,54.74,125.33,54.88,125.16ZM78.61,61.81a6.34,6.34,0,0,0-4.41,1.63C71,66.5,67.79,69.6,64.79,72.88a6.34,6.34,0,0,0-1.12,6.89c.28.79.51.93,1.18.26,5.48-5.54,11-11,16.52-16.55a1.52,1.52,0,0,1,.22-.22c.39-.32.4-.53-.11-.78A7.65,7.65,0,0,0,78.61,61.81Zm9.25,42.84.69-.66,15.81-15.82c.55-.55,1.52-1,1.49-1.7s-1-1-1.46-1.63-.85-.57-1.41,0c-5.2,5.25-10.44,10.46-15.66,15.68-1.95,2-1.95,2,.15,3.79Zm-21-45-.54.51c-1.07,1.06-2.14,2.11-3.19,3.19-.7.73-2.08,1.46-1.95,2.19.15.89,1.38,1.58,2.11,2.39.35.39.56.3.89,0q2.52-2.56,5.08-5.08c.29-.28.4-.48,0-.81-.7-.65-1.36-1.35-2-2A4.73,4.73,0,0,0,66.89,59.66Zm37.66,37.67c-.14-.16-.23-.3-.35-.42-.36-.37-.75-.71-1.08-1.1s-.59-.38-1,0c-1.33,1.37-2.7,2.71-4.06,4.06s-1.46,1.47.08,2.92c.43.41.61.32.9-.12a17.39,17.39,0,0,1,5-5Z"/><path class="cls-3" d="M138.07,116.79a48.24,48.24,0,0,1-1.43,5.4c-3.35,8.13-9.32,12.92-18,14.33a16.11,16.11,0,0,1-2.86.19,1.84,1.84,0,0,1-2-1.7,1.71,1.71,0,0,1,1.56-2,52.5,52.5,0,0,0,5.26-.77,18.68,18.68,0,0,0,13.35-15c.11-.78.17-1.56.21-2.34.05-1.35.53-2.15,1.4-2.38a2.13,2.13,0,0,1,2.47,1.2Z"/><path class="cls-3" d="M131.26,114.86a15.69,15.69,0,0,1-15.1,15c-1.43,0-2.32-.67-2.36-1.85s.77-2,2.21-2a11.69,11.69,0,0,0,11.38-11.33c.06-1.5.81-2.32,2.07-2.25S131.3,113.41,131.26,114.86Z"/><path class="cls-3" d="M113.8,121.15a1.75,1.75,0,0,1,1.67-1.86,5.18,5.18,0,0,0,5.17-5.17,1.76,1.76,0,0,1,2.07-1.65,1.91,1.91,0,0,1,1.71,2.06,8.84,8.84,0,0,1-8.55,8.54A1.91,1.91,0,0,1,113.8,121.15Z"/></g></g></svg>