<svg xmlns="http://www.w3.org/2000/svg" viewBox="0 0 176.74 176.74"><defs><style>.cls-1{fill:#fdce76;}.cls-2{fill:#fff;}.cls-3{fill:#6c2912;}</style></defs><g id="Capa_2" data-name="Capa 2"><g id="Capa_1-2" data-name="Capa 1"><circle class="cls-1" cx="88.37" cy="88.37" r="88.37"/><circle class="cls-2" cx="88.37" cy="88.37" r="75.53"/><path class="cls-3" d="M53.43,145.69c-2.66-1.16-3.67-3.23-3.45-6.06.1-1.38,0-2.77,0-4.15a4.71,4.71,0,0,1,4.75-4.77q3.36,0,6.7,0c.64,0,.86-.16.84-.83,0-1.42,0-2.84,0-4.27,0-3.27,1.87-5.13,5.13-5.19,2,0,2,0,2-2,0-3.77,0-7.54,0-11.32a1.53,1.53,0,0,0-.76-1.49,14.81,14.81,0,0,1-2.08-23.06,1.64,1.64,0,0,0,.54-1.86,31.46,31.46,0,0,1,6.18-28.56c1.88-2.37,4.9-2.49,7.14-.26q6.68,6.63,13.29,13.32a1.25,1.25,0,0,0,1.74.3c3-1.58,6.06-3.11,9.12-4.62.63-.31.74-.59.51-1.28a8.76,8.76,0,1,1,16.83-4.74A8.72,8.72,0,0,1,110.69,65.1c-.87-.28-1.16-.07-1.52.65-1.5,3.06-3,6.09-4.61,9.13a1.24,1.24,0,0,0,0,1.35,2.3,2.3,0,0,1-3.65,2.7c-1.55-1.49-3.06-3-4.58-4.56C90.13,68.22,84,62.08,77.85,55.9c-.81-.83-1.14-.66-1.74.16-5.14,7-6.52,14.81-4.62,23.32a15.22,15.22,0,0,1,11.17.2,14.78,14.78,0,0,1,8.42,18c-.3,1-.07,1.2.85,1.38a27.21,27.21,0,0,0,22.5-5.15c.54-.41.73-.69.09-1.17a4.18,4.18,0,0,1-.86-.92,2.24,2.24,0,0,1,.14-2.86,2.08,2.08,0,0,1,2.7-.57,6.52,6.52,0,0,1,3.14,3.83A4.58,4.58,0,0,1,117.88,97a31.58,31.58,0,0,1-20.63,7.18A29.29,29.29,0,0,1,89.19,103a1.24,1.24,0,0,0-1.5.43,7.2,7.2,0,0,1-2.06,1.83,2.4,2.4,0,0,0-1.3,2.5c.09,3.88.06,7.77,0,11.66,0,.8.2,1.07,1,1a12.63,12.63,0,0,1,2.3,0,4.52,4.52,0,0,1,4.09,4.39c0,1.65,0,3.31,0,5,0,.74.22.89.9.87,2,0,4.08,0,6.12,0a4.76,4.76,0,0,1,5,5c0,1.31-.09,2.62,0,3.93.22,2.83-.78,4.9-3.46,6.05Zm23.38-42.2A10.21,10.21,0,1,0,66.62,93.28,10.23,10.23,0,0,0,76.81,103.49Zm.06,37.59c7.08,0,14.16,0,21.24,0,.79,0,1.08-.18,1-1a21.91,21.91,0,0,1,0-3.34c.09-1.1-.25-1.42-1.38-1.41-13.54,0-27.08,0-40.62,0-.58,0-1.16,0-1.73,0s-.8.23-.79.82c0,1.26.07,2.54,0,3.8-.06.93.25,1.14,1.14,1.14C62.79,141.06,69.83,141.08,76.87,141.08Zm.23-16c-3.08,0-6.15,0-9.23,0-.72,0-.92.19-.89.9.06,1.3,0,2.61,0,3.92,0,.56.08.81.73.81q9.34,0,18.7,0c.55,0,.72-.17.71-.72,0-1.31-.07-2.62,0-3.93,0-.85-.27-1-1-1C83.1,125.14,80.1,125.12,77.1,125.12Zm2.62-10.86c0-1.85,0-3.69,0-5.54,0-.56,0-.83-.74-.72a13.46,13.46,0,0,1-4.25,0c-.57-.09-.73,0-.73.62q0,5.53,0,11.07c0,.64.22.79.8.77,1.38,0,2.77,0,4.15,0,.62,0,.79-.2.78-.79C79.7,117.87,79.72,116.06,79.72,114.26Zm37.64-57.51a4,4,0,1,0-8,0,4,4,0,1,0,8,0Zm-13.89,9.93c-1.81.93-3.33,1.73-4.88,2.48-.49.24-.54.4-.14.79.72.71,1.4,1.48,2.19,2.31Z"/><path class="cls-3" d="M142.75,56.12c0,1.59-.58,2.63-1.71,2.92a2.32,2.32,0,0,1-3-2.32,31,31,0,0,0-1-7,24.66,24.66,0,0,0-21.16-17.44c-.84-.07-1.68-.14-2.53-.19A2.37,2.37,0,0,1,111,29.7a2.33,2.33,0,0,1,2.42-2.26c10.43.16,18.58,4.64,24.46,13.2A28.54,28.54,0,0,1,142.75,56.12Z"/><path class="cls-3" d="M132.39,55.38c0,2.63-.65,3.6-2.07,3.7a2.26,2.26,0,0,1-2.54-2.43,14.35,14.35,0,0,0-6.74-12,13.68,13.68,0,0,0-7.39-2.21c-2,0-3.12-1.57-2.47-3.2a2.38,2.38,0,0,1,2.59-1.5,18.83,18.83,0,0,1,16.74,10.74A16.69,16.69,0,0,1,132.39,55.38Z"/><path class="cls-3" d="M109,86.12a2.24,2.24,0,0,1-2.24-2.39A2.27,2.27,0,0,1,109,81.48a2.39,2.39,0,0,1,2.35,2.35A2.36,2.36,0,0,1,109,86.12Z"/></g></g></svg>