<svg xmlns="http://www.w3.org/2000/svg" viewBox="0 0 176.74 176.74"><defs><style>.cls-1{fill:#6c2912;}.cls-2{fill:#fff;}.cls-3{fill:#6c2910;}</style></defs><g id="Capa_2" data-name="Capa 2"><g id="Capa_1-2" data-name="Capa 1"><circle class="cls-1" cx="88.37" cy="88.37" r="88.37"/><circle class="cls-2" cx="88.37" cy="88.37" r="75.53"/><path class="cls-3" d="M111.44,65.08c0,9.31,0,18.16,0,27,0,.61.14.85.77.77a5,5,0,0,1,1.22,0c.6.08.7-.18.69-.72,0-2.48,0-5,0-7.44a1.65,1.65,0,0,1,1.85-1.86c.57,0,1.15,0,1.73,0s.58-.12.58-.57c0-1.93,0-3.85,0-5.78,0-1.39.6-2,2-2H136.3c1.36,0,1.95.58,1.95,2,0,1.93,0,3.85,0,5.78,0,.52.16.67.65.63s1,0,1.47,0c1.5,0,2.07.58,2.07,2.11V97.71c0,1.09,0,2.18,0,3.27a1.71,1.71,0,0,1-1.91,1.89c-.55,0-1.11,0-1.67,0s-.62.12-.61.61c0,3.1,0,6.19,0,9.29,0,1,0,1-1,1.16-.53.07-1.06.16-1.58.27-.75.14-.75.15-.75-.64,0-3.27,0-6.54,0-9.81,0-1,.12-.87-.9-.87H88.94c-.57,0-.74.14-.71.71q.06,1.44,0,2.88c0,.5.16.6.62.6,3.61,0,7.23,0,10.84,0a1.67,1.67,0,0,1,1.86,1.39,1.64,1.64,0,0,1-1.68,1.95c-1.09,0-2.18,0-3.27,0-2.59,0-5.18,0-7.76,0-.49,0-.63.14-.61.62,0,.74,0,1.49,0,2.24,0,.39-.12.52-.51.53a13.91,13.91,0,0,0-2.24.17c-.59.12-.62-.12-.62-.58,0-3.14,0-6.28,0-9.43a5.42,5.42,0,0,1,0-.57c.06-.41-.13-.51-.51-.5-.66,0-1.32,0-2,0a1.62,1.62,0,0,1-1.64-1.69q0-3.33,0-6.67a1.69,1.69,0,0,1,1.68-1.66q3,0,6.09,0c.46,0,.57-.13.57-.58,0-3.61,0-7.22,0-10.83,0-1.36.58-2,2-2,2.69,0,5.38,0,8.08,0,.55,0,.66-.16.66-.68q0-14,0-27.95c0-1.26,0-2.52,0-3.78,0-.44-.12-.59-.57-.58-1.43,0-2.86,0-4.29,0q-15.84,0-31.67,0c-.64,0-.91.12-.85.83a17,17,0,0,1,0,2.37c0,.46.15.57.58.56.88,0,1.76,0,2.63,0a1.69,1.69,0,0,1,1.8,1.82c0,1.45,0,2.9,0,4.36,0,.39.11.53.51.51.6,0,1.2,0,1.79,0a1.74,1.74,0,0,1,1.87,1.84c0,2.16,0,4.32,0,6.47A1.61,1.61,0,0,1,69.81,67H51.66a1.65,1.65,0,0,1-1.78-1.76q0-3.24,0-6.47A1.68,1.68,0,0,1,51.7,57c.62,0,1.25,0,1.86,0,.39,0,.52-.1.52-.5,0-1.43,0-2.87,0-4.3a1.67,1.67,0,0,1,1.84-1.88c.9,0,1.79,0,2.69,0,.37,0,.48-.12.48-.48,0-.88,0-1.75,0-2.63,0-.49-.11-.65-.63-.65-2.4,0-4.79,0-7.18,0H49.09a1.65,1.65,0,0,1-1.84-1.63,68.36,68.36,0,0,1,0-7.3c0-.4,0-.81,0-1.21a1.61,1.61,0,0,1,1.52-1.54c.22,0,.43,0,.64,0H98.86c1.08,0,.88.06.89-.87a2,2,0,0,1,.34-1.21,1.66,1.66,0,0,1,3,.93c.06,1.15.06,1.15,1.21,1.15s2.14,0,3.21,0c.42,0,.63-.09.58-.56a2.89,2.89,0,0,1,0-.83,1.67,1.67,0,0,1,3.31.23c0,1.15,0,1.15,1.2,1.15,2.6,0,5.21,0,7.82,0a1.66,1.66,0,0,1,1.7,1.65,1.71,1.71,0,0,1-1.61,1.69H120c-2.58,0-5.17,0-7.76,0-.59,0-.79.12-.79.76,0,5.73,0,11.46,0,17.19C111.44,59.26,111.35,62.4,111.44,65.08Zm-8.34.45q0,13.31,0,26.61c0,.54.1.75.69.72a34.63,34.63,0,0,1,3.53,0c.67,0,.8-.19.8-.82q0-20.42,0-40.84c0-4.1,0-8.2,0-12.31,0-.61-.19-.75-.75-.73-1.15,0-2.31,0-3.46,0-.65,0-.82.16-.81.81Q103.12,52.26,103.1,65.53Zm8.5,34h26.55a4.34,4.34,0,0,1,.51,0c.33,0,.45-.1.44-.44,0-.75,0-1.5,0-2.24,0-.55-.16-.67-.68-.67-4.42,0-8.84,0-13.26,0H84.91c-.11,0-.22,0-.32,0-.39,0-.53.09-.52.5a16.51,16.51,0,0,1,0,2.11c0,.59.15.74.73.74Q98.21,99.51,111.6,99.53ZM92.42,87.8c0,1.49,0,3,0,4.48,0,.43.1.58.56.58,2.08,0,4.15,0,6.22,0,.44,0,.58-.11.58-.57q0-4.46,0-8.91c0-.41-.1-.55-.53-.54q-3.14,0-6.28,0c-.41,0-.55.11-.54.53C92.43,84.85,92.42,86.32,92.42,87.8ZM60.75,63.62h7c.26,0,.51.05.5-.36,0-.81,0-1.62,0-2.43,0-.4-.11-.55-.55-.54-1.72,0-3.45,0-5.18,0-2.9,0-5.81,0-8.71,0-.44,0-.6.11-.58.57,0,.72,0,1.45,0,2.17,0,.49.14.61.61.61C56.14,63.61,58.44,63.62,60.75,63.62ZM139.1,89.46c0-.94,0-1.88,0-2.81,0-.37-.12-.48-.48-.48-1.36,0-2.73,0-4.09,0-.33,0-.45.1-.44.44,0,1.92,0,3.84,0,5.77,0,.35.09.48.46.48,1.35,0,2.7,0,4,0,.4,0,.52-.12.51-.51C139.08,91.39,139.1,90.42,139.1,89.46Zm-21.67,0c0,.94,0,1.88,0,2.82,0,.4.09.56.53.55,1.32,0,2.65,0,4,0,.38,0,.52-.09.51-.5,0-1.88,0-3.76,0-5.64,0-.4-.09-.56-.53-.55-1.32,0-2.64,0-4,0-.38,0-.52.09-.51.5C117.45,87.61,117.43,88.55,117.43,89.49Zm13.33,0c0-.92,0-1.84,0-2.75,0-.4-.08-.57-.52-.56-1.33,0-2.65,0-4,0-.37,0-.52.09-.51.5q0,2.85,0,5.7c0,.42.16.49.52.48,1.33,0,2.65,0,4,0,.45,0,.53-.17.52-.56C130.75,91.36,130.76,90.42,130.76,89.48ZM80.57,38.21l0,.14c2.08,1.36,4.17,2.73,6.25,4.11.31.21.51.06.75-.07l6.93-3.87c.12-.06.29-.08.32-.31Zm-10.35,0H55.66c2.63,1.47,5.1,2.84,7.55,4.22.31.18.51.06.75-.1l4-2.6Zm11.38,4.9c-.07-.1-.09-.16-.14-.19-1.94-1.27-3.89-2.54-5.82-3.83-.31-.21-.5-.09-.74.07q-2.27,1.5-4.55,3l-1.46,1Zm45,37.14h0c0-.66,0-1.32,0-2,0-.36-.1-.48-.47-.48-1.34,0-2.69,0-4,0-.34,0-.5.08-.49.46,0,1.37,0,2.74,0,4.11,0,.32.11.45.45.44,1.36,0,2.73,0,4.1,0,.39,0,.46-.17.45-.5C126.56,81.66,126.57,81,126.57,80.29Zm8.34.07c0-.68,0-1.37,0-2,0-.34-.09-.48-.46-.48-1.37,0-2.73,0-4.09,0-.33,0-.46.1-.45.44,0,1.38,0,2.77,0,4.15,0,.35.15.43.46.42,1.36,0,2.73,0,4.09,0,.33,0,.45-.1.45-.44C134.9,81.72,134.91,81,134.91,80.36ZM60.69,57c1,0,2,0,2.94,0,.33,0,.46-.09.45-.43,0-.81,0-1.62,0-2.43,0-.37-.13-.48-.48-.48-1.92,0-3.84,0-5.76,0-.33,0-.45.1-.44.43q0,1.22,0,2.43c0,.37.11.48.48.47C58.81,56.93,59.75,57,60.69,57Zm-3.4-13.76.06-.15-6.46-3.6c-.27-.15-.37-.1-.37.22,0,1.05,0,2.09,0,3.14,0,.26.08.39.36.39Zm36-.15,0,.15h6c.18,0,.37,0,.37-.25v-3.5Z"/><path class="cls-3" d="M74.07,95C73,94.47,72,94,71,93.56c-.33-.14-.26-.4-.26-.64,0-2.55,0-5.09,0-7.63,0-.68-.2-.82-.82-.79-1.18,0-2.35,0-3.53,0-.52,0-.69.11-.68.66,0,1.8,0,3.59,0,5.39,0,.53-.14.55-.56.34-.74-.38-1.5-.73-2.27-1a.72.72,0,0,1-.53-.8c0-1.31,0-2.61,0-3.91,0-.46-.08-.64-.59-.63-1.3,0-2.6,0-3.91,0-.37,0-.53.08-.51.49,0,.62,0,1.24,0,1.86,0,.32-.09.42-.4.33a4.66,4.66,0,0,0-2.54,0c-.31.08-.42,0-.41-.33,0-.62,0-1.24,0-1.86,0-.33-.06-.5-.45-.49-1.37,0-2.73,0-4.1,0-.39,0-.46.15-.46.49,0,1.37,0,2.73,0,4.1,0,.23.06.46-.24.59-1,.45-2,.93-3.1,1.43V88.93c0-1.3,0-2.6,0-3.91,0-.38-.09-.52-.5-.52-1.34,0-2.69,0-4,0-.38,0-.49.09-.49.51,0,2.62,0,5.25,0,7.88a.7.7,0,0,1-.48.77c-.94.39-1.85.84-2.87,1.31V90.86c0-2.61,0-5.21,0-7.82a1.65,1.65,0,0,1,1.84-1.87c.55,0,1.11,0,1.66,0s.66-.12.66-.64c0-2.45,0-4.91,0-7.37,0-1.41.61-2,2-2H67.8c1.54,0,2.1.55,2.1,2.07,0,2.44,0,4.87,0,7.31,0,.5.12.68.64.65a17.74,17.74,0,0,1,1.93,0,1.57,1.57,0,0,1,1.6,1.52C74.09,86.75,74.07,90.8,74.07,95ZM58.21,77.87c0-1,0-1.92,0-2.89,0-.33-.06-.5-.45-.49-1.37,0-2.74,0-4.1,0-.33,0-.45.11-.45.44,0,1.93,0,3.85,0,5.77,0,.37.13.48.49.47,1.35,0,2.69,0,4,0,.37,0,.48-.13.47-.48C58.2,79.75,58.22,78.81,58.21,77.87Zm-13.32,0c0,.94,0,1.88,0,2.82,0,.33.07.5.46.49,1.36,0,2.73,0,4.1,0,.34,0,.44-.13.43-.45,0-1.92,0-3.84,0-5.76,0-.37-.13-.47-.49-.47-1.34,0-2.69,0-4,0-.36,0-.48.12-.48.48C44.9,75.93,44.89,76.89,44.89,77.86Zm16.67-.06c0,1,0,1.92,0,2.88,0,.35.09.5.46.49q2.05,0,4.11,0c.35,0,.43-.14.43-.46q0-2.88,0-5.76c0-.32-.08-.46-.43-.46-1.37,0-2.74,0-4.1,0-.37,0-.48.13-.47.48C61.58,75.91,61.56,76.85,61.56,77.8Z"/><path class="cls-3" d="M57.41,101.36v.91c0,3.82,0,7.65,0,11.47,0,.48-.14.68-.61.77-.63.11-1.24.29-1.87.43-.87.2-.87.2-.87-.73V102.09c0-.79,0-.79-.72-.45-3.76,1.73-7.52,3.48-11.29,5.2-.46.21-.51.39-.34.85.82,2.24,1.6,4.5,2.43,6.83-1-.19-2-.43-2.93-.53a1.19,1.19,0,0,1-1.17-1c-1.35-3.89-2.75-7.77-4.13-11.65A1.75,1.75,0,0,1,37,98.82l17.73-8.2a2.25,2.25,0,0,1,2,0q8.82,4.11,17.68,8.17a1.78,1.78,0,0,1,1.09,2.63c-1.5,4.23-3,8.45-4.49,12.68-.18.53-.38.71-.94.52a15.72,15.72,0,0,0-2-.5c-.43-.09-.48-.24-.34-.64.71-2,1.37-3.91,2.07-5.86.13-.36.13-.55-.27-.74-3.92-1.79-7.84-3.61-11.75-5.41A1.75,1.75,0,0,0,57.41,101.36Zm-3.34-6.73L51,96.07c-3.64,1.68-7.28,3.37-10.93,5-.46.21-.53.42-.34.86a8.32,8.32,0,0,1,.51,1.45c.12.46.3.48.71.3,4.25-2,8.52-3.93,12.78-5.89a.57.57,0,0,0,.39-.58C54.05,96.41,54.07,95.58,54.07,94.63Zm3.34,0c0,.88,0,1.66,0,2.44a.7.7,0,0,0,.49.77c1.35.59,2.68,1.22,4,1.84,2.88,1.33,5.77,2.65,8.65,4,.42.2.58.13.7-.31a10.29,10.29,0,0,1,.52-1.44c.2-.45.1-.65-.35-.86-4.1-1.87-8.18-3.77-12.27-5.65Z"/><path class="cls-3" d="M128.23,122.08a28.43,28.43,0,0,1-7.73-1,22.2,22.2,0,0,0-11.47.07,26.51,26.51,0,0,1-13.81.06,24,24,0,0,0-12.53.05,25.38,25.38,0,0,1-13.12,0,24.13,24.13,0,0,0-12.54,0,25.88,25.88,0,0,1-13.42,0,23.14,23.14,0,0,0-6.08-.82,1.67,1.67,0,1,1,0-3.34,24.58,24.58,0,0,1,6.77.88,22.82,22.82,0,0,0,12,0,26.22,26.22,0,0,1,13.62-.07,24.13,24.13,0,0,0,12.54,0,26,26,0,0,1,13.5,0,23.87,23.87,0,0,0,12.47-.07,25.38,25.38,0,0,1,13.12,0,24.06,24.06,0,0,0,12.85-.06,22.44,22.44,0,0,1,6.21-.76,1.68,1.68,0,1,1,0,3.34,26,26,0,0,0-7.07,1.08A23.41,23.41,0,0,1,128.23,122.08Z"/><path class="cls-3" d="M127.6,130.42a25.73,25.73,0,0,1-6.83-.93,22.49,22.49,0,0,0-11.66,0,26.77,26.77,0,0,1-14,.06,23.69,23.69,0,0,0-12.34.05,25.39,25.39,0,0,1-13.18,0,24.1,24.1,0,0,0-12.53,0,26.2,26.2,0,0,1-13.81-.06,21,21,0,0,0-5.69-.74,1.67,1.67,0,0,1-1.84-1.69,1.65,1.65,0,0,1,1.8-1.65,24.52,24.52,0,0,1,6.71.86,22.86,22.86,0,0,0,12.09,0,26.5,26.5,0,0,1,13.75,0,24.59,24.59,0,0,0,12.77-.14,25.14,25.14,0,0,1,13,.12,22,22,0,0,0,11.46.18,29.1,29.1,0,0,1,15.19,0,22.27,22.27,0,0,0,11.9-.28,21.79,21.79,0,0,1,6.28-.75,1.66,1.66,0,1,1,0,3.32,23,23,0,0,0-6.07.83A24.74,24.74,0,0,1,127.6,130.42Z"/><path class="cls-3" d="M127.43,138.76a25.28,25.28,0,0,1-6.68-.92,22.35,22.35,0,0,0-11.65,0,27.09,27.09,0,0,1-14.13,0,22.83,22.83,0,0,0-11.89,0,26.62,26.62,0,0,1-13.81,0,23.36,23.36,0,0,0-12.28,0,25.93,25.93,0,0,1-13.49,0,22.62,22.62,0,0,0-6-.79,1.67,1.67,0,1,1,0-3.34,25.57,25.57,0,0,1,7,.92,22.37,22.37,0,0,0,11.6,0,27.19,27.19,0,0,1,14.24,0,22.56,22.56,0,0,0,11.79,0,26,26,0,0,1,13.48-.09,24.55,24.55,0,0,0,12.79,0,25.39,25.39,0,0,1,13.18,0,23.46,23.46,0,0,0,12.47,0,23.1,23.1,0,0,1,6.52-.82,1.68,1.68,0,0,1,1.86,1.66,1.65,1.65,0,0,1-1.8,1.66,24.21,24.21,0,0,0-6.44.93A23.78,23.78,0,0,1,127.43,138.76Z"/><path class="cls-3" d="M50.73,110.42A1.7,1.7,0,0,1,49,112.06a1.67,1.67,0,0,1-1.62-1.72,1.64,1.64,0,0,1,1.7-1.63A1.67,1.67,0,0,1,50.73,110.42Z"/><path class="cls-3" d="M64,110.45a1.64,1.64,0,1,1-3.28-.13,1.62,1.62,0,0,1,1.7-1.61A1.67,1.67,0,0,1,64,110.45Z"/></g></g></svg>