<svg xmlns="http://www.w3.org/2000/svg" viewBox="0 0 176.74 176.74"><defs><style>.cls-1{fill:#c98b5f;}.cls-2{fill:#fff;}.cls-3{fill:#6c2910;}</style></defs><g id="Capa_2" data-name="Capa 2"><g id="Capa_1-2" data-name="Capa 1"><circle class="cls-1" cx="88.37" cy="88.37" r="88.37"/><circle class="cls-2" cx="88.37" cy="88.37" r="75.53"/><path class="cls-3" d="M127.72,69.15c0-1.52,0-2.86,0-4.19,0-.66-.47-.73-.84-1a4.69,4.69,0,1,1,6.77-5.82,4.55,4.55,0,0,1-1.78,5.71,1.74,1.74,0,0,0-.92,1.79c0,7.23,0,14.47,0,21.7,0,1-.21,1.47-1.35,1.38A6,6,0,0,0,125,90.43a3.8,3.8,0,0,0-1.31,2.7,5.4,5.4,0,0,1-3.13,4.93,3.92,3.92,0,0,0-2,2.25A6.91,6.91,0,0,1,116,103.6c-.51.36-.83.34-1.07-.26a3.74,3.74,0,0,0-.34-.62c-.6-.87-1-1.64.24-2.39a2.79,2.79,0,0,0,.85-1.39,6.35,6.35,0,0,1,3.21-3.63,2.69,2.69,0,0,0,1.59-2.42c.38-3.82,2.82-5.91,6.28-7,.51-.17,1.07-.17,1-1,0-.68-.1-1.13-.88-1.41a171.92,171.92,0,0,0-32.29-8.25C85.68,73.78,77,75.06,68.38,77a171.47,171.47,0,0,0-22.95,6.65c-.53.2-1.25.21-1.22,1.16,0,.76.15,1.15,1,1.4,3.64,1.1,6.06,3.37,6.34,7.36.09,1.2.88,1.69,1.74,2.18a8.8,8.8,0,0,1,4.57,6.17,7.71,7.71,0,0,1-.32,4.31c-.27.73-.06,1,.59,1.33.84.4.86-.33,1.05-.69,4.79-9,12.36-14.91,21.56-18.93a13.06,13.06,0,0,1,10.69-.06c8.66,3.62,15.76,9.1,20.63,17.24.45.74.67,1.85,1.3,2.16s1.47-.49,2.25-.75a13.37,13.37,0,0,1,4.9-.64,2.7,2.7,0,0,0,2.72-1.43,8.53,8.53,0,0,1,6.72-4.3c.8-.08,1.22.1,1.09,1a1.29,1.29,0,0,0,0,.48c.16,1.17-.09,1.83-1.53,1.93a4.42,4.42,0,0,0-3.51,2.56c-1.24,2.44-3.31,3.1-5.8,3a9.38,9.38,0,0,0-5.54,1.37,5.2,5.2,0,0,0-2.43,3.36c-.19.87,0,1.18,1,1.26a26.87,26.87,0,0,0,5.52-.58,20.23,20.23,0,0,1,6.72.26,12.76,12.76,0,0,0,4.35.25c.72-.09,1,.09,1.11.78.53,2.57,1,2.2-1.77,2.52a10.54,10.54,0,0,1-3.54-.24,20,20,0,0,0-8.57,0,13.29,13.29,0,0,1-5.65,0,19.55,19.55,0,0,0-8.34,0,12,12,0,0,1-5.07.11,22.38,22.38,0,0,0-9.74,0,9.44,9.44,0,0,1-4.13,0,24.47,24.47,0,0,0-10.57,0,10.29,10.29,0,0,1-4.35-.14,20.1,20.1,0,0,0-8.7,0,13.05,13.05,0,0,1-5.53,0,19.71,19.71,0,0,0-8.34,0,15.08,15.08,0,0,1-5.19.14c-.64-.09-.76-.35-.65-1,.4-2.16.38-2.21,2.59-2.12a31.15,31.15,0,0,0,4.81-.6,21.06,21.06,0,0,1,6.72.26,18,18,0,0,0,3.88.32c1,0,1.2-.46.93-1.34a5.47,5.47,0,0,0-2.77-3.25,8.77,8.77,0,0,0-4.19-1.11,17.93,17.93,0,0,1-3.19-.2,4,4,0,0,1-2.94-2c-1.14-2-2.6-3.5-5.07-3.6-.46,0-.53-.31-.57-.72-.23-2.58.11-2.89,2.61-2.22a8.29,8.29,0,0,1,5.14,3.93,2.68,2.68,0,0,0,2.78,1.52,9.51,9.51,0,0,1,1.19,0c1.62.06,1.78-.06,2-1.67a5.33,5.33,0,0,0-2.44-5.62c-.43-.28-.87-.56-1.31-.82a4.65,4.65,0,0,1-2.55-4.14c.08-2.65-2.65-4.77-5.44-4.91-2-.09-1.94-.1-1.94-2,0-6.87,0-13.75,0-20.62a1.55,1.55,0,0,0-.83-1.6,4.6,4.6,0,0,1-2-5.34,4.84,4.84,0,0,1,4.57-3.33,4.74,4.74,0,0,1,4.44,3.49,4.55,4.55,0,0,1-2.1,5.2,1.39,1.39,0,0,0-.81,1.49,23,23,0,0,1,0,2.49c0,.75.26.75.83.52a129.83,129.83,0,0,1,16.84-5.6c.61-.17.86-.42.81-1a11.5,11.5,0,0,1,0-1.66,3.23,3.23,0,0,0-1.47-3.44c-2.17-1.47-2.16-4.78-.3-6.71A4.69,4.69,0,0,1,67.8,51a4.53,4.53,0,0,1-.6,6.71,2.78,2.78,0,0,0-1.32,2.8c.09,2.14,0,2.15,2.13,1.67a106.07,106.07,0,0,1,15.53-2.54c.6,0,.86-.22.82-.83a17,17,0,0,1,0-2.14,3.27,3.27,0,0,0-1.51-3.4c-2.2-1.51-2.15-4.9-.21-6.8a4.72,4.72,0,0,1,6.86.32,4.63,4.63,0,0,1-.85,6.79,2,2,0,0,0-1.05,2.1,28.77,28.77,0,0,1,0,3.08c0,.59.18.83.81.85a92.92,92.92,0,0,1,16.77,2.19c.72.15.93,0,.89-.71a8.42,8.42,0,0,1,0-1.42,1.47,1.47,0,0,0-.86-1.6,4.59,4.59,0,0,1-2-5.34,4.68,4.68,0,0,1,9,0A4.54,4.54,0,0,1,110.07,58a1.58,1.58,0,0,0-.83,1.62c0,3,0,3,2.82,3.79a107.83,107.83,0,0,1,14.58,5.25C126.92,68.83,127.21,68.94,127.72,69.15Zm-20.88,45.22a5.75,5.75,0,0,1,.83,0c.92.16,1.34-.12,1.39-1.13a4.25,4.25,0,0,1,.9-2.41,2,2,0,0,0,.11-2.57C105.46,99.44,98.12,93.85,89,90.42a8.62,8.62,0,0,0-6.47.28c-9.06,3.73-16.34,9.5-20.87,18.38a1.22,1.22,0,0,0,.05,1.5,6.19,6.19,0,0,1,1.25,3c.08.7.41.8,1,.76a16.49,16.49,0,0,1,4.6.29,15.25,15.25,0,0,0,6.69,0,18.84,18.84,0,0,1,7.77.06,14,14,0,0,0,6,0,18.75,18.75,0,0,1,6.72-.21c2.38.36,4.74.9,7.16.27A16.21,16.21,0,0,1,106.84,114.37Zm-.78-44.69c0-1.18,0-2.36,0-3.54,0-.6-.14-1-.78-1.09a104,104,0,0,0-16.84-2.31c-.75,0-.85.27-.85.89,0,2.24,0,4.49,0,6.74,0,.76.21,1,1,1,1.61.07,3.22.22,4.83.4a109.28,109.28,0,0,1,11.64,2c.8.18,1.06,0,1-.82C106,71.89,106.06,70.79,106.06,69.68ZM84.35,67.11c0-1,0-2.06,0-3.08s-.12-1.29-1.21-1.19a120.21,120.21,0,0,0-16.43,2.9.9.9,0,0,0-.83,1.05c0,2.13,0,4.27,0,6.4,0,.91.34,1,1.06.8a100.35,100.35,0,0,1,16.6-2.57c.62,0,.82-.27.81-.87C84.32,69.4,84.35,68.26,84.35,67.11Zm43.38,9.41c0-1,0-2,0-3a1.1,1.1,0,0,0-.76-1.17,108.49,108.49,0,0,0-16.77-6.12c-.71-.2-1,0-1,.75,0,2.29,0,4.58,0,6.87,0,.6.15.93.78,1.08A155,155,0,0,1,126.89,80c.61.23.87.16.84-.55C127.7,78.49,127.72,77.5,127.73,76.52Zm-65-5.22c0-1.36,0-2.46,0-3.57,0-.65-.11-1-.86-.74a140.83,140.83,0,0,0-16.8,5.72,1.19,1.19,0,0,0-.82,1.34c0,1.81,0,3.63,0,5.45,0,.89.18,1.07,1.06.74,4.47-1.68,9-3,13.66-4.29,1.21-.33,2.82-.33,3.53-1.12S62.6,72.34,62.7,71.3ZM84.48,49.73a1.45,1.45,0,0,0,1.46,1.5,1.45,1.45,0,1,0-.1-2.9A1.37,1.37,0,0,0,84.48,49.73Zm23.16,2.88A1.43,1.43,0,0,0,106.2,54a1.45,1.45,0,0,0,1.48,1.51,1.37,1.37,0,0,0,1.42-1.44C109.1,53.2,108.58,52.7,107.64,52.61ZM127.9,60a1.42,1.42,0,0,0,1.44,1.41,1.45,1.45,0,0,0,1.44-1.54,1.44,1.44,0,0,0-2.88.13ZM64.29,52.62a1.41,1.41,0,0,0-1.44,1.46,1.45,1.45,0,0,0,1.56,1.43A1.4,1.4,0,0,0,65.75,54,1.37,1.37,0,0,0,64.29,52.62Zm-21.62,6.7a1.38,1.38,0,0,0-1.48,1.37,1.33,1.33,0,0,0,1.32,1.51A1.36,1.36,0,0,0,44,60.8,1.39,1.39,0,0,0,42.67,59.32Z"/><path class="cls-3" d="M100,126.22a19,19,0,0,1-4.41-.56,17.24,17.24,0,0,0-6.12.18,15.35,15.35,0,0,1-6.81,0,16.17,16.17,0,0,0-7.06-.06,19,19,0,0,1-8-.08,16.33,16.33,0,0,0-6.71.19,14,14,0,0,1-6.11,0,18.6,18.6,0,0,0-8.1,0,15.15,15.15,0,0,1-5.07.19c-.77-.09-1.08-.3-.84-1.2.55-2,.49-2,2.54-1.9,1.88.1,3.66-.54,5.51-.68a22.59,22.59,0,0,1,6.36.38,12.34,12.34,0,0,0,5.17,0,21.57,21.57,0,0,1,9,0,11.54,11.54,0,0,0,4.93,0,21.83,21.83,0,0,1,9.28,0,10.7,10.7,0,0,0,4.71,0,21.87,21.87,0,0,1,9.39,0,11.16,11.16,0,0,0,4.71,0,22.23,22.23,0,0,1,9.4,0,11.15,11.15,0,0,0,4.81,0,21.55,21.55,0,0,1,8.94,0,10.75,10.75,0,0,0,4,.23c.84-.14,1.16.11,1.35,1,.52,2.27.57,2.26-1.75,2.35a17.19,17.19,0,0,1-4.35-.38,17.63,17.63,0,0,0-7.41,0,15,15,0,0,1-6.57,0,17.63,17.63,0,0,0-7.41,0A13.18,13.18,0,0,1,100,126.22Z"/><path class="cls-3" d="M61.69,89c-2.1,0-1.83.27-1.85-1.79,0-1.44,0-1.45,1.71-1.44s1.36-.16,1.54,1.87C63.23,89.16,62.4,89.08,61.69,89Z"/><path class="cls-3" d="M110.54,91.75c0-1.86-.2-1.59,1.79-1.58,1.57,0,1.41-.3,1.45,1.68,0,.9.12,1.66-1.26,1.56C110.55,93.28,110.54,93.37,110.54,91.75Z"/><path class="cls-3" d="M94.63,79.14c0,2,.25,1.87-1.51,1.85-2,0-1.6.34-1.76-1.91-.13-1.75,1-1.15,1.9-1.29C94.59,77.57,94.85,78.23,94.63,79.14Z"/><path class="cls-3" d="M98.66,110.49c-3.66-1.19-8.12-.66-12.59,0a8.81,8.81,0,0,1-3-.33,17.94,17.94,0,0,0-7.65,0,13.07,13.07,0,0,1-5.87,0,12.55,12.55,0,0,0-3-.38c-.67,0-.85-.25-.87-.91-.06-2.53,0-2.67,2.46-2.2a19.26,19.26,0,0,0,8.21.08,13.4,13.4,0,0,1,6,0,17.49,17.49,0,0,0,7.62,0,14.56,14.56,0,0,1,6.13,0,13.9,13.9,0,0,0,6.9,0,7.51,7.51,0,0,1,1.06-.15c2.41-.35,3,.28,2.39,2.65-.08.34-.25.48-.55.47C103.66,109.73,101.62,110.58,98.66,110.49Z"/><path class="cls-3" d="M98.38,102.61a21.77,21.77,0,0,1-2.49-.28,17,17,0,0,0-7,0,14.51,14.51,0,0,1-5.87,0,17.37,17.37,0,0,0-7.18,0,14.2,14.2,0,0,1-4.6.14c-.6-.07-.8-.29-.69-.93.36-2.16.36-2.19,2.54-2.15A20.06,20.06,0,0,0,76.42,99a18.08,18.08,0,0,1,7.18.18c2.2.55,4.32,0,6.46-.28a18,18,0,0,1,6.12.24,10,10,0,0,0,3.77.21c.67-.13.87.09,1,.71.67,2.46.7,2.45-1.8,2.58C99,102.62,98.79,102.61,98.38,102.61Z"/></g></g></svg>