<svg xmlns="http://www.w3.org/2000/svg" viewBox="0 0 176.74 176.74"><defs><style>.cls-1{fill:#c98b5f;}.cls-2{fill:#fff;}.cls-3{fill:#e41e1b;}.cls-4{fill:#6c2912;}.cls-5{fill:#010202;}</style></defs><g id="Capa_2" data-name="Capa 2"><g id="Capa_1-2" data-name="Capa 1"><circle class="cls-1" cx="88.37" cy="88.37" r="88.37"/><circle class="cls-2" cx="88.37" cy="88.37" r="75.53"/><path class="cls-3" d="M100.15,78.67c-1,.81-1.81,1.76-2.71,2.65l-5.75,5.74a10.78,10.78,0,0,0-1.13,1.11l-6.51,6.47c-1.25,1.24-2.5,2.47-3.72,3.73-1,1-2.07,1.95-3,3l-.22.13-.06,0-.19.18h0a.43.43,0,0,1-.25.26h0l-.13.13h0l-.13.13h0l-.22.23c-.06.26-.45.19-.48.47-1.35,1.51-2.83,2.9-4.26,4.33Q62.75,116,54,124.72a3.19,3.19,0,0,1-3.7.83A3.69,3.69,0,0,1,48,122a3.1,3.1,0,0,1,1-2.12L71.2,97.71c.17-.17.32-.37.48-.55A1.61,1.61,0,0,0,72,97c2.44-2.42,4.86-4.85,7.29-7.29a1.14,1.14,0,0,0,.37-.54,47.13,47.13,0,0,0,4-3.86c2.67-2.65,5.33-5.32,8-8,.12-.13.23-.28.35-.42a6.86,6.86,0,0,0,.65-.56c2.19-2.19,4.38-4.37,6.55-6.59A9.2,9.2,0,0,0,100.76,68a22,22,0,0,0,2.56-2.45c1.77-1.73,3.5-3.49,5.25-5.24.05-.05.09-.13.14-.19l4.74-4.7c1-1,1.91-1.94,2.86-2.91,1.43-1.41,2.86-2.81,4.28-4.23,1.25-1.24,2.48-2.5,3.74-3.73a3.48,3.48,0,0,1,5,4.83c-2.14,2.2-4.33,4.35-6.5,6.52-.14.14-.33.25-.37.47a7.06,7.06,0,0,0-1,.92c-1.54,1.54-3.1,3.05-4.59,4.62-.53.55-1.22,1-1.53,1.71-.23,0-.36.17-.5.32q-2.89,2.87-5.78,5.74c-.39.39-.75.81-1.12,1.22a2.44,2.44,0,0,0-.7.58c-1.76,1.75-3.54,3.5-5.27,5.28A10.69,10.69,0,0,0,100.15,78.67Z"/><path class="cls-4" d="M116.31,52.55c-1,1-1.9,2-2.86,2.91l-4.74,4.7A45,45,0,0,0,96.44,56.6,46.51,46.51,0,0,0,77.8,57.67,51.4,51.4,0,0,0,57,68.8c-.82.71-1.61,1.45-2.41,2.2a4.61,4.61,0,0,1-5.63.79A5,5,0,0,1,48.05,64a61.42,61.42,0,0,1,26.72-16.1,54.64,54.64,0,0,1,41.54,4.64Z"/><path class="cls-4" d="M100.76,68a9.2,9.2,0,0,1-1.57,1.67c-2.17,2.22-4.36,4.4-6.55,6.59a6.86,6.86,0,0,1-.65.56,30.71,30.71,0,0,0-13.4,1.76,34.83,34.83,0,0,0-11.59,7,4.47,4.47,0,0,1-4.78,1,5,5,0,0,1-1.62-8.2,43.42,43.42,0,0,1,17.07-10.2A38.62,38.62,0,0,1,100.76,68Z"/><path class="cls-4" d="M89.11,106.2A8.75,8.75,0,1,1,80.36,115,8.74,8.74,0,0,1,89.11,106.2Z"/><path class="cls-4" d="M77.36,101.42c.9-1.1,2-2,3-3,1.22-1.26,2.47-2.49,3.72-3.73l6.51-6.47a10.78,10.78,0,0,1,1.13-1.11,11.1,11.1,0,0,0,1.91.36,24,24,0,0,1,10.3,4.78,4.92,4.92,0,0,1,1.72,5.38,5.07,5.07,0,0,1-4.43,3.69,4.46,4.46,0,0,1-3-.89,15.62,15.62,0,0,0-8.37-3,16.18,16.18,0,0,0-10.49,3.13A4.52,4.52,0,0,1,77.36,101.42Z"/><path class="cls-4" d="M100.15,78.67a10.69,10.69,0,0,1,1.75-1.87c1.73-1.78,3.51-3.53,5.27-5.28a2.44,2.44,0,0,1,.7-.58,43.47,43.47,0,0,1,9.24,6.63,5.09,5.09,0,0,1-2.23,8.68,4.5,4.5,0,0,1-4.19-1.18A32.84,32.84,0,0,0,100.15,78.67Z"/><path class="cls-4" d="M115.27,63.66c.31-.75,1-1.16,1.53-1.71,1.49-1.57,3-3.08,4.59-4.62a7.06,7.06,0,0,1,1-.92,56.83,56.83,0,0,1,7.9,6.79,5,5,0,0,1,.46,6.08,4.67,4.67,0,0,1-5.54,2,4.29,4.29,0,0,1-1.61-1A52.35,52.35,0,0,0,115.27,63.66Z"/><path class="cls-4" d="M79.64,89.12a1.14,1.14,0,0,1-.37.54C76.84,92.1,74.42,94.53,72,97a1.61,1.61,0,0,1-.3.21,5,5,0,0,1,2-4.62,28.18,28.18,0,0,1,5.14-3.21A1.85,1.85,0,0,1,79.64,89.12Z"/><path class="cls-5" d="M75.71,103c0-.28.42-.21.48-.47Z"/><path class="cls-5" d="M77.08,101.6l.06,0Z"/><path class="cls-5" d="M76.9,101.77h0Z"/><path class="cls-5" d="M76.66,102h0Z"/><path class="cls-5" d="M76.54,102.15h0Z"/><path class="cls-5" d="M76.41,102.27h0Z"/></g></g></svg>