<svg xmlns="http://www.w3.org/2000/svg" viewBox="0 0 176.74 176.74"><defs><style>.cls-1{fill:#fdce76;}.cls-2{fill:#fff;}.cls-3{fill:#6c2910;}</style></defs><g id="Capa_2" data-name="Capa 2"><g id="Capa_1-2" data-name="Capa 1"><circle class="cls-1" cx="88.37" cy="88.37" r="88.37"/><circle class="cls-2" cx="88.37" cy="88.37" r="75.53"/><path class="cls-3" d="M35.41,130.85c.62-.42,1.08-1.08,2-1s.47-.63.47-1c0-4.28,0-8.56,0-12.84a14.59,14.59,0,0,1,14.68-14.76c2.5,0,2.5,0,2.5-2.51q0-6.62,0-13.22a3,3,0,0,1,.28-1.67A1.86,1.86,0,0,1,57.47,83a1.8,1.8,0,0,1,1.43,1.8c.05,1.32,0,2.64,0,4,0,3.79,0,7.58,0,11.37,0,.83.2,1.13,1.09,1.13,3,0,3,0,3-2.94,0-9.84,0-19.68,0-29.52,0-1.09-.3-1.41-1.38-1.39C59,67.4,59,67.35,58.92,70c0,1.89,0,3.78,0,5.68,0,1.54-.71,2.41-1.88,2.4s-2-.81-2-2.43c0-2.43,0-4.86,0-7.29,0-1-.3-1.23-1.2-1.16a4.25,4.25,0,0,1-3.17-.71,3.54,3.54,0,0,1-1.47-3,14.23,14.23,0,0,1,0-1.6c.14-1.16-.06-1.91-1.41-2.32a3,3,0,0,1-2.06-2.83,77.16,77.16,0,0,1,0-9.25,3.71,3.71,0,0,1,3.63-3.38c1-.06,2.34.47,2.91-.28S52.11,42,52,41c-.12-.81-.29-1.62-.43-2.42A4.44,4.44,0,0,1,56,33.3a16.64,16.64,0,0,1,1.73,0c.91.06,1.52,0,1.5-1.23,0-1,.79-1.5,1.79-1.49a1.64,1.64,0,0,1,1.8,1.64c0,1,.41,1.15,1.24,1.08.65-.05,1.31,0,2,0a4.4,4.4,0,0,1,4.35,5.32c-.27,1.45-.51,2.91-.8,4.36-.16.8-.06,1.26.93,1.17a14.72,14.72,0,0,1,2.1,0,3.71,3.71,0,0,1,3.6,3.66c0,2.8,0,5.6,0,8.4a3.64,3.64,0,0,1-2.73,3.67c-.62.19-.77.43-.75,1,0,.78,0,1.56,0,2.34a3.71,3.71,0,0,1-3.88,4c-2,.06-2,.06-2,2,0,10.33,0,20.66,0,31,0,.93.31,1.24,1.15,1.45a14.34,14.34,0,0,1,10.54,9.45,1.23,1.23,0,0,0,1.42.95c2.68,0,5.35,0,8,0a8,8,0,0,1,5.42,2c1.34,1.15,2.65,2.34,4,3.54,1,.92,1.12,2,.39,2.82s-1.88.89-2.93,0q-1.81-1.59-3.58-3.23a5.26,5.26,0,0,0-3.71-1.39q-11.67,0-23.34,0a5,5,0,0,0-3.79,1.47L48.67,129.2c-.13.14-.23.3-.44.57h56.88c-1.11-1-2.07-1.86-3-2.74-1.14-1.06-1.3-2.1-.49-3s1.88-.82,3,.21c1.83,1.6,3.65,3.21,5.42,4.87a2.6,2.6,0,0,0,2,.75c15.69,0,1.51,0,17.2,0a10.28,10.28,0,0,1,1.11,0,1.84,1.84,0,0,1,.1,3.66,6.31,6.31,0,0,1-1.23,0c-40.26,0-50.66,0-90.92,0a3.59,3.59,0,0,1-2.86-1Zm6.24-8.69h0c0,2.26,0,4.52,0,6.78,0,.3-.19.73.22.86a1.08,1.08,0,0,0,1.16-.18l.78-.79c4.57-4.68,9.16-9.34,13.72-14A8.65,8.65,0,0,1,64,112.07c3.25,0,6.5,0,9.75,0,.87,0,1.12-.16.66-1-1.83-3.36-4.58-5.54-8.42-5.89a92.25,92.25,0,0,0-14.3-.07,10.4,10.4,0,0,0-10,9.64A70.2,70.2,0,0,0,41.65,122.16ZM61,47.89h0c-3.5,0-7,0-10.49,0-.75,0-1.1.12-1.08,1,.06,2.18,0,4.36,0,6.54,0,.59.11.9.8.89q10.68,0,21.35,0c.66,0,.84-.24.83-.86,0-2.14-.07-4.28,0-6.42,0-1-.31-1.14-1.19-1.13C67.86,47.92,64.44,47.89,61,47.89ZM60.85,37h0c-1.44,0-2.88,0-4.31,0-1,0-1.45.26-1.2,1.38.35,1.6.58,3.23.83,4.85.09.63.31.92,1,.91,2.51,0,5,0,7.52,0,.62,0,.88-.22,1-.8.27-1.7.56-3.4.87-5.09.18-1-.24-1.26-1.14-1.24C63.89,37.05,62.37,37,60.85,37Zm0,26.36c2.26,0,4.53-.08,6.79,0,1.19.06,1.4-.41,1.31-1.42s.32-1.88-1.3-1.84c-4.16.1-8.31,0-12.47,0-2.5,0-2.06-.34-2.15,2.16,0,.8.22,1.07,1,1C56.28,63.35,58.55,63.38,60.81,63.38Z"/><path class="cls-3" d="M143.41,78.43a15.77,15.77,0,0,0-8.83.51c-3.72,1.31-7.44,2.58-11.16,3.89a1.79,1.79,0,0,1-2.1-.57,1.72,1.72,0,0,1-.21-2.07,1.62,1.62,0,0,1,.9-.81c4.74-1.57,9.35-3.57,14.22-4.75a16.93,16.93,0,0,1,10.62,1c1.75.71,3.47,1.49,5.18,2.27a5.74,5.74,0,0,1-.79,11c-7,2-14,4-21,5.89-1,.29-1.45.56-1.1,1.74a3.58,3.58,0,0,1-2.42,4.4q-4.29,1.34-8.64,2.44a3.66,3.66,0,0,1-4.25-2.86c-.24-.84-.54-1-1.35-.74-3.18,1-6.4,1.77-9.57,2.75a23.57,23.57,0,0,1-7.18.92c-5.1,0-10.2,0-15.3.08-2.68,0-4.52-1.43-5-3.86s.88-4.38,3.41-5.28c2.18-.77,2.18-.77.94-2.75q-2.68-4.27-5.35-8.57c-1.41-2.27-.92-3.54,1.62-4.28A14.13,14.13,0,0,1,80,77.91a6.84,6.84,0,0,1,4.67,2c3.13,2.79,6.31,5.53,9.45,8.32a1.52,1.52,0,0,0,1.75.33c5.57-2,11.15-3.91,16.72-5.85.24-.08.47-.17.7-.23a1.81,1.81,0,0,1,2.39,1.12,1.77,1.77,0,0,1-1.14,2.38c-2.35.88-4.72,1.68-7.08,2.5l-27,9.4c-.61.22-1.38.34-1.2,1.26s.89.72,1.49.71c5.88-.06,11.77-.12,17.65-.21,2.38,0,4.54-1.06,6.8-1.62s4.42-1.26,6.64-1.85a1.4,1.4,0,0,0,1.2-1,3.54,3.54,0,0,1,2.57-2.44c2.59-.76,5.2-1.49,7.8-2.24a3.62,3.62,0,0,1,3.67.81,1.17,1.17,0,0,0,1.32.22c7.18-2,14.37-4,21.56-6.08,1.67-.47,2.29-1.31,2-2.57A3,3,0,0,0,148.59,81l-4.88,1.31c-1.68.45-2.61.13-3-1s.22-2,1.94-2.55A6.6,6.6,0,0,0,143.41,78.43ZM90.78,90.26c-3.2-2.8-6.21-5.46-9.27-8.06-.91-.77-2-.57-3.13-.06,2.07,3.3,4.11,6.56,6.13,9.83.3.47.63.26.95.15C87.17,91.54,88.86,90.93,90.78,90.26Zm27.37,9.25,5-1.43c2.62-.75,2.62-.74,1.7-3.3a1.17,1.17,0,0,0,0-.11c-.07-.58-.43-.61-.89-.48-2.25.65-4.49,1.3-6.74,1.93-.38.11-.59.22-.45.68.25.78.45,1.57.67,2.36C117.47,99.51,117.71,99.6,118.15,99.51Z"/><path class="cls-3" d="M65.4,118.38H66c1.32.06,2.16.76,2.2,1.82a2,2,0,0,1-2.22,2,9.37,9.37,0,0,1-1.59,0,1.88,1.88,0,0,1,.13-3.75c.29,0,.58,0,.86,0Z"/><path class="cls-3" d="M72.43,118.36c.37,0,.74,0,1.1.06a1.74,1.74,0,0,1,1.65,1.68,1.71,1.71,0,0,1-1.47,2,8,8,0,0,1-2.19.08,1.88,1.88,0,0,1,0-3.75c.29,0,.57,0,.86,0Z"/><path class="cls-3" d="M79.41,118.35c.41,0,.82,0,1.22.09a1.67,1.67,0,0,1,1.53,1.65,1.73,1.73,0,0,1-1.31,2,5.74,5.74,0,0,1-2.44.09,1.85,1.85,0,0,1-1.75-1.88,1.88,1.88,0,0,1,1.89-1.86c.29,0,.57,0,.86,0Z"/><path class="cls-3" d="M86.46,118.39c.29,0,.58,0,.86,0a1.9,1.9,0,0,1,1.9,1.86,1.87,1.87,0,0,1-1.76,1.88,8,8,0,0,1-2,0,1.88,1.88,0,1,1,.11-3.75c.28,0,.57,0,.85,0Z"/><path class="cls-3" d="M86.36,127.91c-.29,0-.58,0-.86,0a1.84,1.84,0,0,1-1.83-1.79,1.88,1.88,0,0,1,1.82-1.94,16.26,16.26,0,0,1,1.71,0,2,2,0,0,1,2,1.87,1.93,1.93,0,0,1-2,1.88c-.29,0-.57,0-.86,0Z"/><path class="cls-3" d="M65.42,127.91c-.33,0-.66,0-1,0a1.88,1.88,0,0,1-1.8-1.84,1.9,1.9,0,0,1,1.75-1.88,14.1,14.1,0,0,1,1.72,0,2,2,0,0,1,2.11,1.92,1.92,1.92,0,0,1-2.06,1.83h-.74Z"/><path class="cls-3" d="M79.33,127.91c-.28,0-.57,0-.85,0a1.87,1.87,0,0,1,0-3.73,16.45,16.45,0,0,1,1.72,0,1.88,1.88,0,0,1,2,1.89,1.84,1.84,0,0,1-2,1.86c-.28,0-.57,0-.86,0Z"/><path class="cls-3" d="M94.15,127.92c-.29,0-.58,0-.86,0a1.87,1.87,0,0,1,0-3.73,16.43,16.43,0,0,1,1.72,0A1.87,1.87,0,0,1,97,126a1.84,1.84,0,0,1-2,1.88C94.72,127.93,94.43,127.92,94.15,127.92Z"/><path class="cls-3" d="M57.77,127.92c-1.83,0-2.62-.53-2.66-1.79s.75-1.92,2.13-2c2.35-.06,3.36.49,3.37,1.86S59.71,127.92,57.77,127.92Z"/><path class="cls-3" d="M72.36,127.92c-1.86,0-2.69-.6-2.67-1.91s.88-1.85,3-1.84c1.62,0,2.48.65,2.49,1.87S74.33,127.92,72.36,127.92Z"/><path class="cls-3" d="M116.84,89.86A1.8,1.8,0,0,1,115,91.67a1.88,1.88,0,0,1-1.82-1.8A2,2,0,0,1,115,88,1.86,1.86,0,0,1,116.84,89.86Z"/><path class="cls-3" d="M128.64,86.08a2,2,0,0,1-1.92,1.85A1.85,1.85,0,0,1,124.94,86a1.79,1.79,0,0,1,1.81-1.77A1.87,1.87,0,0,1,128.64,86.08Z"/><path class="cls-3" d="M120.9,89.8a1.85,1.85,0,1,1,1.85-1.89A1.86,1.86,0,0,1,120.9,89.8Z"/><path class="cls-3" d="M105.15,93.63a1.85,1.85,0,0,1-1.93,1.79,1.74,1.74,0,0,1-1.76-1.91,1.85,1.85,0,0,1,1.82-1.78A2,2,0,0,1,105.15,93.63Z"/><path class="cls-3" d="M132.62,86a1.78,1.78,0,0,1-1.82-1.87,1.84,1.84,0,1,1,3.68,0A1.81,1.81,0,0,1,132.62,86Z"/><path class="cls-3" d="M111,91.7a1.89,1.89,0,0,1-1.84,1.9,1.93,1.93,0,0,1-1.84-1.92,1.79,1.79,0,0,1,1.8-1.78A1.76,1.76,0,0,1,111,91.7Z"/><path class="cls-3" d="M63,52.07a1.86,1.86,0,1,1-3.72,0,1.86,1.86,0,0,1,3.72,0Z"/><path class="cls-3" d="M56.34,52.08a2,2,0,0,1-1.9,1.9,1.88,1.88,0,0,1-1.82-1.93,1.75,1.75,0,0,1,1.79-1.79A1.87,1.87,0,0,1,56.34,52.08Z"/><path class="cls-3" d="M65.55,52a1.92,1.92,0,0,1,2-1.71,1.75,1.75,0,0,1,1.71,2,1.83,1.83,0,0,1-2,1.75A2,2,0,0,1,65.55,52Z"/></g></g></svg>