<svg xmlns="http://www.w3.org/2000/svg" viewBox="0 0 176.74 176.74"><defs><style>.cls-1{fill:#6c2912;}.cls-2{fill:#fff;}</style></defs><g id="Capa_2" data-name="Capa 2"><g id="Capa_1-2" data-name="Capa 1"><circle class="cls-1" cx="88.37" cy="88.37" r="88.37"/><circle class="cls-2" cx="88.37" cy="88.37" r="75.53"/><path class="cls-1" d="M102.13,109.36A25,25,0,0,1,91.44,113c-.52,0-.5.34-.5.69,0,5.85,0,11.71,0,17.56,0,.78.51.79,1,1A7.41,7.41,0,0,1,91.73,146a7.39,7.39,0,0,1-9.48-4.2,7.31,7.31,0,0,1,4-9.54,1.44,1.44,0,0,0,1.07-1.63q-.06-8.32,0-16.65c0-.76-.17-1-1-1.08a24.57,24.57,0,0,1-10.18-3.51c0,.53,0,.92,0,1.31q0,10,0,20.07c0,2.16-.53,2.71-2.66,2.71-3.42,0-6.84,0-10.26,0a1.36,1.36,0,0,0-1.55,1,7.37,7.37,0,0,1-8.24,4.44,7.56,7.56,0,0,1-6-6.76,7.42,7.42,0,0,1,5.28-7.62,7.33,7.33,0,0,1,9,4.4,1.16,1.16,0,0,0,1.3.89c2.77-.05,5.55-.07,8.32,0,1,0,1.12-.33,1.11-1.18q0-10.59,0-21.2a1.94,1.94,0,0,0-.61-1.5,23.37,23.37,0,0,1-5.12-7.33,1.17,1.17,0,0,0-1.31-.8,26.2,26.2,0,0,1-3.07,0c-.87-.06-1.08.25-1.07,1.09,0,4.94,0,9.88,0,14.82,0,2.26-.55,2.8-2.85,2.81-3.42,0-6.84,0-10.26,0a1.19,1.19,0,0,0-1.34.87,7.41,7.41,0,1,1,0-5.55,1.23,1.23,0,0,0,1.39,1c2.81-.05,5.62,0,8.43,0,.69,0,.92-.19.92-.89,0-4.37,0-8.74,0-13.11,0-.89-.4-.93-1.09-1C48.87,97.45,43.28,93.92,40.09,87a17.94,17.94,0,0,1,7.55-23,1.62,1.62,0,0,0,1-1.57A27.77,27.77,0,0,1,71,35.79a27,27,0,0,1,23.25,5.85,1.79,1.79,0,0,0,1.82.39,25.28,25.28,0,0,1,31.31,19.58,1.46,1.46,0,0,0,1,1.27,18.1,18.1,0,0,1-5.08,34.82c-2.61.19-2.61.19-2.61,2.85,0,3.72,0,7.45,0,11.17,0,.87.26,1.09,1.1,1.07,2.73-.05,5.47-.05,8.2,0a1.33,1.33,0,0,0,1.48-1,7.34,7.34,0,0,1,8.9-4.25,7.41,7.41,0,0,1-2.45,14.52,7.1,7.1,0,0,1-6.44-4.52,1.42,1.42,0,0,0-1.59-1c-3.42,0-6.84,0-10.26,0-2.06,0-2.67-.62-2.67-2.65,0-5,0-9.95,0-14.93,0-.9-.24-1.19-1.14-1.14-1.21.08-2.54-.27-3.62.12s-1.21,2-1.85,3a27.06,27.06,0,0,1-3.85,4.92,2.16,2.16,0,0,0-.73,1.69q0,10.71,0,21.43c0,.93.29,1.14,1.16,1.12,2.74,0,5.48,0,8.21,0a1.22,1.22,0,0,0,1.39-.92,7.36,7.36,0,0,1,8.38-4.53,7.41,7.41,0,0,1,.31,14.44,7.34,7.34,0,0,1-8.7-4.47,1.15,1.15,0,0,0-1.29-.9c-3.57,0-7.14,0-10.71,0-1.79,0-2.41-.61-2.41-2.38v-22ZM118.5,94.09V94a44,44,0,0,0,5,0C130,93.24,135.06,88.1,136,81.1a13.9,13.9,0,0,0-8.55-14.54c-2.41-1-3.3-2.22-3.84-4.68C120.78,49.14,108.13,42,95.66,46A2.45,2.45,0,0,1,93,45.42a23.94,23.94,0,0,0-20.84-6.11C60.76,41.17,51.88,52,52.35,63.52a2.9,2.9,0,0,1-1.92,3.17,14.38,14.38,0,0,0,5.63,27.38c2.69.08,5.4,0,8.09.05.92,0,.95-.32.8-1a24.38,24.38,0,0,1,0-9.17,24.61,24.61,0,0,1,45.37-8.07,23.72,23.72,0,0,1,3,17.08c-.17.92-.07,1.27,1,1.2C115.68,94,117.09,94.09,118.5,94.09Zm-36-3.85c-1.33,0-2.66,0-4,0-.69,0-.87.26-.79.87a26.54,26.54,0,0,0,2.1,7.63c.19.43.42.48.88.38a30.94,30.94,0,0,1,5.84-.77c.52,0,.73-.19.73-.74,0-2.2,0-4.4,0-6.6,0-.61-.23-.78-.8-.77C85.16,90.26,83.84,90.24,82.51,90.24Zm13.26,0c-1.32,0-2.65,0-4,0-.64,0-.85.2-.84.85,0,2.16,0,4.32,0,6.48,0,.51.12.78.68.78a30,30,0,0,1,6,.79c.43.09.62,0,.79-.36A26.4,26.4,0,0,0,100.5,91c.07-.59-.14-.81-.74-.8C98.43,90.27,97.1,90.24,95.77,90.24Zm-13.3-3.71c1.33,0,2.66,0,4,0,.64,0,.85-.18.84-.83q0-3.19,0-6.37c0-.57-.14-.78-.75-.82a30.77,30.77,0,0,1-5.73-.8.76.76,0,0,0-1,.51,27.24,27.24,0,0,0-2,7.41c-.09.71.16.93.86.91C79.89,86.5,81.18,86.53,82.47,86.53Zm13.24,0c1.33,0,2.66,0,4,0,.64,0,.89-.19.8-.84a26.54,26.54,0,0,0-2-7.52.72.72,0,0,0-1-.47,31.86,31.86,0,0,1-5.83.82c-.56,0-.7.23-.69.75q0,3.24,0,6.48c0,.6.19.8.78.78C93.06,86.51,94.39,86.53,95.71,86.53Zm11.41,3.71c-.68,0-1.37,0-2.05,0s-.85.21-.89.84a27.24,27.24,0,0,1-2,8.24c-.15.39-.71,1,.11,1.18,1.12.22,2.21,2,3.25.78a19,19,0,0,0,4.31-9.85c.15-1-.18-1.32-1.14-1.2A12,12,0,0,1,107.12,90.24Zm-36,0H69.9c-1.72,0-1.76.06-1.44,1.71A21.54,21.54,0,0,0,72,100.39c1,1.48,1,1.48,2.62.74a5.94,5.94,0,0,1,1-.45c.74-.19.84-.53.53-1.23A24.73,24.73,0,0,1,74.29,93C73.89,90.25,73.92,90.24,71.15,90.24Zm0-3.71c.68,0,1.37,0,2,0s.86-.17.9-.82A25.5,25.5,0,0,1,75.51,79c.26-.79,1-1.67.78-2.3s-1.48-.71-2.18-1.2-1.23-.35-1.76.37A21.6,21.6,0,0,0,68.66,84c-.58,2.58-.55,2.58,2.12,2.58Zm35.89,0h1.49c1.5,0,1.56-.06,1.3-1.52a22.3,22.3,0,0,0-3.69-8.85c-.59-.86-1.13-1.37-2.16-.6a4,4,0,0,1-1.34.6c-.74.2-.82.52-.52,1.22A24.41,24.41,0,0,1,104,83.91C104.32,86.53,104.31,86.53,107,86.53ZM92.78,139.09a3.66,3.66,0,1,0-3.66,3.7A3.67,3.67,0,0,0,92.78,139.09Zm-56.53-24.5a3.84,3.84,0,0,0,3.63,3.8,3.88,3.88,0,0,0,3.82-3.75,3.78,3.78,0,0,0-3.71-3.7A3.72,3.72,0,0,0,36.25,114.59Zm102.08-3.65a3.78,3.78,0,0,0-3.79,3.73,3.9,3.9,0,0,0,3.74,3.72,3.83,3.83,0,0,0,3.71-3.72A3.72,3.72,0,0,0,138.33,110.94Zm-15,24.6a3.67,3.67,0,1,0-3.65-3.69A3.66,3.66,0,0,0,123.36,135.54Zm-68.52-.24a3.68,3.68,0,1,0,0-7.35,3.77,3.77,0,0,0-3.78,3.73A3.7,3.7,0,0,0,54.84,135.3ZM87.28,68.77a23,23,0,0,0-5.15,5.38,30.81,30.81,0,0,0,4.6.68c.39,0,.55-.11.55-.5C87.27,72.56,87.28,70.78,87.28,68.77Zm8.86,5.37A22.53,22.53,0,0,0,91,68.82c0,1.94,0,3.68,0,5.43,0,.31,0,.64.45.58A27.59,27.59,0,0,0,96.14,74.14Zm-8.86,33.91c0-2,0-3.71,0-5.44,0-.57-.32-.62-.73-.57l-3.83.46c-.7.09-.44.45-.19.78A24.28,24.28,0,0,0,87.28,108.05Zm3.69,0a24.86,24.86,0,0,0,4.73-4.79c.19-.26.53-.63-.06-.74a26.69,26.69,0,0,0-4.17-.51c-.43,0-.51.21-.51.57C91,104.33,91,106.06,91,108.07Zm5.93-39c.93,1.2,1.89,2.37,2.71,3.64a.61.61,0,0,0,.85.31,6.82,6.82,0,0,0,1.81-.87A17.39,17.39,0,0,0,96.9,69.07Zm-15.29-.2a19.2,19.2,0,0,0-5.71,3.37c.69.29,1.25.53,1.81.75a.64.64,0,0,0,.89-.22A37.84,37.84,0,0,1,81.61,68.87Zm20.8,35.73c-.75-.3-1.35-.52-1.93-.77-.31-.13-.55-.19-.76.16a41.93,41.93,0,0,1-3,3.91A20.17,20.17,0,0,0,102.41,104.6ZM76,104.68a19.33,19.33,0,0,0,5.53,3.2c-.8-1-1.45-1.8-2.06-2.61-1.33-1.79-1.32-1.79-3.34-.71Z"/></g></g></svg>