<svg xmlns="http://www.w3.org/2000/svg" viewBox="0 0 176.74 176.74"><defs><style>.cls-1{fill:#c98b5f;}.cls-2{fill:#fff;}.cls-3{fill:#6c2910;}</style></defs><g id="Capa_2" data-name="Capa 2"><g id="Capa_1-2" data-name="Capa 1"><circle class="cls-1" cx="88.37" cy="88.37" r="88.37"/><circle class="cls-2" cx="88.37" cy="88.37" r="75.53"/><path class="cls-3" d="M119,36.88a45.22,45.22,0,0,1,5.45,1.47c7.72,3.26,12.43,9,13.74,17.28a21.4,21.4,0,0,1-4.74,17.13c-1.28,1.62-2.54,3.26-4,5.07h1.3c5.88,0,11.75,0,17.62,0a2.25,2.25,0,0,1,2.26,1.24,2.09,2.09,0,0,1-2,3c-2.36,0-4.72,0-7.07,0-4.82,0-9.64,0-14.45,0a1.77,1.77,0,0,0-1.58.78c-1.46,1.94-3,3.84-4.46,5.75-.33.42-.56.73-.15,1.35A2,2,0,0,1,119.34,93c-2.67.08-5.34.05-8,0a2,2,0,0,1-2-2,2.1,2.1,0,0,1,1.92-2.13c.24,0,.49,0,.79,0-.1-.59-.55-.91-.85-1.31-1.21-1.59-2.48-3.15-3.68-4.75a1.51,1.51,0,0,0-1.39-.69c-4.5,0-9,0-13.5,0a2.74,2.74,0,0,1-2.09-.81L75.84,66.55a2.21,2.21,0,0,1-.72-2.38,2,2,0,0,1,1.65-1.44,2.39,2.39,0,0,1,2.22.93l9.18,9.18,4.48,4.47a1.28,1.28,0,0,0,1,.53c3.27,0,6.54,0,9.93,0a14,14,0,0,0-1.63-2.25c-2.12-2.75-4.36-5.41-5.66-8.7a21.94,21.94,0,0,1,15-29.33c1-.25,2-.45,3-.67Zm-2.47,50.51a6.61,6.61,0,0,0,.47-.5c4.54-5.82,9.12-11.61,13.59-17.48a17.15,17.15,0,0,0,3.44-13,17.63,17.63,0,1,0-31.4,13.12c2.47,3.24,5,6.44,7.51,9.65Z"/><path class="cls-3" d="M42.84,137.35,63.6,104.5c2.27-3.59,4.53-7.2,6.84-10.76A1.14,1.14,0,0,0,70.27,92q-13-12.9-25.91-25.87a5.15,5.15,0,0,1-1.52-2.22v-.42c1.15-2.22,2.51-2.42,4.31-.62L74.67,90.38c1.47,1.47,1.55,2.19.43,4l-27.84,44-.12.18c-1.35,2.11-2.89,2.16-4.3.13Z"/><path class="cls-3" d="M51.91,36.88a9.67,9.67,0,0,1,1.78,1.47L67.62,52.29a2.46,2.46,0,0,1,1,2.48,2.06,2.06,0,0,1-3.14,1.28,5.71,5.71,0,0,1-1-.82L50.36,41.08c-1.67-1.67-1.58-2.83.29-4.2Z"/><path class="cls-3" d="M42.84,47.44c1.45-1.82,2.53-1.87,4.21-.19,1.51,1.51,3,3,4.53,4.55a2.11,2.11,0,0,1-1.76,3.66,2.19,2.19,0,0,1-1.26-.69c-1.91-2-3.94-3.78-5.72-5.86Z"/><path class="cls-3" d="M103,104c-2.28,0-4.57,0-6.85,0a1.8,1.8,0,0,0-1.78.94q-11.92,19-23.91,38a10.77,10.77,0,0,1-.89,1.31,2.08,2.08,0,0,1-2.66.49,2.1,2.1,0,0,1-.91-2.56,5.38,5.38,0,0,1,.59-1.11Q79,121.23,91.48,101.45a3.23,3.23,0,0,1,3.09-1.7c5.21.07,10.41,0,15.61,0a2.14,2.14,0,0,1,2.12,1.27,2,2,0,0,1-.3,2.17,2.23,2.23,0,0,1-1.87.79C107.74,104,105.35,104,103,104Z"/><path class="cls-3" d="M138.87,104c-3.27,0-6.53,0-9.8,0a2.08,2.08,0,0,1-2.2-1.72,2.11,2.11,0,0,1,1.26-2.32,2.58,2.58,0,0,1,1.13-.17h19.2c1.52,0,2.46.85,2.43,2.16s-.95,2-2.42,2.06C145.27,104,142.07,104,138.87,104Z"/><path class="cls-3" d="M71.14,120.57a2.2,2.2,0,0,1-.43,1.27q-2.1,3.34-4.22,6.68a2.11,2.11,0,0,1-3.89-.28,2,2,0,0,1,.25-1.9c1.43-2.3,2.85-4.6,4.32-6.87a2.06,2.06,0,0,1,2.53-1A2,2,0,0,1,71.14,120.57Z"/><path class="cls-3" d="M61.42,135.94a2.15,2.15,0,0,1-.44,1.31l-4.15,6.59a2.12,2.12,0,0,1-2.22,1.08,2.06,2.06,0,0,1-1.7-1.53,1.39,1.39,0,0,1,0-1.13,62.42,62.42,0,0,1,5-7.9,1.77,1.77,0,0,1,2.3-.4A2,2,0,0,1,61.42,135.94Z"/><path class="cls-3" d="M56,57.29a2.41,2.41,0,0,1,1.84.72c1.65,1.64,3.3,3.27,4.92,4.93a2.14,2.14,0,0,1,.15,3.18,2.17,2.17,0,0,1-3.18-.21Q57.21,63.47,54.78,61a2,2,0,0,1-.5-2.5A2,2,0,0,1,56,57.29Z"/><path class="cls-3" d="M67.43,68.53a2.16,2.16,0,0,1,1.7.8c1.6,1.59,3.2,3.17,4.77,4.78a2.18,2.18,0,0,1,.25,3.19c-.89.93-2.17.87-3.25-.19Q68.41,74.68,66,72.19a2,2,0,0,1-.51-2.41A2,2,0,0,1,67.43,68.53Z"/><path class="cls-3" d="M96.9,93c-1.12,0-2.24,0-3.36,0a2.08,2.08,0,0,1-2.15-2.11,2.06,2.06,0,0,1,2.16-2.09q3.36,0,6.73,0a2.1,2.1,0,1,1,0,4.2C99.15,93.05,98,93,96.9,93Z"/><path class="cls-3" d="M83.11,88.61a2,2,0,0,1-1.46-.75c-1.47-1.45-3-2.91-4.39-4.4a2.13,2.13,0,0,1-.14-3.1,2.1,2.1,0,0,1,3.1.08c1.52,1.46,3,3,4.48,4.47a2.06,2.06,0,0,1,.53,2.41A2.14,2.14,0,0,1,83.11,88.61Z"/><path class="cls-3" d="M145.61,93c-1,0-2,0-3,0a2.11,2.11,0,1,1,0-4.21q3,0,6,0a2.11,2.11,0,1,1,0,4.21C147.65,93,146.63,93,145.61,93Z"/><path class="cls-3" d="M74.2,114.39a2,2,0,0,1-1.86-3A37.18,37.18,0,0,1,75.76,106a2.07,2.07,0,0,1,3.48,2.18c-1.08,1.88-2.27,3.7-3.46,5.52A1.75,1.75,0,0,1,74.2,114.39Z"/><path class="cls-3" d="M86.94,95.44a2.6,2.6,0,0,1-.5,1.47c-.9,1.46-1.81,2.92-2.75,4.36a2.11,2.11,0,0,1-3,.9,2.14,2.14,0,0,1-.66-3.11C81,97.49,82,96,83,94.43a2.13,2.13,0,0,1,4,1Z"/><path class="cls-3" d="M131.2,93c-.84,0-1.68,0-2.52,0a2.1,2.1,0,0,1,0-4.2c1.65,0,3.3,0,4.94,0a2,2,0,0,1,2.08,2.06,2.06,2.06,0,0,1-2.1,2.14C132.81,93.05,132,93,131.2,93Z"/><path class="cls-3" d="M123,101.93a2.1,2.1,0,1,1-2-2.14A2.11,2.11,0,0,1,123,101.93Z"/><path class="cls-3" d="M69.61,59.41a2.07,2.07,0,0,1,2-2.12,2.16,2.16,0,0,1,2.21,2.07,2.29,2.29,0,0,1-2.16,2.17A2.19,2.19,0,0,1,69.61,59.41Z"/><path class="cls-3" d="M116.58,69.84A10.78,10.78,0,1,1,127.4,59.08,10.87,10.87,0,0,1,116.58,69.84Zm6.49-10.65a6.47,6.47,0,1,0-6.58,6.4A6.51,6.51,0,0,0,123.07,59.19Z"/></g></g></svg>