<svg xmlns="http://www.w3.org/2000/svg" viewBox="0 0 176.74 176.74"><defs><style>.cls-1{fill:#fdce76;}.cls-2{fill:#fff;}.cls-3{fill:#6c2912;}</style></defs><g id="Capa_2" data-name="Capa 2"><g id="Capa_1-2" data-name="Capa 1"><circle class="cls-1" cx="88.37" cy="88.37" r="88.37"/><circle class="cls-2" cx="88.37" cy="88.37" r="75.53"/><path class="cls-3" d="M91.72,106.34a52.19,52.19,0,0,0-10-4,108.13,108.13,0,0,0-19.88-3.77,163.39,163.39,0,0,0-19.66-.8c-1.26,0-2-.56-2-1.58s.69-1.67,2-1.69a158.78,158.78,0,0,1,24.37,1.26c8.74,1.17,17.29,3,25.33,6.79a15.48,15.48,0,0,1,2.65,1.38,3,3,0,0,0,3.23.24,35.19,35.19,0,0,1,3.76-1.38c.59-.18.7-.47.65-1-.28-3.06-2-4.58-5.37-4.81-2.23-.14-4.47-.14-6.7-.2a15.77,15.77,0,0,1-2.56-.27c-3.71-.74-5.21-2.59-5.62-6.79A16.42,16.42,0,0,0,81.44,87a2.88,2.88,0,0,0-2.92-2.29,18,18,0,0,0-6,1,23.23,23.23,0,0,1-8.11,1.14,7,7,0,0,1-5.24-2.68,21,21,0,0,1-1.77-2.54c-2.24-3.9-5.85-4.79-10-4.61a11.22,11.22,0,0,0-4.81,1.36,1.55,1.55,0,0,1-2.28-.64,1.59,1.59,0,0,1,.77-2.25c4.61-2.87,12.12-2.35,16.3,1.13a11.75,11.75,0,0,1,2.23,2.69c.4.6.78,1.22,1.15,1.83a5.27,5.27,0,0,0,5.55,2.52A58.68,58.68,0,0,0,73.7,82a16.07,16.07,0,0,1,5.21-.5A6,6,0,0,1,84.32,86a24.61,24.61,0,0,1,.82,4.34A3.07,3.07,0,0,0,88,93.43a23,23,0,0,0,4.31.23,29.48,29.48,0,0,1,6.76.59A7.16,7.16,0,0,1,105,100.5c.14.8.32,1,1.16.74,3.15-1,6.33-2,9.51-3,.63-.19.88-.43.88-1.12q0-10.47,0-20.94c0-.71-.19-.94-.92-.93-2.82,0-5.64,0-8.46,0a1.74,1.74,0,0,1-1.86-1,1.69,1.69,0,0,1,.59-2,60.24,60.24,0,0,0,4.43-4.67c-1,0-1.93,0-2.89,0a1.71,1.71,0,0,1-1.86-1.13c-.33-.78.08-1.32.59-1.82l4.38-4.35c-.39-.28-.74-.16-1.05-.2a1.63,1.63,0,0,1-1.44-1,1.56,1.56,0,0,1,.28-1.73c2.85-3.17,5.68-6.36,8.56-9.51a1.69,1.69,0,0,1,2.7,0c2.85,3.13,5.66,6.29,8.49,9.43a1.59,1.59,0,0,1,.35,1.71,1.52,1.52,0,0,1-1.39,1c-.34,0-.67.06-1.28.1l4.51,4.47a1.64,1.64,0,0,1,.68,1.53,1.54,1.54,0,0,1-1.62,1.41h-3.23a1.51,1.51,0,0,0,.57.8c1.3,1.32,2.61,2.64,3.94,3.94a1.71,1.71,0,0,1,.49,2c-.32.78-1,.89-1.69.89-2.82,0-5.64,0-8.46,0-.86,0-1.08.24-1.08,1.09,0,6.6,0,13.2,0,19.81,0,.81.11,1,1,.81a72.83,72.83,0,0,1,14.59-2.38,22.93,22.93,0,0,1,3,.06,1.54,1.54,0,0,1-.1,3.07c-.78,0-1.57-.16-2.36-.18-5.32-.13-10.42,1.12-15.47,2.57-9.09,2.6-18,5.94-26.94,8.87a206,206,0,0,1-23.28,6.38,91,91,0,0,1-22.21,2,32.1,32.1,0,0,1-6.31-.9c-1.28-.33-1.85-1.06-1.62-2.06s1.09-1.36,2.33-1.08a38.62,38.62,0,0,0,7.66.82,103.3,103.3,0,0,0,23.18-2.61,147.63,147.63,0,0,0,17.05-4.66C90.78,106.7,91.19,106.54,91.72,106.34Zm26.38-55L113,56.89h1.6a1.41,1.41,0,0,1,1.16.56,1.61,1.61,0,0,1-.26,2.37c-1.44,1.45-2.91,2.87-4.36,4.3a12.39,12.39,0,0,0,3,.24,1.74,1.74,0,0,1,1.79,1.11,1.56,1.56,0,0,1-.53,1.84l-1.89,1.9L110.74,72h14.78c-1.62-1.61-3.07-3.07-4.55-4.5a1.82,1.82,0,0,1-.67-2.1c.36-.89,1.11-1,2-1a13.33,13.33,0,0,0,2.8-.1c-.21-.24-.34-.4-.48-.54l-4-4a1.62,1.62,0,0,1-.39-1.89,1.49,1.49,0,0,1,1.56-.93,2.28,2.28,0,0,0,1.32-.15Z"/><path class="cls-3" d="M52.57,139.65c-.74,0-1.29,0-1.84,0a1.76,1.76,0,0,1-1.82-1.59,1.71,1.71,0,0,1,1.67-1.64c1.61-.11,3.23-.08,4.84-.21a90.58,90.58,0,0,0,23.72-5.29A102.25,102.25,0,0,0,99,121a97.77,97.77,0,0,1,26.65-12,46.66,46.66,0,0,1,12.19-1.78,26.42,26.42,0,0,1,3.08.22,1.68,1.68,0,0,1,1.67,2c-.19.89-1,1.28-2.2,1.13a29.4,29.4,0,0,0-9.12.41c-9.44,1.71-18,5.59-26.36,10.19-2.71,1.49-5.34,3.11-8,4.76-8.91,5.64-18.69,9.15-28.89,11.56A82.27,82.27,0,0,1,52.57,139.65Z"/><path class="cls-3" d="M56.8,58.15c-3.54,0-7.08.06-10.62,0a5.9,5.9,0,0,1-5.38-3.56,6,6,0,0,1,.46-6.35,4.37,4.37,0,0,1,1.62-1.55,1.45,1.45,0,0,0,.86-1.53A7.72,7.72,0,0,1,49,37.69a8,8,0,0,1,9.11,2.12c.36.42.59.67,1.25.37a6.89,6.89,0,0,1,9.8,4.88,1.38,1.38,0,0,0,.86,1.11,6.35,6.35,0,0,1-2.74,12c-3.5,0-7,0-10.52,0Zm.05-3.08c3.44,0,6.88,0,10.32,0a3.1,3.1,0,0,0,3.16-2.67A3.15,3.15,0,0,0,68,48.81c-1.45-.38-1.73-.73-1.75-2.21a3.63,3.63,0,0,0-2.33-3.55,3.54,3.54,0,0,0-4.08.78c-1.53,1.41-2.49,1.23-3.35-.65a4.73,4.73,0,0,0-6.07-2.62,4.62,4.62,0,0,0-3.24,5.73,1.84,1.84,0,0,1-1.43,2.52,3.19,3.19,0,0,0,.94,6.26Z"/><path class="cls-3" d="M139,124.12h1.85a1.68,1.68,0,0,1,1.94,1.53c.08.94-.59,1.62-1.77,1.7-2.13.13-4.27.14-6.39.33-7.45.67-14.75,2-21.52,5.39a16.17,16.17,0,0,0-6.83,5.64,1.54,1.54,0,0,1-2.3.59,1.62,1.62,0,0,1-.45-2.42,18,18,0,0,1,7.12-6.26,50.58,50.58,0,0,1,15.75-5.19A87.24,87.24,0,0,1,139,124.12Z"/><path class="cls-3" d="M84.65,65a8.73,8.73,0,0,1,6.73-3.61c1.36-.06,2.07.68,1.88,1.91a1.46,1.46,0,0,1-1.59,1.3,5.5,5.5,0,0,0-4.34,2.2,6,6,0,0,0-1.08,3.16c-.11,1.16-.58,1.65-1.55,1.67S83.13,71.14,83,70a6,6,0,0,0-1-3.17,5.59,5.59,0,0,0-4.23-2.21c-1.27-.11-1.88-.77-1.76-1.79s.8-1.48,2-1.42A8.8,8.8,0,0,1,84.65,65Z"/><path class="cls-3" d="M85.1,46.8a7,7,0,0,1,4.39,2.07c.45.46.67.54,1.17,0a6.81,6.81,0,0,1,4.87-2.1,1.57,1.57,0,0,1,1.8,1.54,1.64,1.64,0,0,1-1.58,1.71c-2.75.38-3.61,1.24-4,4A1.63,1.63,0,0,1,90,55.64c-.93,0-1.46-.61-1.55-1.69a3.92,3.92,0,0,0-3.86-3.89c-1.19-.13-1.8-.79-1.71-1.87S83.62,46.77,85.1,46.8Z"/></g></g></svg>