<svg xmlns="http://www.w3.org/2000/svg" viewBox="0 0 132.71 132.71"><defs><style>.cls-1{fill:#fff;}.cls-2{fill:#6c2912;}</style></defs><g id="Capa_2" data-name="Capa 2"><g id="Capa_1-2" data-name="Capa 1"><circle class="cls-1" cx="66.35" cy="66.35" r="66.35"/><circle class="cls-1" cx="66.35" cy="66.35" r="56.71"/><path class="cls-2" d="M82.77,37.08C81,38.94,81,38.94,79.4,37.34q-3.11-3.09-6.2-6.2c-.7-.72-1.51-1.29-2.39-.47s-.36,1.73.4,2.48c2.22,2.2,4.36,4.46,6.64,6.59,1,.91,1.12,1.53,0,2.31a7,7,0,0,0-.66.6c-1.85-1.89-3.68-3.78-5.52-5.65-.38-.39-.74-.78-1.15-1.13a1.36,1.36,0,0,0-2.07-.06,1.34,1.34,0,0,0,.15,2.06L75,44.29c1.14,1.13,2.26,2.29,3.43,3.39.63.6,1,1,.16,1.83s-1.18.71-1.82,0a21.43,21.43,0,0,0-2-2,1.35,1.35,0,1,0-1.92,1.89c1.18,1.17,2.36,2.33,3.57,3.46,1.79,1.65,4.08,1.67,6.31,1.82a39.34,39.34,0,0,1,5.94.61,6.5,6.5,0,0,1,5.15,7.4,1,1,0,0,1-1,1,1.08,1.08,0,0,1-1.24-.79,12.47,12.47,0,0,1-.37-2,3.51,3.51,0,0,0-3.4-3.38A62.65,62.65,0,0,0,81.46,57,10.49,10.49,0,0,1,74,53.85c-1-1-2-1.9-2.88-2.9a3.53,3.53,0,0,1,.17-5.41c.84-.73.58-1.06,0-1.65-1.41-1.35-2.77-2.74-4.14-4.13-2.13-2.15-2-4.53.47-6.28a.89.89,0,0,0,.47-1c-.41-3,1.59-4.94,4.5-4.42A1.28,1.28,0,0,0,74,27.48a3.7,3.7,0,0,1,5.74-.41c.88.85,1.34,1.48,2.47.15a3.42,3.42,0,0,1,4.89.08c5.14,4.88,9.93,10,13,16.53,1.78,3.77,4,7.31,5.17,11.37a47.5,47.5,0,0,1,1.33,6.57c.11.81.23,1.76-1,1.93s-1.33-.75-1.42-1.59c-.68-6-3.12-11.3-5.9-16.63A58.44,58.44,0,0,0,86.19,29.75a4.33,4.33,0,0,0-1-.84,1.26,1.26,0,0,0-1.7.34,1.2,1.2,0,0,0,.08,1.61,21.09,21.09,0,0,0,2,2.07c.74.63.42,1-.14,1.47s-.73,1.19-1.55.3c-1.62-1.76-3.35-3.41-5-5.1-.24-.24-.48-.49-.73-.72-.68-.63-1.44-.93-2.16-.12s-.4,1.42.24,2c1.76,1.75,3.5,3.52,5.27,5.27C81.91,36.45,82.36,36.75,82.77,37.08Z"/><path class="cls-2" d="M50.06,95.5c1.65-1.8,1.65-1.8,3.25-.19l6.3,6.3c.67.68,1.46,1.17,2.28.42s.51-1.64-.25-2.39c-2.38-2.36-4.71-4.79-7.15-7.1-.83-.78-.4-1.12.14-1.7s.88-.78,1.56,0c1.83,1.95,3.77,3.8,5.67,5.69.49.49,1,1,1.78.75,1.21-.31,1.37-1.55.29-2.63-3.15-3.18-6.28-6.39-9.53-9.48-1-.94-.87-1.43,0-2.23.58-.52.87-.35,1.29.1.7.74,1.43,1.46,2.17,2.17s1.38.82,2,.1a1.35,1.35,0,0,0-.19-2.06c-1.08-1-2.13-2.14-3.24-3.16a6.81,6.81,0,0,0-4.34-1.84c-2.48-.13-5-.35-7.43-.49-2.92-.17-4.56-1.47-5.26-4.31-.3-1.22-.54-2.47-.76-3.71-.13-.74.05-1.39.9-1.56s1.35.36,1.5,1.19c.23,1.24.43,2.49.7,3.72a2.45,2.45,0,0,0,2.28,2.13c2.46.23,4.94.47,7.41.55a10,10,0,0,1,6.76,2.68Q60,80,61.59,81.68a3.59,3.59,0,0,1-.19,5.52c-.67.58-.64.87,0,1.43,1.47,1.42,2.91,2.87,4.34,4.34,2.07,2.11,1.89,4.49-.49,6.18a1,1,0,0,0-.48,1.15,3.7,3.7,0,0,1-4.47,4.36,1.26,1.26,0,0,0-1.48.48,3.72,3.72,0,0,1-6,.2c-.79-.84-1.16-1-2,0a3.48,3.48,0,0,1-5,.1C40.57,100.6,35.63,95.63,32.77,89a6.63,6.63,0,0,0-1-1.63c-.91-1-.37-1.54.6-2.06.56-.31.85-.25,1.15.29s.83,1.22,1.12,1.88a41.72,41.72,0,0,0,10.18,13.76c.67.63,1.31,1.3,2,2s1.5,1.09,2.28.3.32-1.51-.35-2.15-1-1.07-1.56-1.53-.6-1,0-1.6c.75-.81,1.15-.8,1.89,0,1.67,1.83,3.47,3.55,5.22,5.31.7.71,1.5,1.28,2.37.36s.29-1.59-.4-2.26C54.2,99.62,52.13,97.55,50.06,95.5Z"/><path class="cls-2" d="M36.64,67.07a3.67,3.67,0,0,1-3.09-1.87.9.9,0,0,0-1.13-.52A3.7,3.7,0,0,1,28,60.24c.1-.6.16-1-.46-1.49-2.14-1.65-2.23-4.08-.24-6,.76-.74,1.13-1.13.07-2a3.53,3.53,0,0,1,0-5.12c4.88-5.13,10-9.91,16.52-13,3.72-1.76,7.23-4,11.24-5.12a58.22,58.22,0,0,1,6.4-1.35c.86-.15,1.66,0,1.82,1s-.63,1.35-1.45,1.44c-6,.66-11.18,3.16-16.46,5.9A58.75,58.75,0,0,0,29.72,46.56a7.34,7.34,0,0,0-.61.64,1.34,1.34,0,0,0,.14,1.95A1.23,1.23,0,0,0,31.07,49c.65-.65,1.35-1.26,2-2,.82-.94,1.12,0,1.56.38s.91.66.19,1.33c-1.85,1.72-3.62,3.54-5.41,5.33a6.65,6.65,0,0,0-.84,1,1.15,1.15,0,0,0,.31,1.67,1.32,1.32,0,0,0,1.94-.24c1.89-1.89,3.81-3.76,5.68-5.68.56-.58.9-.83,1.54-.06s1.06,1,.17,1.81c-2.47,2.34-4.84,4.8-7.24,7.21-.66.67-.95,1.45-.19,2.17a1.38,1.38,0,0,0,2.16-.19c.33-.36.7-.68,1-1,2.1-2.1,4.25-4.16,6.28-6.32.75-.79,1.08-.31,1.58.18s1,.81.16,1.55c-1.89,1.76-3.67,3.63-5.49,5.46a5.79,5.79,0,0,0-.78.87,1.3,1.3,0,0,0,.18,1.84,1.26,1.26,0,0,0,1.84,0c1-1,2-2,3-3,2.38-2.38,4.79-4.73,7.1-7.16.71-.74,1.1-.58,1.73,0s.73,1.1,0,1.72a26.82,26.82,0,0,0-2.07,2.06,1.27,1.27,0,0,0-.09,1.94,1.3,1.3,0,0,0,2-.1c2.15-2.33,5-4.17,5.59-7.63.12-.64.69-.77,1.27-.7a1,1,0,0,1,1,1.23,7.27,7.27,0,0,1-1.45,3.76,33.51,33.51,0,0,1-5.21,5.5,3.41,3.41,0,0,1-5-.45c-.75-.86-1.12-.65-1.76,0C42.45,63,41,64.39,39.54,65.86A4.09,4.09,0,0,1,36.64,67.07Z"/><path class="cls-2" d="M104.4,81c2.64,2.42,2.69,4.42.14,6.92-2.78,2.73-5.37,5.66-8.59,7.91-.71.51-1.44,1-2.17,1.47a1.12,1.12,0,0,1-1.67-.28,1.07,1.07,0,0,1,.31-1.64c.54-.42,1.12-.77,1.68-1.16,3.53-2.42,6.31-5.65,9.34-8.6a1.33,1.33,0,0,0,.12-2.07c-.7-.67-1.42-.41-2,.25-.44.45-.91.88-1.36,1.32-1.07,1.06-1.66,1-2.5-.31-.39-.57.13-.69.34-.9,1.75-1.77,3.52-3.51,5.29-5.26A8.16,8.16,0,0,0,104,78a1.35,1.35,0,1,0-2-1.84c-1.7,1.67-3.4,3.36-5.07,5-.48.49-.89,1-1.33,1.54C93.73,81,93.73,81,95.34,79.39q3.1-3.11,6.2-6.2c.71-.7,1.33-1.5.5-2.39s-1.72-.4-2.48.37c-2.33,2.36-4.73,4.65-7,7.06-.8.85-1.12.32-1.69-.17s-.73-.91,0-1.56c1.82-1.7,3.53-3.5,5.29-5.26.2-.21.42-.41.61-.63.61-.68.94-1.44.17-2.18s-1.5-.44-2.17.24c-3.23,3.24-6.49,6.46-9.7,9.72-.63.63-1,1-1.83.18s-.51-1.32.16-1.93,1.33-1.29,2-2a1.34,1.34,0,1,0-1.88-1.9,31.25,31.25,0,0,0-4.08,4.37,6.11,6.11,0,0,0-1.09,3.12c-.16,2.63-.36,5.25-.54,7.87a5,5,0,0,1-4.19,5.07c-1.32.32-2.66.56-4,.81-.86.17-1.63,0-1.79-1s.63-1.3,1.44-1.44c1-.17,2-.28,3-.51,2.55-.59,3.13-1.4,3.23-4,.08-2.29.18-4.58.37-6.86A8.63,8.63,0,0,1,78,75q1.81-2,3.75-3.89a3.54,3.54,0,0,1,5.51.19c.71.83,1,.48,1.55,0,1.43-1.45,2.87-2.91,4.34-4.34,2-2,4.45-1.75,6.08.58a1,1,0,0,0,1.14.5,3.7,3.7,0,0,1,4.38,4.46c-.08.51-.23.91.35,1.39,2.3,1.86,2.34,4.09.24,6.24Z"/><path class="cls-2" d="M68.59,106.76c-.53,0-1.07.1-1.6.12-.86,0-1.76,0-1.79-1.2s.84-1.26,1.73-1.26a36.3,36.3,0,0,0,13.49-2.69c1.31-.51,2.57-1.15,3.83-1.78.81-.41,1.64-1,2.26.13s-.3,1.54-1.08,2A39.61,39.61,0,0,1,68.59,106.76Z"/><path class="cls-2" d="M25.83,67c0-.84,0-1.78,1.12-1.85s1.34.86,1.33,1.8a35.27,35.27,0,0,0,1.58,10.31c.25.89.4,1.71-.68,2s-1.39-.58-1.64-1.39A43.18,43.18,0,0,1,25.83,67Z"/><path class="cls-2" d="M55,44.5a5.07,5.07,0,0,1,3.92-5c1.41-.35,2.84-.61,4.27-.87.84-.15,1.62,0,1.74,1s-.56,1.25-1.35,1.37-1.82.29-2.73.42c-2,.29-3.39,1.13-3.53,3.34a1.07,1.07,0,0,1-1.39,1.09C55.17,45.79,54.94,45.21,55,44.5Z"/><path class="cls-2" d="M66.41,28.26A1.24,1.24,0,0,1,65.1,27a1.11,1.11,0,0,1,1.2-1.18,1.15,1.15,0,0,1,1.3,1.22C67.61,27.78,67.12,28.16,66.41,28.26Z"/><path class="cls-2" d="M106.87,66.37c-.11.74-.48,1.27-1.21,1.24a1.24,1.24,0,0,1,.1-2.48C106.55,65.17,106.78,65.75,106.87,66.37Z"/><path class="cls-2" d="M89.31,97.35a1.09,1.09,0,0,1,1.25,1.11,1.11,1.11,0,0,1-1.18,1.2,1.16,1.16,0,1,1-.07-2.31Z"/><path class="cls-2" d="M30.1,82.77a1.1,1.1,0,0,1-1.19-1.22,1,1,0,0,1,1.16-1.16,1.09,1.09,0,0,1,1.14,1.21A1.06,1.06,0,0,1,30.1,82.77Z"/><path class="cls-2" d="M57.26,48.83a1.1,1.1,0,0,1-1.21,1.07A1.07,1.07,0,0,1,55,48.64a1,1,0,0,1,1.12-1C56.83,47.6,57.25,48,57.26,48.83Z"/></g></g></svg>