<svg xmlns="http://www.w3.org/2000/svg" viewBox="0 0 132.71 132.71"><defs><style>.cls-1{fill:#fff;}.cls-2{fill:#6c2912;}</style></defs><g id="Capa_2" data-name="Capa 2"><g id="Capa_1-2" data-name="Capa 1"><circle class="cls-1" cx="66.35" cy="66.35" r="66.35"/><circle class="cls-1" cx="66.35" cy="66.35" r="56.71"/><circle class="cls-1" cx="66.35" cy="66.35" r="66.35"/><circle class="cls-1" cx="66.35" cy="66.35" r="56.71"/><path class="cls-2" d="M97.41,65.79c-1.64,1.69-3.2,3.26-4.72,4.87-.4.43-.67.48-1.07,0S90.21,69.57,90.16,69s.94-1.11,1.47-1.66c1.49-1.51,3-3,4.52-4.48s1.79-3.49,1.43-5.75L96.5,58.21c-1.26,1.31-2.52,2.61-3.76,3.94-.31.33-.52.43-.87,0-.57-.64-1.58-1.19-1.67-1.88s1-1.2,1.57-1.8a48.1,48.1,0,0,1,3.81-3.61,5.8,5.8,0,0,0,2-6.16c-1.14,1.12-2.2,2.17-3.27,3.21l-.33.33c-2,1.94-2,1.93-3.66-.31-.23-.3-.19-.42.06-.66,2.17-2,4.15-4.11,6.24-6.15a3.3,3.3,0,0,0,1.1-2.62c0-.84,0-1.69,0-2.56-.46.05-.6.36-.8.56q-2.16,2.15-4.27,4.34c-.32.33-.5.39-.86,0-1.78-1.79-1.79-1.77,0-3.52,2-2,4-4,6-5.93,1.15-1.14,1.67-1.13,2.84,0,2.41,2.37,4.81,4.75,7.24,7.11.43.42.45.64,0,1.07-1.57,1.52-1.54,1.53-3.09,0-1.29-1.29-2.6-2.57-4.06-4,0,1.56,0,2.92,0,4.28,0,.41.37.62.62.88,2.16,2.15,4.31,4.3,6.5,6.42.47.46.47.69,0,1.12-1.64,1.4-1.63,1.43-3.18-.13-1.23-1.24-2.44-2.52-3.66-3.78l-.22.09c0,1.39,0,2.77,0,4.15,0,.24.34.49.55.71,2.14,2.16,4.28,4.33,6.45,6.47.41.41.51.68,0,1.08s-1,1.4-1.62,1.37-1-.88-1.52-1.37L100.67,57c0,1.5,0,2.82,0,4.15,0,.38.4.61.65.86,2.13,2.14,4.24,4.29,6.39,6.4.48.47.52.73,0,1.2-1.52,1.3-1.51,1.34-2.9-.06s-2.56-2.65-3.83-4c-.41.33-.28.63-.28.88q0,15.14,0,30.26c0,.75.17,1,1,1,2.25,0,4.49,0,6.74,0,.61,0,.78.17.78.77,0,2,0,2-2,2q-41.24,0-82.47,0c-1,0-1.15-.33-1.12-1.19.06-1.63,0-1.63,1.67-1.63h6.08c.47,0,.74,0,.74-.63,0-6.55,0-13.09,0-19.63-.37-.13-.47.18-.63.33-1.45,1.42-2.9,2.83-4.32,4.28-.37.39-.61.5-1,0-.53-.63-1.5-1.17-1.57-1.82s1-1.14,1.56-1.7c1.15-1.11,2.23-2.3,3.48-3.29,2.11-1.67,3.12-3.67,2.37-6.39-.26,0-.38.28-.55.46-1.41,1.38-2.81,2.76-4.18,4.17-.39.4-.64.46-1,0-.53-.63-1.62-1.08-1.6-1.77s1-1.16,1.56-1.72c1.61-1.61,3.2-3.24,4.85-4.8a3.2,3.2,0,0,0,1.11-2.61c0-.79,0-1.59,0-2.39-.41-.09-.52.23-.7.41Q29.14,62.8,27,65c-.35.36-.58.44-.92,0-.5-.65-1.42-1.24-1.48-1.91s1-1.15,1.55-1.71q3-3,6.12-6c1-1,1.54-1,2.51,0,2.47,2.44,4.93,4.89,7.43,7.31.48.47.42.71,0,1.14-1.53,1.45-1.51,1.48-3,0s-2.66-2.7-4-4l-.21.11c0,1.22,0,2.43,0,3.64a3,3,0,0,0,1.14,1.84c2,1.93,3.94,3.89,5.94,5.8.48.47.62.74,0,1.26-1.53,1.34-1.51,1.38-3-.08-1.29-1.31-2.56-2.65-3.83-4L35,68.5c0,.92.06,1.84,0,2.76a2.88,2.88,0,0,0,1,2.5c2.16,2.07,4.23,4.21,6.35,6.31.29.27.27.43,0,.65l-.13.13c-1.52,1.6-1.51,1.6-3.07.05L35.2,77c-.29.24-.17.54-.17.79,0,6.34,0,12.67,0,19,0,.69.21.81.87.89,1.81.22,2.83-.46,3.8-2.06,8.14-13.51,16.39-26.95,24.61-40.4a10.18,10.18,0,0,1,1-1.45,1.27,1.27,0,0,1,2.13,0,5.88,5.88,0,0,1,.63.91q12.63,20.7,25.23,41.41A2.63,2.63,0,0,0,96,97.71c1.57-.15,1.58,0,1.58-1.64q0-14.47,0-29A2.52,2.52,0,0,0,97.41,65.79ZM66.65,58a1.42,1.42,0,0,0-.49.83q-2.26,5.4-4.51,10.8Q56,83.28,50.26,96.87c-.31.74-.15.85.59.84,2.09,0,4.18-.06,6.27,0a1.75,1.75,0,0,0,1.81-1.08Q62.5,90,66.13,83.34c.88-1.61,1.39-1.75,3-.85l11.6,6.44c1.44.81,1.6,1.33.86,2.84-.83,1.68-1.65,3.37-2.51,5-.34.66-.19.83.53.82,3.47,0,6.95,0,10.42,0,.2,0,.44.07.64-.19Zm1.09,28.37-6,11.11a1.83,1.83,0,0,0,.39.09c3.68,0,7.36,0,11,0,.78,0,.5-.34.3-.71l-4.56-8.41ZM41.8,97.69c1.34,0,2.5-.07,3.65,0a1.64,1.64,0,0,0,1.88-1.19c2.94-7.13,5.92-14.24,8.88-21.36.33-.78.64-1.57,1-2.36L57,72.73C52,81,46.93,89.27,41.8,97.69Zm30-10.4-.18.17,4.61,8.47c.79-1.56,1.51-3,2.24-4.45a.38.38,0,0,0-.19-.59Z"/><path class="cls-2" d="M33.07,39.18c0-7.54,7.76-13.06,15.07-10.69a10.39,10.39,0,0,1,7.2,7.38c.19.63.41.94,1.12.87s1.56.2,2.07-.12.09-1.24.15-1.9c.49-5.65,4.13-9.92,9.41-11a7.66,7.66,0,0,1,2.29-.18c1.14.13,1.57.72,1.3,1.84-.15.63-.41,1.23-.55,1.85a9.3,9.3,0,0,0,8.14,11.54c2,.23,2.45,1.07,1.56,2.87a11.5,11.5,0,0,1-13.48,5.66c-1.89-.54-1.9-.55-3.13,1a6.46,6.46,0,0,1-5.34,2.6c-4.83,0-9.65.11-14.48,0C37.29,50.85,33.06,45.29,33.07,39.18ZM51.46,48V48c2.55,0,5.1.06,7.65,0a4,4,0,0,0,3.94-4.14,4.06,4.06,0,0,0-4-4.1c-1.29,0-2.58,0-3.87,0-1.74,0-2.06-.28-2.36-2a8.26,8.26,0,0,0-7.33-6.83,8.82,8.82,0,0,0-9,5.64A8.6,8.6,0,0,0,44.73,48ZM68,28.89c0-.4,0-.8,0-1.2,0-1,0-1-.91-.66a9.24,9.24,0,0,0-5.51,9.6,1.72,1.72,0,0,0,.86,1.23,6.4,6.4,0,0,1,3.26,4.87A1.52,1.52,0,0,0,66.58,44a8.65,8.65,0,0,0,10-1.44c.85-.86.85-.86-.23-1.32C70.65,38.81,68,34.83,68,28.89Z"/></g></g></svg>