<svg xmlns="http://www.w3.org/2000/svg" viewBox="0 0 132.71 132.71"><defs><style>.cls-1{fill:#fff;}.cls-2{fill:#6c2910;}</style></defs><g id="Capa_2" data-name="Capa 2"><g id="Capa_1-2" data-name="Capa 1"><circle class="cls-1" cx="66.35" cy="66.35" r="66.35"/><circle class="cls-1" cx="66.35" cy="66.35" r="56.71"/><path class="cls-2" d="M41,47.41q6.09,3.66,12.2,7.32c1.26.76,2,.57,2.74-.71,1-1.6,1.93-3.21,2.9-4.82l6.36-10.63,1.79,3q2.13,3.57,4.27,7.11l.06.11-.19.12c-1,.61-2.14,1.27-3.34,2a1.52,1.52,0,0,0-.84,1.8,1.57,1.57,0,0,0,1.56,1.19c1,.07,2,.17,2.93.26l4.36.41,8.52.79.24,0a1.75,1.75,0,0,0,1.71-1.17q3.09-7.3,6.18-14.6a1.6,1.6,0,0,0-2.39-2.06l-1,.63c-.56.33-1.19.7-1.79,1.1a1,1,0,0,1-.23.13s-.07-.06-.19-.27l-2.83-5-1.77-3.08A6.85,6.85,0,0,0,76,27.33c-7,0-14.15,0-21.21,0A6.87,6.87,0,0,0,48.5,31L47,33.49c-.38.63-.75,1.25-1.12,1.89-.77,1.29-.22,2,.39,2.37A1.46,1.46,0,0,0,47.4,38a1.9,1.9,0,0,0,1.15-1c.27-.44.54-.89.8-1.34l.22-.37c.51-.84,1.13-1.89,1.75-2.89a3.73,3.73,0,0,1,3.37-1.89h1c.69,0,1.53,0,2.34,0a3.74,3.74,0,0,1,3.47,1.9c.36.53.68,1.09,1,1.63l0,0c.25.41.49.82.75,1.23a.39.39,0,0,1,0,.5C60,41.25,56.93,46.33,54,51.32l-.1.14-.14-.08c-2.93-1.77-6-3.62-10-6l-.12-.08,0-.09c.41-.63.8-1.31,1.12-1.86l0-.08A1.56,1.56,0,0,0,44.36,41a1.52,1.52,0,0,0-2.24.71c-.48.79-.95,1.6-1.43,2.4l-.34.59C39.58,46,39.74,46.64,41,47.41Zm33,3.41c1.15-.72,1.34-1.44.67-2.56q-4.14-6.93-8.3-13.85L64,30.48h3.88c2.64,0,5.21,0,7.76,0h0a4.11,4.11,0,0,1,3.87,2.28C80.77,34.84,82,37,83.16,39l1.61,2.8c.38.67.75,1.14,1.26,1.28a2.37,2.37,0,0,0,1.76-.51l0,0-.6,1.4-1.57,3.69-.42,1c-.43,1-.88,2.08-1.3,3.14-.13.33-.22.39-.6.36-2.71-.27-5.43-.52-8.23-.78l-1.68-.16Z"/><path class="cls-2" d="M59.21,81.79H50.34l-.11,0H41.07l0-.09c2-3.74,4-7.43,5.43-10.23a1.57,1.57,0,0,1,.11-.17.51.51,0,0,1,.19.08c.94.53,1.91,1,2.84,1.52l.67.36a1.58,1.58,0,0,0,2.17-2.12l-7-14.5a1.61,1.61,0,0,0-1.81-.95l-12.74,1.8L27.81,58a1.58,1.58,0,0,0-1.48,1.31A1.52,1.52,0,0,0,27.27,61l1.14.62c.61.33,1.23.67,1.86,1,.22.11.25.16.25.16s0,.07-.12.3c-1.65,2.91-3.21,5.72-4.52,8.09A7,7,0,0,0,26,78.59c.62,1,1.26,2.09,1.89,3.14l3,5,0,.06c1.9,3.16,3.87,6.42,5.83,9.62A7,7,0,0,0,42,100a29.88,29.88,0,0,0,3,.13c1,0,2,0,2.91-.06l1.17,0a1.44,1.44,0,0,0,1.18-.64,1.63,1.63,0,0,0,.12-1.52,1.54,1.54,0,0,0-1.7-1h-.93l-4.3.06h-.16a4.15,4.15,0,0,1-3.93-2.26c-.48-.87-1-1.72-1.5-2.51a3.85,3.85,0,0,1-.15-4c.24-.51.52-1,.8-1.56l0-.06c.23-.43.47-.87.69-1.31.09-.2.18-.26.51-.26,5.34,0,11.56,0,17.81-.09.28,0,.34,0,.35.05s0,.06,0,.37c0,1.9,0,3.84,0,5.72v.86c0,1.12,0,2.24,0,3.36,0,.2,0,.41.05.62,0,.38.1.8-.06,1s-.48.11-.86.07a4,4,0,0,0-.69,0c-1.35.07-1.67.85-1.69,1.5a1.55,1.55,0,0,0,.37,1.16,1.79,1.79,0,0,0,1.3.48c1,0,2.06,0,2.92,0a1.62,1.62,0,0,0,1.81-1.86q0-7.22,0-14.42C61.13,82.36,60.56,81.79,59.21,81.79Zm-25-20.12c-.15-.5-.62-.84-1.38-1.26l5.27-.75,1.23-.17c.84-.11,1.88-.25,2.87-.43.72-.13,1-.06,1.3.61.92,2,1.92,4.07,2.89,6l0,.05,1.24,2.53c-.26-.14-.51-.27-.77-.39a1.58,1.58,0,0,0-2.32.68L36.69,83.42l-1.92,3.63-4-6.63-.62-1c-.49-.82-.93-1.57-1.39-2.3a4.14,4.14,0,0,1-.06-4.6c1.18-2.08,2.36-4.21,3.5-6.27l1.53-2.75A2.38,2.38,0,0,0,34.22,61.67Z"/><path class="cls-2" d="M104.22,70.79c-.92-1.63-1.83-3.27-2.74-4.9L99.1,61.64c-.91-1.64-1.83-3.29-2.76-4.92a1.54,1.54,0,0,0-2.28-.8c-.87.44-1.77.95-2.76,1.54a1.4,1.4,0,0,0-.53,2,1.43,1.43,0,0,0,2,.7A8.93,8.93,0,0,0,94,59.5a.71.71,0,0,1,.22-.12.8.8,0,0,1,.18.24c1.31,2.37,2.64,4.74,4,7.1l.22.39,3,5.29a4,4,0,0,1,0,4.12c-.69,1.21-1.41,2.42-2,3.49a3.24,3.24,0,0,1-2.53,1.63,17.12,17.12,0,0,1-2.37.08c-.46,0-.94,0-1.39,0-.15,0-.19,0-.3-.22-3-5.31-6-10.8-9-16.19a.62.62,0,0,1-.06-.12l.17-.1c1-.52,1.93-1.06,3-1.65a2,2,0,0,0,1-1.12,1.47,1.47,0,0,0-.2-1.13c-.28-.51-1-1.24-2.36-.47l-2.6,1.44-1.38.77c-1.45.81-1.64,1.47-.81,3l2.55,4.6Q86.23,76,89.33,81.58s0,.09.08.15h-.13c-3.71,0-7.48,0-11.54,0-.27,0-.32,0-.32,0s0,0,0-.3c0-.86,0-1.73,0-2.58v-.07l0-1.17a1.59,1.59,0,0,0-1.23-1.65,1.55,1.55,0,0,0-1.73.76l-1.72,2.46c-2.47,3.51-4.95,7-7.43,10.53a1.73,1.73,0,0,0,0,2.25c3.25,4.3,6.49,8.6,9.62,12.76a1.59,1.59,0,0,0,1.28.73,1.52,1.52,0,0,0,.51-.09,1.56,1.56,0,0,0,1.11-1.63c0-.4,0-.81,0-1.21,0-.64,0-1.3,0-2,0-.39,0-.51,0-.54s.12-.1.51-.07c1.12,0,2.26,0,3.42,0h2.69c.91,0,1.89,0,2.85,0h.15a7,7,0,0,0,6.38-3.74q3.21-5.56,6.43-11.14l4-6.91A7,7,0,0,0,104.22,70.79ZM96.71,84.85l0,0a1.74,1.74,0,0,0-.11.18L95,87.76l-.34.59c-1.09,1.88-2.34,4-3.5,6.1a4.38,4.38,0,0,1-4.27,2.41c-2.56,0-5.18,0-7.49,0h-3a2,2,0,0,0-1.47.45,2,2,0,0,0-.46,1.53V99l-3.09-4.1c-1-1.27-2-2.59-3-3.88-.2-.27-.19-.34,0-.56,1.48-2.08,3-4.21,4.42-6.26l1.39-2,0,.73c.06,1.32.61,1.86,1.9,1.86H96.71Z"/></g></g></svg>