<svg xmlns="http://www.w3.org/2000/svg" viewBox="0 0 132.71 132.71"><defs><style>.cls-1{fill:#fff;}.cls-2{fill:#6c2912;}</style></defs><g id="Capa_2" data-name="Capa 2"><g id="Capa_1-2" data-name="Capa 1"><circle class="cls-1" cx="66.35" cy="66.35" r="66.35"/><circle class="cls-1" cx="66.35" cy="66.35" r="56.71"/><path class="cls-2" d="M109.29,99.12c-1.88.24-3.68.86-5.54,1.24-.71.14-1.41.33-2.11.5-.11,0-.25.12-.32.08-.81-.43-.53-1.33-.83-2-.18-.38.05-.46.37-.54,1.55-.36,3.09-.78,4.64-1.1.59-.12.76-.35.58-.89-.3-.87-.12-2.17-.8-2.53s-1.68.29-2.54.5q-17.13,4.11-34.25,8.19c-.61.15-.77.39-.74,1a15,15,0,0,1,0,2c-.06.66.21.74.76.6,3.82-.93,7.64-1.84,11.47-2.76,5.78-1.38,11.56-2.74,17.33-4.15.57-.13.71,0,.84.51.46,1.82.48,1.81-1.28,2.23L67.1,109.12a3,3,0,0,1-1.4-.05Q45,104.17,24.26,99.28c-.73-.17-1-.37-.77-1.19q.9-3.34,1.63-6.74c.14-.64.39-.66.92-.52,1.13.3,2.29.51,3.41.83.63.18.83,0,.94-.61.42-2.27.9-4.54,1.3-6.82.1-.56.31-.61.78-.5,2.25.55,4.5,1.1,6.75,1.62.47.11.56.25.45.73C39.22,88,39.25,88,37.4,87.54c-1-.23-2-.45-3-.71-.39-.1-.59-.11-.67.39-.26,1.56-.56,3.13-.9,4.68-.11.49.08.58.45.67l31,7.37c.6.15.79.08.58-.62a10,10,0,0,0-7.77-7.08c-4.91-1.16-9.82-2.35-14.73-3.51-.55-.12-.73-.24-.58-.86.45-1.79.41-1.8,2.27-1.36,4.8,1.15,9.6,2.26,14.39,3.45a11.93,11.93,0,0,1,6.36,4c.07.08.15.14.36.34,0-2.09,0-4,0-6,0-.57-.53-.41-.84-.42a27.25,27.25,0,0,1-7.55-1.42C45.34,82.55,37.75,74.81,35.08,63c-2.7-11.95.49-22.56,9.35-31.17a29.62,29.62,0,0,1,17.11-8c9.51-1.29,18.17.8,25.7,6.87A30.49,30.49,0,0,1,98,49.11c2.32,11.53-.8,21.48-9.08,29.74a30.73,30.73,0,0,1-18.47,8.86c-.69.09-1.38.14-2.08.19-.39,0-.61.15-.61.61,0,1.78,0,3.57,0,5.35.1,0,.18,0,.2,0a13.7,13.7,0,0,1,7.74-4.33c8.18-1.9,16.33-3.88,24.49-5.85.67-.16,1-.12,1.08.67.37,2.26.87,4.49,1.29,6.74.09.5.2.66.74.51,1.1-.32,2.24-.51,3.34-.81.53-.14.72-.07.84.5.51,2.29,1.08,4.56,1.64,6.84a3.61,3.61,0,0,0,.17.46ZM45.55,34.49c1.88,0,3.52,0,5.16,0,.63,0,.85.2,1,.79.78,2.76,1.6,5.51,2.44,8.26a.92.92,0,0,1-.4,1.18c-2.4,1.83-4.77,3.7-7.17,5.53A1.39,1.39,0,0,0,46,51.49c0,1.79,0,3.58,0,5.37A1.14,1.14,0,0,1,45.43,58c-2.37,1.58-4.72,3.21-7.1,4.78A.94.94,0,0,0,37.89,64a29.59,29.59,0,0,0,16,18.62,29,29,0,0,0,10.47,2.73c.64,0,.82-.14.8-.77-.05-1.37,0-2.74,0-4.12,0-.54-.14-.72-.7-.69A25.39,25.39,0,0,1,59,79.47c-5.5-1-9.39-3.88-11.07-9.34a23.28,23.28,0,0,1-.62-9.72c.09-.81.37-1,1.16-1.12a27.82,27.82,0,0,1,7.68.23,13.7,13.7,0,0,1,8,4.13c.31.34.59.7,1,1.19,0-1.81,0-3.43,0-5,0-.82-.22-1-1-1-3-.13-5.44-1.25-6.68-4.19a11.13,11.13,0,0,1-.54-6,.56.56,0,0,1,.53-.53,12,12,0,0,1,2.93-.11A8.27,8.27,0,0,1,65,49.41a8.75,8.75,0,0,1,1.36,1.36,18.28,18.28,0,0,1,1.45-1.33c2.21-1.59,4.73-1.66,7.31-1.46.67.05.83.42.87,1a19.72,19.72,0,0,1,0,3.35,6.81,6.81,0,0,1-5,6.12,8.43,8.43,0,0,1-2.73.39c-.49,0-.62.17-.61.63,0,1.06,0,2.12,0,3.19a8.31,8.31,0,0,0,.1,2.14,11.28,11.28,0,0,1,2.58-2.66c4.47-3.08,9.49-3.26,14.65-2.74.37,0,.47.29.51.64a25.33,25.33,0,0,1-.17,8.51C84.3,73.82,81.28,77.45,76,79a22.14,22.14,0,0,1-7.47.75c-.56,0-.79.09-.77.71,0,1.42,0,2.85,0,4.28,0,.48.16.63.63.6a27.18,27.18,0,0,0,3.82-.51c9.93-2.15,17-7.86,21.42-17a.67.67,0,0,0-.23-1c-1.5-1.26-3-2.57-4.46-3.82a1.07,1.07,0,0,1-.39-1.29c.47-1.66.86-3.35,1.35-5a1.13,1.13,0,0,0-.37-1.32c-1-.91-1.84-1.87-2.79-2.79a1.33,1.33,0,0,1-.43-1c0-1.23,0-2.46,0-3.69a.89.89,0,0,1,.73-1c2.12-.78,4.23-1.59,6.35-2.37.46-.17.59-.32.37-.82a33.57,33.57,0,0,0-3.66-6.2c-.36-.48-.55-.33-.88,0-1.29,1.32-2.62,2.61-3.91,3.92a1.24,1.24,0,0,1-1,.4q-3.27,0-6.54,0a.89.89,0,0,1-.94-.6c-1-2.22-2.15-4.42-3.2-6.64A1,1,0,0,0,72.58,34c-2,0-4,0-6,0a1.3,1.3,0,0,1-1.14-.52c-1.58-1.89-3.24-3.71-4.76-5.65a2,2,0,0,0-2.52-.76A30.92,30.92,0,0,0,45.55,34.49Zm22.38,65.59c.38-.08.63-.12.87-.18l17.72-4.27c4.31-1,8.63-2.06,12.94-3.06.57-.13.77-.32.62-.94-.33-1.41-.6-2.84-.84-4.27-.1-.58-.26-.7-.87-.56-7.48,1.81-15,3.62-22.45,5.35a10.31,10.31,0,0,0-6,3.48A8.92,8.92,0,0,0,67.93,100.08ZM37.13,60.47c2-1.39,4-2.71,5.94-4a1,1,0,0,0,.39-.94c0-1.76,0-3.53,0-5.29A1.38,1.38,0,0,1,44.06,49c2.29-1.74,4.55-3.52,6.83-5.28.29-.23.55-.39.4-.88-.56-1.72-1.07-3.46-1.55-5.21-.13-.47-.38-.53-.78-.53-1.62,0-3.25,0-4.87,0a1.52,1.52,0,0,0-1.4.68,29.73,29.73,0,0,0-5.91,15.69A23.63,23.63,0,0,0,37.13,60.47ZM62.66,26.16a3.15,3.15,0,0,0,.17.33c1.32,1.56,2.65,3.1,4,4.67a1,1,0,0,0,.9.3c2.15,0,4.3,0,6.45,0a1.1,1.1,0,0,1,1.19.76c1,2.19,2.11,4.36,3.15,6.55a.89.89,0,0,0,1,.6c1.28,0,2.57,0,3.85,0a1.17,1.17,0,0,0,.9-.34c1.13-1.16,2.27-2.31,3.44-3.43.36-.35.32-.57,0-.87-.79-.7-1.54-1.46-2.36-2.13a30,30,0,0,0-16.87-6.63A22.89,22.89,0,0,0,62.66,26.16Zm2.5,78.4a4.68,4.68,0,0,1,0-.75c.13-.78-.17-1.15-1-1.3-1.39-.25-2.77-.62-4.15-1q-16-3.81-32-7.64c-.68-.16-1-.08-1.09.67a10.06,10.06,0,0,1-.44,1.78c-.17.58,0,.8.6.95q18.17,4.26,36.3,8.58C65.16,106.31,65.16,106.32,65.16,104.56ZM94.77,64.71C96.58,60.18,96.68,52,95,47.24c-.15-.43-.33-.46-.71-.31-1.64.63-3.29,1.24-4.93,1.86A1,1,0,0,0,89,49a3.8,3.8,0,0,0,.35,2.61c1,1,2,2.05,3,3a1.21,1.21,0,0,1,.38,1.39c-.49,1.63-.88,3.29-1.32,4.93-.1.36-.19.68.17,1C92.63,62.85,93.66,63.76,94.77,64.71ZM63.62,77.17,49.7,63.53C49.36,73.37,54.88,77.44,63.62,77.17Zm4.2-1.9c1.16-.9,13.17-13,13.45-13.56C72.56,61.65,67.65,65.62,67.82,75.27ZM83.25,64.1,70,77.21C78.62,77.17,83.31,73.33,83.25,64.1Zm-18.13,11c.26-4.19-.68-7.75-3.74-10.47-2.76-2.46-6.19-2.86-9.92-2.93ZM59.4,51.43c.11,2.63,1.26,4.11,3.61,4.64.49.11,1,.11,1.49.2s.66-.13.67-.64c.07-3.11-1.52-4.86-4.75-5.18C59.36,50.34,59.35,50.34,59.4,51.43Zm8.36,3.88c.17.28-.38,1,.53,1,3.36,0,5.38-2,5.26-5.31,0-.36,0-.57-.49-.55C70.33,50.55,68,51.41,67.76,55.31Z"/><path class="cls-2" d="M64,40.69c1.27,0,1.27,0,1.27,1.37,0,1.15,0,1.15-1.5,1.15-1.1,0-1.11,0-1.1-1.46C62.66,40.5,62.45,40.71,64,40.69Z"/><path class="cls-2" d="M69.07,40.69c1.21,0,1.21,0,1.21,1.19s0,1.33-1.32,1.33c-.25,0-.5,0-.75,0s-.57-.11-.53-.52c0-.19,0-.39,0-.59C67.68,40.69,67.68,40.69,69.07,40.69Z"/></g></g></svg>