<svg xmlns="http://www.w3.org/2000/svg" viewBox="0 0 132.71 132.71"><defs><style>.cls-1{fill:#fff;}.cls-2{fill:#6c2912;}</style></defs><g id="Capa_2" data-name="Capa 2"><g id="Capa_1-2" data-name="Capa 1"><circle class="cls-1" cx="66.35" cy="66.35" r="66.35"/><circle class="cls-1" cx="66.35" cy="66.35" r="56.71"/><path class="cls-2" d="M81.57,21.66a39.81,39.81,0,0,1,4.15,1c1.46.52,1.85,1.18,1.49,2.68a16.32,16.32,0,0,1-6.42,9.95l-.35.22a31.23,31.23,0,0,1,6.94,4.91A29.51,29.51,0,0,1,93.14,48c.27.5.44.74,1.12.47,3.1-1.23,6.27.69,7,4.26a61.55,61.55,0,0,1,.68,6.52c.4,4.07.78,8.14,1.11,12.22.21,2.57.68,5.13.26,7.72a10,10,0,0,1-1.23,3.45c-2.4,4.12-4.78,8.25-7.19,12.36-.27.45-.34.68.19,1a3.56,3.56,0,0,1,1.65,3.14c0,1.68,0,3.37,0,5A3.74,3.74,0,0,1,93,107.91c-.45,0-.9,0-1.34,0A1.7,1.7,0,0,1,90,106.2a1.78,1.78,0,0,1,1.59-1.68c1.74-.16,1.74-.16,1.74-1.93,0-1,0-2.08,0-3.12,0-.57-.2-.8-.79-.8q-8.42,0-16.84,0c-.56,0-.74.22-.74.75q0,2.19,0,4.38c0,.55.21.77.75.73a5.68,5.68,0,0,1,1,0,1.65,1.65,0,0,1,1.5,1.73,1.61,1.61,0,0,1-1.57,1.64,8.36,8.36,0,0,1-2.18-.07,3.73,3.73,0,0,1-2.94-3.64c-.07-1.71-.06-3.43,0-5.14A3.69,3.69,0,0,1,74,95.51c.32-.12.43-.22.36-.59-.16-.91-.29-1.83-.38-2.75,0-.46-.23-.46-.59-.37a29.64,29.64,0,0,1-13.67,0c-.41-.1-.64-.08-.63.42a4.86,4.86,0,0,1-.12.84c-.22,1.28-.56,2.45,1.21,3.16,1.12.44,1.41,1.81,1.41,3,0,1.54,0,3.09,0,4.63a3.79,3.79,0,0,1-4.09,4c-.33,0-.67,0-1,0a1.62,1.62,0,0,1-1.6-1.69,1.66,1.66,0,0,1,1.54-1.69c.52-.06,1.18.24,1.54-.15s.14-1.19.16-1.8c0-1.06,0-2.13,0-3.2,0-.49-.19-.7-.7-.7q-8.46,0-16.92,0c-.55,0-.75.24-.74.77q0,2.15,0,4.29c0,.58.19.84.78.8a5.68,5.68,0,0,1,1,0,1.74,1.74,0,0,1,1.54,1.71,1.67,1.67,0,0,1-1.59,1.65,7.31,7.31,0,0,1-2.42-.12,3.74,3.74,0,0,1-2.7-3.56c0-1.69,0-3.37,0-5.06A3.58,3.58,0,0,1,38.11,96c.54-.34.41-.56.18-1C36,91,33.75,87.05,31.38,83.15a12.66,12.66,0,0,1-1.61-8.08c.43-4.72.83-9.44,1.29-14.16.26-2.73.34-5.49.83-8.19a5.4,5.4,0,0,1,4.83-4.66,4.75,4.75,0,0,1,2.38.41c.33.16.53.2.73-.19A30.26,30.26,0,0,1,52.58,35.61c0-.27-.22-.32-.37-.43a16.33,16.33,0,0,1-6.32-10.09c-.28-1.23.14-1.87,1.33-2.34,1.36-.53,2.81-.7,4.2-1.09h3.87a2,2,0,0,0,.38.15,13.89,13.89,0,0,1,9.4,5.61c.53.71,1,1.47,1.48,2.21.31-.15.37-.45.5-.68a14.36,14.36,0,0,1,8.39-6.7c.8-.24,1.62-.4,2.43-.59ZM51.43,40.29c2,1.69,6,2.41,9,1.65A18.92,18.92,0,0,1,67,41.19,5.61,5.61,0,0,1,72.06,45,5.29,5.29,0,0,1,70.64,51a8.67,8.67,0,0,1-5,2.22c-3.26.5-6.23,1.58-8.51,4.12a9.37,9.37,0,0,1-1,.87c-2.59,2.09-5.42,3.37-8.85,2.8a3.38,3.38,0,0,0-1.41.08,4.65,4.65,0,0,0-3.11,5.53c.08.34.22.37.53.33a5.58,5.58,0,0,1,4.87,1.74c1.15,1.14,2.3,2.31,3.48,3.43,4.49,4.26,7.5,9.25,7.68,15.63,0,.45.26.55.61.64a26.86,26.86,0,0,0,13.3,0,.68.68,0,0,0,.61-.74,20.39,20.39,0,0,1,.8-5c.13-.43,0-.64-.4-.83A6,6,0,0,1,71,77.76a9.84,9.84,0,0,0-.38-1.2c-.72-1.88-1.51-2.28-3.51-1.87a15.69,15.69,0,0,1-2.53.57,10.8,10.8,0,0,1-7.85-3.06,6.49,6.49,0,0,1-1.83-3.07,4.5,4.5,0,0,1,2.27-5.41,6.52,6.52,0,0,1,4-.61,6.62,6.62,0,0,0,4.17-1A12.21,12.21,0,0,0,68,59.94a5.43,5.43,0,0,1,5-1.73c.8.12,1.6.3,2.4.41,1,.16,1.43-.07,1.81-1a14.14,14.14,0,0,0,.49-1.52,17.7,17.7,0,0,1,8.07-11.14c.65-.41.69-.63.13-1.17-8-7.71-17.35-9.91-28-6.71A22.26,22.26,0,0,0,51.43,40.29Zm-2.72,55c1.94,0,3.87,0,5.81,0,.51,0,.69-.12.79-.67a34.87,34.87,0,0,0,.52-5.94,16.66,16.66,0,0,0-3.39-10.51,60.41,60.41,0,0,0-5.59-5.94,14.92,14.92,0,0,0-1.54-1.44,2.2,2.2,0,0,0-3.39,1,2.34,2.34,0,0,0,.7,2.52c2.07,2,4.11,4.06,6.15,6.12a1.75,1.75,0,1,1-2.44,2.49C44.15,80.74,42,78.6,39.84,76.4a5.56,5.56,0,0,1-.77-6.76,2.2,2.2,0,0,0,.33-1.34c-.17-3.67-.29-7.35-.51-11a29.77,29.77,0,0,0-.31-4.52,1.5,1.5,0,0,0-1.22-1.24,1.46,1.46,0,0,0-1.53.66,4,4,0,0,0-.72,2.21c-.3,3.37-.59,6.75-.9,10.13-.36,4-.75,8-1.07,12.06A7,7,0,0,0,34,80.79q4,6.93,8.06,13.89a1,1,0,0,0,1,.57C45,95.22,46.83,95.24,48.71,95.24Zm35.65,0c1.94,0,3.88,0,5.81,0a.85.85,0,0,0,.86-.49q4.08-7.07,8.18-14.12a5.87,5.87,0,0,0,.7-2,17.19,17.19,0,0,0-.06-4.36c-.29-3.41-.64-6.81-.95-10.22s-.57-6.64-.88-10a3.33,3.33,0,0,0-.8-2,1.49,1.49,0,0,0-2.6.55,4.55,4.55,0,0,0-.2,1.15c-.23,4.88-.44,9.76-.67,14.63a2.14,2.14,0,0,0,.34,1.26,5.39,5.39,0,0,1-.52,6.43c-2.22,2.41-4.59,4.69-6.94,7a1.62,1.62,0,0,1-2.35,0,1.69,1.69,0,0,1-.07-2.42,6.69,6.69,0,0,1,.59-.6c2-2,3.91-3.87,5.84-5.84a2.21,2.21,0,0,0-.49-3.61,2.35,2.35,0,0,0-2.7.54c-1.6,1.57-3.22,3.13-4.77,4.75a17.51,17.51,0,0,0-5.05,9.23,28,28,0,0,0,.22,9.53c.09.55.28.68.79.67C80.55,95.23,82.45,95.24,84.36,95.24ZM60.47,66.5c-1-.06-1.81,0-2.21.71s0,1.41.42,2a3,3,0,0,0,.79.87c1.89,1.33,3.88,2.25,6.27,1.38a8.24,8.24,0,0,1,1.14-.27,5.55,5.55,0,0,1,6.26,2.69A12.46,12.46,0,0,1,74.35,77a2.7,2.7,0,0,0,1.08,1.55c.42.3.73.4,1-.2A11.22,11.22,0,0,1,77.32,77c2.33-3.42,5.43-6.12,8.4-8.93a4.66,4.66,0,0,1,3.92-1.15c.66.09.77-.12.79-.66.06-1.77.12-3.53.22-5.3.16-2.91.11-5.83.5-8.72a1.45,1.45,0,0,0-.12-.82A30.38,30.38,0,0,0,89,47.62c-.22-.35-.38-.45-.78-.21a14.53,14.53,0,0,0-6.64,7.85c-.43,1.33-.81,2.68-1.34,4A4.24,4.24,0,0,1,76.61,62,11,11,0,0,1,73,61.68a2.47,2.47,0,0,0-2.59.71,17.42,17.42,0,0,1-2.12,1.91A9.9,9.9,0,0,1,60.47,66.5Zm-11.4-8.85.51,0a8,8,0,0,0,4.77-2.46A17.32,17.32,0,0,1,63.94,50a11.65,11.65,0,0,0,3.47-.92,2.34,2.34,0,0,0,1.5-2.71,2.58,2.58,0,0,0-2.55-1.8,13.34,13.34,0,0,0-4.08.47A15.19,15.19,0,0,1,49,42.8a.5.5,0,0,0-.77.06,27,27,0,0,0-6.06,8.51,1.33,1.33,0,0,0-.1.89A8.68,8.68,0,0,1,42.19,54c.05,1.43.13,2.85.18,4.28,0,.53.17.64.64.3a6,6,0,0,1,3.8-1.08ZM79.82,25a11.19,11.19,0,0,0-10.34,6.55c-.27.58-.18.79.46.84a24.35,24.35,0,0,1,5.66,1.17A1.74,1.74,0,0,0,77,33.53a12,12,0,0,0,6.5-7.43c.18-.5,0-.58-.39-.66A16.15,16.15,0,0,0,79.82,25ZM53.56,25a14.85,14.85,0,0,0-3.59.47c-.28.08-.44.12-.31.49A11.85,11.85,0,0,0,56.4,33.6a1.43,1.43,0,0,0,1,0,25,25,0,0,1,5.73-1.21c.67,0,.8-.25.48-.87A11.06,11.06,0,0,0,53.56,25Z"/></g></g></svg>