<svg xmlns="http://www.w3.org/2000/svg" viewBox="0 0 111.02 119.32"><defs><style>.cls-1{fill:#c98b5f;}</style></defs><g id="Capa_2" data-name="Capa 2"><g id="Capa_1-2" data-name="Capa 1"><path class="cls-1" d="M44.61,57.61C47.2,52,50.83,48,57.1,47.31c4.28-.45,7.4,1.68,8.75,5.77.54,1.62,2.19,1.68,3.26,2.54.38.31.52-.26.52-.63,0-3.52,0-7.05,0-10.57,0-.67-.35-.93-.93-1.1C60,40.74,56.23,30.62,59,21.88,61.6,13.4,67.73,8,75.34,4a36.9,36.9,0,0,1,16-4c-.73,2-1.29,3.8-2,5.54a41.48,41.48,0,0,0-3,21A16.79,16.79,0,0,1,83.6,38.18c-2.16,3.09-4.94,5.18-8.75,5.62-1.08.12-1.35.59-1.35,1.62,0,9.38,0,18.76,0,28.14,0,.49-.39,1.46.55,1.36.78-.09,2-.14,2-1.33a53.92,53.92,0,0,1,1.74-11.85,1.17,1.17,0,0,0-.17-1c-3.62-5.31-.31-12,4.68-14.75C87.66,43.06,93.15,42.81,99,44.7c-1,1.26-1.82,2.46-2.79,3.57a18.35,18.35,0,0,0-4.12,7.85c-.64,2.65-1.61,5.14-4.1,6.68a6.47,6.47,0,0,1-5.26,1.12c-1-.28-1.49,0-1.71,1.11-.41,2.06-.65,4.13-.86,6.21-.13,1.22.38,1.15,1.21.74a47.14,47.14,0,0,0,6.41-3.56c3.52-2.44,7.68-1.87,10,1.32S99.46,77.23,96,79.82c-5.86,4.3-12.5,7.2-18.87,10.6-6.64,3.55-13.7,5-21.07,5.69-5.93.57-11.8,1.73-17.66,2.87a16.92,16.92,0,0,0-7.21,3.81A124.39,124.39,0,0,0,15.73,118c-.45.5-.84,1.57-1.51,1.27a8.75,8.75,0,0,1-2.47-2c-.33-.32.08-.65.3-.91,5.61-6.37,11.39-12.55,18.16-17.75,4-3.11,8.84-3.73,13.58-4.56q10.68-1.89,21.46-3c2.3-.24,4.26-1.53,6.31-2.46,7.29-3.3,14.55-6.68,21.18-11.22a13.74,13.74,0,0,0,1.43-1.08,3.2,3.2,0,0,0,.45-4.36,3,3,0,0,0-4.17-.6c-5.48,3.75-11.64,6-17.78,8.35-4.34,1.65-8.85,1.94-13.37,2.11-3.76.13-7.53-.07-11.29.07-1.7.06-1.61-.83-1.63-2s0-2,1.67-2c3.58.12,7.17,0,10.76,0a3.19,3.19,0,0,0,3.38-2.1c.89-2.32-.27-4.13-2.74-4.16q-6.37-.06-12.73,0a6.92,6.92,0,0,1-3.1-.66,20.18,20.18,0,0,0-12.8-1.17,9.67,9.67,0,0,0-5.65,3.52c-6.91,8.31-14,16.47-21.67,24.12-.68.68-1.29,1.57-2.19.22-.61-.92-2.27-1.35-.56-3A297.11,297.11,0,0,0,22.2,70.89a14.25,14.25,0,0,1,9.87-5.18c4.51-.49,9-.22,13.14,1.79a4.58,4.58,0,0,0,2.1.3c4.12,0,8.24,0,12.36,0a6.58,6.58,0,0,1,6.6,7.92c-.08.51-.78,1.5.4,1.43s2.83.41,2.89-1.26c.17-4.29.17-8.6,0-12.89-.11-2.25-1.82-3.67-3.66-4.8-.75-.46-1.07.1-1.48.52a6.47,6.47,0,0,1-6.77,1.62c-2.13-.58-4-2-6.19-2.28S47,57.77,44.61,57.61ZM62,27.75c.1,4.38,1.56,8.42,5.86,11,1.63,1,1.78.86,1.91-1A103.67,103.67,0,0,1,71.8,22.14c.22-1,.28-2.05,1.87-1.49,1.21.42,2.49.33,2,2.4a86.61,86.61,0,0,0-2.08,15.57c-.09,1.32.41,1.53,1.52,1.26a9.09,9.09,0,0,0,5.54-4.22c2-3,2.09-6.4,1.79-9.84A41.14,41.14,0,0,1,85,6.15c.17-.4.6-.89.19-1.3s-.91,0-1.35.13A32.72,32.72,0,0,0,68.07,14C64.5,17.74,62.08,22.05,62,27.75ZM92,47.33a15.81,15.81,0,0,0-6.9,1.6c-2.36,1.21-4.27,2.83-4.89,5.58s.62,4.91,2.93,5.55c1.9.52,3.88-.73,4.65-3.21C88.82,53.67,89.64,50.44,92,47.33ZM51.57,54.07a33.52,33.52,0,0,1,6.63,2.38c1.7.73,3.13.31,3.71-1a3,3,0,0,0-1.53-3.75,4.54,4.54,0,0,0-2.56-.63A9.22,9.22,0,0,0,51.57,54.07Z"/><path class="cls-1" d="M14.36,76.79a24.4,24.4,0,0,1-3.16-4.1c-.37-.76.87-1.7,1.43-2.51A2.82,2.82,0,0,0,13,67.26c-.7-2-2-2.46-3.82-2.37C7.6,65,7,64.32,7,62.7c0-2.15-.1-4.3-.26-6.45-.07-1.08.15-1.73,1.38-1.74a8.44,8.44,0,0,0,1.4-.27,3.29,3.29,0,0,0,2-5.59c-1.76-2.18-1.77-2.18.06-4.2,1.32-1.47,2.7-2.88,4-4.39.65-.77,1.2-.81,1.93-.19.36.3.78.55,1.17.82a3.81,3.81,0,0,0,4.95-.34c.82-.79.57-1.93.58-2.9,0-1.56.6-2.21,2.21-2.19,2.21,0,4.42-.11,6.62-.26,1-.07,1.5.14,1.54,1.18a10.51,10.51,0,0,0,.24,1.22,3.93,3.93,0,0,0,3.71,3.5c1,.07,1.6-.77,2.19-1.38C42,38.16,43,38,44.41,39.56A44.32,44.32,0,0,0,49,43.8c.76.64.83,1.16.2,1.91a20.91,20.91,0,0,0-1.32,1.91c-1.47,2.17-2.09,2.2-4,.37-.78-.74-.15-1.23.22-1.65,1-1.14.05-1.63-.6-2.32s-1.38-1-2.07-.07c-1.36,1.75-2.84,1.71-4.59.55a5.68,5.68,0,0,0-2.67-1c-2-.09-2.75-1.1-2.76-2.91,0-1.32-.64-1.61-1.92-1.62-1.43,0-1.84.69-1.74,1.82.16,1.91-.68,2.77-2.5,3.14a6.61,6.61,0,0,0-2.89,1.37c-1.47,1.25-2.7,1.16-4-.14-1-1-1.76-.67-2.62.31s-.86,1.51,0,2.25c1.49,1.26,1.74,2.57.57,4.28a7.88,7.88,0,0,0-1.16,3.36c-.19,1.46-.85,2.1-2.26,2.15s-2.34.55-2.16,2.38,1.4,1.38,2.33,1.4a2.16,2.16,0,0,1,2.44,2,8.24,8.24,0,0,0,1.54,3.4c1.27,1.5,1.11,2.69-.11,4-.74.78-1.11,1.58,0,2.36.5.33.54.75.08,1.18A13.69,13.69,0,0,1,14.36,76.79Z"/><path class="cls-1" d="M93.65,5.83c0-3,0-3,2.51-2.94,1,0,1.35.26,1.38,1.31a2.49,2.49,0,0,0,3.81,2c.52-.29,1.05-.55,1.55-.88a1,1,0,0,1,1.51.32c1.4,1.86,2.8,3.72,4.26,5.53.79,1-.11,1.33-.54,1.9-.67.88-1.92,1.33-1.6,2.92a2.78,2.78,0,0,0,2.74,2.45c1.5.19,2,.86,1.64,2.4a20.49,20.49,0,0,0-.58,4.61c0,2-.82,2.81-2.8,2.47-1.28-.21-2,.37-2.67,1.5-.89,1.44.06,2.27.63,3.2.68,1.1.78,1.82-.47,2.6a22.29,22.29,0,0,0-3.81,3c-1.4,1.36-2.54,1.49-3.69-.2-.8-1.18-1.82-1.17-3.11-.79A1.76,1.76,0,0,0,93,38.69c-.28,1.77-1.42.81-2.16.6s-2.19,0-1.61-1.64a1.22,1.22,0,0,0,.07-.17c.33-2.44,1.25-4.25,4.17-4.08A2.5,2.5,0,0,0,94.8,33c1.54-1,2.84-1,3.93.67.54.8,1.11.56,1.79.08a1,1,0,0,0,.2-1.63,2.44,2.44,0,0,1,.29-3.84,3.55,3.55,0,0,0,.84-1.37c.71-1.82,1.43-3.51,4-2.93.87.2.79-.69.9-1.24s.06-1.15-.68-1.18c-2.21-.1-2.86-1.45-2.89-3.4a3.15,3.15,0,0,0-.36-1.38c-.92-1.73-1.24-3.29.73-4.58.67-.44.29-1-.09-1.54s-.9-.88-1.48-.37c-1.56,1.37-2.9,1.07-4.27-.33a4.2,4.2,0,0,0-1.87-1C94,8.44,93.18,7.43,93.65,5.83Z"/><path class="cls-1" d="M18.74,58.48A11.69,11.69,0,1,1,42,60.08c-.12,1-.42,1.24-1.47,1-1.63-.31-2.57-.67-2.44-2.75A7.31,7.31,0,0,0,33,51.3a7.83,7.83,0,0,0-9.44,11.23c.29.52,1.2,1,.65,1.66a9.48,9.48,0,0,1-2.24,2c-.51.34-.79-.36-1.05-.72A11.17,11.17,0,0,1,18.74,58.48Z"/><path class="cls-1" d="M99,20.85a8.63,8.63,0,0,1-7.89,8.45c-.59,0-1.75.48-1.6-.69S89,26,90.65,25.48c.17-.05.36,0,.53-.08a4.72,4.72,0,0,0,1-9c-1-.49-1.34-3.29-.5-4,.39-.31.79,0,1.17.11A8.66,8.66,0,0,1,99,20.85Z"/></g></g></svg>