<svg xmlns="http://www.w3.org/2000/svg" viewBox="0 0 236.07 271.59"><defs><style>.cls-1{fill:#c98b5f;}.cls-2{fill:#6c2912;}.cls-3{fill:none;stroke:#6c2912;stroke-miterlimit:10;stroke-width:2px;}</style></defs><g id="Capa_2" data-name="Capa 2"><g id="Capa_1-2" data-name="Capa 1"><rect class="cls-1" width="236.07" height="271.59" rx="35.2"/><path class="cls-2" d="M193.47,210.13c-1.05,2.61-3,3.52-5.76,3.48-6.39-.1-12.78,0-19.18,0-3,0-3.73-.79-3.74-3.82,0-4.72,0-9.44,0-14.16a6.62,6.62,0,1,0-13.24,0c0,3.91,0,7.82,0,11.72,0,1.23.37,1.58,1.55,1.51,1.62-.09,3.25,0,4.87,0a2.47,2.47,0,0,1,2.64,2.2,2.5,2.5,0,0,1-2.5,2.53c-.4,0-.81,0-1.22,0H43.48a15.54,15.54,0,0,1-1.67-.06A4.44,4.44,0,0,1,37.64,209q0-27.78,0-55.55c0-3.08,2.41-5.24,6-5.32a10.94,10.94,0,0,1,9.09,4.08,1.91,1.91,0,0,0,1.64.78c5.56.17,10,2.16,12,7.8.22.61.59.69,1.15.69,7.15,0,14.3,0,21.45,0,.93,0,1.07-.36,1.06-1.16,0-4.21,0-8.42,0-12.63,0-.55.07-1-.69-1.28a2.07,2.07,0,0,1-1.44-2.11,2.39,2.39,0,0,1,1.57-2.22,53.83,53.83,0,0,1,8.47-3.3,1.45,1.45,0,0,0,1.24-1.69c0-8.82,0-17.65,0-26.48,0-1.34.23-2.49,1.63-2.9s2.28.29,2.92,1.54c.52,1,1.53.36,2.3.42s.51-.68.45-1c-1.13-7.72,2-14.47,4.74-21.32,1-2.55,2.36-5,2.08-8-.11-1.17-.23-1.81-1.57-1.6a2.7,2.7,0,0,1-1.2-.08,2.23,2.23,0,0,1-1.76-2.36,2.12,2.12,0,0,1,2-2.13,2.81,2.81,0,0,1,.76-.05c1.38.22,1.85-.32,1.77-1.74-.1-1.66.69-2.6,2-2.77,1.6-.21,2.73.8,2.66,2.69-.06,1.49.39,1.92,1.86,1.85,1.73-.09,2.8,1,2.74,2.35s-1.17,2.32-2.9,2.22c-1.33-.08-1.72.29-1.7,1.66a13.94,13.94,0,0,0,1,5.3c1.62,3.93,3.05,7.94,4.68,11.86a14,14,0,0,1,1.16,6.19c-.09,1.88,0,3.76,0,5.63,0,.47-.38,1.32.49,1.33s1.73.55,2.34-.42a2.28,2.28,0,0,1,2.81-1.22c1.3.43,1.67,1.47,1.65,2.77,0,3,0,6,0,9,0,1.73-.89,2.73-2.36,2.74s-2.23-1-2.27-2.64c0-1.42-.07-2.84,0-4.26,0-.89-.26-1.35-1.22-1.23-3.27.39-6.32-.53-9.33-1.59a3.28,3.28,0,0,0-2.35,0c-3.07,1.09-6.18,2-9.49,1.59-.83-.1-1.15.19-1.15,1.08q0,10.27,0,20.55c0,.91.25,1.08,1.16.91a53.07,53.07,0,0,1,21.12,0c1,.22,1.35,0,1.32-1.07-.06-2.08,0-4.16,0-6.24,0-1.65.94-2.63,2.32-2.59a2.35,2.35,0,0,1,2.3,2.65c0,2.48,0,5,0,7.45a1.35,1.35,0,0,0,1.16,1.59,54.35,54.35,0,0,1,8.33,3.23,2.55,2.55,0,0,1,1.79,2.23,2.16,2.16,0,0,1-1.62,2.29c-.56.19-.5.56-.5.94,0,4.37,0,8.73,0,13.09,0,1.23.78.93,1.42.93,7.46,0,14.92.06,22.37,0a10.91,10.91,0,0,1,5.76,1.54c5.57,3.22,11.18,6.36,16.78,9.52.43.24.8.63,1.42.59V150.47a15.69,15.69,0,0,0-7.27,9.17,5.49,5.49,0,0,1-.56,1.55,2.06,2.06,0,0,1-2.65.85,2.22,2.22,0,0,1-1.48-2.67,19.09,19.09,0,0,1,6.85-11c.57-.48,1.19-.91,2-1.55-4.6-1.18-8.83-1.08-12.91.91-1.11.54-2.11.74-3.09-.14a2.32,2.32,0,0,1,.65-3.81,20.24,20.24,0,0,1,12-2.27c1.49.15,3,.48,4.69.77a16,16,0,0,0-4.2-4.85,14.68,14.68,0,0,0-5-2.8c-1.67-.52-2.44-1.71-2-3s1.78-2,3.51-1.38a21.2,21.2,0,0,1,13.71,14.55c.09.29,0,.62.34.81ZM188.9,187c0-2.59-.05-4.87,0-7.15a1.83,1.83,0,0,0-1.1-1.89c-6.67-3.73-13.31-7.52-20-11.29a4.31,4.31,0,0,0-2.13-.7q-11.79,0-23.58,0c-.79,0-1.06.21-1.05,1,.05,2.33.05,4.67,0,7,0,.85.22,1.15,1.1,1.12,2.18,0,4.36,0,6.54,0a2.3,2.3,0,1,1,0,4.57c-2.08,0-4.16.08-6.24,0-1.19-.06-1.4.36-1.4,1.45,0,7.91,0,15.82,0,23.74,0,1.3-.57,3,.26,3.8s2.52.12,3.81.27,1.49-.42,1.49-1.55c0-4.41-.1-8.83.19-13.22A11.26,11.26,0,0,1,158.22,184a11.38,11.38,0,0,1,11.24,10.13c.39,4.45.08,8.92.17,13.38,0,1,.13,1.45,1.29,1.44,5.58-.06,11.16-.05,16.74,0,1,0,1.25-.36,1.24-1.31q-.06-7.08,0-14.15a1.73,1.73,0,0,0-1-1.76c-4.78-2.66-9.68-5.15-14.24-8.13s-9.36-4.65-14.84-3.89c-.1,0-.21,0-.31,0-1.62,0-2.63-.95-2.6-2.33s1-2.24,2.68-2.25c2.23,0,4.46,0,6.69,0a8.73,8.73,0,0,1,4.78,1.24c2.71,1.57,5.46,3.1,8.19,4.64Zm-94.31.46c0,6.69,0,13.38,0,20.08,0,1,.24,1.42,1.34,1.38,2.27-.08,4.56-.08,6.84,0,1.11,0,1.35-.39,1.33-1.4,0-3.15,0-6.29,0-9.44,0-5.32-.19-10.66.18-16a11.24,11.24,0,0,1,16.56-9c4.37,2.34,6.18,6.18,6.17,11,0,7.76,0,15.52,0,23.28,0,1.13.29,1.5,1.45,1.45,2.17-.09,4.36-.08,6.54,0,1.15,0,1.54-.24,1.54-1.49q-.07-20,0-40c0-1.11-.24-1.46-1.41-1.45q-19.55.06-39.1,0c-1.28,0-1.46.46-1.45,1.57C94.61,174.19,94.59,180.83,94.59,187.48ZM90,194.3h0c0-4.37,0-8.73,0-13.09,0-1.12-.2-1.56-1.46-1.55-7.56.07-15.12.05-22.67,0a5.14,5.14,0,0,0-2.6.69q-10,5.72-20.07,11.39a1.63,1.63,0,0,0-1,1.63q.07,7.14,0,14.3c0,1,.35,1.25,1.3,1.24,5.43,0,10.85-.06,16.28,0,1.31,0,1.72-.29,1.71-1.66-.05-4.36-.12-8.73.17-13.08A11.26,11.26,0,0,1,72.94,184a11.4,11.4,0,0,1,11.31,10.23c.33,3.54,0,7.09.16,10.64,0,1.3-.55,3,.31,3.79s2.52.14,3.82.28c1.1.12,1.48-.22,1.46-1.4C89.92,203.12,90,198.71,90,194.3Zm-47.75-7.57a2.9,2.9,0,0,0,1.61-.65q8.61-4.85,17.19-9.72a9.23,9.23,0,0,1,4.77-1.26c7.55,0,15.11,0,22.67.05,1.31,0,1.61-.38,1.55-1.61-.1-2.08-.09-4.16,0-6.24,0-1.11-.34-1.33-1.38-1.32-7.65,0-15.31,0-23,0a4,4,0,0,0-2,.51L43,178.18c-.45.26-.82.48-.81,1.12C42.25,181.77,42.22,184.24,42.22,186.73Zm66.7,8.48c0,4.11,0,8.21,0,12.31,0,1,.25,1.33,1.28,1.32,3.54-.06,7.09-.06,10.63,0,1,0,1.4-.29,1.39-1.36,0-8.1,0-16.21,0-24.31a6.62,6.62,0,0,0-13.24,0C108.9,187.21,108.92,191.21,108.92,195.21Zm20.64-33.79c1.87,0,3.75,0,5.62,0,.51,0,1.47.37,1.3-.67s.87-2.25-.89-2.74a10.57,10.57,0,0,1-7.16-6.88,18.1,18.1,0,0,1-1-7.61c.07-1.16-.24-1.65-1.47-1.9a50.24,50.24,0,0,0-19.32-.27c-2.88.51-2.89.43-2.92,3.4a9.38,9.38,0,0,1,0,1.06c-.56,5.62-2.38,10.36-8.39,12.3-1.4.45-.49,1.73-.64,2.61s.65.69,1.15.69c3.85,0,7.7,0,11.55.05,1.08,0,1.38-.32,1.36-1.37-.06-3.29,0-6.58,0-9.88a3.49,3.49,0,0,1,1.3-2.91,8.13,8.13,0,0,1,10.83-.29,3.86,3.86,0,0,1,1.66,3.37c-.06,3.29,0,6.59,0,9.88,0,.92.28,1.23,1.21,1.2C125.6,161.38,127.58,161.42,129.56,161.42Zm-50,39.77h0c0-2.07,0-4.15,0-6.22a6.62,6.62,0,0,0-13.2,0c-.07,4.2,0,8.4,0,12.6,0,.89.22,1.26,1.18,1.25,3.65-.05,7.29-.05,10.94,0,1,0,1.18-.41,1.16-1.27C79.54,205.44,79.57,203.32,79.57,201.19ZM42.25,173.13c.45-.21.68-.29.89-.41l17.32-9.8c1.61-.91,1.69-1.26.42-2.7-2-2.26-4.6-2.82-7.45-2.5-2.46.27-2.82.12-3.94-2.05a5.6,5.6,0,0,0-6.3-2.77,1.17,1.17,0,0,0-.95,1.3C42.26,160.44,42.25,166.67,42.25,173.13Zm68.82-64.25c2.86-1.43,5.47-1.68,8.11-.42.81.38.82-.18.82-.73,0-1.41,0-2.83,0-4.25,0-.74-.21-1.12-1-1.11-2.33,0-4.65,0-7,0-.59,0-1,.16-.94.86C111.09,105,111.07,106.76,111.07,108.88Zm2.42,46.77c0,1,0,1.93,0,2.89.09,3.24-.66,2.71,3,2.8.81,0,1.19-.19,1.18-1.09,0-2.94,0-5.88,0-8.82,0-1.49-1.11-1.54-2.12-1.53s-2,.1-2,1.49Zm18.59-12.24a13.44,13.44,0,0,0,.31,4.82,7.08,7.08,0,0,0,3.1,4.68c.65.38,1,.39,1-.52q0-3.34,0-6.68a1,1,0,0,0-.75-1.14A21.85,21.85,0,0,0,132.08,143.41ZM94.65,149c0,.86,0,1.72,0,2.58,0,.48-.28,1.18.23,1.39s1-.36,1.39-.72C98.69,150,98.87,147,99,144c0-.71-.47-.49-.84-.41-3.26.71-3.54,1-3.54,4.34Zm24.22-51.56-3.34-8.51-3.33,8.51Z"/><path class="cls-2" d="M115.58,117.87a6.89,6.89,0,1,1-7,6.93A6.92,6.92,0,0,1,115.58,117.87Zm-.06,4.66a2.23,2.23,0,1,0,2.18,2.23A2.2,2.2,0,0,0,115.52,122.53Z"/><line class="cls-3" x1="33.4" y1="237.8" x2="193.47" y2="237.8"/></g></g></svg>