<svg xmlns="http://www.w3.org/2000/svg" viewBox="0 0 127.46 127.5"><defs><style>.cls-1{fill:#c98b5f;}</style></defs><g id="Capa_2" data-name="Capa 2"><g id="Capa_1-2" data-name="Capa 1"><path class="cls-1" d="M127.45,68.48c0,2.83,0,5.65,0,8.47a20.68,20.68,0,0,1-4.88,13.59q-8.75,10.36-17.46,20.76a10.34,10.34,0,0,0-1.33,1.71c-.42.79-.25,1.42.83,1.43l3.9,0c1.92,0,3,1,3,2.93,0,2.39,0,4.78,0,7.17,0,1.7-.79,2.87-2.52,2.89s-2.54-1.15-2.57-2.85v-.21c-.17-4.83-.17-4.83-5.1-4.83-8.25,0-16.5,0-24.75,0-1.77,0-2.55.46-2.33,2.31a20.43,20.43,0,0,1,0,3,2.43,2.43,0,0,1-2.38,2.6,2.26,2.26,0,0,1-2.57-2.13,39.27,39.27,0,0,1,.05-8.87,2.21,2.21,0,0,1,2.67-2c2.23.25,2.61-.82,2.57-2.77-.1-5.71,0-11.43,0-17.15a19.1,19.1,0,0,1,6-14.77C86.46,74.12,92.23,68.22,98,62.36a11.3,11.3,0,0,1,6.72-3.66c1.37-.16,1.24-.83,1-1.78-.85-3.06-1.83-6.1-2.46-9.2-.87-4.32.75-7.81,4.24-10.41a18,18,0,0,1,4.84-2.43,5,5,0,0,1,6.26,2.53c2.64,5.3,5.17,10.66,7.67,16a14.43,14.43,0,0,1,1.16,6.13v8.9Zm-47.8,34.11h0c0,3.4,0,6.8,0,10.2,0,1.18.34,1.69,1.59,1.68,5.21,0,10.42,0,15.63,0,1,0,1.71-.28,1.59-1.46a4.61,4.61,0,0,1,1.48-3.47C106,102.3,112.07,95,118.19,87.79c2.27-2.67,3.94-5.65,4-9.16.17-6.72.1-13.45.05-20.17a7.16,7.16,0,0,0-.69-2.94c-2.27-4.92-4.63-9.79-6.94-14.7-.31-.65-.55-1-1.44-.78-4,1.15-5.68,4.12-4.62,8.17.9,3.42,2.2,6.75,2.67,10.26a3.22,3.22,0,0,0,1.32,2.29c5.18,4.19,5.66,11.1,1.07,15.83-3.32,3.43-6.76,6.74-10.13,10.12-1.25,1.26-2.57,2-4.15.61-1.28-1.11-1-2.64.61-4.3q4.67-4.69,9.35-9.36c2.77-2.75,3-6.09.71-8.39s-5.54-2-8.24.63C95.63,72,89.52,78.19,83.34,84.29a12,12,0,0,0-3.66,8.53C79.58,96.08,79.65,99.34,79.65,102.59Z"/><path class="cls-1" d="M37.14,119.58c-4.7,0-9.41,0-14.11,0-1.52,0-2.09.47-2,2a25.17,25.17,0,0,1,0,3.25,2.45,2.45,0,0,1-2.52,2.68A2.4,2.4,0,0,1,16,124.85c-.05-2.54,0-5.07,0-7.6a2.54,2.54,0,0,1,2.88-2.77c.94,0,1.89,0,2.82,0,.74-.06,1.72.38,2.1-.6.31-.79-.44-1.31-.89-1.85q-4.09-4.92-8.22-9.82c-3.17-3.76-6.32-7.54-9.51-11.28A21.12,21.12,0,0,1,0,76.54C0,71,0,65.4,0,59.82a17.68,17.68,0,0,1,1.83-7.94c2.2-4.48,4.31-9,6.48-13.5,1.8-3.75,4.34-4.56,8.16-2.94,4.2,1.8,7.22,4.45,7.86,9.24a12.47,12.47,0,0,1-.6,5.12c-.69,2.44-1.37,4.87-2.07,7.3-.28.93-.19,1.44,1,1.58a11.58,11.58,0,0,1,6.88,3.8C35.37,68.4,41.2,74.34,47.19,80.11A18.61,18.61,0,0,1,53,94.32c0,6,0,12,0,18,0,1.58.43,2.17,2.07,2.17,2.56,0,3.28.83,3.32,3.43,0,2.17.05,4.34,0,6.51,0,1.74-.78,3-2.67,3s-2.39-1.26-2.44-3c-.16-4.91-.19-4.91-5.23-4.91Zm10.71-17h0c0-3.18.06-6.37,0-9.55a11.34,11.34,0,0,0-3.1-8.1Q35,75.18,25.24,65.44a5.29,5.29,0,0,0-5.36-1.54C15.66,65,14.48,70,17.67,73.19c3.35,3.4,6.78,6.72,10.12,10.13,1.52,1.55,1.49,3.29,0,4.27s-2.61.38-3.68-.69c-3.32-3.33-6.67-6.63-9.95-10-5-5.1-4.59-11.75.87-16.28.44-.36,1-.56,1.1-1.25.26-3.73,1.72-7.15,2.64-10.71,1.13-4.37.17-6.44-3.88-8.33-1.24-.58-1.74-.31-2.28.87-2,4.33-4.08,8.62-6.17,12.92A13.6,13.6,0,0,0,5.1,60.2c0,5.49,0,11,0,16.49A16.14,16.14,0,0,0,9,87.47c6.26,7.4,12.47,14.84,18.73,22.24A4.15,4.15,0,0,1,29,112.8c-.1,1.2.38,1.68,1.61,1.67,5.21,0,10.42,0,15.63,0,1.27,0,1.62-.5,1.6-1.67C47.82,109.42,47.85,106,47.85,102.61Z"/><path class="cls-1" d="M63.42,31.94a14.2,14.2,0,0,1,13.5,8.49c2.45,5.7,1.65,11.07-2.5,15.73-1.28,1.43-1.18,1.94.43,2.87a19.67,19.67,0,0,1,8.83,10.61c.71,2,.21,3.55-1.31,4-1.8.5-2.79-.4-3.46-2.06-2.7-6.64-8.22-10.45-15-10.49A15.94,15.94,0,0,0,48.58,71.43c-.71,1.73-1.69,2.72-3.6,2.15-1.48-.44-1.93-2-1.19-4a19.71,19.71,0,0,1,8.7-10.46c1.58-.92,2-1.35.53-3-4.1-4.45-4.88-9.74-2.64-15.32A14.12,14.12,0,0,1,63.42,31.94Zm.32,5.15a9.37,9.37,0,1,0,9.35,9.35A9.31,9.31,0,0,0,63.74,37.09Z"/><path class="cls-1" d="M45.59,0C54.42.05,60.88,6.45,61,14.33A14.44,14.44,0,0,1,46.93,29c-7.43.15-13.47,2.83-17.75,9.07a2.36,2.36,0,0,1-3.55.81c-1.49-1-1.5-2.37-.59-3.78a22.75,22.75,0,0,1,9.85-8.55c1.64-.75,1.81-1.15.57-2.62A13.69,13.69,0,0,1,33.29,8.54,13.79,13.79,0,0,1,45.59,0Zm.83,23.9a9.46,9.46,0,0,0,9.47-9.34,9.58,9.58,0,0,0-9.42-9.44,9.4,9.4,0,0,0-9.39,9.38A9.3,9.3,0,0,0,46.42,23.9Z"/><path class="cls-1" d="M90.9,28a27.74,27.74,0,0,1,8.21,5.4,35.29,35.29,0,0,1,2.41,2.78c1.07,1.35,1.07,2.71-.32,3.8s-2.73.6-3.73-.71a19,19,0,0,0-8.57-6.4A22.87,22.87,0,0,0,81,31.66,14.49,14.49,0,1,1,93.51,9.76a14.76,14.76,0,0,1-1,16.32C92,26.69,91.51,27.29,90.9,28ZM90.35,17.3a9.35,9.35,0,0,0-9.24-9.52,9.39,9.39,0,1,0-.23,18.78A9.29,9.29,0,0,0,90.35,17.3Z"/></g></g></svg>