<svg xmlns="http://www.w3.org/2000/svg" viewBox="0 0 83.37 112.33"><defs><style>.cls-1{fill:#c98b5f;}</style></defs><g id="Capa_2" data-name="Capa 2"><g id="Capa_1-2" data-name="Capa 1"><path class="cls-1" d="M53.08,0c.66.22,1.34.39,2,.66a7.23,7.23,0,0,1,4.59,6.59,3.74,3.74,0,0,1-3.31,3.87c-4.5.45-7.48,3.15-10.05,6.5a8.22,8.22,0,0,0-1.45,3,1.79,1.79,0,0,0,.94,2.3c2.41,1.21,3.27,3.28,3.33,5.83.05,2.73.45,3.28,3,4.23a24.68,24.68,0,0,0,6.73,1.35c4,.31,6.95,2.39,9.16,5.62a2.32,2.32,0,0,0,1.85,1.1c2.46.27,5,.1,7.39.78,4.27,1.2,6.11,4.61,4.79,8.87a13,13,0,0,1-1.7,3.52,2.18,2.18,0,0,0-.23,2.16,36.6,36.6,0,0,1,1.48,3.86,4.36,4.36,0,0,1-.49,3.66,1.25,1.25,0,0,0,0,1.23c.61,1.87,1.59,3.59,2,5.52s.34,3.82-1.28,5.22A5.49,5.49,0,0,1,76.14,77a17.88,17.88,0,0,1-3.71-2,6.23,6.23,0,0,0-1.94-1c-.71-.18-1,0-.75.81a7.72,7.72,0,0,1,.48,4.7,4.69,4.69,0,0,1-3.39,3.64L66,83.4c-.91.28-1.12.8-.69,1.66a15.45,15.45,0,0,1,1.59,4.73,9,9,0,0,1-.6,4.82,15.08,15.08,0,0,0-.85,7.2,20.4,20.4,0,0,1-.09,5.68,5.9,5.9,0,0,1-6.58,4.78,4.5,4.5,0,0,1-3.53-3.08A41.64,41.64,0,0,1,54,104.57a20.87,20.87,0,0,0-.68-2.07A2.68,2.68,0,0,0,50,100.75c-1.57.33-3.12.7-4.72.9-3.28.43-6.79-.71-7.9-4.14-.13-.4-.4-.46-.71-.58a4.38,4.38,0,0,1-2.88-3.44,1.32,1.32,0,0,0-.88-1.09,3.94,3.94,0,0,1-2.21-3A2.09,2.09,0,0,0,29.59,88a40.84,40.84,0,0,0-9.17-4,1,1,0,0,0-1.11.22c-1.55,1.43-3.28,1.35-5.06.46a25.35,25.35,0,0,1-4.44-3.35A9.14,9.14,0,0,0,5.5,79.19C2.93,78.76-.08,75,0,72.53a1.62,1.62,0,0,1,.16-.84,6.17,6.17,0,0,0,.93-3.54,3.21,3.21,0,0,1,2.2-2.77,7.22,7.22,0,0,1,3-.66,2.84,2.84,0,0,0,2.48-1.35,10.16,10.16,0,0,0,1.59-6.66c-.11-1.66.18-2.07,1.71-2.78l1.2,0H69.82c1.68,0,3.36,0,5,0,.29,0,.66.19.84-.27.56-1.43,1.62-2.6,2.1-4.07.68-2,.07-3.14-2.06-3.55a50.55,50.55,0,0,0-5.23-.47c-2.14-.19-4.38-.26-5.66-2.45A8.92,8.92,0,0,0,57,38.57a21.42,21.42,0,0,1-7.8-2A7.15,7.15,0,0,1,44.81,31a25.42,25.42,0,0,1-.17-2.62,1.81,1.81,0,0,0-1.07-1.63,5.82,5.82,0,0,1-3.22-5.66,8.48,8.48,0,0,1,1.06-3.86A20,20,0,0,1,55.12,6.66a3.68,3.68,0,0,0-4.44-2.19A13.06,13.06,0,0,0,44.74,7.8a13,13,0,0,1-3.08,2.06A66.4,66.4,0,0,1,31.35,13.4a2.29,2.29,0,0,0-1.81,1.77,18,18,0,0,1-3.18,6.31,5.21,5.21,0,0,1-2.73,2.26A2.21,2.21,0,0,0,22.14,25c-1.45,2.43-3.33,4.24-6.36,4.44a2.15,2.15,0,0,0-1.08.48A6.56,6.56,0,0,0,12,35.7a2.64,2.64,0,0,1-1.42,2.8c-1.81.27-2.69-.34-3-2.1-.78-4.47,2.7-10.32,7-11.16a5.78,5.78,0,0,0,4.32-3.52c.65-1.29,1.52-2.33,3.15-2.31.41,0,.54-.31.74-.56a14.66,14.66,0,0,0,2.61-5.24,5.83,5.83,0,0,1,4.23-4.29,91,91,0,0,0,9-2.95,9.89,9.89,0,0,0,3-1.75A19.41,19.41,0,0,1,50,0Zm-7.6,58.39c-9.87,0-19.74,0-29.6,0-.85,0-1.15.21-1.15,1.07a10.07,10.07,0,0,1-.79,3.49C13,65.39,11.68,67.5,9.2,68.65a6.31,6.31,0,0,1-2.66.51c-.62,0-1.11.09-.88,1a3.12,3.12,0,0,1-.56,2.38c-.14.23-.51.45-.23.75.59.63,1,1.48,2,1.6a9.28,9.28,0,0,1,4.5,2c1.44,1.11,2.84,2.28,4.27,3.42.4.32.76.61,1.21-.06a2.48,2.48,0,0,1,2.11-1,13.22,13.22,0,0,1,3.31.59c1.13.26,2.13,1,3.33,1H61.12c.36,0,.7.05,1-.28A5.72,5.72,0,0,1,65.05,79a1,1,0,0,0,.85-1.46c-.21-.81-.5-1.59-.72-2.39-.54-2-.05-3.63,1.4-4.57a6.08,6.08,0,0,1,5.71-.74,22.76,22.76,0,0,1,4,2.24,3.86,3.86,0,0,0,1.57.71c.94.1,1.25-.21.94-1.1-.61-1.74-1.33-3.44-1.92-5.19a4.93,4.93,0,0,1,.09-4.32A1.53,1.53,0,0,0,77,60.52a5.29,5.29,0,0,1-.49-1.21c-.2-.77-.66-.94-1.43-.93Q60.29,58.41,45.48,58.39Zm-12,27a4.48,4.48,0,0,1,1.37,2.7c0,.41.34.43.61.51,1.91.57,2.43,1.21,2.47,3.17,0,.7.24,1.09.93,1.23a3,3,0,0,1,2.58,2.73,1.64,1.64,0,0,0,1.73,1.49,12.84,12.84,0,0,0,3.9-.38,11.45,11.45,0,0,1,5.07-.44c3.19.64,4.88,2.83,5.75,5.78.5,1.67.91,3.37,1.32,5.06.19.75.61.69,1.12.4a1.35,1.35,0,0,0,.6-1,12.74,12.74,0,0,0,.11-3.38c-.22-3.35-.42-6.71,1-9.9a6.11,6.11,0,0,0-.17-5.07,19.3,19.3,0,0,1-.91-2.1c-.2-.69-.55-.83-1.23-.83-8.4,0-16.8,0-25.2,0Z"/><path class="cls-1" d="M12.25,44.05c1.49.21,2.24.92,2.27,2.15s-.69,2-2.23,2.31c-1.4-.29-2.2-1.13-2.18-2.27A2.31,2.31,0,0,1,12.25,44.05Z"/></g></g></svg>