<svg xmlns="http://www.w3.org/2000/svg" xmlns:xlink="http://www.w3.org/1999/xlink" viewBox="0 0 428 269.23"><defs><style>.cls-1{fill:none;}.cls-2{isolation:isolate;}.cls-3{clip-path:url(#clip-path);}.cls-4{fill:#f6f6f6;}.cls-5{fill:#c98b5f;}.cls-10,.cls-11,.cls-12,.cls-27,.cls-6,.cls-8{fill:#fff;}.cls-6{opacity:0.25;}.cls-7{opacity:0.2;}.cls-25,.cls-8{opacity:0.5;}.cls-10,.cls-9{opacity:0.3;}.cls-11{opacity:0.1;}.cls-12{opacity:0.55;}.cls-13{fill:#263239;}.cls-14{fill:#37474f;}.cls-15{fill:#455a64;}.cls-16{fill:#f8bba7;}.cls-17{fill:#e0e0e0;}.cls-18{fill:#fdce76;}.cls-19{fill:#f1997a;}.cls-20{fill:#b26668;}.cls-21{fill:#f4a6a7;}.cls-22{fill:#ebebeb;}.cls-23{fill:#fbfbfb;}.cls-24{fill:#e6e6e6;}.cls-25{mix-blend-mode:multiply;}.cls-26{opacity:0.7;}.cls-28{opacity:0.15;}</style><clipPath id="clip-path"><rect class="cls-1" x="6" y="-13.72" width="461.11" height="282.94"/></clipPath></defs><g class="cls-2"><g id="Capa_1" data-name="Capa 1"><g class="cls-3"><path class="cls-4" d="M291.52,10.73c16.56,8.28,17.22,31.55,27.67,46.84,19.51,28.53,65.95,21.71,91.19,45.32,13.33,12.46,18.48,32.29,15.21,50.25s-14.2,34-28.24,45.62c-9.27,7.7-21.19,16.33-19.75,28.31.51,4.26,2.77,8.08,4.35,12.08,7.11,17.9,0,39.12-13.29,53s-31.78,21.68-50.26,27.1a271.83,271.83,0,0,1-49.76,9.66c-9.28.91-18.8,1.39-27.38,5s-15.6,10.21-23.85,14.56c-19.72,10.39-43.57,7-65.54,3.23-28.28-4.86-56.57-9.92-84.24-17.51-10.37-2.85-20.94-6.2-29.19-13.1S24.76,303,27.7,292.62c2.47-8.69,10-14.78,16.15-21.4S55.3,255.29,52,246.88c-3.91-9.88-16.6-12-25.7-17.51-9.7-5.86-15.82-16.46-18.54-27.47S5.31,179.39,6,168.07c.57-10,1.45-20.33,5.83-29.38,8.35-17.26,27.89-26.53,46.89-29.19,15.38-2.16,23.16-2.72,31.49-18.24,10.11-18.84,16.72-39.7,29.52-56.84S154.24,4.19,174.82,10c12.94,3.68,23,14.07,35.58,18.83,14.35,5.43,26,2.84,37.1-6.23C259.18,13.07,276,3,291.52,10.73Z"/><g id="Arrow"><polygon class="cls-5" points="328.4 14.87 323.39 11.94 279.92 27.58 289.52 36.56 166.54 167.89 140.91 143.71 135.9 140.78 39.9 243.29 51.42 254.07 56.43 257 140.01 167.76 163.88 189.67 171.39 194.06 305.08 51.3 310.63 56.34 315.64 59.26 328.4 14.87"/><polygon class="cls-6" points="328.4 14.87 323.39 11.94 279.92 27.58 289.52 36.56 166.54 167.89 140.91 143.71 135.9 140.78 39.9 243.29 51.42 254.07 56.43 257 140.01 167.76 163.88 189.67 171.39 194.06 305.08 51.3 310.63 56.34 315.64 59.26 328.4 14.87"/><polygon class="cls-5" points="328.4 14.87 315.64 59.26 306.05 50.28 171.39 194.06 141.64 166.02 56.43 257 44.91 246.21 140.91 143.71 170.65 171.75 294.52 39.49 284.93 30.5 328.4 14.87"/><polygon class="cls-5" points="141.64 166.02 140.01 167.76 163.88 189.67 171.39 194.06 141.64 166.02"/><polygon class="cls-7" points="141.64 166.02 140.01 167.76 163.88 189.67 171.39 194.06 141.64 166.02"/><polygon class="cls-5" points="289.52 36.56 294.52 39.49 284.93 30.5 279.92 27.58 289.52 36.56"/><polygon class="cls-7" points="289.52 36.56 294.52 39.49 284.93 30.5 279.92 27.58 289.52 36.56"/><polygon class="cls-5" points="305.08 51.3 306.05 50.28 315.64 59.26 310.63 56.34 305.08 51.3"/><polygon class="cls-7" points="305.08 51.3 306.05 50.28 315.64 59.26 310.63 56.34 305.08 51.3"/><polygon class="cls-5" points="39.9 243.29 44.91 246.21 56.43 257 51.42 254.07 39.9 243.29"/><polygon class="cls-7" points="39.9 243.29 44.91 246.21 56.43 257 51.42 254.07 39.9 243.29"/><polygon class="cls-8" points="76.55 212.43 140.91 145.83 170.65 171.75 140.91 143.71 76.55 212.43"/><polygon class="cls-8" points="227.41 111.16 295.98 39.49 286.75 30.94 328.4 14.87 284.93 30.5 294.52 39.49 227.41 111.16"/></g><g id="Bar_graph" data-name="Bar graph"><g class="cls-9"><path class="cls-5" d="M330.73,333.06a.78.78,0,0,1-.39-.1L280.53,304.2a.76.76,0,0,1,0-1.33l62.27-35.95a.76.76,0,0,1,.77,0l49.81,28.76a.76.76,0,0,1,0,1.33L331.11,333A.75.75,0,0,1,330.73,333.06Zm-48.29-29.53,48.29,27.88,60.74-35.07-48.29-27.87Z"/></g><polygon class="cls-5" points="330.73 325.11 330.72 132.74 293.36 111.16 293.36 303.53 330.73 325.11"/><polygon class="cls-7" points="330.73 325.11 330.72 132.74 293.36 111.16 293.36 303.53 330.73 325.11"/><polygon class="cls-5" points="330.73 325.11 380.55 296.34 380.55 103.98 330.72 132.74 330.73 325.11"/><polygon class="cls-5" points="380.55 103.98 343.19 82.4 293.36 111.16 330.72 132.74 380.55 103.98"/><polygon class="cls-6" points="380.55 103.98 343.19 82.4 293.36 111.16 330.72 132.74 380.55 103.98"/><path class="cls-10" d="M380.55,104l-50.32,27.74-16.34-9.13-20.53-11.43,20.16,12.07,16.53,9.86c-.39,5.61-.5,102.18-.42,107.79s.35,78.5,1.1,84.23c.74-5.73,1-78.5,1.09-84.23.07-5.43,0-101.82-.4-107.25Z"/><polygon class="cls-5" points="237.32 379.04 237.31 224.52 199.95 202.95 199.96 357.46 237.32 379.04"/><polygon class="cls-11" points="237.32 379.04 237.31 224.52 199.95 202.95 199.96 357.46 237.32 379.04"/><polygon class="cls-5" points="237.32 379.04 287.14 350.27 287.14 195.76 237.31 224.52 237.32 379.04"/><polygon class="cls-10" points="237.32 379.04 287.14 350.27 287.14 195.76 237.31 224.52 237.32 379.04"/><polygon class="cls-5" points="287.14 195.76 249.78 174.19 199.95 202.95 237.31 224.52 287.14 195.76"/><polygon class="cls-12" points="287.14 195.76 249.78 174.19 199.95 202.95 237.31 224.52 287.14 195.76"/><path class="cls-10" d="M238,224.9l49.16-29.14-49.82,28c-5.43-3.07-11.39-6.38-16.84-9.41L200,203,220.11,215c5.51,3.3,11,6.61,16.55,9.87-.17,5.81.28,148.22.66,154.16C237.7,373.1,238.15,230.53,238,224.9Z"/></g><g id="Character"><g id="Character-2" data-name="Character"><g id="Character-3" data-name="Character"><path class="cls-13" d="M214.65,217.42a5.79,5.79,0,0,1,3.83.67,17.31,17.31,0,0,1,3,6.23c.87,3.12,1.27,4.36,3.26,5.81a22,22,0,0,1,6.4,7,21.36,21.36,0,0,1,2.68,13.76c-.73,5.54-3,7.72-5.07,8.74a9.88,9.88,0,0,1-3.9.7Z"/><path class="cls-14" d="M204.45,216.86l1.11,1a16.75,16.75,0,0,1,1.85,1.63c2.3,2.54,1.93,8.19,1.78,9.71a3.45,3.45,0,0,0-2.75.77c-1.82,1.28-4.77,3.79-4.52,4.81s5.2,3.19,9.92,9c3.58,4.42,4.57,6.91,6.47,10.79,1.32,2.67,3.87,7,8,5.47,2.17-.75,6.78-5.72,5.54-15-1.15-8.71-5.69-11.91-8.76-14.16s-3.42-4.64-5.13-8.88c-.75-1.85-1.24-3.33-3.33-4.57-2.73-.79-5.47-.06-7.49-.28C205.52,217,204.93,216,204.45,216.86Z"/><path class="cls-15" d="M209.83,157a5.62,5.62,0,0,1-3.39,3.11c-9.38,3.09-21.39,7-32.78,11.87-14.14,6.06-18.32,9.62-21.75,15.77-2.09,3.75-1.82,8.93-.68,12.49s4,8.53,11.29,12.61c14.45,8.09,22.82,13.07,31.59,17.22,0,0,7.79-8.33,8.62-15.53L190,202.89l30.05-14.17,38.45-34.93Z"/><path class="cls-14" d="M189.47,200.86a18.55,18.55,0,0,0-7.65,11.6c-.51,2.42-1.25,6.62-1.83,10.17,5.18,2.84,9.62,5.26,14.12,7.39,0,0,7.79-8.33,8.62-15.53L190,202.88l1.74-.82Z"/><path class="cls-14" d="M220.06,188.72l-8.29-25.57-4.21,6.36a33.32,33.32,0,0,0,3.2,12.34s-14,10.74-15.66,11.77c-6.2,3.86-7.06,3.33-10.56.81a14.13,14.13,0,0,0-12.89-2c8.68-.62,10.81,3,18.36,10.46l30.05-14.17Z"/><path class="cls-16" d="M180.38,286.63c0,2.78,1,6.93-.55,10.12a9.39,9.39,0,0,1-5.34,4.73,11.9,11.9,0,0,0-3.42,1.48c-1.17,1-2.34,2-3.54,2.94-1.91,1.55-3.32,2.22-5,4-4.07,4.34-10.53,5.7-16.29,5.29a21.27,21.27,0,0,1-8.28-2.09c-1.86-.91-4.1-2.68-4.08-4.94s1.79-3.18,3.48-4.41a48.36,48.36,0,0,1,7-3.91,36.26,36.26,0,0,0,7.08-4.43c2.27-2,8.61-5.82,12.48-14.16,1.77-3.81,7.6-20.82,7.6-20.82l20.63,6.19S180.4,283.85,180.38,286.63Z"/><path class="cls-15" d="M206.37,162.41l5.82-5.78,55.63,7.27c.1,5.54-1,17.35-3.24,23.27-2,5.43-4.62,11.23-17.49,18.11s-28.31,13.83-31.43,15.59c-4.5,2.54-4.38,2.65-5.44,10.6-1.09,8.13-5,17.31-10.41,25.48-4.26,6.4-16.32,26.61-16.32,26.61-7.94,1.57-14.42-3-18-7.37,0,0,16.22-51.36,17.87-59.82.92-4.73,1.82-9,7.48-14.31,4.86-4.58,23.68-20.62,23.68-20.62S207,174.85,206.37,162.41Z"/><path class="cls-14" d="M258.32,168.66c.6,11.78,1,18.89-15.11,27.1-4.85,2.48-9.88,4.83-14.75,7.1-14.44,6.75-24.28,14.08-25.05,19.45-.29,2.05-.46,4.49-.66,7.31-.46,6.68-.84,12.22-6.35,22.78-3.83,7.36-11.83,22.51-15.83,28.66l1.48.15c3.89-6.24,11.27-19.84,15.49-28.07,5.63-11,6.07-16.69,6.54-23.43.19-2.79.36-5.21.65-7.21.66-4.66,11.33-12.38,24.29-18.43,4.88-2.28,9.93-4.64,14.79-7.13,16.85-8.6,16.45-16.46,15.83-28.35-.06-1.13-.11-2.3-.16-3.51l-1.34-.26C258.19,166.14,258.25,167.43,258.32,168.66Z"/><path class="cls-14" d="M248.29,194.15c-.2-.15-4.94-3.7-2.74-12.28,2.4-9.35,2.15-13.74,1.56-20.12l1.32-.12c.61,6.54.81,11.19-1.59,20.57-2,7.71,2.19,10.85,2.24,10.88Z"/><g id="Top"><g id="Arm"><path id="Arm-2" data-name="Arm" class="cls-5" d="M224.81,89.88c-9.76,0-15.49,4.24-15.49,12.41,0,7.08,2.64,29.21,2.64,29.21L197.38,143l8.42,10.09s14.4-7.3,19.38-10c7.59-4.15,6.65-5.74,6-15.36S224.81,89.88,224.81,89.88Z"/><path class="cls-17" d="M200.1,140.84l5-3.93a15,15,0,0,1,5.67,6.37,15.4,15.4,0,0,1,1.44,6.53l-5.32,2.71S206.08,144,200.1,140.84Z"/></g><path id="Chest" class="cls-18" d="M239.15,89.86c8.24.56,11.85,2.17,21.75,4.26,2.34,2.15,5.88,11.29,6.93,22.75,1.36,14.93,1.44,20.7,1,38.95a136.39,136.39,0,0,1-1.47,19.09c-14.65,8.85-51.83,4.06-62.31-14.52,2.6-3.95,3.74-16.39,4.3-43.6.33-16,9.3-26.72,15.56-26.92C228.05,89.79,233.86,89.5,239.15,89.86Z"/><g id="Head"><path class="cls-13" d="M215.63,60.59a9,9,0,0,1-3.57-4.27,14,14,0,0,1-1-6.18,6.89,6.89,0,0,1,.51-2.15,3.14,3.14,0,0,1,2.35-1.23l1.71-.26a11.11,11.11,0,0,1-2.7-3.61,5.81,5.81,0,0,1-.28-3.35,1.72,1.72,0,0,1,.35-.83,1.92,1.92,0,0,1,1.93-.3,37.66,37.66,0,0,0,12.3.63c3.26-.26,4.88-.7,9.34-1.23s12.5,1.3,14.1,9.7c6,.84,7,10.49,5.44,14.62-3,7.59-5.85,12.64-7.3,18.1-.32-.22-20.72-11.32-25.41-14.46l-5.27-3.54C217.26,61.66,216.42,61.15,215.63,60.59Z"/><path class="cls-16" d="M254.47,74.52c-3.5,2.76-5.89.27-5.89.27L249.17,92c-1.79,2.47-9.43,4.16-12.9,6.43-1.34.88-3.49,4.37-5.75,6.86-1.32-2.84-4.13-9.67-.21-14.39l-.11-3.28a29.09,29.09,0,0,1-5.47-.08,9.3,9.3,0,0,1-3.22-1.09A9.75,9.75,0,0,1,217,80.68a47.26,47.26,0,0,1-2.06-13c-.19-5.29.14-12.15,1.79-15.75,3.08-2.89,12.5-3.45,20.5-1.42.21,2,.06,3.71,1.71,5.84a8.42,8.42,0,0,0,3.1,2.29c.33,3.84.52,4.88,1.28,6.55.43,1,1.26,2.41,3.2,1.64.91-.36,1.53-2.43,2.45-3.81,1.22-1.87,5.24-2.85,7.31,1.05A8.71,8.71,0,0,1,254.47,74.52Z"/><path class="cls-19" d="M230.21,87.56c4-.52,11.08-2.25,13.07-4.76s3.42-8.2,3.42-8.2-.6,6.36-2.08,9.17-4.91,4-7.41,4.86A43.58,43.58,0,0,1,230.28,90Z"/><path class="cls-13" d="M231.21,61l4.08-.9a2.19,2.19,0,0,0-2.57-1.62A2,2,0,0,0,231.21,61Z"/><path class="cls-13" d="M221.34,59.25,218,61.8a2.2,2.2,0,0,1,.4-3A2,2,0,0,1,221.34,59.25Z"/><path class="cls-20" d="M232.26,75.69l-4.32,1.81a2.46,2.46,0,0,0,3.15,1.28A2.3,2.3,0,0,0,232.26,75.69Z"/><path class="cls-21" d="M232.15,76.61a2.29,2.29,0,0,0-2.21,2.32,2.4,2.4,0,0,0,1.15-.15,2.25,2.25,0,0,0,1.38-2.15Z"/><polygon class="cls-19" points="228.18 62.04 227.31 74.6 220.74 72.07 228.18 62.04"/><path class="cls-13" d="M234.92,64.58A1.71,1.71,0,1,1,233.14,63,1.7,1.7,0,0,1,234.92,64.58Z"/><path class="cls-13" d="M222.12,65a1.71,1.71,0,1,1-1.7-1.72A1.72,1.72,0,0,1,222.12,65Z"/></g><g id="Laptop"><path class="cls-22" d="M245.11,182.68l0,1a3,3,0,0,1-1.42,2.58L216,203.05a2.94,2.94,0,0,1-1.46.42,3,3,0,0,1-1.48-.36L161,174.49a3,3,0,0,1-1.53-2.51v-.72l55.08,30.25Z"/><path class="cls-23" d="M159.41,171.26,189.55,153a1.74,1.74,0,0,1,1.75,0l53.6,29.44a.38.38,0,0,1,0,.67l-30.43,18.45Z"/><polygon class="cls-17" points="214.72 198.91 230.98 189.07 182.25 162.31 165.91 172.11 214.72 198.91"/><polygon class="cls-17" points="222.25 172.33 221.94 172.51 213.98 177.34 199.45 169.37 199.15 169.2 207.42 164.19 222.25 172.33"/><polygon class="cls-24" points="221.94 172.51 213.98 177.34 199.45 169.37 207.43 164.54 221.94 172.51"/><path class="cls-22" d="M214.49,201.51l0,2a3,3,0,0,1-1.48-.36L161,174.49a3,3,0,0,1-1.53-2.51v-.72Z"/><g class="cls-25"><path class="cls-17" d="M214.49,201.51l0,2a3,3,0,0,1-1.48-.36L161,174.49a3,3,0,0,1-1.53-2.51v-.72Z"/></g><path class="cls-16" d="M200.55,140.5a32.21,32.21,0,0,1-9.2,5.41c-6.32,2.26-7.63,2.21-12.57,6a43,43,0,0,0-4.8,4.55c-1.44,2.54-3.46,4.72-5.07,7.15-1.31,1.45.31,1.87,1.58,1.65,3.48-.74,5.6-4.09,8.42-6a11.89,11.89,0,0,0,.25,3.57c.21.93.26,2.11,1.23,2.61a7.38,7.38,0,0,0,2.14.36,1.46,1.46,0,0,0,.6.81,2.38,2.38,0,0,0,1.76.05,6.42,6.42,0,0,0,.91-.36,1.78,1.78,0,0,0,1.36,1.11,7.66,7.66,0,0,0,4-.78c.17-.12,1.47-1.26,1.85-1.58.56-.48,1.08-.79,1.26-1.26s-.95-1.47-1.75-1.42a8.24,8.24,0,0,0-2.5.74,9.11,9.11,0,0,0,.25-2.35c.43-1.27,5.7-.6,10-2.38,3.21-1.35,4.06-4.59,5.56-5.36l1.34-.68C207.14,146.55,204.36,142.38,200.55,140.5Z"/><path class="cls-5" d="M213.67,202a3.48,3.48,0,0,1-3-.16l-51.88-28.49a3.53,3.53,0,0,1-1.75-2.4l-6.33-33.34a3.66,3.66,0,0,1-.05-.57,3.51,3.51,0,0,1,1-2.5l53.91,29.61a2.58,2.58,0,0,1,1.3,1.78Z"/><g class="cls-26"><path class="cls-27" d="M213.67,202a3.48,3.48,0,0,1-3-.16l-51.88-28.49a3.53,3.53,0,0,1-1.75-2.4l-6.33-33.34a3.66,3.66,0,0,1-.05-.57,3.51,3.51,0,0,1,1-2.5l53.91,29.61a2.58,2.58,0,0,1,1.3,1.78Z"/></g><path class="cls-23" d="M214.49,201.51l-.34.21a3.58,3.58,0,0,1-.48.24l-6.83-36.07a2.58,2.58,0,0,0-1.3-1.78L151.63,134.5a3.51,3.51,0,0,1,.7-.56l54,29.67a2.55,2.55,0,0,1,1.29,1.77Z"/><path class="cls-5" d="M184.15,171.7c-.42-2.24-2.8-5.16-5.31-6.54s-4.19-.68-3.77,1.55,2.8,5.16,5.31,6.53S184.58,173.93,184.15,171.7Z"/></g><g id="Arm-3" data-name="Arm"><path class="cls-16" d="M286.58,141.24c-3.05-12.93-8.45-27.62-11.91-37.26-1.83-5.12-4.72-7.25-12.73-9.38-5.65,8.33-4.13,21.33-2.09,26.14l7.76,21.82s-7.05,6.51-13.7,11.44c-5.62,4.17-8.52,6.58-15.18,6.54-7.75,0-8.83.25-12.3,1.78-1.84.81-6.6,3.51-8.46,4.52-1.42.77-4,3.49-6.38,5.26s.54,2.57,2.28,2.05a26.72,26.72,0,0,0,5.71-2.67,29.2,29.2,0,0,1,4.48-1.74,26.64,26.64,0,0,0-.92,5.24c0,1-.2,2.12.63,2.82a7.52,7.52,0,0,0,2,.82,1.47,1.47,0,0,0,.4.92,2.46,2.46,0,0,0,1.71.43,6.5,6.5,0,0,0,1-.15,1.76,1.76,0,0,0,1.09,1.37,7.68,7.68,0,0,0,4.09.12c.2-.08,1.71-.91,2.16-1.14a4,4,0,0,0,1.49-1c.33-.5-.61-1.64-1.39-1.76a8.06,8.06,0,0,0-2.6.18,8.82,8.82,0,0,0,.75-2.24c.7-1.14,5.82,0,10.36-.83,3.43-.61,5.89-3.88,7.43-4.59,9.85-4.5,17.37-7.65,27.31-13.72C288.63,150.71,288.22,148.19,286.58,141.24Z"/><path class="cls-19" d="M223.18,170.05c.52-1.3,1.32-2.85,2.31-3.21a11.54,11.54,0,0,0-1.43,2.9Z"/><path class="cls-19" d="M225.78,178.62a11.17,11.17,0,0,1-.1-2.83A26.44,26.44,0,0,1,226,173a12.34,12.34,0,0,1,.75-2.75,5.21,5.21,0,0,1,1.68-2.27,4,4,0,0,0-.76,1.15,7.76,7.76,0,0,0-.53,1.27,20,20,0,0,0-.61,2.7c-.17.91-.31,1.83-.47,2.75A25.69,25.69,0,0,0,225.78,178.62Z"/><path class="cls-19" d="M228.86,179.82a13.59,13.59,0,0,1,0-2.78,22.9,22.9,0,0,1,.4-2.74,17.72,17.72,0,0,1,.74-2.68,5.46,5.46,0,0,1,1.4-2.39,3.63,3.63,0,0,0-.61,1.21c-.15.42-.28.86-.39,1.3-.23.88-.43,1.77-.61,2.67C229.41,176.2,229.07,178,228.86,179.82Z"/><path class="cls-19" d="M236.3,177.45a4.55,4.55,0,0,0-1.15.17c-.36.09-.63.27-1.09.42l.19-.3a1.07,1.07,0,0,1-.08.55,1.1,1.1,0,0,1-.26.43,1.66,1.66,0,0,1-.77.52,3.93,3.93,0,0,0,.46-.72,1.9,1.9,0,0,0,.12-.36,1.19,1.19,0,0,0,0-.32l0-.21.22-.09a3.4,3.4,0,0,1,1.08-.23A2.26,2.26,0,0,1,236.3,177.45Z"/><path class="cls-5" d="M260.9,94.12c3,.48,9.1,1,12.33,5.76s5,10.77,7.6,18.75,6.62,21.51,7.5,25.77,0,6.66-3.85,9.39-15.14,9.22-20.77,11a17.05,17.05,0,0,0-3.86-8.34,17.72,17.72,0,0,0-4.27-3.75l11.54-10.17s-7.44-21.31-8.72-24.5S255.44,102.36,260.9,94.12Z"/><path class="cls-17" d="M257.1,151.39l-5.42,4.27a18.23,18.23,0,0,1,5.18,5.23,13.75,13.75,0,0,1,2.29,6l7-2.94S265.24,153.3,257.1,151.39Z"/></g><g id="Tie"><path class="cls-24" d="M230.52,105.24a51.48,51.48,0,0,0,4.29-7.58c1.16-2.37,5.11-2.84,9.17-5.38a14.28,14.28,0,0,0,5-5l-.09-2.64c1.42,0,1.44,1.12,2.07,2.64s2.76,4.84,4.45,5.31c-1.8,5-7.95,11-14.6,13.75-2.39-5.28-4.8-6.84-5.59-5.87C233.36,102.75,232.37,104.17,230.52,105.24Z"/><path class="cls-24" d="M230.52,105.24c-.91-2.14-.69-5.65-1.26-9-.22-1.28,1.05-5.39,1.05-5.39l-.1-3.29-2,.1a8.24,8.24,0,0,1-1.77,2.16C224,92,222.12,99.36,223,102.33c.79-2.73,2.9-4.67,4.12-4.15S228.87,103.59,230.52,105.24Z"/><path class="cls-5" d="M231.92,110.45c0,6.71.77,24.25,1.37,29.22.47,3.91-5.1,12.61-6.76,12.85-1,.15-5.77-7.65-6-13.21-.21-5,4.05-22,7.23-29.73A2.18,2.18,0,0,1,231.92,110.45Z"/><path class="cls-5" d="M228.2,103.22c-1.13-1.5-.8-4.84-.8-4.84-.64-.75-2.19,0-3.21,1.49,0,0,.44,4.66,3.21,6.82Z"/><path class="cls-28" d="M227.4,106.69l.8-3.47a3.89,3.89,0,0,1-.25-.4h0c-.92.49-1.34,1.49-1.47,3A7,7,0,0,0,227.4,106.69Z"/><path class="cls-28" d="M227.4,98.38c-.64-.75-2.19,0-3.21,1.49a12.76,12.76,0,0,0,.34,1.81c.48-1.33,1.61-2.64,2.28-2.47a1.66,1.66,0,0,1,.55.27C227.36,98.84,227.4,98.38,227.4,98.38Z"/><path class="cls-5" d="M233,104.4c1.79-.88,3.77-3.9,3.77-3.9a11.19,11.19,0,0,1,3,3.69,15.22,15.22,0,0,1-6.06,2.85Z"/><path class="cls-28" d="M236.77,100.5s-.16.25-.43.61A11,11,0,0,1,239,104.8a8.06,8.06,0,0,0,.82-.61A11.19,11.19,0,0,0,236.77,100.5Z"/><path class="cls-5" d="M230.61,103c-2.73-.52-3,.86-3.54,2.2-.32.85-.1,3.57.7,4.34a4.39,4.39,0,0,1,4.15.87c1.05-1,2.12-2.92,2-4.06A3.92,3.92,0,0,0,230.61,103Z"/><path class="cls-28" d="M231.92,110.45c1.05-1,2.12-2.92,2-4.06a4,4,0,0,0-1.66-2.69,4.06,4.06,0,0,1,.29,4.18c-.76,1-1.12.8-2.21.68s-2.52.57-2.52,1A4.39,4.39,0,0,1,231.92,110.45Z"/></g></g></g></g></g></g></g></g></svg>