<svg xmlns="http://www.w3.org/2000/svg" viewBox="0 0 236.07 271.59"><defs><style>.cls-1{fill:#6c2912;}.cls-2{fill:none;stroke:#fdce76;stroke-miterlimit:10;stroke-width:2px;}.cls-3{fill:#fdce76;}</style></defs><g id="Capa_2" data-name="Capa 2"><g id="Capa_1-2" data-name="Capa 1"><rect class="cls-1" width="236.07" height="271.59" rx="35.2"/><line class="cls-2" x1="38.26" y1="237.8" x2="198.33" y2="237.8"/><path class="cls-3" d="M63.2,227.11a4,4,0,0,1-3.53-2h0a2.73,2.73,0,0,1-1.05-.85l-.23-.08a6.1,6.1,0,0,1-1.6-.76,3.07,3.07,0,0,1-1.48-2.36,2.65,2.65,0,0,1,.38-1.55,5,5,0,0,1-.52-1.74,4,4,0,0,1-1.44-2.41,2.71,2.71,0,0,1-1.12-1.85,2.59,2.59,0,0,1,.16-1.3,2.7,2.7,0,0,1-.54-1.48,2.5,2.5,0,0,1,.12-.91,4.21,4.21,0,0,1,.33-3.15c0-.1,0-.2,0-.3a3.79,3.79,0,0,1,.07-.6,6.43,6.43,0,0,1,.05-3,16.13,16.13,0,0,1,2.77-6.1l.11-.17a15,15,0,0,1,1.44-1.81,18.75,18.75,0,0,0,2.75-4l.33-.57c.41-.71.42-1,.39-1.17a3,3,0,0,1,.67-2.36,1.77,1.77,0,0,1,0-.2,2.9,2.9,0,0,1-.17-1.06,5.88,5.88,0,0,1-.91-4c0-.62.09-1.17.14-1.72,0-.31.06-.61.08-.92l.33-4.06a3,3,0,0,1-.23-1.36A2.69,2.69,0,0,1,61,172a4,4,0,0,1,.45-2.07,3.08,3.08,0,0,1,.44-2.24,3.47,3.47,0,0,1,.27-2.78A2.62,2.62,0,0,1,60.86,162a2.7,2.7,0,0,1-.23-1.52.29.29,0,0,0-.17-.08,3.1,3.1,0,0,1-2.11-1,3.82,3.82,0,0,0-.48-.15,7.07,7.07,0,0,1-2.8-1.71l-.41-.36a3.2,3.2,0,0,1-1.07-1.77l0-.09a4.47,4.47,0,0,1-1.12-2.5l0-.21a3.25,3.25,0,0,1,.57-2.49l.15-.23a3.55,3.55,0,0,0,.39-.71,5.62,5.62,0,0,1,1.12-3.07c.1-.15.2-.3.28-.45l.29-.52a3.12,3.12,0,0,0,.41-.86,5.23,5.23,0,0,1,1.21-3.45A3.38,3.38,0,0,1,57,137.5a4,4,0,0,1,1.08-2.44c0-.07.14-.34.21-.53l.06-.16a3.3,3.3,0,0,1-.23-1.78,3.24,3.24,0,0,1,1-1.92,3.52,3.52,0,0,1,1.17-2.06,7.09,7.09,0,0,1-1.84-4.76,9.13,9.13,0,0,1-.66-2.2,7.13,7.13,0,0,0-.26-1l-.06-.13a5.43,5.43,0,0,1-.38-1.21,4.36,4.36,0,0,1,.92-3.81,4.74,4.74,0,0,0,.73-1,2.89,2.89,0,0,1,.49-2.25c.16-.22.31-.44.46-.67a8.64,8.64,0,0,1,2.46-2.66,5.64,5.64,0,0,1,1.36-1.36,3,3,0,0,1,1.25-2,10.78,10.78,0,0,1,2.83-2.73l.49-.35a4.4,4.4,0,0,0,.55-.45,5.89,5.89,0,0,1,.81-1.45l.23-.34a3.2,3.2,0,0,1,.58-.7,5.27,5.27,0,0,1-.06-.82,3.23,3.23,0,0,1,.11-2.93,3.33,3.33,0,0,1,.78-1.7,2.92,2.92,0,0,1-.07-1.73,3.32,3.32,0,0,1-.49-2.61,3.27,3.27,0,0,1,1.14-1.93v-.34a4.05,4.05,0,0,1-.23-3.42,2.6,2.6,0,0,1,1.21-1.59v0a5.23,5.23,0,0,1,.89-1.55l.21-.25a6.07,6.07,0,0,1,1.47-1.42c0-.1.09-.22.12-.32s.13-.33.2-.49a7.27,7.27,0,0,1,2.89-3.32c.38-.25.78-.49,1.17-.73a12.58,12.58,0,0,0,2.82-2.08,5.79,5.79,0,0,1,.84-.78l.22-.19a8.34,8.34,0,0,0,1.13-1.4A15.8,15.8,0,0,1,86,68.18c.19-.2.35-.4.52-.61a9.47,9.47,0,0,1,1.85-1.85,7.81,7.81,0,0,0,1-1c.25-.3.51-.6.79-.88a17.09,17.09,0,0,1,2.62-2.1l.88-.61a10.79,10.79,0,0,1,3.13-1.48,8.86,8.86,0,0,0,1.28-.48,4.25,4.25,0,0,1,1.41-.38,3.73,3.73,0,0,1,4.14,2.36,3.21,3.21,0,0,1,.28.7,3.13,3.13,0,0,0,.4.23,7,7,0,0,1,3.24,3.12,3.43,3.43,0,0,1,1.09.77,2.51,2.51,0,0,1,.52,2.61,2.54,2.54,0,0,1-.29.54c0,.08.11.15.16.22l.44.58.22.13.56.33a15.78,15.78,0,0,1,1.53,1l.34.1c.19,0,.4.1.63.17a5.9,5.9,0,0,1,2.28.28,4.06,4.06,0,0,0,.47.12,2.84,2.84,0,0,1,2.72,1.46,10,10,0,0,1,2.34,1.66h.07a3.11,3.11,0,0,1,.44.06,5.31,5.31,0,0,1,1.41.45l.16.08a2.72,2.72,0,0,1,2.57,1.92s.06.11.09.17a3.2,3.2,0,0,1,1.86,2.53,3.29,3.29,0,0,1-1.22,3,1.77,1.77,0,0,1-.14.17,2.49,2.49,0,0,1-2,1.82,5.53,5.53,0,0,1-1.21.09,3,3,0,0,1-1.64.49,3.07,3.07,0,0,1-1.79-.52,2.68,2.68,0,0,1-1.09-.12,2.74,2.74,0,0,1-.69-.33,3.92,3.92,0,0,1-1-.22,4.22,4.22,0,0,1-1,.24,3.14,3.14,0,0,1-1.69.65,2.87,2.87,0,0,1-1.38-.24,6.32,6.32,0,0,1-1,.59,2.32,2.32,0,0,1-.39.44,2.83,2.83,0,0,1-1.44.7l-.36.36-.48.49a5.25,5.25,0,0,1-1.66,1.18l-.13.07c-.22.12-.45.22-.69.33a3.39,3.39,0,0,0-.68.36,4.09,4.09,0,0,1-.33.28A15.9,15.9,0,0,1,107.14,92l.31.33a5.38,5.38,0,0,1,1.24,4.43v.21a2.79,2.79,0,0,1-2,2.5l-.08,0a2.69,2.69,0,0,1,1.73,1.86,2.73,2.73,0,0,1,0,1.17,3.06,3.06,0,0,1,0,.32,3.18,3.18,0,0,1-.27,1.58,2.81,2.81,0,0,1-.65,1.69,3.34,3.34,0,0,1-3.09,1.31,3,3,0,0,1-1.94,1.06,2.63,2.63,0,0,1,.65,1.69,2.47,2.47,0,0,1-.13.88,4,4,0,0,1-.1,3.21,9,9,0,0,1,0,1.64V116a2.59,2.59,0,0,1,.47.84,2.87,2.87,0,0,1-.16,2.24c0,.12-.09.24-.13.36a7.84,7.84,0,0,1-.36.88,4,4,0,0,1-.52,3A4.7,4.7,0,0,1,102,126a9.24,9.24,0,0,1,.24,1.61,3.68,3.68,0,0,0,.06.58,6.53,6.53,0,0,1,.9,2,3.59,3.59,0,0,1,.73,2.37v.07a3.93,3.93,0,0,1-3.44,4.56,6.93,6.93,0,0,0-3,1.19c.07.28.1.53.13.72a2.89,2.89,0,0,1,.58,1.61,2.81,2.81,0,0,1-.58,1.86,4.17,4.17,0,0,1,0,.93,2.7,2.7,0,0,1,.29,1.36,2.23,2.23,0,0,1-.1.53l0,0a2.7,2.7,0,0,1,1.11,1.71,2.79,2.79,0,0,1-.31,1.86,2.64,2.64,0,0,1,.18,3,5.55,5.55,0,0,1-.69,1.53,1.58,1.58,0,0,0-.15.24,3.58,3.58,0,0,1-.84,1.48,3.17,3.17,0,0,1-.6,1.69,3,3,0,0,1-1.1.94A5.45,5.45,0,0,1,94,160a3.15,3.15,0,0,1-2.44,2.33l-.1.12a4.33,4.33,0,0,1-1.81,1.23,3.89,3.89,0,0,1-.75,2,4.68,4.68,0,0,1-.24,1c0,.05,0,.11,0,.17a5.57,5.57,0,0,1-.11,3.81,3.1,3.1,0,0,1-.41,2.66c0,.17,0,.35,0,.42a2.64,2.64,0,0,1-.39,2.25c0,.1-.06.28-.09.41a6.4,6.4,0,0,1-.47,1.6c0,.25,0,.48,0,.69a4,4,0,0,0,0,.66,2.7,2.7,0,0,1,.13,2.16,6.28,6.28,0,0,0-.24,1,8,8,0,0,1-1,3,2.32,2.32,0,0,0-.37,2,4.66,4.66,0,0,1,.18,1.44,1.09,1.09,0,0,0,0,.18,2.79,2.79,0,0,1-.88,2.8,2.91,2.91,0,0,1-1.7,2.43,1.21,1.21,0,0,1,0,.18,4.45,4.45,0,0,1-.63,3.49,8.9,8.9,0,0,1-.74,1,3.23,3.23,0,0,1-1.08,2.62l-.41.4-.55.55,0,0a4.74,4.74,0,0,1-1,2,4.83,4.83,0,0,1-1.63,4.08.61.61,0,0,0-.16.21,53.69,53.69,0,0,1-5.22,9,1.92,1.92,0,0,0-.2.31,3,3,0,0,1-.6,1.44,4.64,4.64,0,0,1-.67,1.76c-.13.22-.26.44-.38.66-.24.42-.5.9-.83,1.37A7.71,7.71,0,0,1,64.12,227,6.13,6.13,0,0,1,63.2,227.11Zm-1-6.35A4,4,0,0,1,63.61,222c.43-.15.88-.51,1.54-1.46a10.62,10.62,0,0,0,.56-.94c.15-.26.29-.52.45-.78a2.88,2.88,0,0,1,.83-2.22,6.26,6.26,0,0,1,.85-1.62,49.09,49.09,0,0,0,4.76-8.15,5.54,5.54,0,0,1,1.27-1.78L74,205a4.6,4.6,0,0,1,.94-3.31l.15-.19a4.66,4.66,0,0,1,1.51-2.55c.12-.11.23-.22.34-.34A3.53,3.53,0,0,1,78.05,196a2.69,2.69,0,0,0,.34-.43,2.9,2.9,0,0,1,.32-3,4.11,4.11,0,0,1,1.5-2.07,3.61,3.61,0,0,1,.78-1.48v-.13a7.28,7.28,0,0,1,1-6,4,4,0,0,0,.32-1.2c.06-.3.12-.63.2-1a7.11,7.11,0,0,1-.2-1.89,3.82,3.82,0,0,0,0-.59,3.61,3.61,0,0,1,.5-2.33s0-.23.08-.38a6.85,6.85,0,0,1,.39-1.42c0-.33,0-.62,0-.88s0-.28,0-.43a2.94,2.94,0,0,1,.31-1.57,3,3,0,0,1,.49-2.54c0-.15-.08-.36-.12-.52a4.79,4.79,0,0,1,.07-3,3.21,3.21,0,0,1,.74-2.14A3.85,3.85,0,0,1,87.86,159a5.53,5.53,0,0,1,1.49-1.14,3.3,3.3,0,0,1,1.47-1.72c.06-.1.13-.28.19-.41s.21-.48.32-.71a3.53,3.53,0,0,1,.94-1.18,3.5,3.5,0,0,1,1.19-2,5.61,5.61,0,0,1,.33-.65,2.78,2.78,0,0,1-.82-2.91,3.21,3.21,0,0,1,.08-.36,4,4,0,0,1-.33-3.53,5,5,0,0,1,0-1.22,2.7,2.7,0,0,1,.15-2.77,5.78,5.78,0,0,1-.1-.57,2.74,2.74,0,0,1-.65-1.41,3.06,3.06,0,0,1,.64-2.28,10.26,10.26,0,0,1,5.94-3.71,3.4,3.4,0,0,1-.32-1.14s0-.05-.19-.27a5.24,5.24,0,0,1-.78-2c-.06-.36-.09-.72-.12-1.09a3.42,3.42,0,0,0-.09-.7,3.32,3.32,0,0,1,.08-3s0-.06,0-.09a4.45,4.45,0,0,1,.37-2.91,2.85,2.85,0,0,1,.52-3.11,2.94,2.94,0,0,1-.25-1,10.13,10.13,0,0,1,0-1.46,3.73,3.73,0,0,0,0-1,2.56,2.56,0,0,1,.22-2.2l-.09-.25a4.36,4.36,0,0,1-4.83-4.76,3,3,0,0,1,.71-2.6,4.76,4.76,0,0,1,2.32-1.43l.1,0a8.54,8.54,0,0,1,3.92-.31,3.13,3.13,0,0,1-.3-.32,3.13,3.13,0,0,1-1.4.09,3.29,3.29,0,0,1-2.35-1.61c0-.09-.1-.19-.14-.28a2.86,2.86,0,0,1-1.12-1.14,2.56,2.56,0,0,1-.46-.11,2.5,2.5,0,0,1-1.7-2.2,4.51,4.51,0,0,1,.37-2.54A2.7,2.7,0,0,1,93,91.8a2.63,2.63,0,0,1,4.3-.48l.33.21A3.35,3.35,0,0,1,99.31,93l.11,0a2.07,2.07,0,0,0,.31,0,3.71,3.71,0,0,1,3,2.09,2.53,2.53,0,0,1,.37-.18,5.71,5.71,0,0,0-1.45-1.21,7.83,7.83,0,0,1-.79-.47l-.24-.16A3.16,3.16,0,0,1,99,90.62,2.76,2.76,0,0,1,100,88.13a4.2,4.2,0,0,0,.64-.67c.17-.19.34-.39.52-.57a3.42,3.42,0,0,1,1-.72l0,0a6.88,6.88,0,0,1,2-1.19l.45-.22.16-.08a1.84,1.84,0,0,0,.28-.15l.59-.61.36-.35.07-.08a4.21,4.21,0,0,1,1.55-1.13,3.12,3.12,0,0,1,1.58-.9,1.76,1.76,0,0,0,.38-.23,4.66,4.66,0,0,1,3.68-.91,3.27,3.27,0,0,1,1.49-.35h0a2.69,2.69,0,0,1,2.54-.66,2.57,2.57,0,0,1,1,.49h.28a3.79,3.79,0,0,1-1.26-.81,4.88,4.88,0,0,0-1.41-1,4.31,4.31,0,0,1-1.46-1c-.29-.06-.55-.13-.78-.2l-.39-.1a2.69,2.69,0,0,1-2.11-.25l-.3-.07a5.58,5.58,0,0,1-2.07-.92,9.62,9.62,0,0,0-1-.66l-.68-.4-.1-.06a4.25,4.25,0,0,1-1.31-1.09c-.21-.26-.41-.54-.62-.81-.33-.43-.65-.86-1-1.28a3.64,3.64,0,0,1-.76-3.13,2.52,2.52,0,0,1-.14-.33c-.09-.27-.3-.66-1.11-1.07A5.54,5.54,0,0,1,99.41,64c-.36.14-.71.25-1,.36a6.44,6.44,0,0,0-1.74.75c-.33.24-.66.48-1,.71a12.41,12.41,0,0,0-1.88,1.47c-.21.21-.4.43-.59.65a10.88,10.88,0,0,1-1.84,1.8,4.9,4.9,0,0,0-.89,1c-.24.29-.48.58-.74.86a10.43,10.43,0,0,0-.92,1.2A12.59,12.59,0,0,1,86.91,75l-.43.38a2.65,2.65,0,0,0-.26.21,16.3,16.3,0,0,1-4,3l-1,.65a2.36,2.36,0,0,0-1,1.07c0,.1-.07.2-.11.31A4.91,4.91,0,0,1,78,83.4a3.2,3.2,0,0,0-.34.39,3.47,3.47,0,0,1-.25.29l-.09.23a5.49,5.49,0,0,1-.83,1.49,3.22,3.22,0,0,1,.2,1.1v.79c0,.46,0,.92,0,1.39a3.2,3.2,0,0,1-.67,2,2.54,2.54,0,0,1,.37,1,2.51,2.51,0,0,1-.12,1.25,2.89,2.89,0,0,1-.27,2.44,3,3,0,0,1-.81,1.54,2.64,2.64,0,0,1,0,1.5,5.3,5.3,0,0,0,.12.69l.07.34a3.31,3.31,0,0,1-.37,2.64,3,3,0,0,1-1.54,1.13c-.08.12-.16.24-.19.3a5.66,5.66,0,0,1-2.13,2.58c-.24.18-.42.32-.61.45A5.68,5.68,0,0,0,69,108.4a.75.75,0,0,1-.07.12,2.85,2.85,0,0,1-1.22,2.27c-.26.2-.51.38-.77.55a4,4,0,0,0-.55.4A2.54,2.54,0,0,1,65,113.1a4.69,4.69,0,0,0-1,1.26l-.1.15a6.1,6.1,0,0,1-1.7,3.95.36.36,0,0,0,0,.09l.09.22a9.89,9.89,0,0,1,.51,1.86,4.29,4.29,0,0,0,.36,1.21,2.94,2.94,0,0,1,.41,1.82,2.2,2.2,0,0,0,1.24,2.14,2.68,2.68,0,0,1,1.38,3.32,5.47,5.47,0,0,1-2.12,3.1,3.75,3.75,0,0,1-.5,1.18,2.9,2.9,0,0,1-.29,2.33,4.26,4.26,0,0,0-.22.52,6.72,6.72,0,0,1-.88,1.77,2.64,2.64,0,0,1-.35,1.42,2.66,2.66,0,0,1,.17,1.47,5.61,5.61,0,0,1-1,2.65c-.15.2-.3.41-.38.54a6.41,6.41,0,0,1-1.07,3.48c-.08.13-.16.26-.23.4s-.32.55-.5.82-.25.38-.31.5a5.73,5.73,0,0,1-1,2.88,4,4,0,0,1,.75,1.49l.1.09a3.66,3.66,0,0,0,.83.63,6,6,0,0,1,2.34,1.12,5.41,5.41,0,0,1,2.56,1.38c.4,0,.8-.11,1.2-.2a3,3,0,0,1,3.57,1.75,2.77,2.77,0,0,1-1.28,3.63,5.05,5.05,0,0,1-.49.32,2.42,2.42,0,0,1,.42.62,2.62,2.62,0,0,1-.36,2.8,1.57,1.57,0,0,0-.09.23c-.06.16-.13.36-.22.58a3.47,3.47,0,0,1-.23,3,3.06,3.06,0,0,1-.66,2.56,4.18,4.18,0,0,1-.18,1.43,4.25,4.25,0,0,1,0,.88l-.36,4.54-.09,1c0,.49-.1,1-.13,1.47,0,.31,0,.68,0,.87a3.18,3.18,0,0,1,1.23,2.24,2.79,2.79,0,0,1-.08.81,3,3,0,0,1-.12,1.84l0,.19a4.74,4.74,0,0,1-.59,1.73,6.92,6.92,0,0,1-1.08,3.43l-.32.56a22.88,22.88,0,0,1-3.51,5,9.91,9.91,0,0,0-.92,1.19l-.12.17a11.23,11.23,0,0,0-1.94,4.16c0,.26-.11.58-.12.74a2.77,2.77,0,0,1,.33,2,2.53,2.53,0,0,1-.31.76v0l0,.12a4.08,4.08,0,0,1-.32,1.27,2.81,2.81,0,0,1,.34.88,2.55,2.55,0,0,1,.51.89A2.6,2.6,0,0,1,58,212.5v0a4.32,4.32,0,0,1,.65,1.6,4.55,4.55,0,0,1,1.54,3.13s0,0,.18.27a3.74,3.74,0,0,1,.59,2.28A4.52,4.52,0,0,1,62.22,220.76Zm-6-.42,0,0Zm10-1.15h0Zm-9.72-.57h0Zm11.58-2.7h0Zm-13-2.43h0Zm-1.62-2.23h0Zm3.09,0h0Zm-2.78-3.09h0Zm3.07-.1,0,0Zm.11,0h0Zm20.14-8.33h0ZM80.15,192Zm-.45-.42-.19.12Zm-15-1.36,0,0ZM81,188.89Zm-15.41-.56h0ZM62,187.51h0Zm3.78-.9h0Zm-4.09-1.26v0Zm25.56-7.89Zm.56-1.41h0Zm-26.46-.66,0,0Zm22-.51h0Zm4.57-3.19h0ZM84.53,170h0ZM66,168.32h0Zm1.08-2.42h0ZM84,165.25Zm-18.59-1.31h0Zm-3.24-.15v0ZM85,162.56Zm-20.48-2h0Zm24.59-1.49Zm5.23-.88Zm-3.87-.75h0Zm3.07-1.3,2.21,1.14a.61.61,0,0,0,.07-.1Zm-31.35,0,0,0Zm34.34-.45ZM54,155.64h0Zm42.2-2.8h0Zm2.85-2.3a.45.45,0,0,1,0,.11A.45.45,0,0,0,99,150.54Zm-5.5-.39h0Zm2.21-1.69Zm.84-1.37h0ZM94.8,146h0Zm-1.24-1.82,0,0Zm1.22-.05-.26.06Zm2-5.92.05,0ZM61.88,137h0Zm-4.18-.4Zm38.46-.44h0Zm7.78-3.72h0Zm-41.4-2.17h0ZM101.67,125h0Zm-4.12-1.22Zm2.12-4.16h0Zm2.28-.88h0Zm-39.85-.28h0Zm1.64-4.82h0Zm1.28-.6h0Zm37.55-.21h0Zm-2.27-.65Zm-1.47-.34a.1.1,0,0,0,0,0l.22-.28-.23.14-.07.08Zm1.59-1.92-1.49,1.74a.75.75,0,0,0,.18-.08Zm-1.77,1.73Zm-36.89-1.91v0Zm31.71-3.32v0Zm-25.8-.26h0Zm-3.07-.24h0Zm42.77-.49h0ZM102,103.71h0ZM96.93,100Zm-3.2-2.77a1.86,1.86,0,0,0,.06.34Zm-18.52-.6,0,0Zm28.48-.06v0Zm-33.35-.36h0Zm34.79-1.5h0ZM73.57,92.17h0Zm28.53-5.93Zm12.55-1.3h0Zm-3.21-.23Zm-4.58-.11v0Zm12.29,0Zm-14.12,0Zm-27.64-.39Zm-4.21-1.9h0Zm36.24-.13h0Zm8.49-1.49h0ZM119.5,80l.11.06h.22Zm3.36-.65h0Zm2.31-1.79h0Zm-15.56-7.48h0Zm-4.15-.37h0Zm-6.39-6.63Z"/><path class="cls-3" d="M145,140.37a7.42,7.42,0,0,1-1.78-.26l-.49-.12a9.77,9.77,0,0,1-2.28-.68l-.54-.2a2.67,2.67,0,0,1-1.83-1.92,2.61,2.61,0,0,1,.14-1.63,2.72,2.72,0,0,1-.19-.47,4.05,4.05,0,0,0-.37-.64l-.26-.43a4.5,4.5,0,0,0-.5-.72,3.56,3.56,0,0,1-.58-4.42,3.64,3.64,0,0,1,1.25-3.86,1.4,1.4,0,0,0-.07-.33c-.3-.66-.53-1.31-.76-1.94a17.74,17.74,0,0,0-.8-1.94,4.75,4.75,0,0,1-.53-1.76,13.67,13.67,0,0,1-2.06-.76l-.15-.06a3.65,3.65,0,0,1-2.1-2.94,3.09,3.09,0,0,1,.63-2.44,3,3,0,0,1,.44-1.56,2.7,2.7,0,0,1,.39-1.27,2.54,2.54,0,0,1,.48-1.9,2.44,2.44,0,0,1,1-.8,2.8,2.8,0,0,1,.83-2.91,2.62,2.62,0,0,0,0-.37,3.43,3.43,0,0,1,.25-1.68c0-.08,0-.17-.07-.26l0-.11a5,5,0,0,1-.2-.93,3.32,3.32,0,0,1-.4-2.71,1.47,1.47,0,0,1-.06-.27,3,3,0,0,1,.41-2.16,2.56,2.56,0,0,1,.13-.89,3.29,3.29,0,0,1,0-.65,3.73,3.73,0,0,1,1-2.38l0,0a3.22,3.22,0,0,1,.24-1,1.92,1.92,0,0,1,0-.34,2.9,2.9,0,0,1,1.24-2.13c.35-.29.75-.68.77-1a4.66,4.66,0,0,1,1.49-3l.18-.19a4.6,4.6,0,0,1,.82-2.33l0-.06a2.68,2.68,0,0,1-.07-.94A2.75,2.75,0,0,1,142,79a3.43,3.43,0,0,1,1.3-.44c.24,0,.5-.34,1.1-1.2.06-.08.13-.16.19-.25a2.82,2.82,0,0,1,1.71-2.28c.26-.13.5-.28.75-.43a10.33,10.33,0,0,1,2-1,3.17,3.17,0,0,1,4.18-.85,2.71,2.71,0,0,1,1.54-.09,2.85,2.85,0,0,1,2,1.9l.07.09a2.9,2.9,0,0,1,2.36.46,3.16,3.16,0,0,1,1.07,0c.15,0,.22,0,.48-.23l.31-.32a2.49,2.49,0,0,0,.44-.48l0-.1a6.6,6.6,0,0,1,1.72-2.4c.15-.12.15-.55.1-1.46a5,5,0,0,0-.06-.57,2.91,2.91,0,0,1,0-3.38l0-.21c0-.19,0-.44.09-.72a2.46,2.46,0,0,1-.25-1.49,2.69,2.69,0,0,1,.88-1.67,4.81,4.81,0,0,1,3.17-2.27,2.49,2.49,0,0,1,.18-3.13,3.1,3.1,0,0,1,3.43-.81l.36,0a7.76,7.76,0,0,1,1.13,0,3.29,3.29,0,0,1,3.26,3.22c0,.08,0,.13,0,.17a4,4,0,0,1,1.87,3.57c0,.25,0,.5,0,.75a8.2,8.2,0,0,0,0,.86l.1.05.12,0h.07a2.68,2.68,0,0,1,2.31.07h.23a7.36,7.36,0,0,1,5.47,1.66,3.51,3.51,0,0,1,1.11,1.81A6.27,6.27,0,0,1,186,73l-.13.21c0,.07-.1.14-.14.21a2.81,2.81,0,0,1-1.79,2h0l-.19.24h0a2.8,2.8,0,0,1,.36,1,2.93,2.93,0,0,1-.28,1.79h0a3,3,0,0,1,.27,1l0,0a5.58,5.58,0,0,1,.77,1.45,2.78,2.78,0,0,1,1.18,2.16c0,.11,0,.23,0,.34a4.1,4.1,0,0,1,.63,1.72,3.25,3.25,0,0,1,.65.63l.16-.06a2.61,2.61,0,0,1,1.09-.93,3,3,0,0,1,2.58.11,4.7,4.7,0,0,1,2.51,3.41,7,7,0,0,1-1,5.32,3.88,3.88,0,0,1-3.15,3.19,2.89,2.89,0,0,1-.78.06,7.4,7.4,0,0,1-1.63.68,2.53,2.53,0,0,0-.37.18,6.72,6.72,0,0,1-1.21.54,3.09,3.09,0,0,1,.14.32,3.26,3.26,0,0,1-.07,2.49,3.9,3.9,0,0,0-.17.48,8.56,8.56,0,0,1-.41,1.09,3.75,3.75,0,0,1,.26,2.22,6.34,6.34,0,0,1,.78,2.57,3,3,0,0,1,.29.64,3,3,0,0,1-.79,3,3.16,3.16,0,0,0-.52,1.57,6.11,6.11,0,0,1-2,3.68v0l-.2.51a7.25,7.25,0,0,1-1.07,1.91v0c-.05.19-.1.38-.16.57a9.32,9.32,0,0,1-.33.88,4.22,4.22,0,0,0-.27.82,3,3,0,0,1-2.95,2.65,2.68,2.68,0,0,1-1.48.5,2.86,2.86,0,0,1-2.63.32,1.8,1.8,0,0,0-.35-.09,3.1,3.1,0,0,1-2.66,1l-.55,0-.52,0a3,3,0,0,1-1,.46c-.1.1-.28.32-.38.45l-.1.13a3,3,0,0,1-2.9,2.66l-.08.06a2.52,2.52,0,0,1-.19.57,2.91,2.91,0,0,1-1.21,1.32,7.4,7.4,0,0,1-1.09,1.73c-.12.15-.23.29-.33.44a2.78,2.78,0,0,1-2,1.2,5.22,5.22,0,0,1-.71.66,6.17,6.17,0,0,1-2.06,1.08l-.4.09a3.26,3.26,0,0,1-2.16.53,3.51,3.51,0,0,1-2-.84h0l-.29,0a4.81,4.81,0,0,1-2.15.9,4.78,4.78,0,0,0-1.81.86,4.47,4.47,0,0,1-1.06,1.37A4.22,4.22,0,0,1,145,140.37Zm6.34-4.57h0Zm-6.86,0h0Zm-.89-.72c.28.05.57.12.86.19l.22.06a3.27,3.27,0,0,1,1.06-1.29,10.33,10.33,0,0,1,4.14-2,2.72,2.72,0,0,1,3-1h.48a4.38,4.38,0,0,1,2.52.58,5.41,5.41,0,0,1,.56-.15l.13,0a1.34,1.34,0,0,0,.4-.25L157,131a4.59,4.59,0,0,1,2.07-1.38,3,3,0,0,0,.29-.42,2.89,2.89,0,0,1,1.07-1.93,2.56,2.56,0,0,1,1.16-1.42,4.32,4.32,0,0,0,.38-.3,6.14,6.14,0,0,1,1.77-1.09,4.63,4.63,0,0,1,.69-1l.1-.12a5.59,5.59,0,0,1,2.75-2.13h0a3.39,3.39,0,0,1,2-.67,2.84,2.84,0,0,0,.51,0c.21,0,.44,0,.69-.06a4.61,4.61,0,0,1,3.87-1,3.35,3.35,0,0,1,1.19-.29,3.15,3.15,0,0,1,.88-.37c.06-.16.13-.32.19-.46s.14-.37.2-.55,0-.13.05-.18a4.25,4.25,0,0,1,1-2,3.65,3.65,0,0,0,.36-.74,1.18,1.18,0,0,0,.07-.2,4.28,4.28,0,0,1,1.4-2.1,1.13,1.13,0,0,0,.41-.8,9,9,0,0,1,.93-2.94,2.82,2.82,0,0,1,0-1c0-.13,0-.37-.47-1.09a2.76,2.76,0,0,1-.36-2.28,3.34,3.34,0,0,1,.28-4v0a2.94,2.94,0,0,1-1-2.11,3,3,0,0,1,1.13-2.45,2.56,2.56,0,0,1,.89-1.51,2.63,2.63,0,0,1,1.4-.6,2.9,2.9,0,0,1,1.16-.33,3,3,0,0,1,.33-.18,6.91,6.91,0,0,1,1.2-.54l.49-.16a2.53,2.53,0,0,1,2-1.33h.12l.07-.12a2.8,2.8,0,0,0,.2-.32,4.84,4.84,0,0,1-3.68.58l-.35-.1a4,4,0,0,0-1,.47,2.8,2.8,0,0,1-4-.49A3,3,0,0,1,178.9,89a2.93,2.93,0,0,1,1.16-2,5.19,5.19,0,0,1,1.38-.77,2.77,2.77,0,0,1-1.07-2,3.41,3.41,0,0,1,0-.85,3.44,3.44,0,0,1-.28-.91l0-.07c-.1-.14-.22-.3-.34-.49s-.24-.09-.33-.14a2.92,2.92,0,0,1-1.49-1.6,2.64,2.64,0,0,1-.28-2.43.5.5,0,0,1,0-.13,3.16,3.16,0,0,1,1-3.94h0a2.77,2.77,0,0,1,1.5-1.46,4.53,4.53,0,0,1,1.16-1.06,6.83,6.83,0,0,1,.41-.67l.09-.14a1.75,1.75,0,0,0,.33-.88,2.72,2.72,0,0,0-1.43-.23,6.48,6.48,0,0,1-1.19,0l-.13.06a3,3,0,0,1-2.51-.17h0l-.32-.06a5.05,5.05,0,0,1-4-4.22,10.49,10.49,0,0,1,0-1.75v-.24l-.29-.26a3.25,3.25,0,0,1-2.65,1.67l-.23,0-.51.07a2.7,2.7,0,0,1-.45,1.71v.08l0,.41a4.41,4.41,0,0,1-.21,1.14,6.67,6.67,0,0,1,.31,1.82c.1,1.5.25,3.94-1.93,5.7a5.76,5.76,0,0,0-.37.69l0,.11a6.72,6.72,0,0,1-1.44,1.88l-.23.23a5.46,5.46,0,0,1-4.09,1.75,3.2,3.2,0,0,1-2.63,0,3.34,3.34,0,0,1-.78.12,3.41,3.41,0,0,1-3.2-1.58,3.21,3.21,0,0,0-.31-.39,2.77,2.77,0,0,1-.5,0,2.93,2.93,0,0,1-1.11-.28,3,3,0,0,1-.88.32,4.56,4.56,0,0,0-1.22.61l-.29.18a4.89,4.89,0,0,1-.77,1.27l-.1.12A7.88,7.88,0,0,1,145.69,83a4.09,4.09,0,0,1-.34.79,7.6,7.6,0,0,1-.55,1l-.05.07a4.49,4.49,0,0,1-1.06,2.68c-.17.2-.35.4-.54.59a.57.57,0,0,1-.11.11,6.09,6.09,0,0,1-1.79,3.49,2.89,2.89,0,0,1-.46,1.14,4.22,4.22,0,0,1-.86,2,3.35,3.35,0,0,1-.13,1.49,3.51,3.51,0,0,1-.23,1,3,3,0,0,1,0,1.79,2.6,2.6,0,0,1,.25,1.48l.07.25,0,.11a3.39,3.39,0,0,1-.09,3.4,5.64,5.64,0,0,1-.48,2.19,3.43,3.43,0,0,1-.1,1.84,4,4,0,0,1-.59,1.14,3.35,3.35,0,0,1-1,1.72,2.75,2.75,0,0,1-.42,1,1.57,1.57,0,0,1-.06.28,2.56,2.56,0,0,1,0,1.73,5.66,5.66,0,0,1,3,2,2.62,2.62,0,0,1,.49,2.7c.31.68.56,1.34.79,2s.41,1.11.63,1.6a7.56,7.56,0,0,1,.56,2.74c0,.18,0,.36,0,.54a3.14,3.14,0,0,1-1.07,2.72,3.08,3.08,0,0,1-.42,2q.3.44.51.81l.2.31a8.72,8.72,0,0,1,.69,1.24A3.69,3.69,0,0,1,143.54,135.07Zm-.79-1.49a.14.14,0,0,0,0,.06A.14.14,0,0,1,142.75,133.58Zm-.72-1.05Zm0,0Zm16.41-2h0Zm5.9-.59h0Zm-3.65-.37h0Zm0-.11Zm-19.93-2.75h0Zm22.7-.51Zm15.46-3.43h0Zm-6-1.55,0,.06Zm-5.05-.15h0Zm8.24-.47h0Zm-36.21-.46h0Zm-3.5-.47Zm46.41-3.13Zm.19-5.58h0Zm-47.58-.14h0Zm1.54-.26h0ZM135.35,109Zm50.66-.2v0Zm-47.88-.62Zm.7-2.73,0,0Zm-3.5-3.63,0,0Zm4.35-.64v0Zm-4-1.09h0Zm45.37-1Zm3.37-.59h0Zm-45.62-.69,0,0Zm.76-2.77h0Zm52.89-1Zm-8.53-.12h0Zm-47-1h0Zm3.86-.79h0Zm39.81-4.43h0Zm4-1.77h0Zm-2.23-.74h0Zm-37.67-.7Zm-.89-1h0Zm36.26-1.19h0Zm3.54-.41h0Zm.46-2.15Zm-39.44-.19,0,0Zm16.61-.32-.08.06ZM158,77.08,156.41,79l.12.09Zm1.48,1h0Zm-14.89-.24Zm35.25-.6h0Zm-1.39-3h0Zm2.45-2.07h0Zm1.65-2.43h0Zm-19.17-.38h0Zm3.59-.08,0,0ZM181.19,67h0Zm-13.05-.69Zm-1-.56h0Zm13.14-1.43Zm-7.1-1.06Zm-4.69-2.46h0Zm-.34-.52h0ZM171,55.68h0Z"/><path class="cls-3" d="M158.21,65.84a3.48,3.48,0,0,1-1-.16,2.85,2.85,0,0,1-1.89-1.86,4.58,4.58,0,0,1-.46-.64,3.38,3.38,0,0,1-1.05-.41,3.24,3.24,0,0,1-1.29-1.52,3.16,3.16,0,0,1-.8-.83l-.11-.2,0,0-.31-.2a2.5,2.5,0,0,1-1.12-2.64,2.72,2.72,0,0,1,.29-.75,3.39,3.39,0,0,1,.58-4,3.81,3.81,0,0,1,1.16-3.22.94.94,0,0,0,.1-.1,2.59,2.59,0,0,1,1.66-1.15H154a4,4,0,0,1,.21-.41,3,3,0,0,1,2.92-1.51,3.27,3.27,0,0,1,1.91-.06,4.84,4.84,0,0,1,2.92-.44,4,4,0,0,1,.36-.33,2.79,2.79,0,0,1,2.62-.8,2.55,2.55,0,0,1,.81.33,2.53,2.53,0,0,1,.91-.16h0a2.77,2.77,0,0,1,2.21,1.1,3.42,3.42,0,0,1,.82,2.56,3.11,3.11,0,0,1-.78,1.63,4.35,4.35,0,0,1-1.86,2l0,0q-.07.26-.18.54a3.92,3.92,0,0,1,.37.74,4.53,4.53,0,0,1,.23.81,3,3,0,0,1,1,.94l.22.05a2.51,2.51,0,0,1,.92,4.71,9,9,0,0,1-1,.45,4.22,4.22,0,0,1-1,1.6l-.07.07a2.73,2.73,0,0,1-.72,1.67,2.78,2.78,0,0,1-2.19.9h-.14a4.92,4.92,0,0,1-1-.09,3.4,3.4,0,0,1-2.89.41l-.13,0A3.06,3.06,0,0,1,158.21,65.84Zm-1.1-3h0Zm0,0Zm5.49-.92h0Zm-10.39-1.33Zm4.46-2.46a2.74,2.74,0,0,1,1.1.53,4.11,4.11,0,0,1,1.1,1.37,5,5,0,0,1,2.23-.17,3.22,3.22,0,0,1,2.31-.7l.12-.15a2.91,2.91,0,0,1-.91-.56,2.84,2.84,0,0,1-1-2.44,2.7,2.7,0,0,1,.6-1.35,3.5,3.5,0,0,1-.24-3.41,4.08,4.08,0,0,0,.17-.42,4.33,4.33,0,0,1-1-.19s0,0-.05,0a3.13,3.13,0,0,1-2.37.72,2.81,2.81,0,0,1-1.84,1.29,2.76,2.76,0,0,1-.93.49,4.47,4.47,0,0,1-.72,2.07,6.31,6.31,0,0,1,.23,1.29c0,.11,0,.22,0,.33a1.29,1.29,0,0,1,0,.19c0,.07.1.14.14.21A3.12,3.12,0,0,1,156.67,58.13Zm.58,1.63Zm7.75,0h0Zm-.27-.23h0ZM163,54h0Zm3.55-.68Zm-10.06-1.43h0Zm1.34-.41v0Zm-1.6-.47Zm3.06-.44h0Zm3-2.37Zm-4.72-.91h0Zm2.78-.49Z"/></g></g></svg>