<svg xmlns="http://www.w3.org/2000/svg" viewBox="0 0 52.2 47.6"><defs><style>.cls-1{fill:#c98b5f;}</style></defs><g id="Capa_2" data-name="Capa 2"><g id="Capa_1-2" data-name="Capa 1"><path class="cls-1" d="M38.58,37.21v1.26a2.24,2.24,0,0,0,1.55,2.32l.21.1a18,18,0,0,1-1.87,1.65,23.4,23.4,0,0,1-7.25,3.88,23.8,23.8,0,0,1-11.93.75A22.84,22.84,0,0,1,11.16,44a23.23,23.23,0,0,1-10.59-15A23.75,23.75,0,0,1,19.23.46,23.74,23.74,0,0,1,40.91,7.28c.69.72.69.72.15,1.53s-1,1.54-1.51,2.32c-.17.25-.25.26-.45,0a19.25,19.25,0,0,0-7.67-5.68,19.6,19.6,0,0,0-16,.31,19.21,19.21,0,0,0-7.68,6.3A19.81,19.81,0,0,0,8.61,36.6a19.14,19.14,0,0,0,14,7,19.42,19.42,0,0,0,15.64-6.18,3.08,3.08,0,0,0,.24-.27Z"/><path class="cls-1" d="M47.78,30.06v8.38a1.3,1.3,0,0,1-1.46,1.49c-1.74,0-3.48,0-5.22,0a1.39,1.39,0,0,1-1.55-1.54c0-5.61,0-11.22,0-16.82,0-.36-.08-.47-.45-.46-.86,0-1.73,0-2.6,0a1.27,1.27,0,0,1-1.12-2l4.21-6.3q1.5-2.25,3-4.51a1.26,1.26,0,0,1,2.16,0C46,10.15,47.2,12,48.42,13.82s2.35,3.52,3.52,5.28a1.26,1.26,0,0,1-1.08,2c-.87,0-1.74,0-2.61,0-.36,0-.48.08-.48.47C47.79,24.41,47.78,27.23,47.78,30.06Z"/><path class="cls-1" d="M29.16,18.84l-1.62.09c-.25,0-.33-.06-.37-.3a7.13,7.13,0,0,0-.24-1,2.78,2.78,0,0,0-2.55-2.06,4.91,4.91,0,0,0-2.52.25,2.07,2.07,0,0,0-.26,3.9,15.59,15.59,0,0,0,3.12,1.16A22.86,22.86,0,0,1,27.81,22a6.48,6.48,0,0,1,3.84,5.59A8.48,8.48,0,0,1,31,32.19,6.36,6.36,0,0,1,25.62,36c-.36,0-.44.17-.43.51,0,.95,0,1.9,0,2.85,0,.28-.08.38-.36.37-.7,0-1.39,0-2.08,0-.3,0-.36-.11-.36-.38q0-1.48,0-3c0-.17,0-.34-.23-.38-3.47-.57-5.23-2.83-6-6.07-.12-.53-.18-1.07-.27-1.61,0-.23,0-.34.28-.36,1.07-.12,2.13-.25,3.19-.39.26,0,.33.05.36.28a7.22,7.22,0,0,0,.66,2.13A3.78,3.78,0,0,0,24.33,32a3.82,3.82,0,0,0,2.61-1.08A2.75,2.75,0,0,0,26,26.35c-1.28-.52-2.62-.87-3.93-1.31-.53-.18-1-.39-1.56-.61a6.71,6.71,0,0,1-3.89-7,6.19,6.19,0,0,1,3.11-5A5.93,5.93,0,0,1,22,11.69c.29,0,.38-.16.37-.45,0-1,0-2,0-2.93,0-.28.08-.38.37-.37q1,0,2.07,0c.3,0,.37.1.36.38,0,1,0,1.95,0,2.93,0,.27,0,.39.36.45a6.36,6.36,0,0,1,5.53,5.95c0,.35.23.78,0,1s-.66.09-1,.12-.62,0-.94.06Z"/></g></g></svg>