<svg xmlns="http://www.w3.org/2000/svg" viewBox="0 0 236.07 271.59"><defs><style>.cls-1{fill:#fdce76;}.cls-2{fill:none;stroke:#6c2912;stroke-miterlimit:10;stroke-width:2px;}.cls-3{fill:#6c2912;}</style></defs><g id="Capa_2" data-name="Capa 2"><g id="Capa_1-2" data-name="Capa 1"><rect class="cls-1" width="236.07" height="271.59" rx="35.2"/><line class="cls-2" x1="35.26" y1="237.8" x2="195.33" y2="237.8"/><path class="cls-3" d="M85.24,134.67a77,77,0,0,1,15.32-5c2.23-.47,4.14-1.93,6.09-3.16,3.73-2.37,7.19-5.12,10.73-7.76A43.48,43.48,0,0,1,144.73,110c3.12,0,3.77.61,4.37,3.21-.72,2-2.16,2.72-4.3,2.61a18.83,18.83,0,0,0-6.6.38,33.18,33.18,0,0,0-16.62,6.62,2.79,2.79,0,0,0,1.15,0,69,69,0,0,1,21.18-.71,45.74,45.74,0,0,1,18.86,7l.08,0c0,.25.21.33.43.35l0-.07.46.45A44.63,44.63,0,0,1,177,147.72c.71,1.7.71,3.07-.59,4.39-2.57.82-3.54.38-4.62-2.18-3.39-8.06-8.57-14.52-16.49-18.54-.45-.23-.88-.71-1.6-.4a41.54,41.54,0,0,0,6.22,13.61c.7.93,1.47,1.87,1,3.22a2.85,2.85,0,0,1-2.25,2c-1.41.26-2.35-.59-3.12-1.63-4-5.44-6.32-11.63-7.89-18.13-.19-.77-.16-1.66-1.26-1.82-1.65-.24-3.3-.57-5-.76A65.8,65.8,0,0,0,120.32,129a69.71,69.71,0,0,0-10.91,3.15,39.2,39.2,0,0,1,10.12,7.08c.85.81,1.47.52,2.29.09a18.16,18.16,0,0,1,13-1.89c7.12,1.67,14.79,9.43,12.79,19.92-.24,1.28.11,1.56,1.2,1.47a43,43,0,0,0,4.82-.45c8-1.62,16-1.78,24,.48a41.35,41.35,0,0,1,9.38,4.51,58.32,58.32,0,0,0-1.53-10.7c-3.67-15.83-12.27-27.71-27.57-34.14a3.37,3.37,0,0,1-2.35-3.9c1.53-2,2.42-2.27,4.79-1.26,15.78,6.75,25.42,18.77,30,35.11a76.16,76.16,0,0,1,2.45,15.24,5.09,5.09,0,0,1-2.4,4.94,4.71,4.71,0,0,1-5.46.11c-9.17-6.49-19.33-6.76-29.84-4.91a24.62,24.62,0,0,1-9.09.37c-1-.21-1.25.48-1.67,1.08-3.56,5.12-8,9.22-13.94,11.38a16.44,16.44,0,0,1-15-1.49,1.44,1.44,0,0,0-2,.14,33.27,33.27,0,0,1-9.51,5.77c-.87.33-1,.83-1.08,1.65C102,190.28,99,196.39,92,199.94c-1,.51-.77,1.28-.83,2-.45,5.58-2,10.78-5.85,15a18.82,18.82,0,0,1-27.44.19c-.38-.39-.77-.76-1.35-1.34-.21,1.66-.42,3.09-.56,4.54-.16,1.67-.44,3.27-1.84,4.42H51.87c-1.67-1-2.06-2.47-1.78-4.29.68-4.41,1.18-8.85,2.11-13.22a6,6,0,0,0,0-2.23,32.42,32.42,0,0,1-.34-8.17c.08-1.2-.08-1.66-1.49-1.76A18.75,18.75,0,0,1,33,180c-1.15-5.54,0-10.85,2.23-15.95.79-1.82,2.35-2,4.08-1.47,1.47,1.37,1.55,2.88.76,4.7a20.28,20.28,0,0,0-1.68,10.34c.41,3.73,1.9,6.89,5.17,9a13.85,13.85,0,0,0,7.36,2.79,2.2,2.2,0,0,0,2.8-1.66,18,18,0,0,1,7.63-9.58,2.51,2.51,0,0,0,1.4-2.5,22.37,22.37,0,0,1,3.88-13.54c.37-.52.69-1,.25-1.67a12.07,12.07,0,0,0-8.69-6,2.65,2.65,0,0,0-1.74-.47,12.38,12.38,0,0,0-9.28,2.91,3.24,3.24,0,0,1-4.07.38c-1.54-2.09-1.39-3.31.59-4.92a18.75,18.75,0,0,1,23.44-.05c.54.42,1.06.87,1.74,1.43a253,253,0,0,1,14.67-28.32,62.22,62.22,0,0,1-9.4,2.86c-7.4,1.35-13.17-1.24-17.69-7-3.07-3.94-5.3-8.39-7.6-12.79a29,29,0,0,0-3.53-5.73,40,40,0,0,0-2.46,10.64c-.36,3.67-2.33,5.69-5.47,5.5a4,4,0,0,1-2.09-.7c-6.91-4.61-12.15-10.49-13.8-18.88-1.49-7.58,1-14.08,6-19.76A30.71,30.71,0,0,1,34,74c1.88-1.23,3-1.1,4.56.53.11.59.23,1.18.34,1.77a3.55,3.55,0,0,1-1.83,2.46,25.89,25.89,0,0,0-5.95,5.34c-3.18,3.87-4.91,8.22-4.2,13.55l1.61-1.19c7.67-5.78,15.69-4.66,21.48,3a48.64,48.64,0,0,1,4.11,6.86c2.18,4.18,4.3,8.41,7.29,12.1,2.64,3.26,6,5,10.26,4.53a31.46,31.46,0,0,0,10.91-3.48c1.51-.72,3-1.45,4.51-2.15.68-.32.94-.71.57-1.45-1.74-3.45-3.32-7-5.9-9.94-.35.08-.72.13-1.06.24a28.5,28.5,0,0,1-17,.38c-2.32-.65-3.25-2.61-2.08-4.4,1-1.47,2.37-1.38,3.83-1a21.65,21.65,0,0,0,10.87.35c.48-.12,1.31.12,1.4-.58,0-.35-.48-.82-.82-1.17a47.19,47.19,0,0,0-7.33-6,2.51,2.51,0,0,0-2.41-.28A43.51,43.51,0,0,1,53.9,95.3c-2,0-3.19-1.08-3.17-2.84s1.14-2.76,3.05-2.75a44,44,0,0,0,5.81-.47,2.82,2.82,0,0,0-1.49-.68,43.06,43.06,0,0,0-14.2-1.49c-2.14.09-3.24-.87-3.28-2.65s1.1-2.85,3.12-2.94a50.24,50.24,0,0,1,13.17,1,53.42,53.42,0,0,1,16,6.7l.11.11.12.09a60.07,60.07,0,0,1,16,17A33.18,33.18,0,0,0,84.84,91.2c-7.23-12.69-20.18-20.8-36.3-17.31A3.16,3.16,0,0,1,44.71,72c-.06-2.52.43-3.17,2.88-3.73a35.83,35.83,0,0,1,17.9.42c1,.27,1.59.41,2.26-.85A16.94,16.94,0,0,1,86.61,58.7c7.17,1.35,12.77,7.5,13.88,15.24,1,7.19.09,14-3.85,20.24a1.55,1.55,0,0,1-.31.46c-2.57,2-2.74,4.45-1.85,7.36a40.54,40.54,0,0,1,.88,5.67l2-2.57A226.81,226.81,0,0,1,125,74.75c4.41-4,7.06-9,6.93-15.1a26.83,26.83,0,0,0-.57-3.86,2.94,2.94,0,0,1,2-3.49,2.75,2.75,0,0,1,3.45,2.05c1,3.08.79,6.27.64,9.8,2-1.45,3.73-2.75,5.47-4.08.52-.4.3-1,.33-1.58.3-4.68,1-9.25,3.14-13.51,3.46-6.9,9.08-10.37,16.7-11.06A204.58,204.58,0,0,1,185,33.23c3.36,0,6.73.19,10.08.41,3.81.26,6.19,3.84,4.62,7.18C195.54,49.61,190,57.35,182,63.09c-10.74,7.73-22.1,8-33.78,2.34a2.8,2.8,0,0,0-3.42.34,221,221,0,0,0-26.17,23.12l-.9,1c.79.59,1.39,0,1.94-.2a71.37,71.37,0,0,1,18.57-3.72c.76-.05,1.59.08,1.95-1,2.36-7.28,7.73-11.22,14.85-13a32.08,32.08,0,0,1,19.09.93c7.63,2.81,12.51,9.33,12.77,17,.27,8.2-3.7,15-11.43,18.2-9.39,3.91-18.83,3.74-27.73-1.58-5.05-3-7.74-7.78-8.29-13.65-.09-.94-.29-1.35-1.3-1.24-11.43,1.22-22.19,4.19-31.31,11.63-3.24,2.65-5.55,6-8,9.37a207.57,207.57,0,0,0-13.94,21.84c0,.15-.12.39-.06.44S85.18,134.85,85.24,134.67Zm.69-52.09a51,51,0,0,1,5.36,8.84,2.61,2.61,0,0,0,1.26-1.49A23,23,0,0,0,94.7,74.18c-1.46-6.89-6.41-10.63-12.56-9.85-4.33-.15-7,2.34-9.15,5.71-.32.51-1,1.32.09,1.61,1,.25,1.65,2.13,3,.53a8.19,8.19,0,0,1,4.51-2.82,2.62,2.62,0,0,1,3.31,1.69,2.66,2.66,0,0,1-1.27,3.51c-.48.28-1.06.41-1.52.71-.89.58-1.3,1.1-.21,2.08C82.66,79,84.25,80.82,85.93,82.58Zm66.22-22.44c-1,.43-.47.69.1.94,5.57,2.36,11.29,3.27,17.26,1.8a28,28,0,0,0,11.39-6.06c5.69-4.8,9.82-10.76,13.25-17.49-2.3-.15-4.39-.31-6.48-.41-1.36-.06-2.73,0-4.1-.05a155.48,155.48,0,0,0-20.7.75c-7.56.7-13.76,7.9-13.24,15.25l1.42-.93a91.37,91.37,0,0,1,23.83-11.18c2.25-.7,3.17-.31,4.27,1.69.28,1.89-.66,3-2.3,3.72a67.11,67.11,0,0,0-12.56,4.77c2.85.5,5.3-.42,7.64.5.86,1,1.59,2.06.9,3.5s-1.92,1.74-3.38,1.72c-2.41,0-4.83,0-7.24.05a17.65,17.65,0,0,1-3.11-.44A6.22,6.22,0,0,0,152.15,60.14ZM114.73,166.76c2.93,4.41,7.59,6.43,12.58,4.84a21.39,21.39,0,0,0,14.56-14.78c1.43-4.7-.75-9.56-5-12.24a9.2,9.2,0,0,0-7-1.88c-7.12.8-14.94,7.85-16.71,15A10.22,10.22,0,0,0,114.73,166.76ZM69,216.8c2.22,1,4.41.42,6.55-.19,6.54-1.86,9.13-8.32,9.77-13.92.1-.83-.38-.8-.89-.76a21.58,21.58,0,0,1-8.91-1.62,21,21,0,0,1-6.49-5.21c-.57-.76-.92-.62-1.3.15a11,11,0,0,0-.75,3.63c-.3,2.14-1.51,3.26-3.23,3s-2.64-1.57-2.48-3.57c.25-3.16,1-6.14,3.42-8.43a1.27,1.27,0,0,0,.42-1.61c-.59-1.48-1-3-1.56-4.65A11.76,11.76,0,0,0,59.38,189c-2,4.44-2.24,9.13-1.71,13.89a17.77,17.77,0,0,0,3.68,9.6C63.33,214.91,65.73,216.71,69,216.8Zm13.81-20.71a12.35,12.35,0,0,0,12.73-7.77c2.93-8.17,1.65-16-3.23-23a12.12,12.12,0,0,0-15-4.18,10.74,10.74,0,0,0-7.77,7.82,24.78,24.78,0,0,0,3.51,22A11.19,11.19,0,0,0,82.85,196.09Zm98-107.94a11.12,11.12,0,0,0-4.94-8,19.39,19.39,0,0,0-10.68-3.41c-5.63-.32-11.1.29-15.69,4a9.84,9.84,0,0,0-4.1,7.42c-1.63,4.51.84,10.89,5.55,13.6,6.79,3.9,14,3.82,21.23,1.48A12.64,12.64,0,0,0,180.83,88.15ZM74.52,155.79a.33.33,0,0,0,.21,0c10.25-4,20.59.57,25,10.78a28.52,28.52,0,0,1,2.23,7.26c.2,1.41.64,1.69,2,.91a46.82,46.82,0,0,0,5.42-3.61c.48-.38.88-.65.39-1.46-4.33-7-3.2-13.82,1.07-20.42a41.12,41.12,0,0,1,5-5.88c-1.38-1.1-2.65-2.19-4-3.19-5.74-4.33-11.72-5.75-18.75-2.73C84.4,141.22,76.92,145.86,74.52,155.79ZM37.18,112.62a46.12,46.12,0,0,1,2.93-12.05c.79-1.84,0-2.07-1.4-2.21a3.22,3.22,0,0,0-.93,0c-3.35.5-5.91,2.39-8.3,4.63-.47.45-.37.81-.07,1.29A28,28,0,0,0,37.18,112.62Z"/><path class="cls-3" d="M85.24,134.67c-.06.18-.19.32-.36.18s0-.29.06-.44Z"/><path class="cls-3" d="M162.85,129.14c.29-.06.41.09.43.35C163.06,129.47,162.88,129.39,162.85,129.14Z"/><path class="cls-3" d="M163.25,129.42l.46.45Z"/><path class="cls-3" d="M73.07,89.25l.24-.17-.12.26Z"/><path class="cls-3" d="M57.56,162.69A2.63,2.63,0,0,1,55,165.54c-2.83,0-4.3,1.62-5.39,3.86a3.26,3.26,0,0,1-2.77,2.17A2.87,2.87,0,0,1,44,168c.89-4.41,6.41-8.52,10.84-8.07A2.66,2.66,0,0,1,57.56,162.69Z"/><path class="cls-3" d="M174.6,88.25a2.72,2.72,0,0,1-2,2.83,2.48,2.48,0,0,1-3.2-1.24c-1.22-2.78-3.46-3.46-6.18-3.56a2.77,2.77,0,0,1-2.93-2.94c0-1.71,1.15-2.73,3.1-2.7,4.49.07,8.3,1.47,10.57,5.68A3.53,3.53,0,0,1,174.6,88.25Z"/><path class="cls-3" d="M72.47,177.11c0-3.75,1.21-7,4.4-9.19,1.73-1.21,3.45-1,4.44.43s.6,2.92-1.08,4.15c-1.85,1.34-2.23,3.24-2.07,5.29.21,2.86-.48,4.19-2.45,4.33s-3.13-1.23-3.24-4.08C72.46,177.73,72.47,177.42,72.47,177.11Z"/><path class="cls-3" d="M129.48,146.9a6.43,6.43,0,0,1,3.35.9,2.64,2.64,0,0,1,1.31,3.49,2.44,2.44,0,0,1-3.27,1.68c-2.43-.92-4.17.08-5.9,1.57-1.56,1.34-3.16,1.33-4.26,0a2.57,2.57,0,0,1,0-3.7A11.32,11.32,0,0,1,129.48,146.9Z"/></g></g></svg>