<svg xmlns="http://www.w3.org/2000/svg" viewBox="0 0 236.07 271.59"><defs><style>.cls-1{fill:#6c2912;}.cls-2{fill:none;stroke:#fdce76;stroke-miterlimit:10;stroke-width:2px;}.cls-3{fill:#fdce76;}</style></defs><g id="Capa_2" data-name="Capa 2"><g id="Capa_1-2" data-name="Capa 1"><rect class="cls-1" width="236.07" height="271.59" rx="35.2"/><line class="cls-2" x1="38.26" y1="237.8" x2="198.33" y2="237.8"/><path class="cls-3" d="M118.59,60.75a42.89,42.89,0,1,1-43,42.79A42.93,42.93,0,0,1,118.59,60.75Zm36.81,43.16c-.05-.92-.09-1.84-.14-2.76,0-.39,0-.84-.44-1s-.78.17-1.08.46c-2.22,2.14-4.46,4.28-6.66,6.43-6.32,6.17-12.9,12.08-18.83,18.65-.77.86-1.61,1.67-2.45,2.47a22.84,22.84,0,0,1-6.66,4.75,19,19,0,0,1-12.48.65,19.69,19.69,0,0,1-14.17-13,10.37,10.37,0,0,1,.66-8.67,23.75,23.75,0,0,1,12.4-11.12,10.6,10.6,0,0,1,12.77,3.38,16.74,16.74,0,0,1,3.39,10.17,7.94,7.94,0,0,1-4.22,7.36,16.68,16.68,0,0,1-5.42,1.9c-3.82.69-6.54-.52-8.6-3.82a11.89,11.89,0,0,1-1.75-4.53,4.92,4.92,0,0,1,1.4-4.49,13.08,13.08,0,0,1,1.77-1.46,2.76,2.76,0,0,1,3.69.09c1,.78,1.81,1.76,2.73,2.63a5.44,5.44,0,0,0,1.49,1.16,1,1,0,0,0,1.51-.51,4.63,4.63,0,0,0-1.62-5.73A11.21,11.21,0,0,0,109,105.6c-4.27-.82-7.54,1.19-8.8,5.37a13.44,13.44,0,0,0-.43,4.46A10.2,10.2,0,0,0,107,125c4.5,1.38,8.65.43,12.49-2.14a36.64,36.64,0,0,0,5.91-5c7.85-8.07,15.9-15.94,24-23.73A6.36,6.36,0,0,0,150.47,86a31.58,31.58,0,0,0-7.63-9c-9.43-7.71-20.21-10.45-32.07-8-12.87,2.71-22,10.27-26.91,22.56a32.45,32.45,0,0,0-2.12,14.11c0,.52-.07,1.19.59,1.43s.87-.38,1.2-.69c3.65-3.48,7.29-7,10.9-10.48,4.16-4.07,8.52-8,12.44-12.27,1.78-1.95,3.63-3.82,5.53-5.66,4.8-4.62,10.49-6.1,17-5a21.76,21.76,0,0,1,10.85,5.67c4.81,4.32,7.78,13.47,1.12,20.5-2.55,2.69-5.15,5.31-8.6,6.85-5.39,2.41-10.79,1-13.93-3.59A17.08,17.08,0,0,1,115.71,92a7.56,7.56,0,0,1,5-7,21,21,0,0,1,7.07-1.17,7,7,0,0,1,6.92,4.68,14.64,14.64,0,0,1,.89,2.94,7.44,7.44,0,0,1-.79,5,3.63,3.63,0,0,1-5.67,1.32,18.06,18.06,0,0,1-2.48-2.31,8.6,8.6,0,0,0-1.92-1.64,1.06,1.06,0,0,0-1.71.58,4.49,4.49,0,0,0,2.08,5.81,12.43,12.43,0,0,0,3.21,1c4.45.89,7.88-1.29,9-5.71a14.31,14.31,0,0,0,.34-2.35c.47-6-3.06-10.73-8.91-11.74a14.41,14.41,0,0,0-11.12,2.78,41.14,41.14,0,0,0-5.76,4.94c-7.9,8.13-16,16-24.2,23.91a6,6,0,0,0-1.77,5.52,12,12,0,0,0,2.72,5.62,37.53,37.53,0,0,0,44.27,11.94C147,130.2,154.54,119.33,155.4,103.91Z"/><path class="cls-3" d="M130.43,174.39a53.42,53.42,0,0,0-3.31,5.41c-1,1.87-2,3.78-2.89,5.71-.52,1.08-1.22,1.18-2,.23a32.2,32.2,0,0,1-4-7.24c-.54-1.24-1-2.51-1.69-3.77-.06.87-.16,1.74-.19,2.61a160.65,160.65,0,0,0,.38,17.14c0,.7-.2.87-.8.94a50.61,50.61,0,0,1-7.18.16c-.58,0-.62-.32-.65-.75-.25-3.39-.31-6.79-.25-10.19.14-7.7.62-15.38.63-23.08,0-.64.31-.67.78-.65a48.64,48.64,0,0,1,7.86,1.3,2.4,2.4,0,0,1,2,1.82,78.63,78.63,0,0,0,3.82,9.44l.4.78c.36-.16.4-.5.54-.76a74.94,74.94,0,0,1,6.89-10.78,1.46,1.46,0,0,1,1.38-.68,55.42,55.42,0,0,1,6.92.62c.48.09.86.16.79.87a207.68,207.68,0,0,0-.79,24.57q.06,3.15.23,6.32c0,.51-.1.7-.6.77a53.59,53.59,0,0,1-6.94.34c-.53,0-.55-.37-.6-.74a98,98,0,0,1-.78-13.48C130.42,179,130.43,176.78,130.43,174.39Z"/><path class="cls-3" d="M50.49,186.59a7.57,7.57,0,0,1-5.16,3.6c-4,.77-8.11-.53-10.32-4.51a18.77,18.77,0,0,1-2-6.92c-.6-4.8-.19-9.58.1-14.37.34-5.55.9-11.09.88-16.66,0-.55.12-.8.71-.84q3.91-.21,7.83-.06c.59,0,.49.43.49.78a70,70,0,0,1-.58,8c-.54,4.62-1.37,9.22-1.75,13.87a38.12,38.12,0,0,0,.1,10c.61,3.4,3.72,4.82,6.72,3.1a5.65,5.65,0,0,0,3.11-4.93c.53-9.59.54-19.19.28-28.78,0-1.23-.31-1.21,1.16-1.38a25.81,25.81,0,0,1,5.76-.13c.67.08.86.31.86,1,0,8.91-.4,17.82-.59,26.73-.09,4.51-.18,9,.09,13.52,0,.59-.18.81-.7.91a17,17,0,0,1-5.82.13c-.67-.11-1-.38-.94-1.14a16.83,16.83,0,0,0,0-1.88Z"/><path class="cls-3" d="M69.33,167.35c1.25-1.66,2.4-3.32,3.65-4.92a49,49,0,0,1,5.29-5.87,1.48,1.48,0,0,1,1.2-.44,12.41,12.41,0,0,1,4.28,1c1.15.5,1.15.52.37,1.48-2.14,2.64-4.41,5.18-6.47,7.89-1,1.36-2,2.76-3,4.18a.92.92,0,0,0-.08,1.08,97.28,97.28,0,0,0,9,14.57l.3.37c.91,1.06.91,1.07-.12,2.07a5.54,5.54,0,0,1-2.42,1.44,3.32,3.32,0,0,1-3.41-.75,34,34,0,0,1-6.4-9.07c-.53-1-1-2-1.59-3a13.72,13.72,0,0,0-1,7c.11,1.5.17,3,.26,4.5,0,.4-.06.64-.52.71a40,40,0,0,1-8,.43c-.89,0-1.12-.41-1.15-1.25-.18-4.27-.16-8.54-.16-12.81,0-8,.35-15.92.46-23.88,0-.52.17-.75.69-.83a34.82,34.82,0,0,1,7.56-.4,2.42,2.42,0,0,1,.47.07c1.27.24,1.33.31,1.27,1.59-.21,4.69-.41,9.38-.47,14.07Z"/><path class="cls-3" d="M173.05,178.1a55.43,55.43,0,0,0,0,5.77c.1,1.74.22,3.48.37,5.21a.72.72,0,0,1-.56.87,9.25,9.25,0,0,1-5.51.19,1.22,1.22,0,0,1-1-1.26q-.51-6.58-.4-13.19.16-8.22.83-16.42a6,6,0,0,0-.54-2c-.53-2.06-.94-1.81,1.24-2.54a20.91,20.91,0,0,1,14.4.16c4.07,1.53,6,4.75,6.46,9,.69,6.41-2.83,10.14-7.57,12-.55.21-.68.33-.34.88a87.38,87.38,0,0,0,8,11.3c.33.38.35.57-.12.82a13.86,13.86,0,0,1-5.09,1.58,1.77,1.77,0,0,1-1.29-.48,17,17,0,0,1-3.52-3.72,67.11,67.11,0,0,1-4.8-7.53C173.46,178.53,173.42,178.24,173.05,178.1Zm2.49-5.7v0c.66,0,1.31-.1,2-.12.34,0,.45-.14.43-.48a41.7,41.7,0,0,1,.58-8.57c.07-.54-.05-.79-.63-.77-1,0-1.95,0-2.93,0-1.43.06-1.43.08-1.52,1.51,0,.29-.05.58-.07.87A39.39,39.39,0,0,0,173,171c.08,1.29.09,1.3,1.35,1.36C174.75,172.42,175.14,172.4,175.54,172.4Z"/><path class="cls-3" d="M140.58,188.09a94.35,94.35,0,0,1,1.87-10q2.46-10.65,5.7-21.1a1.43,1.43,0,0,1,1.47-1.17,29.24,29.24,0,0,1,7.65.08,1.15,1.15,0,0,1,1.1,1.15c.85,5.73,1.71,11.46,2.79,17.14a108.78,108.78,0,0,0,3.62,14.54c.21.61.14.87-.53,1a31.53,31.53,0,0,1-5.63.71c-.79,0-1.15-.57-1.51-1.11a8.38,8.38,0,0,1-1-2.72q-.36-1.46-.63-2.94c-.09-.45-.23-.66-.75-.66-2.11,0-4.22.15-6.33.17-.52,0-.59.32-.67.69a28.15,28.15,0,0,0-.64,5.41c0,.53-.19.75-.71.8a17.61,17.61,0,0,1-4.64-.19C140.71,189.75,140.5,189.43,140.58,188.09Zm9.42-16h.05c0,.61,0,1.21,0,1.82s.24,1.06,1,1,1.32,0,2,0c1.51-.07,1.49-.08,1.48-1.61a50.81,50.81,0,0,1,.58-7.07c.07-.53,0-.79-.62-.77-1.16,0-2.32.05-3.48.08-.32,0-.52.11-.55.5C150.31,168,150.15,170.06,150,172.08Z"/><path class="cls-3" d="M100,187.09a10.73,10.73,0,0,1-9.77,3.11c-3-.52-4.68-2.53-5.54-5.32a20.7,20.7,0,0,1-.77-5.3,81,81,0,0,1,.87-14.34,35.19,35.19,0,0,0,.4-6.07c0-.75.25-.9.92-.79a20.81,20.81,0,0,1,3.49,1,23,23,0,0,0,2.75,1c.79.18.9.57.87,1.27a41.61,41.61,0,0,1-1.46,8.86,26.55,26.55,0,0,0-.9,9.47c.18,1.79.64,3.44,2.5,4.14a4.75,4.75,0,0,0,5-1.2,4.64,4.64,0,0,0,1.51-3.25,138.67,138.67,0,0,0,.22-17.77c0-.5.17-.63.62-.68a24.73,24.73,0,0,1,5.44-.16c.62.06.84.26.83.91,0,4.4-.16,8.8-.34,13.2a130.06,130.06,0,0,0-.11,13.68c0,.52-.13.79-.64.87a16.34,16.34,0,0,1-5.27.06c-.47-.08-.69-.27-.66-.78S100,187.79,100,187.09Z"/><path class="cls-3" d="M189.52,179c.13-7,.82-14,.72-21a.63.63,0,0,1,.55-.72,19.51,19.51,0,0,1,5.8-.45c1,.07,1.12.38,1.06,1.6-.46,8.47-1,16.93-1,25.42,0,1.61,0,3.22.1,4.82,0,.6-.18.83-.76.93a19.53,19.53,0,0,1-5.66.13c-.68-.07-.53-.57-.56-.93-.21-2.52-.27-5-.3-7.58Z"/><path class="cls-3" d="M191.49,150.83a15.28,15.28,0,0,1,1.06-3c1.08-2.41,2.56-4.6,3.75-7,.83-1.65.83-1.65,2.55-1,1.35.51,2.68,1.08,4,1.69.6.29.74.56.36,1.19a56.51,56.51,0,0,0-5.54,10.63c-.11.33-.26.45-.63.32a42.35,42.35,0,0,1-5.23-2.23C191.42,151.3,191.44,151.27,191.49,150.83Z"/><path class="cls-3" d="M84.56,206.43c1,.77,1.35,1.44,1.08,2.39a2.06,2.06,0,0,1-1.93,1.5l-.23.05c-1.93.3-2.1.16-2.1-1.76,0-1.63,0-3.26,0-4.89,0-.49.19-.68.62-.69a9.09,9.09,0,0,1,1.73,0,1.79,1.79,0,0,1,1.69,1.32A1.85,1.85,0,0,1,84.56,206.43Zm-1.71,1.76c.23.32-.33,1,.45,1,.6,0,.84-.46.85-1s-.45-1.13-.92-1C82.57,207.28,83.05,207.85,82.85,208.19ZM84,205c0-.47-.18-.85-.71-.87s-.33.47-.38.75a1.69,1.69,0,0,0,0,.55c0,.19-.08.45.2.53a.61.61,0,0,0,.63-.24A1.12,1.12,0,0,0,84,205Z"/><path class="cls-3" d="M137,209.91l.63.25c.37.14.76.2.48.8s-.46.59-1,.32a8.19,8.19,0,0,0-2.29-1,1.64,1.64,0,0,1-1.1-1.07,6,6,0,0,1,0-5,2,2,0,0,1,3.82.21A6.39,6.39,0,0,1,137,209.91Zm-.57-3.25a4.71,4.71,0,0,0-.21-1.87c-.08-.25-.22-.5-.53-.52s-.52.24-.61.51a6.86,6.86,0,0,0,0,3.81.61.61,0,0,0,.61.52c.35,0,.47-.31.56-.58A4.94,4.94,0,0,0,136.43,206.66Z"/><path class="cls-3" d="M124.43,206.73c0-1,0-2,0-3,0-.49.18-.69.62-.7a11.1,11.1,0,0,1,1.73,0,1.77,1.77,0,0,1,1.67,1.23,2.14,2.14,0,0,1-.47,2.27c-.26.25-.38.36-.09.73.62.79.5,1.85.8,2.76.08.25-.13.29-.32.32-.93.16-1.16,0-1.34-.92-.11-.51-.19-1-.32-1.54a.5.5,0,0,0-.53-.4c-.35,0-.25.35-.26.56a15.31,15.31,0,0,0,0,1.66c.06.64-.31.65-.78.65s-.75,0-.72-.62C124.46,208.73,124.43,207.73,124.43,206.73Zm2.64-1.51c0-.08,0-.16,0-.24-.06-.47-.3-.82-.8-.79s-.28.51-.33.8a3.27,3.27,0,0,0,0,.7c0,.22-.1.51.24.58a.66.66,0,0,0,.62-.26A1.21,1.21,0,0,0,127.07,205.22Z"/><path class="cls-3" d="M145.66,205.84c0-.74,0-1.48,0-2.22,0-.57.25-.66.72-.63s.85-.1.83.6c0,1.39,0,2.79,0,4.18a4.26,4.26,0,0,1-.13.94,2,2,0,0,1-2.1,1.74,1.93,1.93,0,0,1-2-1.86,46.22,46.22,0,0,1-.08-5.13c0-.68.53-.41.87-.46s.63.05.62.54c0,1.4,0,2.8,0,4.19,0,.55-.09,1.37.7,1.34s.55-.82.58-1.34,0-1.26,0-1.89Z"/><path class="cls-3" d="M101.85,206.62a6,6,0,0,1-.38,2.41,2,2,0,0,1-1.91,1.41,1.93,1.93,0,0,1-2-1.33,6.17,6.17,0,0,1,0-4.77,2.06,2.06,0,0,1,4,.18A5.77,5.77,0,0,1,101.85,206.62Zm-3.17.08a6.12,6.12,0,0,0,.28,1.94c.1.25.25.48.56.48a.59.59,0,0,0,.54-.5,6.63,6.63,0,0,0,0-3.87.59.59,0,0,0-.55-.49c-.31,0-.46.24-.56.49A6.14,6.14,0,0,0,98.68,206.7Z"/><path class="cls-3" d="M117.31,203c.66-.15.93.12,1,.78.34,2,.76,3.92,1.13,5.88,0,.23.27.66-.24.64s-1,.36-1.15-.4c0-.13,0-.26-.07-.39-.09-.46-.09-.88-.81-.86s-.72.42-.74.85c0,.82-.51.89-1.16.84-.38,0-.44-.2-.37-.51l1.41-6.46C116.48,202.78,117,203.08,117.31,203Zm0,2h-.11c-.12.64-.23,1.29-.34,1.93,0,.26-.13.53.3.55s.54-.11.47-.5C117.51,206.37,117.41,205.7,117.31,205Z"/><path class="cls-3" d="M106.79,206.7c0-1,0-2,0-3,0-.43.15-.67.57-.68a10.93,10.93,0,0,1,1.81,0,2,2,0,0,1,1.8,2.21,2.17,2.17,0,0,1-1.93,2.31c-.71.05-.82.33-.75.92,0,.31,0,.63,0,.94.13.81-.24,1-1,.93-.41,0-.54-.18-.53-.58C106.81,208.76,106.79,207.73,106.79,206.7Zm1.49-1.34a2.48,2.48,0,0,0,0,.47c0,.2-.14.51.19.59a.73.73,0,0,0,.7-.27,1.51,1.51,0,0,0,0-1.67.75.75,0,0,0-.71-.24c-.36.06-.19.37-.22.57A3.37,3.37,0,0,0,108.28,205.36Z"/><path class="cls-3" d="M152.42,206.64c0-1,0-2,0-3,0-.46.11-.67.62-.65a17.53,17.53,0,0,0,2.05,0c.55,0,.57.26.58.68s-.1.72-.61.65h-.23a.92.92,0,0,0-.91,1.4c.22.42.67.22,1,.2.59,0,.7.24.68.75s-.35.47-.69.5-.84-.18-.94.16a2.53,2.53,0,0,0,0,1.54c.14.4.71.17,1.08.18s.8,0,.78.67c0,.48-.16.65-.64.63q-1.06,0-2.13,0c-.47,0-.65-.14-.63-.63C152.44,208.69,152.42,207.67,152.42,206.64Z"/><path class="cls-3" d="M92.17,206.64c0,1.06,0,2.11,0,3.16,0,.59-.32.55-.71.54s-.78.09-.78-.56q0-3.12,0-6.24c0-.66.42-.52.8-.54s.7,0,.68.56C92.14,204.59,92.17,205.61,92.17,206.64Z"/></g></g></svg>