<svg xmlns="http://www.w3.org/2000/svg" viewBox="0 0 43.2 50.04"><defs><style>.cls-1{fill:#c98b5f;}</style></defs><g id="Capa_2" data-name="Capa 2"><g id="Capa_1-2" data-name="Capa 1"><path class="cls-1" d="M29.41,0a2.13,2.13,0,0,1,1,1.22C31.21,3.07,32,4.9,32.78,6.74a1.33,1.33,0,0,1-.45,1.72,1.27,1.27,0,0,1-1.84-.59c-.41-.9-.78-1.82-1.17-2.73-.06-.15-.14-.29-.23-.5A18.26,18.26,0,0,1,27,8.34,17.48,17.48,0,0,1,15.18,15.4a17.35,17.35,0,0,1-8.95-1.08,1.31,1.31,0,0,1-.79-1.67,1.27,1.27,0,0,1,1.69-.72A15.83,15.83,0,0,0,12.94,13,15.06,15.06,0,0,0,26.67,3.68L23.69,5a1.49,1.49,0,0,1-.8.18,1.31,1.31,0,0,1-1.19-1,1.34,1.34,0,0,1,.81-1.42L26.46,1l2.27-1Z"/><path class="cls-1" d="M28.88,31.51a3.64,3.64,0,0,1,.31-.5l6.22-6.22a4.85,4.85,0,0,1,2.84-1.48,4.46,4.46,0,0,1,4.81,5.46A5,5,0,0,1,41.73,31L29.78,43a9.56,9.56,0,0,1-7,2.88H8.33a1,1,0,0,0-.81.33c-1.11,1.14-2.25,2.26-3.38,3.39a1.49,1.49,0,0,1-.83.48A1.32,1.32,0,0,1,2,49.4a1.29,1.29,0,0,1,.17-1.46q2.16-2.19,4.35-4.36a1.5,1.5,0,0,1,1.14-.31h10c1.92,0,3.85,0,5.77,0a6.49,6.49,0,0,0,4.52-2L40,29.12a1.88,1.88,0,0,0,.56-2,1.81,1.81,0,0,0-1.47-1.27,1.75,1.75,0,0,0-1.46.38,7.27,7.27,0,0,0-.57.54c-3,3-5.92,6-8.84,9a5.25,5.25,0,0,1-4,1.69c-2.93-.05-5.86,0-8.79,0a1.3,1.3,0,0,1-1.3-1A1.32,1.32,0,0,1,14.85,35a1.77,1.77,0,0,1,.72-.09h8.89a1.86,1.86,0,0,0,2-1.68,1.82,1.82,0,0,0-1.87-2h-6c-3.3,0-6.61,0-9.92,0A5.84,5.84,0,0,0,4.38,33L2.3,35.06a1.31,1.31,0,0,1-1.91.12A1.29,1.29,0,0,1,.5,33.24c.91-.91,1.78-1.86,2.76-2.7a7.57,7.57,0,0,1,5-1.9q8.18,0,16.37,0a4.29,4.29,0,0,1,4.05,2.56S28.74,31.3,28.88,31.51Z"/><path class="cls-1" d="M27.27,18.82c0-2.06,0-4.11,0-6.16a1.31,1.31,0,0,1,1-1.3,1.34,1.34,0,0,1,1.4.75,1.28,1.28,0,0,1,.1.57V25.05a1.27,1.27,0,1,1-2.54,0C27.26,23,27.27,20.88,27.27,18.82Z"/><path class="cls-1" d="M20.84,21.38c0-1.22,0-2.44,0-3.66a1.34,1.34,0,0,1,1.06-1.34,1.29,1.29,0,0,1,1.37.71,1.44,1.44,0,0,1,.16.7v7.13a1.31,1.31,0,1,1-2.59,0C20.83,23.73,20.84,22.56,20.84,21.38Z"/><path class="cls-1" d="M8,22.3c0-.86,0-1.72,0-2.58a1.3,1.3,0,1,1,2.58,0c0,1.75,0,3.51,0,5.26a1.32,1.32,0,0,1-1.32,1.45A1.37,1.37,0,0,1,8,24.89Z"/><path class="cls-1" d="M17,22.38V25a1.31,1.31,0,0,1-1.28,1.37A1.29,1.29,0,0,1,14.46,25c0-1.81,0-3.61,0-5.41a1.26,1.26,0,0,1,1.24-1.34A1.28,1.28,0,0,1,17,19.6Z"/></g></g></svg>