<svg xmlns="http://www.w3.org/2000/svg" viewBox="0 0 113.38 79.77"><defs><style>.cls-1{fill:#c98b5f;}</style></defs><g id="Capa_2" data-name="Capa 2"><g id="Capa_1-2" data-name="Capa 1"><path class="cls-1" d="M0,38.8q2.43-7.45,4.86-14.91Q8,14.32,11,4.76C12.2,1.18,14.92-.19,18.46,1,21,1.79,23.5,2.6,26,3.41a5.2,5.2,0,0,1,3.76,3.84c.16.64.45.77,1,.8A33.6,33.6,0,0,0,38.7,7C44.07,5.9,49.19,6.34,54,9.26a.91.91,0,0,0,1.1.08c6.1-3.76,12.35-3.5,18.72-.73a28,28,0,0,0,6,2.15,6.53,6.53,0,0,0,1,.12c1.43,0,1.59-.14,1.36-1.52a5.22,5.22,0,0,1,3.27-5.88c2.81-1.11,5.64-2.17,8.5-3.16s5.69.44,6.84,3.53q4,10.73,8,21.45,2.31,6.19,4.64,12.39V39.9a6.91,6.91,0,0,1-4.95,4.41c-2.11.66-4.15,1.51-6.23,2.27-3.41,1.25-5.87.25-7.45-3a1.11,1.11,0,0,0-.2-.24c-.48.14-.24.49-.22.73a9.77,9.77,0,0,1-.47,4.58,5.89,5.89,0,0,1-7.35,3.84c-.47-.11-.77-.31-.8.47-.2,5.75-4.3,8.81-9.88,7.43h-.26a18,18,0,0,1-.14,2.07,7.4,7.4,0,0,1-6.83,6.2c-.66.07-.86.19-.79.89a6.23,6.23,0,0,1-9.38,6c-.49-.28-.86-.57-1.29.23-1.35,2.5-3.32,4.21-6.35,3.94a7.49,7.49,0,0,1-6.42-4.92c-.37-.85-.6-1-1.53-.71a7,7,0,0,1-8.57-3.63c-.34-.68-.57-.78-1.27-.43a7.14,7.14,0,0,1-10.32-7.58c.13-.9-.16-.86-.8-.87a7.16,7.16,0,0,1-6.44-10.5c.57-1.15,1.2-2.28,1.81-3.41a1.17,1.17,0,0,0,.18-1.15c-.27-.13-.4.1-.57.22a5.22,5.22,0,0,1-4.83.75c-2.77-.89-5.53-1.8-8.3-2.68a5.71,5.71,0,0,1-3.73-4ZM54,62.22a8.22,8.22,0,0,1-1.19-.81,1.43,1.43,0,0,1-.26-1.91,1.4,1.4,0,0,1,1.73-.63,6.39,6.39,0,0,1,1,.47c3.55,1.89,7.09,3.79,10.65,5.65a4.33,4.33,0,1,0,4.29-7.53c-.94-.57-1.94-1.07-2.91-1.59-2.5-1.34-5-2.67-7.5-4a1.44,1.44,0,0,1-.74-2,1.49,1.49,0,0,1,2.16-.64c.53.25,1.05.54,1.56.82,4.36,2.34,8.71,4.66,13.05,7a4.62,4.62,0,0,0,3.83.46,4.11,4.11,0,0,0,3-3.64,4.19,4.19,0,0,0-2.33-4.4c-4.62-2.53-9.26-5-13.89-7.55-1-.56-1.32-1.35-.9-2.17s1.32-1.07,2.36-.51C69.6,40.1,71.31,41.05,73,42c4.41,2.38,8.81,4.78,13.25,7.12,2.48,1.3,4.45.27,5-2.48a5.5,5.5,0,0,0-2-5.44,36.54,36.54,0,0,0-7.12-4.63c-4.11-2.16-8.26-4.25-12.39-6.37a12.71,12.71,0,0,0-2.64-1.37,9.8,9.8,0,0,0-5.23.34c-3.11.9-6,2.3-9.19,3.12-5.86,1.53-10.39.09-13.92-4.39a2.08,2.08,0,0,1-.14-2.81,22.13,22.13,0,0,1,1.81-2.37q5-5.4,10.44-10.37c.92-.85.94-.81-.23-1.36A17.14,17.14,0,0,0,40,9.89c-3.29.6-6.56,1.46-10,1.2-.55-.05-.66.28-.79.7-2.81,8.76-5.65,17.52-8.45,26.29a10.45,10.45,0,0,0-.57,4.52,1.29,1.29,0,0,0,.28-.09c5.19-4.39,11.4-.55,12.08,4.6.08.64.41.55.84.49a7.09,7.09,0,0,1,8.26,6.12c.12.71.34.75,1,.66A7.18,7.18,0,0,1,51,61.62c0,.28-.28.8.44.73S53,62.27,54,62.22ZM64.1,9.55A15.53,15.53,0,0,0,56.5,12c-3.53,2.11-6.25,5.15-9.15,8A72.4,72.4,0,0,0,42,25.58c-.33.4-.56.73-.08,1.22a8.72,8.72,0,0,0,5.42,2.93,12.2,12.2,0,0,0,5.23-.61c2.68-.9,5.34-1.89,8-2.78a13.43,13.43,0,0,1,6.86-.64c1.8.34,3.17,1.52,4.73,2.31C75.46,29.66,78.74,31.25,82,33c3.81,2,7.67,4,10.61,7.28.17.19.34.41.65.22s.16-.58,0-.87q-4.69-12.69-9.4-25.37c-.21-.58-.47-.69-1.06-.51a7.06,7.06,0,0,1-3.17.14c-2.67-.4-5-1.61-7.51-2.57A21,21,0,0,0,64.1,9.55ZM95.41,3.1a2.81,2.81,0,0,0-.85.25L87,6.15c-1.75.66-2.22,1.7-1.56,3.47q6,16.26,12,32.51c.68,1.84,1.7,2.3,3.54,1.62,2.41-.88,4.83-1.79,7.24-2.69,2-.74,2.41-1.72,1.69-3.68l-4.77-12.84q-3.66-9.83-7.3-19.66A2.42,2.42,0,0,0,95.41,3.1ZM3.1,39.43A2.27,2.27,0,0,0,4.84,42c2.55.85,5.11,1.66,7.66,2.48,1.94.62,2.9.13,3.53-1.81q5.31-16.44,10.6-32.89c.61-1.87.1-2.88-1.74-3.48L17.74,4c-2.27-.74-3.14-.29-3.88,2Q9,21.14,4.06,36.32C3.7,37.44,3.36,38.57,3.1,39.43Zm22.54,24a4.12,4.12,0,0,0,7.75,2.15C35,62.72,36.51,59.82,38,56.92A4.14,4.14,0,1,0,30.76,53c-1.53,2.82-3,5.65-4.54,8.48A4,4,0,0,0,25.64,63.44Zm-3.46-4.91a3.85,3.85,0,0,0,3.24-2.09c1.25-2.25,2.47-4.53,3.63-6.83a4.08,4.08,0,0,0-1.85-5.48A4,4,0,0,0,22,45.53,75.22,75.22,0,0,0,18,52.83C16.8,55.53,18.84,58.51,22.18,58.53Zm21.36-1.18a3.68,3.68,0,0,0-3.2,1.87c-1.22,2.11-2.38,4.24-3.43,6.44a4.1,4.1,0,0,0,7.21,3.87A69.23,69.23,0,0,0,47.59,63C48.79,60.37,46.77,57.41,43.54,57.35Zm9.14,8c-2.91,0-6.37,4.44-5.78,7.41,0,.07,0,.14,0,.21a5,5,0,0,0,3.83,3.71c2,.25,3-1.06,3.82-2.58a38.22,38.22,0,0,0,1.72-3.45C57.49,67.82,55.76,65.33,52.68,65.34Zm5.36-1A6.28,6.28,0,0,1,59.47,71c-.5,1.57-.51,1.57,1,2.15a3.53,3.53,0,0,0,.85.21,3,3,0,0,0,3.23-2.12,3.38,3.38,0,0,0-1.43-4.15C61.49,66.08,59.75,65.22,58,64.29Z"/></g></g></svg>