<svg xmlns="http://www.w3.org/2000/svg" viewBox="0 0 236.07 271.59"><defs><style>.cls-1{fill:#c98b5f;}.cls-2{fill:none;stroke:#6c2912;stroke-miterlimit:10;stroke-width:2px;}.cls-3{fill:#6c2912;}</style></defs><g id="Capa_2" data-name="Capa 2"><g id="Capa_1-2" data-name="Capa 1"><rect class="cls-1" width="236.07" height="271.59" rx="35.2"/><line class="cls-2" x1="38" y1="238.5" x2="198.07" y2="238.5"/><path class="cls-3" d="M107.76,129.24c9.22,0,18.43,0,27.65,0,4.61,0,6.87-2.35,6.76-7.05-.07-3.34-.95-5.62-4.48-7.4-12.19-6.14-18.64-15.94-17.43-30.09.51-5.89-1.07-7.52-7-8.55-2-.35-4.89.26-5.33-2.75-.39-2.74,2.15-3.76,4-4.64a13.39,13.39,0,0,0,6.27-5.83c2.71-4.64,7.81-5.11,12.76-5,8.27.12,13.09,5.28,16.72,11.88a10.2,10.2,0,0,0,5.13,4.74,45,45,0,0,1,13.3,9.12c5.9,5.71,12,11.22,18,16.84.79.74,2,1.58,2.07,2.48.52,4.49,4.29,5.61,7.34,7.5,1.28.79,2.62,1.48,3.86,2.32a6.27,6.27,0,0,1,1.95,1.81c1.08,1.83,1,3.91-.68,5.16-2.69,2-3.1,8.22-8.74,4.89-5.08-3-10.28-5.86-15.19-9.13-3.05-2-5.69-2.3-8.85-.45a46.45,46.45,0,0,1-7.36,3.33c-1.44.54-1.5,1.44-1.28,2.57a7.93,7.93,0,0,1-.64,5.54c-1.13,2.06-.51,2.73,1.81,2.71,14-.07,28,0,42.07,0,4.79,0,5.36.59,5.18,5.38a85.47,85.47,0,0,1-169,15,82.82,82.82,0,0,1-1.83-16.09c-.07-3.5.71-4.28,4.17-4.29,9.31,0,18.63-.08,27.94,0,2.3,0,3-.72,2.86-2.92-.17-2.9-.08-5.81,0-8.72a2.18,2.18,0,0,0-1.86-2.52A15.46,15.46,0,0,1,57.67,106a3.42,3.42,0,0,0-2.44-1.94c-8.21-2.86-13.3-8.6-14.53-17.14s1.87-15.75,9.13-20.82a4.07,4.07,0,0,0,1.69-2.63C54.17,53,62.28,46.41,72.33,46.37s18.3,6.62,21,17.24a4.17,4.17,0,0,0,1.79,2.57c7.12,5.18,10.33,12.25,9,20.9-1.31,8.37-6.31,14.09-14.41,16.91a4.08,4.08,0,0,0-2.78,2.38A15.12,15.12,0,0,1,77.08,115c-1.55.48-2.07,1.17-2,2.71.09,3,.12,6,0,9-.09,2.07.82,2.47,2.68,2.46,10-.07,20,0,30,0Zm-39.84,5.21c7.54,6.89,7.54,6.89,3.62,15.61-.25.54-.48,1.1-.69,1.66-2.64,7.12-1.26,12.48,4.48,17.51,1.5,1.32,3,2.63,4.47,4C89,181.94,90.34,188.36,85,199.8c-1.32,2.84-.75,3.79,1.91,5a80.17,80.17,0,0,0,90.56-17.07c13.75-14.09,21.2-31.07,22.62-50.72.15-2-.39-2.69-2.39-2.58a60.54,60.54,0,0,1-7.5,0c-2.31-.17-3.2.56-3.77,3-3.82,16.33-13.16,28.22-29.25,33.82-17.38,6-37.41-.66-49.52-16.17-4.74-6.07-9.26-12.31-13.91-18.46-.69-.92-1.2-2.11-2.69-2.1C83.59,134.46,76.12,134.45,67.92,134.45Zm72.73,0v0q-19.2,0-38.4,0c-.85,0-2-.45-2.5.41s.51,1.63,1,2.3c3.65,4.9,7.19,9.88,11,14.6,8.89,10.87,20.33,17,34.52,16.07,17.09-1.06,31.06-13.76,34.88-30.66.46-2.06.18-2.78-2.15-2.76C166.26,134.51,153.46,134.45,140.65,134.45ZM75.06,89.57l1,.7c2.28-2.49,4.55-5,6.86-7.48,1.3-1.4,2.82-2.67,4.57-.83s.5,3.27-.88,4.64c-3.34,3.31-6.65,6.65-10,10a4.06,4.06,0,0,0-1.61,3.06c.07,2.8,0,5.61,0,8.41,0,1.87.77,2,2.21,1.25a10.28,10.28,0,0,0,5.34-6.55A4,4,0,0,1,86,99.49c7.07-1.53,11.47-5.92,12.82-13,1.27-6.74-1.77-13-8-16.72A4.73,4.73,0,0,1,88.28,66c-1.23-8.5-7.72-14.26-15.9-14.26-8,0-14.58,5.68-15.88,14a5.33,5.33,0,0,1-2.78,4.22,16,16,0,0,0,4.77,29.52A4.36,4.36,0,0,1,62.28,103a9.88,9.88,0,0,0,5.22,6.29c1.47.77,2.24.52,2.2-1.3,0-2.2-.14-4.41,0-6.61a5.78,5.78,0,0,0-2.21-5.2c-5.05-4.41-9.93-9-14.88-13.54-1.42-1.29-2.21-2.8-.68-4.39s2.91-.73,4.21.46c3.7,3.38,7.38,6.77,11.11,10.11.6.54,1,1.54,2.44,1.16,0-4.45-.07-8.94,0-13.43,0-2.69,1.8-4.07,3.75-3.15,1.4.67,1.58,2,1.58,3.31ZM49.37,134.44c-2.2,0-4.41.13-6.6,0s-2.65.7-2.5,2.78A79.51,79.51,0,0,0,56.7,180.64a75.76,75.76,0,0,0,20,18.39c.77.48,1.56,1.81,2.74.32a15.29,15.29,0,0,0,.06-18.67,51.9,51.9,0,0,0-8-7.7,18.61,18.61,0,0,1-7-17,28.7,28.7,0,0,1,3.63-11.05c.74-1.35,1.19-2.64-.4-3.65C62.13,137.65,57.15,132.29,49.37,134.44ZM150.58,79.29c-1.68.12-3.06,2.87-2.45,4.67,3.76,11.19,11.25,19,22,23.58A89.68,89.68,0,0,1,181,113.17c2.92,1.74,5.81,3.52,8.73,5.25.63.37,1.25,1.1,2,.08.9-1.17,1.7-1.93-.25-3.14-4.07-2.54-9.52-3.83-10.11-10,0-.53-.92-1-1.43-1.48-6.36-5.93-12.74-11.83-19.08-17.79a37.38,37.38,0,0,0-8.58-6C151.71,79.79,151.07,79.52,150.58,79.29Zm12.52,30.82a44.92,44.92,0,0,1-19.46-22.74c-.18-.44-.33-.93-1-1-1.61-.22-5.38,3.15-5.35,4.89.09,4.49-1,8.56-4.4,11.66-1.28,1.15-.67,1.75.23,2.58a29.93,29.93,0,0,0,9.92,6.06C149.77,114.05,156.42,115.12,163.1,110.11ZM118.44,71.83c5.51,2.64,7.71,6.68,7.22,12.14-.16,1.77.61,2,2.08,1.89A24.57,24.57,0,0,0,139,82.12c6.6-4.14,6.8-5.77,2.57-12.23s-9.3-7.31-15.21-6.25c-2.6.47-4.72,1.74-4.76,4.89C121.59,70.32,120.29,71.07,118.44,71.83Zm33.67,50.7c-.12-.88-.2-1.47-.29-2.06-.36-2.44-2.49-1.78-3.79-1.78-1.65,0-.67,1.52-.57,2.32a10.52,10.52,0,0,1-.83,5.8c-.29.63-1.39,1.75-.11,2.18,1.08.37,2.76.82,3.5-.61A14.82,14.82,0,0,0,152.11,122.53ZM130.26,90.8c-4.66.14-5.14.84-3.58,5.27a6.44,6.44,0,0,0,.56,1.38c.45.69.43,1.91,1.65,1.79,1.46-.14,3.38-4.7,3.13-7.09-.11-1-.4-1.52-1.46-1.38Z"/><path class="cls-3" d="M120.69,206.52h-2.4c-1.81,0-3.26-.53-3.27-2.62s1.36-2.68,3.21-2.69a81.37,81.37,0,0,0,17.24-2A77.71,77.71,0,0,0,162,187.74c1.07-.71,2.1-1.64,3.55-1.15a2.44,2.44,0,0,1,1.78,2.18c.18,1.56-.85,2.35-2,3.1a86.77,86.77,0,0,1-25.2,11.65A84.78,84.78,0,0,1,120.69,206.52Z"/><path class="cls-3" d="M132,68.36c1.87,0,3.74,0,4,2.43a2.31,2.31,0,0,1-2.12,2.75c-2.16.17-4.76,1.09-6.08-1.61C126.83,69.8,128.62,68.33,132,68.36Z"/></g></g></svg>