<svg id="Capa_1" data-name="Capa 1" xmlns="http://www.w3.org/2000/svg" xmlns:xlink="http://www.w3.org/1999/xlink" viewBox="0 0 422 269.23"><defs><style>.cls-1,.cls-18{fill:none;}.cls-2{clip-path:url(#clip-path);}.cls-3{fill:#f6f6f6;}.cls-4{fill:#f6a345;}.cls-5{fill:#f39124;}.cls-6{fill:#ce7c1a;}.cls-7{fill:#d88c35;}.cls-8{fill:#6c2912;}.cls-9{fill:#401600;}.cls-10{fill:#fdce76;}.cls-11{fill:#f9c3ae;}.cls-12{fill:#261b10;}.cls-13{fill:#fffcef;}.cls-14{fill:#ef892f;}.cls-15{fill:#fff;}.cls-16{fill:#412d19;}.cls-17{fill:#101019;}.cls-18{stroke:#92b0ad;stroke-miterlimit:10;stroke-width:0.81px;}</style><clipPath id="clip-path"><rect class="cls-1" x="-35.59" y="-8.59" width="463.18" height="277.82"/></clipPath></defs><g class="cls-2"><path class="cls-3" d="M265.5,4.26c15.2,7.6,15.8,29,25.39,43,17.91,26.19,60.53,19.93,83.7,41.6,12.23,11.44,17,29.64,14,46.12s-13,31.16-25.91,41.86c-8.51,7.08-19.46,15-18.13,26,.47,3.91,2.54,7.42,4,11.09,6.53,16.42,0,35.9-12.19,48.67s-29.18,19.9-46.14,24.87a248.92,248.92,0,0,1-45.67,8.86c-8.51.84-17.25,1.28-25.12,4.63s-14.32,9.37-21.89,13.36c-18.1,9.55-40,6.44-60.15,3-26-4.46-51.92-9.1-77.32-16.07-9.52-2.61-19.22-5.69-26.79-12S20.66,272.48,23.36,263c2.27-8,9.18-13.57,14.83-19.65s10.5-14.62,7.45-22.33c-3.59-9.07-15.24-11-23.59-16.07-8.9-5.39-14.52-15.12-17-25.22S2.82,159.06,3.4,148.67c.52-9.21,1.33-18.66,5.35-27,7.67-15.85,25.6-24.35,43-26.8,14.11-2,21.25-2.49,28.89-16.73C90,60.88,96,41.74,107.78,26S139.5-1.74,158.38,3.62C170.27,7,179.48,16.53,191,20.9c13.17,5,23.88,2.6,34.05-5.72C235.82,6.41,251.27-2.85,265.5,4.26Z"/><path class="cls-4" d="M215.65,365s-5,6.69-1.42,7.17c0,0-3.75,5.52,1.18,6.81h22.67s2-3-1.76-4.23c0,0,3.46-2.11.7-4.23,0,0,8.17-60.7,17.63-100.87,2.92-12.37,6-22.79,8.91-28.9l28.5-8.75,1.33-14.54c-4.32,2.61-14.33,7.09-32.3,7.09-25.36,0-38.4-1.82-40.75-4.93Z"/><path class="cls-5" d="M254.23,247.89c-2.59-1.31-5.2-2.73-6.92-5.16a10.13,10.13,0,0,1-1.84-7.68,16.14,16.14,0,0,1,3.91-7.27c1-1.16,2.06-2.26,3.11-3.36l-1.52,0c-2.82,2.94-5.61,5.94-6.52,10a11,11,0,0,0,1.21,7.83,15.13,15.13,0,0,0,6.28,5.74c2.45,1.33,5,2.57,7.47,3.8.11-.38.23-.75.35-1.11Z"/><path class="cls-5" d="M232.67,266.16a25,25,0,0,1-.85,6.11,7.62,7.62,0,0,1-4,4.05c-3.07,1.67-6.25,3.17-9.48,4.55l0,1.24q4.77-2,9.36-4.42a10.92,10.92,0,0,0,4.54-3.6c1.09-1.77,1.25-3.91,1.42-5.93.21-2.47.43-4.94.64-7.41s.52-4.88.56-7.32a10.85,10.85,0,0,0-5.06-10c-3-2.05-6.55-2.75-10.11-3.09l0,1.14a21.22,21.22,0,0,1,8.36,2.2,11.68,11.68,0,0,1,4.05,3.5,10,10,0,0,1,1.65,5.59,62.46,62.46,0,0,1-.44,6.55Q233,262.74,232.67,266.16Z"/><path class="cls-5" d="M256,263.9c-2.26.53-4.52,1.11-6.74,1.78a12.72,12.72,0,0,0-4.5,2.18,9.58,9.58,0,0,0-2.69,4c-.67,1.66-1.11,3.4-1.64,5.11q-.9,2.85-1.92,5.67t-2.28,5.84a19.79,19.79,0,0,1-2.5,4.94c-2.09,2.62-5.77,2.81-8.37,4.71a10.14,10.14,0,0,0-3.84,7.22c-.68,5.95,2.24,11.94,6.3,16.13a24.87,24.87,0,0,0,15.43,7.48c.06-.38.12-.76.19-1.14A23.53,23.53,0,0,1,230,321.91c-4.24-3.77-7.44-9.29-7.39-15.09a9.73,9.73,0,0,1,3-7.47c2.36-2,5.72-2.24,8.08-4.27a10.86,10.86,0,0,0,2.67-4c.75-1.67,1.45-3.38,2.12-5.09,1.38-3.54,2.6-7.13,3.69-10.77a17,17,0,0,1,2.12-5.14,8.67,8.67,0,0,1,4.61-3.05c2.23-.74,4.52-1.35,6.82-1.89Z"/><path class="cls-6" d="M254.65,269.6c-1.26,15.86,7,100,7,100-1.18,3.84,1.48,4.86,1.48,4.86-1.09,3.17.78,3.52.78,3.52L285,372.55a3.4,3.4,0,0,0-1.09-4.94c2.54-4.1-2.75-5.94-2.75-5.94-.09-8.32,7.7-94.77,10.89-129.72l-28.5,8.75C260.6,246.81,257.57,257.23,254.65,269.6Z"/><path class="cls-4" d="M240.68,86.08s-6-4.82-15.45-2.62-32.85,15.5-35.8,25.92,10.84,81.56,21.06,84.29,45.61-12.78,54.3-22.25S240.68,86.08,240.68,86.08Z"/><path class="cls-4" d="M188,98.75a17.37,17.37,0,0,0,8.11,13.66,15.76,15.76,0,0,0,8.64,2.19,33,33,0,0,0,9.57-2.21q9.82-3.47,19.34-7.49,4.77-2,9.47-4.14l4.48-2.08a31.23,31.23,0,0,0,4-2.12,8.54,8.54,0,0,0,4-6.39,11.5,11.5,0,0,0-2.13-7.37,26.62,26.62,0,0,0-5.9-6.1c-2.34-1.84-5.13-3.31-8.37-2.89a14.17,14.17,0,0,0-2.4.56c-.77.15-1.54.28-2.32.44q-10.14,2-20,4.87-4.94,1.44-9.79,3.08c-3.06,1-6.18,2.07-9.09,3.39A11.41,11.41,0,0,0,188,98.75Z"/><path class="cls-7" d="M247.53,76.7l-.78-.58-5.64,2.17c-8.45,3.28-16.87,6.65-25.3,10s-17,6.4-25.28,10c-.84.36-1.66.75-2.5,1.13a17.23,17.23,0,0,0,8,13,15.76,15.76,0,0,0,8.64,2.19,33,33,0,0,0,9.57-2.21q9.82-3.47,19.34-7.49,4.77-2,9.47-4.14l4.48-2.08a31.23,31.23,0,0,0,4-2.12,8.54,8.54,0,0,0,4-6.39,11.5,11.5,0,0,0-2.13-7.37A26.62,26.62,0,0,0,247.53,76.7Z"/><path class="cls-8" d="M192.71,153.77l1.15.09q11.87,1,23.67,2.48l.06.14,5.63-2.48.76,29.17-2,27.59c-2.53,1.18-1.17,4.7-1.17,4.7a2.45,2.45,0,0,0-.48,4.11c2.35,3.11,15.39,4.93,40.75,4.93,18,0,28-4.48,32.3-7.09a16.67,16.67,0,0,0,2.59-1.83c3.75-2.39.44-5.8.44-5.8,3.94-.67.73-4.93.73-4.93,1-16.33-2.25-73-3.12-87.54l20.23-13.84c-3.81-8.5-6.31-15.61-9.83-24l-24.76,5.29c.21-1.16.32-2.58-.62-3.28a2.54,2.54,0,0,0-1.47-.39c-2.29,0-4.32,1.43-6.05,2.94a4.89,4.89,0,0,0-2.63-2.76l0,0a13.62,13.62,0,0,1-2.34.94,16.81,16.81,0,0,1-4.45.71l1,7.63.36,2.83a16.07,16.07,0,0,1-.37,5.65l0,.17s-.68,3.84-5.53,6.08l-.07,0a10.24,10.24,0,0,1-1.6.34c-9.16,1.21-20.29-14.86-20.29-14.86l.84-3.54q-11.94,6.11-23.61,12.75c-4.86,2.76-9.73,5.62-13.8,9.46a2.36,2.36,0,0,0-1,1.93c.17,1.14,1.69,1.4,2.84,1.37a13.86,13.86,0,0,0-3.7,3.7c-.39.59-.73,1.44-.25,2a1.72,1.72,0,0,0,.84.42l1.1.31A131.81,131.81,0,0,0,196,133.35Q194.32,143.57,192.71,153.77Z"/><path class="cls-9" d="M290.21,162.1a38.11,38.11,0,0,1-13.78,9.13,64.93,64.93,0,0,1-16,3.51c-3.08.34-6.18.56-9.27.77-.72.05-.73,1.19,0,1.14,11.06-.77,22.75-1.65,32.39-7.67a40.41,40.41,0,0,0,7.47-6.07C291.53,162.38,290.72,161.58,290.21,162.1Z"/><path class="cls-9" d="M276.29,157.24a27.31,27.31,0,0,1-12.43,4.57c-.72.07-.73,1.21,0,1.13a28.34,28.34,0,0,0,13-4.72C277.47,157.81,276.9,156.83,276.29,157.24Z"/><path class="cls-10" d="M192.71,153.77a18.65,18.65,0,0,0-3.81,0,1,1,0,0,0-.66.26,1,1,0,0,0,0,1,8.71,8.71,0,0,0,1.82,2.87,4.07,4.07,0,0,0-2.91,1.25,1.82,1.82,0,0,0-.53,1,1.72,1.72,0,0,0,1.37,1.64c.75.24,1.55.21,2.29.43a13,13,0,0,0-2.28,2.85,1.54,1.54,0,0,0-.28,1.23c.26.69,1.24.67,1.95.52q3.06-.65,6.06-1.47,2.76-.76,5.48-1.66l16.38-7.2-.06-.14q-11.81-1.46-23.67-2.48Z"/><path class="cls-11" d="M229.65,151.17,223.22,154h0l-5.63,2.48-16.38,7.2q-2.72.9-5.48,1.66c.2,3.57,1.53,21.55,8.29,22.87,3.88.76,12.12-6.18,19.2-13.09,6.66-6.5,12.3-13,12.3-13s9.54-1,11.89-7.7c0,0,3.75-1.59,5.77-1.47a7.86,7.86,0,0,0,3-.52c1.27-.48,2.32-1.23,2.29-2.06s-.84-1.1-1.95-1.26v0c1.86.19,6.16-.65,5.19-2a4.65,4.65,0,0,0-2.21-1.26v-.2s2.43,0,2.17-1.77c-.06-.48-1-1.19-2.47-1.83a18.88,18.88,0,0,0-4.81-1.28l.3-2.4a50.61,50.61,0,0,0-8.9-.29,21.45,21.45,0,0,0-3.55.52c-5.81,1.44-11.1,11.91-11.1,11.91Z"/><polygon class="cls-12" points="223.22 137 223.22 153.99 229.65 151.17 223.22 137"/><path class="cls-11" d="M254.7,138.37l-.3,2.4a18.88,18.88,0,0,1,4.81,1.28,1.82,1.82,0,0,0-.11-2.81A16.13,16.13,0,0,0,254.7,138.37Z"/><path class="cls-10" d="M304.43,79.43c3.52,8.43,6,15.54,9.83,24l.66,0,5.31-1.85c-.17-1.46-.36-2.86-.55-4.24-1.06-7.79-2.28-14.48-3.64-22.52-.07-.44-.15-.89-.23-1.35s-.24-1.07-.72-1.19-.91.27-1.22.65a13.93,13.93,0,0,0-2.26,4.12L310,74.25a.82.82,0,0,0-.4-.42c-.34-.11-.64.24-.81.55a8.2,8.2,0,0,0-.89,4.73,11.91,11.91,0,0,0-3.17-2.52,1.05,1.05,0,0,0-.68-.17c-.58.13-.49,1-.25,1.53S304.23,78.94,304.43,79.43Z"/><path class="cls-11" d="M399.15,43.31c11.24-3.85,11.12-6.59,10-7.3-1.28-.78-15.53,2.77-18.88,4.06s-15.46,12.35-15.46,12.35L316,74.83c1.36,8,2.58,14.73,3.64,22.52L325.8,94,378,62.15c12.12,0,15.73-7.69,15.73-7.69s9.77.58,8-2a3.52,3.52,0,0,0-1.24-1A17.21,17.21,0,0,0,396,50a49.27,49.27,0,0,0-5.75-.78,33.37,33.37,0,0,0,4-4.29l.08-.11C396.1,44.3,397.71,43.8,399.15,43.31Z"/><path class="cls-11" d="M394.19,44.94a33.37,33.37,0,0,1-4,4.29A49.27,49.27,0,0,1,396,50a3.29,3.29,0,0,0,.24-1.79,3.4,3.4,0,0,0-.43-1A15,15,0,0,0,394.19,44.94Z"/><path class="cls-11" d="M394.27,44.83l-.08.11a15,15,0,0,1,1.59,2.28,3.4,3.4,0,0,1,.43,1A3.29,3.29,0,0,1,396,50a17.21,17.21,0,0,1,4.51,1.43,9.72,9.72,0,0,0,1.16-2.38,4,4,0,0,0-.09-2.7,6.32,6.32,0,0,0-1.1-1.58l-1.3-1.47C397.71,43.8,396.1,44.3,394.27,44.83Z"/><path class="cls-12" d="M391.69,48.07l5.09-4.82c.39-.37,1,.22.6.6l-4.7,4.44,7.6,2.06a.42.42,0,0,1-.22.81L391.92,49a.37.37,0,0,1-.29-.41A.36.36,0,0,1,391.69,48.07Z"/><path class="cls-12" d="M245.72,140.59a50,50,0,0,1,13.43.63c.54.1.31.91-.22.82a49.17,49.17,0,0,0-13.21-.61C245.17,141.48,245.18,140.64,245.72,140.59Z"/><path class="cls-12" d="M247.13,143.75a59,59,0,0,1,12.15,1.18c.53.11.31.93-.22.82a56.9,56.9,0,0,0-11.93-1.15A.43.43,0,0,1,247.13,143.75Z"/><path class="cls-12" d="M247.54,148.13l9,.37c.54,0,.54.87,0,.85l-9-.37C247,149,247,148.11,247.54,148.13Z"/><path class="cls-4" d="M231.15,150.51s-2.8-34.42-10.61-54.81a4.13,4.13,0,0,0-6.06-2L207.77,98a4.13,4.13,0,0,0-1.71,4.8L223.22,154Z"/><path class="cls-12" d="M232.49,165.51s-.29,18.41-10.39,21.86l.3-4.15s5.59-3.45,3.85-11.25Z"/><path class="cls-6" d="M215.26,190.85A12.52,12.52,0,0,0,220,179.43c-.08-.61.84-.87.93-.26a13.53,13.53,0,0,1-5.21,12.51C215.26,192.05,214.78,191.22,215.26,190.85Z"/><path class="cls-4" d="M262.66,87.4s22.42,13.83,24.79,53.6h5.41s5.12-37.5-24-59.82l-6.79,1.65Z"/><polygon class="cls-13" points="291.67 104.27 273.94 157.88 295.43 157.88 300.59 157.88 314.92 103.44 314.26 103.47 291.67 104.27"/><path class="cls-6" d="M257.48,105.19,245.79,138v.09a50.61,50.61,0,0,1,8.9.29,16.13,16.13,0,0,1,4.4.87,1.82,1.82,0,0,1,.11,2.81c1.5.64,2.41,1.35,2.47,1.83.26,1.77-2.17,1.77-2.17,1.77v.2a4.65,4.65,0,0,1,2.21,1.26c1,1.33-3.33,2.17-5.19,2v0c1.11.16,1.92.55,1.95,1.26s-1,1.58-2.29,2.06h0l17.77,5.42,17.73-53.61L263,99.11l-3.17-.57Z"/><polygon class="cls-6" points="314.92 103.44 300.59 157.88 311.08 151.61 337.55 95.55 320.23 101.59 314.92 103.44"/><path class="cls-6" d="M189.25,95.52a3.27,3.27,0,0,1,3.06-2.68A5.58,5.58,0,0,1,196.48,95a18.86,18.86,0,0,1,4.84,10.23c.09.61-.84.87-.93.26a18.29,18.29,0,0,0-2.94-7.73,12.33,12.33,0,0,0-2.81-3.13c-1.09-.78-2.82-1.24-3.85-.09s-.71,2.86-.34,4.21a21.44,21.44,0,0,0,1.51,3.92,21.2,21.2,0,0,0,2.32,3.62c.5.63,2.12,2.8,2.84,1.29.57-1.18-.05-2.9-.59-4a8.18,8.18,0,0,0-3-3.31c-.52-.33,0-1.17.49-.83a9.23,9.23,0,0,1,3.15,3.33,7.42,7.42,0,0,1,1,4.3c-.17,1.31-1.24,2.41-2.62,1.79a5.42,5.42,0,0,1-1.77-1.6,21.65,21.65,0,0,1-3.78-6.55A9.59,9.59,0,0,1,189.25,95.52Z"/><path class="cls-6" d="M215.51,81.18l16.91-4.47a.48.48,0,0,1,.26.93l-16.92,4.47A.48.48,0,0,1,215.51,81.18Z"/><path class="cls-6" d="M209.7,82.83,214,81.59c.59-.18.85.75.25.93L210,83.76A.48.48,0,0,1,209.7,82.83Z"/><path class="cls-6" d="M213.26,84l5.37-1.53a.48.48,0,0,1,.26.93L213.51,85A.48.48,0,0,1,213.26,84Z"/><path class="cls-12" d="M228.55,38.74a6.29,6.29,0,0,0-4.05.49,5.07,5.07,0,0,0-2.29,4.18,12.4,12.4,0,0,0,1,4.82c1.92,5.11,4.83,9.8,7.65,14.52l2.3-.83a13,13,0,0,1-.55-1.2,7.46,7.46,0,0,1-.17-5.16,5.11,5.11,0,0,1,3.77-3.35,5.62,5.62,0,0,1,5,2.1,11,11,0,0,1,2.09,4.42l.23-.06A109.9,109.9,0,0,0,245.17,47a62.53,62.53,0,0,0,16.94-4.58,29.25,29.25,0,0,0,6.82-3.82l.09-.07a14.19,14.19,0,0,0,4.69-6.3,3.06,3.06,0,0,0,.21-1.46c-.18-1.09-1.31-1.72-2.34-2.11-3.78-1.43-7.88-1.73-11.91-2-5.48-.35-11-.64-16.41.41a22.65,22.65,0,0,0-7.38,2.69,17.19,17.19,0,0,0-7.27,8.84Z"/><path class="cls-12" d="M230.84,62.75c3.1,5.23,6,10.49,7.32,16.38.76-3.55,1.5-7.1,2.18-10.66a11.53,11.53,0,0,1-4.85-3.37,16.55,16.55,0,0,1-2.35-3.18Z"/><path class="cls-11" d="M232.59,60.72a13,13,0,0,0,.55,1.2,16.55,16.55,0,0,0,2.35,3.18,11.53,11.53,0,0,0,4.85,3.37c-.68,3.56-1.42,7.11-2.18,10.66-.58,2.66-1.18,5.31-1.8,8l-.84,3.54s11.13,16.07,20.29,14.86a10.24,10.24,0,0,0,1.6-.34l.07,0,2.36-6.65,3.17.57,0-.17a16.07,16.07,0,0,0,.37-5.65l-.36-2.83c-11.57-5.62-16.38-13.51-16.67-14A25.06,25.06,0,0,0,255,81.71a19.91,19.91,0,0,0,7.09,1.12,16.81,16.81,0,0,0,4.45-.71,13.62,13.62,0,0,0,2.34-.94,10,10,0,0,0,1.52-1c2.94-2.32,4.08-6.25,4.54-10,1.34-10.8-1.63-21.69-6-31.67a29.25,29.25,0,0,1-6.82,3.82A62.53,62.53,0,0,1,245.17,47a109.9,109.9,0,0,1-1.63,11.71l-.23.06a11,11,0,0,0-2.09-4.42,5.62,5.62,0,0,0-5-2.1,5.11,5.11,0,0,0-3.77,3.35A7.46,7.46,0,0,0,232.59,60.72Z"/><path class="cls-14" d="M251.86,59.59a4.31,4.31,0,1,0,4.31,4.3A4.3,4.3,0,0,0,251.86,59.59Z"/><path class="cls-12" d="M255,81.71a25.06,25.06,0,0,1-8.61-5.25c.29.49,5.1,8.38,16.67,14l-1-7.63A19.91,19.91,0,0,1,255,81.71Z"/><path class="cls-15" d="M261.21,66.86s-2.19,5.6,3.88,7.21,6.54-4.43,6.54-4.43Z"/><path class="cls-14" d="M265.11,55.32A15.87,15.87,0,0,0,268,63.41a11,11,0,0,0,1.59,1.81,4.34,4.34,0,0,0,4,1.23,1.82,1.82,0,0,0,1.06-.76,1.69,1.69,0,0,0,.19-.8,3.81,3.81,0,0,0-1.85-2.7C270.19,60.05,267.07,58.18,265.11,55.32Z"/><path class="cls-12" d="M268.75,52.6c.18,1.63,1.29,2.85,2.47,2.72s2-1.56,1.82-3.19-1.28-2.85-2.47-2.72S268.57,51,268.75,52.6Z"/><path class="cls-12" d="M255.74,55.71c.18,1.63,1.29,2.85,2.47,2.72s2-1.56,1.82-3.19-1.28-2.85-2.47-2.72S255.56,54.08,255.74,55.71Z"/><path class="cls-12" d="M252.74,49a12,12,0,0,1,4.22-2.3,1.27,1.27,0,0,1,.67,2.44c-.29.09-.57.2-.84.31a10.23,10.23,0,0,0-2.15,1.25l-.1.09a1.37,1.37,0,0,1-.9.37,1.32,1.32,0,0,1-.9-.37,1.31,1.31,0,0,1-.37-.9A1.26,1.26,0,0,1,252.74,49Z"/><path class="cls-12" d="M268.22,44.59a9.15,9.15,0,0,1,4.32.06,1.27,1.27,0,1,1-.67,2.44c-.25-.06-.51-.1-.76-.14a7.23,7.23,0,0,0-1.74,0l-.47.08a1.27,1.27,0,0,1-.68-2.44Z"/><path class="cls-14" d="M236.73,55.12a4.24,4.24,0,0,1,1.76,1.52,10,10,0,0,1,1.28,2.22,9.78,9.78,0,0,1,.66,2.48,4.71,4.71,0,0,1-.09,2.33,1.72,1.72,0,0,1-1.58,1.13,2.9,2.9,0,0,1-2.06-1c-.57-.59-1.31-1.38-1.09-2.28a1.07,1.07,0,0,1,1.75-.58c.4.37-.2,1-.6.6s-.34.44-.29.59a2.81,2.81,0,0,0,.63.86,2.24,2.24,0,0,0,1.66,1c1.41-.08.88-2.5.68-3.35a9,9,0,0,0-1.8-3.68c-.37-.45-.94-1.13-1.61-1.07a.86.86,0,0,0-.67,1.13c.22.49-.51.92-.73.42A1.68,1.68,0,0,1,236.73,55.12Z"/><path class="cls-15" d="M259.1,39.41A39.25,39.25,0,0,0,268.49,34c.43-.33.85.4.43.73a40.3,40.3,0,0,1-9.59,5.46C258.82,40.43,258.6,39.61,259.1,39.41Z"/><path class="cls-15" d="M253.51,40.65a13.06,13.06,0,0,0,4.11-.67c.52-.18.74.64.23.81a13.37,13.37,0,0,1-4.34.7A.42.42,0,0,1,253.51,40.65Z"/><path class="cls-15" d="M255,38l4.63-1c.53-.11.76.7.23.81l-4.63,1C254.74,39,254.51,38.14,255,38Z"/><path class="cls-15" d="M224.94,43.05a.43.43,0,0,1,.42-.42.42.42,0,0,1,.42.42,12,12,0,0,0,.35,4.59.42.42,0,0,1-.81.23A12.43,12.43,0,0,1,224.94,43.05Z"/><path class="cls-15" d="M226.43,49.87a.42.42,0,0,1,.52.29l1.31,3.14a.42.42,0,0,1-.29.52.43.43,0,0,1-.52-.29l-1.31-3.14A.42.42,0,0,1,226.43,49.87Z"/><path class="cls-15" d="M227.4,47a.43.43,0,0,1,.52.29L229,50.17a.42.42,0,1,1-.81.22l-1-2.88A.42.42,0,0,1,227.4,47Z"/><path class="cls-11" d="M172.57,137.5c-4.62.32-8.72-.86-12.25-5.67-3.31-4.52-5.27-14.3,3.23-14.4,4.77-.06,13.24,3.44,17.57.68,3.72-2.38,5.68-11.2,6.89-15.16.81-2.65,2.21-5.44,1.75-8.23-.38-2.26-3.35-5-1.58-7.32,4.53-6.06,9,3.32,9.41,6.69a55.26,55.26,0,0,1-.91,15.76c-1.35,7.24-3,14.66-6.11,21.35-2,4.34-5.21,3.57-9.63,4.7A48.46,48.46,0,0,1,172.57,137.5Z"/><path class="cls-6" d="M168.85,116.64c6.36-3.87,5.3,13.43,5.41,16,.12,3,.53,8.86-3.55,9.38C163.91,142.92,165.12,118.92,168.85,116.64Z"/><path class="cls-9" d="M89.73,104.84c0-.43,0-.89,0-1.37a7.23,7.23,0,0,1,7.08-6.79l45-.94a7.22,7.22,0,0,1,7.34,6.37c0,.08,0,.16,0,.24a7.17,7.17,0,0,1-6.9,7.74l-45,2A7.22,7.22,0,0,1,89.73,104.84Z"/><path class="cls-8" d="M101.86,101.66s-12.48,14.13-13.19,50.65,17,45.87,17,45.87h50.67V103Z"/><path class="cls-4" d="M171.62,207.22c-5.69,1.59-22.72,2.83-31,2.83-6.4,0-22.54.69-28.26-1.67-1.71-.7-2.48-1.68-1.78-3,0,0-2.87-3.88,1.77-5.17L118.54,174c-1.31-6-2.77-12-3.92-18.1-.82-4.33-.46-6.39-4.35-9-7.63-5.24-14.31-16.71-13.5-26.13.72-8.26,24.44-19,24.44-19l-.71,2.77s16.67,19.5,26.3,17.38S145.08,109,145.08,109l.51-4.37.51.22a83.6,83.6,0,0,1,9.31,4.93c1.93,1.19,3.68,2.86,5.67,3.92,2.55,1.36,5.88,1.45,7.76,4s1.74,7.4,1.91,10.4c.44,7.7.15,15.61-2,23-.21.7-.42,1.38-.61,2-.6,1.92-1.1,3.31-1.1,3.31l5.13,42.28s3.73,1.28,1,3.63C173.15,202.29,177.31,205.64,171.62,207.22Z"/><path class="cls-5" d="M147,192.69a20,20,0,0,0,8.18-5.5c1.81-2.16,3.18-5,2.63-7.89s-3-4.56-5.48-5.61c-2.83-1.17-5.77-1.86-8.23-3.78-6.51-5-8.17-13.66-9.57-21.3-.14-.72-1.24-.41-1.1.31,1.26,6.85,2.68,14.05,7.41,19.46a17.8,17.8,0,0,0,7.35,5c2.58,1,5.81,1.65,7.54,4,1.86,2.52,1,5.7-.66,8.08a17.82,17.82,0,0,1-8.14,6,32.61,32.61,0,0,1-11,1.94c-3.57.17-7.22.31-10.61,1.57a21.08,21.08,0,0,0-12.67,13.47c.33.12.69.24,1.08.35a19.88,19.88,0,0,1,11.51-12.57c3.45-1.38,7.16-1.51,10.82-1.68A33.8,33.8,0,0,0,147,192.69Z"/><path class="cls-5" d="M98.88,134.27a10.41,10.41,0,0,0,2.94-.79,11,11,0,0,0,4.77-4.93c2.42-4.27,3.74-9.4,2.37-14.23a13.48,13.48,0,0,0-2.3-4.55l-1,.65a13.38,13.38,0,0,1,2.57,9.72,20.06,20.06,0,0,1-2.13,6.83,12.19,12.19,0,0,1-4.06,5.08,8.48,8.48,0,0,1-3.49,1.12C98.69,133.54,98.79,133.91,98.88,134.27Z"/><path class="cls-5" d="M163.24,204.07c-1.18-2.09-3.61-2.73-5.86-2.73a10,10,0,0,0-7.2,2.6,11.78,11.78,0,0,0-3.7,6l1.14-.05a10.82,10.82,0,0,1,3.12-4.86,8.26,8.26,0,0,1,2.84-1.94,10.8,10.8,0,0,1,3.48-.57c2,0,4.24.35,5.25,2.27a17.64,17.64,0,0,1,1.16,3.83h0l1.14-.13-.12-.45A15.47,15.47,0,0,0,163.24,204.07Z"/><path class="cls-5" d="M151.87,141.67a.58.58,0,0,0,1-.48c2.41-1.2,3.92-3.82,4.88-6.24s1.1-5.62-.8-7.82-5.07-1.91-7.48-.65a5.76,5.76,0,0,0-2.87,2.72,6.21,6.21,0,0,0-.05,3.93A20,20,0,0,0,151.87,141.67Zm-3.18-13.39c1.79-1.38,4.7-2.48,6.73-1s2.18,4.2,1.53,6.38a15.06,15.06,0,0,1-1.84,3.81,6.79,6.79,0,0,1-3,2.79h0a21,21,0,0,1-3.77-5.46C147.41,132.77,146.57,129.92,148.69,128.28Z"/><path class="cls-5" d="M168.21,166c-1.63.09-3.25.11-4.88.06a31.32,31.32,0,0,1-4.33-.33,5.53,5.53,0,0,1-3.32-1.52,3,3,0,0,1-.31-3.58,34.48,34.48,0,0,1,1.88-3.21,44.24,44.24,0,0,1,11.19-11.79c.58-.43,0-1.42-.58-1a46.14,46.14,0,0,0-11.53,12.11,26.92,26.92,0,0,0-2.16,3.76,3.93,3.93,0,0,0,0,3.46c1.26,2.54,4.33,2.92,6.85,3.11a56.49,56.49,0,0,0,7.36,0Z"/><path class="cls-5" d="M164.4,179.36c-1.13.14-1.84,1.3-2.17,2.29-.41,1.2-.35,2.54-.88,3.71l0,0c-.81,1.13-1.64,2.26-2.44,3.4-.59.82-1,1.84-.25,2.71,1.57,1.89,4.22,0,5.55-1.2,1.58-1.43,3.3-3.41,3.31-5.67a7.24,7.24,0,0,0-.95-3.29C166.08,180.48,165.58,179.2,164.4,179.36Zm-.07,9.17a11.74,11.74,0,0,1-2,1.79c-.65.44-1.6,1.07-2.42.75-1.18-.47-.1-1.66.35-2.28l1.83-2.54a.5.5,0,0,0,.21-.22c.73-1.48.48-3.29,1.31-4.72.18-.3.48-.74.85-.8s.61.55.79.86a8.8,8.8,0,0,1,1,2.52C166.63,185.7,165.49,187.26,164.33,188.53Z"/><polygon class="cls-12" points="139.79 145.05 135.57 149.57 133.41 144.83 130.36 124.7 139.79 145.05"/><path class="cls-6" d="M107.59,146.78c-4.1-4.29-3.38-13.05-.57-17.89s16.33-15.26,18.75-5.16c1,4.14-2.47,8.88-2.66,13.11-.2,4.78,6.19,10.59,2.5,13.61-4.6,3.77-14.09,0-17.7-3.35Z"/><path class="cls-8" d="M109.73,106.1a11.81,11.81,0,0,1,10.5-5.6c3.72.06,10.69,12,12.27,14.48a74.14,74.14,0,0,1,8.19,18c2.31,7.64,2.24,12.83,1.92,20.87-3-1.16-6.15,1.28-9.25,1.13-.23-4.82,1-10.36.16-15-.68-3.66-3.56-7.79-5.36-11C123.38,120.43,117.49,112.18,109.73,106.1Z"/><path class="cls-12" d="M126.34,174.12a28.84,28.84,0,0,1-3.8,3.87c-1.85,1.57-4,2.84-6,4.24-.84.59-3.68,2-3.9,3.13l-.81,4.28c0-.18,4.88-1.5,5.25-1.66a46.48,46.48,0,0,0,10.07-6.27,31.07,31.07,0,0,0,8.54-9.82c1.77-3.29,4.42-6.51,5.24-10.22.31-1.39,1-2.68,1.22-4.06.33-1.8.26-3.65.47-5.45-.32,2.75-7.52-.51-8.51-.06s-.85,3.92-1.07,5.07c-.42,2.28-1.08,4.51-1.67,6.75A27.08,27.08,0,0,1,126.34,174.12Z"/><path class="cls-8" d="M146.86,105.3a14.82,14.82,0,0,1,11.94-1.85,93.39,93.39,0,0,1,11.62,48.86l-4.18.95S161.34,123,146.86,105.3Z"/><rect class="cls-16" x="175.4" y="49.47" width="22.42" height="42.1" transform="translate(3.34 -8.28) rotate(2.56)"/><rect class="cls-17" x="175.41" y="49.03" width="2.75" height="42.1" transform="translate(3.31 -7.84) rotate(2.56)"/><path class="cls-11" d="M144.58,116l4.22-4.52,18.61-19.91s1.29-5.34,2.94-11a81.54,81.54,0,0,1,3.59-10.39,11.72,11.72,0,0,1,7.95-7,15.74,15.74,0,0,1,3.61-.48,4.86,4.86,0,0,1,1.42.15c2,.55,1.76,2.43.05,3.28a2.83,2.83,0,0,1-.71.27,13.56,13.56,0,0,0-5.08,3s4.32,1.15,4.79,3.41a8.4,8.4,0,0,1-.47,4.45,1.8,1.8,0,0,1,1.42.74,7.81,7.81,0,0,1,.42,4.44c-.21,1.34-.68,2.45-1.37,2.53a2.73,2.73,0,0,1,.29,1.29c0,2.76-4.16,3.88-4.16,3.88a9.59,9.59,0,0,1-1,3.39c-2.27,4.56-7.55,6.91-7.55,6.91q-6.56,10.92-13.73,21.45c-3.34,4.92-6.32,10.12-10.23,14.62-1.48,1.69-3,3.64-5,4.65-2.41,1.23-5.43,1.58-7.94,2.76-9,4.22-24.47,5.43-26.57-7.4-2.12-13,11.54-12.15,19.65-13.79C134.49,121.82,141.31,119.46,144.58,116Z"/><path class="cls-12" d="M185.72,84.51h-2.17a.44.44,0,0,0-.42.43.42.42,0,0,0,.42.42h2.17a.42.42,0,0,0,.42-.42A.42.42,0,0,0,185.72,84.51Z"/><path class="cls-12" d="M185.54,76.78A4.69,4.69,0,0,0,182.85,78a.42.42,0,0,0,0,.59.43.43,0,0,0,.6,0l.12-.1.08-.07a2.2,2.2,0,0,1,.25-.17,3.76,3.76,0,0,1,.56-.3l0,0,0,0,.15,0,.3-.1.31-.07.13,0h.11a.42.42,0,0,0,.42-.42A.43.43,0,0,0,185.54,76.78Z"/><path class="cls-12" d="M168.54,168.77s2.75-5.05,1.88-16.46l-2.2.5-1.57.36Z"/><path class="cls-9" d="M105.84,159.06l-1.07,28.54-.3,8.06c0,.62.94.62,1,0l1.08-28.53.3-8.07C106.83,158.44,105.87,158.44,105.84,159.06Z"/><path class="cls-9" d="M103.5,164.43a.6.6,0,0,0-.51-.52l-11.67.17a.46.46,0,0,0-.45.56h0a40.75,40.75,0,0,0,.86,9A36,36,0,0,0,93,178.11a9.91,9.91,0,0,0,1.88,3.43c1.55,1.71,4.3,2.52,6.18.83a5.88,5.88,0,0,0,1.54-3,34.73,34.73,0,0,0,.71-4.3A68.61,68.61,0,0,0,103.5,164.43Zm-1,8.33c-.09,1.37-.23,2.75-.45,4.11a14.75,14.75,0,0,1-.85,3.54,2.93,2.93,0,0,1-2.5,1.93A4,4,0,0,1,95.64,181a8.88,8.88,0,0,1-1.83-3.34,38.7,38.7,0,0,1-1-3.79,39.13,39.13,0,0,1-.92-8.83l10.71-.15A74,74,0,0,1,102.5,172.76Z"/><path class="cls-8" d="M171.62,207.22s0,1-.1,2.94l-14.23,3.17-21,60.72-31.59,91.24s4.58,5.88,0,6.35c0,0,1.78,4.65-1.57,4.41a6.61,6.61,0,0,1-1-.19L76,369.05s-2.12-4.22,2.35-3.76c0,0-3.64-5.05,1.64-5.4l32.31-151.51c5.72,2.36,21.86,1.67,28.26,1.67C148.9,210.05,165.93,208.81,171.62,207.22Z"/><path class="cls-9" d="M157.29,213.33l14.23-3.17c-.62,16.73-3.78,101.17-7,155.13,4.58.3,2.41,5,2.41,5,4.11.61,2.76,4.63,2.76,4.63h-27.6c-3.17-2.34,0-5.63,0-5.63-2.69-1.88,0-4,0-4l-5.87-91.24Z"/><path class="cls-9" d="M119,212q-7.42,30.14-14.86,60.27T89.26,332.52q-4.19,17-8.39,34c-.39,1.59,2.06,2.26,2.45.68Q90.75,337.1,98.18,307L113,246.67q4.2-17,8.39-34C121.81,211.06,119.37,210.38,119,212Z"/><path class="cls-4" d="M157,57.51a27.18,27.18,0,0,0-6.37,1.72A87.61,87.61,0,0,0,141,64.06a7.67,7.67,0,0,1-4,1.27A7,7,0,0,1,133.66,64a2.59,2.59,0,0,1-.31-.19,7.89,7.89,0,0,1-2.77-2.48c.19-.14.38-.28.55-.42,4.57-3.08,9.29-6,14.57-7.53a30.49,30.49,0,0,1,9.88-1,33.56,33.56,0,0,1,6.47.95,5.11,5.11,0,0,1,3.42,2,3.62,3.62,0,0,1,.1,3,9.43,9.43,0,0,1-1.7,2.62,19.62,19.62,0,0,1-4.94,4.46c-.05-.36-.11-.71-.17-1A12.65,12.65,0,0,0,163.2,60a2.15,2.15,0,0,0,.28-1.16c-.14-1-1.36-1.38-2.35-1.47A19.37,19.37,0,0,0,157,57.51Z"/><path class="cls-12" d="M163.48,58.85A2.15,2.15,0,0,1,163.2,60a12.65,12.65,0,0,1-4.44,4.37,35.15,35.15,0,0,0-1.8-6.87,19.37,19.37,0,0,1,4.17-.13C162.12,57.47,163.34,57.87,163.48,58.85Z"/><path class="cls-11" d="M159.56,76.51a75.19,75.19,0,0,1-1.17,11.16c-1.45,8.16-6.54,9.85-11.9,9.12-7.2-1-14.88-6.37-14.88-6.37s4.39,9.79,14,14.18l-.51,4.37s11.35,10.72,1.72,12.84-26.3-17.38-26.3-17.38l.71-2.77,3.7-14.4,1.27-5-.15,0c-.12.21-4.47-1.83-6-3.29a7.09,7.09,0,0,1-2.36-5.61,6.36,6.36,0,0,1,.14-.76,5.55,5.55,0,0,1,1.63-2.7,5.49,5.49,0,0,1,2.33-1.18,5.79,5.79,0,0,1,2.65,0,6.71,6.71,0,0,1,4.1,2.86l.1-.06a16.72,16.72,0,0,0,5-7.46,7,7,0,0,0,3.25,1.31,7.67,7.67,0,0,0,4-1.27,88.51,88.51,0,0,1,9.64-4.83A27.18,27.18,0,0,1,157,57.51a35.15,35.15,0,0,1,1.8,6.87c.06.33.12.67.17,1A59.89,59.89,0,0,1,159.56,76.51Z"/><path class="cls-14" d="M156.5,76.05a1.93,1.93,0,0,1-1.14,2.08,4.28,4.28,0,0,1-4.75-.77,6.63,6.63,0,0,1-1.94-4.62,9,9,0,0,1,.81-4.11,7.38,7.38,0,0,0,2.18,3.51,20.75,20.75,0,0,0,3.56,2.61A2.57,2.57,0,0,1,156.5,76.05Z"/><path class="cls-9" d="M131.13,60.93l-.79.53a12,12,0,0,1-1.81-6.59,17.56,17.56,0,0,1,1.86-8.8,11.4,11.4,0,0,1,6-5.38c.35-.08.7-.14,1-.2a13.59,13.59,0,0,1,7.33.42,14.76,14.76,0,0,1,4.88,4c2.09,2.32,4.1,4.74,6,7.25v.23a30.49,30.49,0,0,0-9.88,1C140.42,54.89,135.7,57.85,131.13,60.93Z"/><path class="cls-15" d="M141.71,81.49l11.36,1.81s0,5.38-6.42,4.77C140.6,87.5,141.71,81.49,141.71,81.49Z"/><path class="cls-12" d="M146.49,96.79l-.9,7.81c-9.59-4.39-14-14.18-14-14.18S139.29,95.8,146.49,96.79Z"/><path class="cls-14" d="M135.26,72.94A4.08,4.08,0,1,1,131.18,77,4.08,4.08,0,0,1,135.26,72.94Z"/><path class="cls-8" d="M130.34,61.46s0,0,0,.06c-2.8,2.2-6.14,5-8.6,7.16v0a5.39,5.39,0,0,0-2.32,1.18,5.49,5.49,0,0,0-1.64,2.7h0q-1.71,1.4-3.31,2.91l-.53.49c-1.82-5.81-3.59-11.89-2.5-17.86a12.49,12.49,0,0,1,1.4-4,15.19,15.19,0,0,1,3.47-3.86,43.15,43.15,0,0,1,20.05-9.54,11.4,11.4,0,0,0-6,5.38,17.56,17.56,0,0,0-1.86,8.8A12,12,0,0,0,130.34,61.46Z"/><path class="cls-12" d="M130.38,61.52l.2-.17a7.89,7.89,0,0,0,2.77,2.48,2.59,2.59,0,0,0,.31.19,16.72,16.72,0,0,1-5,7.46l-.1.06a6.71,6.71,0,0,0-4.1-2.86,5.79,5.79,0,0,0-2.65,0v0C124.24,66.5,127.58,63.72,130.38,61.52Z"/><path class="cls-12" d="M120.94,84.77a20.75,20.75,0,0,1-6.47-9.26q1.61-1.52,3.31-2.91h0a6.36,6.36,0,0,0-.14.76A7.09,7.09,0,0,0,120.05,79a16.79,16.79,0,0,0,5,3,8.87,8.87,0,0,0,1,.31l.15,0-1.27,5-.32-.08A19.22,19.22,0,0,1,120.94,84.77Z"/><path class="cls-12" d="M124.91,87.26l-3.7,14.4s-23.73,10.79-24.44,19.06c-.4,4.75,1.94,13.49,4,20a12.13,12.13,0,0,1-8,.69,8.59,8.59,0,0,1-5.88-5.56c-.55-1.89-.33-4-1-5.82-.75-2-2.5-3.62-3-5.72a7.33,7.33,0,0,1,2-6.32,32.83,32.83,0,0,1,5.34-4.33,12.92,12.92,0,0,0,4.52-5.09c1.4-3.35.28-7.3,1.55-10.69a9.67,9.67,0,0,1,4.59-5,15.23,15.23,0,0,1,6.67-1.59c3.4-.11,7.07.52,10-1.2a7.18,7.18,0,0,0,3.39-5.39,19.22,19.22,0,0,0,3.65,2.41Z"/><path class="cls-12" d="M144.17,70.48c.35,1.6-.3,3.11-1.46,3.37s-2.4-.83-2.76-2.43.3-3.11,1.46-3.37S143.81,68.87,144.17,70.48Z"/><path class="cls-12" d="M157.7,69.23c.36,1.61-.3,3.12-1.46,3.38s-2.4-.83-2.75-2.43.29-3.12,1.45-3.38S157.34,67.63,157.7,69.23Z"/><path class="cls-12" d="M158.2,63.32a12.12,12.12,0,0,0-4.73-.81,1.27,1.27,0,1,0,.15,2.53c.3,0,.6,0,.9,0a10.59,10.59,0,0,1,2.43.49l.13,0a1.35,1.35,0,0,0,1,.06,1.26,1.26,0,0,0,.79-1.61A1.28,1.28,0,0,0,158.2,63.32Z"/><path class="cls-12" d="M142.13,64.12a9.24,9.24,0,0,0-4.06,1.45,1.27,1.27,0,1,0,1.42,2.1c.22-.14.44-.27.67-.39a8.67,8.67,0,0,1,1.65-.56l.48-.07a1.27,1.27,0,0,0-.16-2.53Z"/><path class="cls-15" d="M99.94,96.93c-1.74,1.85-2,4.45-2.15,6.87s-.18,5.33-2.06,7.2a.42.42,0,0,0,.59.59c1.81-1.78,2.14-4.4,2.27-6.82s.13-5.32,2-7.24C100.92,97.14,100.32,96.54,99.94,96.93Z"/><path class="cls-15" d="M94.79,112.52a.41.41,0,0,0-.59,0l-3.26,2.76a.42.42,0,0,0,.6.6l3.25-2.77A.41.41,0,0,0,94.79,112.52Z"/><path class="cls-15" d="M98.2,112a.43.43,0,0,0-.6,0l-2.89,2.44a.43.43,0,0,0,0,.6.45.45,0,0,0,.6,0l2.89-2.44A.43.43,0,0,0,98.2,112Z"/><path class="cls-15" d="M93.37,138.61a4.49,4.49,0,0,1-3.85-4.26.42.42,0,0,0-.84,0,5.32,5.32,0,0,0,4.47,5.08.45.45,0,0,0,.52-.3A.43.43,0,0,0,93.37,138.61Z"/><path class="cls-15" d="M93.83,136.08a3.06,3.06,0,0,1-.41-.1l-.11,0,0,0-.16-.08a2.5,2.5,0,0,1-.35-.21l0,0,0,0-.17-.15a2.68,2.68,0,0,1-.28-.3l0,0-.06-.09s-.07-.11-.11-.17l-.09-.18,0-.09h0v0a3.31,3.31,0,0,1-.12-.42.43.43,0,0,0-.52-.3.44.44,0,0,0-.3.52,3.44,3.44,0,0,0,2.69,2.59.44.44,0,0,0,.52-.3A.42.42,0,0,0,93.83,136.08Z"/><path class="cls-14" d="M126.67,77.08a8.48,8.48,0,0,0-1.55-3.92c-.74-1-2-2.48-3.42-2.34a1.9,1.9,0,0,0-1.51,1.25,4.26,4.26,0,0,0,.1,2.64.43.43,0,0,0,.82-.23,3.24,3.24,0,0,1-.1-2.19,1,1,0,0,1,1.47-.47,6.49,6.49,0,0,1,2.62,2.93,7.48,7.48,0,0,1,.63,1.83c.13.59.33,1.46-.11,2s-1.26-.09-1.54-.55a2.13,2.13,0,0,1-.25-1.72.42.42,0,0,0-.81-.22,2.89,2.89,0,0,0,1.37,3.34,1.51,1.51,0,0,0,1.86-.29A2.52,2.52,0,0,0,126.67,77.08Z"/><path class="cls-18" d="M195.89,54.34c0,.87-.61,1.55-1.27,1.52a1.42,1.42,0,0,1-1.12-1.63c0-.86.6-1.54,1.26-1.51A1.42,1.42,0,0,1,195.89,54.34Z"/><path class="cls-11" d="M196.39,93.57A6.11,6.11,0,0,1,195,86.1c.3-.58,1.51,0,1.73-.84s-.69-1.65-.9-2.43c-.53-2-1.67-3.65-1.17-5.87,1.61-.19,2.53,1.48,3.75,2.32-1.11-2.2-4.26-5.58-3.76-8.13,1.84-.41,2.84,1.36,4.25,2.31-1.32-1.92-4.14-4.55-3.3-7.13,3.06-.38,6.36,6.76,6.81,9.11.93,4.88,1.64,10.71-.44,15.37C200.12,95,198,95,196.39,93.57Z"/><path class="cls-12" d="M199,88.51a1.63,1.63,0,0,0-.32-.47l-.27-.36-.29-.39a1.27,1.27,0,0,0-.13-.19L198,87c.05.07,0,0,0,0a12.33,12.33,0,0,1-.88-1.69.56.56,0,0,0-.76-.27.57.57,0,0,0-.27.76,11,11,0,0,0,.91,1.77c.19.3.38.59.59.88a2.44,2.44,0,0,0,.84.82.51.51,0,0,0,.57-.14A.54.54,0,0,0,199,88.51Z"/></g></svg>