<svg xmlns="http://www.w3.org/2000/svg" viewBox="0 0 236.07 271.59"><defs><style>.cls-1{fill:#c98b5f;}.cls-2{fill:none;stroke:#6c2912;stroke-miterlimit:10;stroke-width:2px;}.cls-3{fill:#6c2912;}</style></defs><g id="Capa_2" data-name="Capa 2"><g id="Capa_1-2" data-name="Capa 1"><rect class="cls-1" width="236.07" height="271.59" rx="35.2"/><line class="cls-2" x1="33.4" y1="237.8" x2="193.47" y2="237.8"/><path class="cls-3" d="M59.44,79.78q11.19,0,22.38,0a41.47,41.47,0,0,1,4.32.06c4.34.46,7.08,3.35,7,7.28s-2.88,6.82-7.22,7.07c-3.59.2-7.2,0-10.8.07-1.58,0-3.49-.2-3.57,2.06s1.65,2.36,3.35,2.36h66c-4.4-4.38-8-8.15-11.81-11.69-1.46-1.35-2.92-.25-4.11,1-2.22,2.26-4.51,4.45-6.7,6.74-1.67,1.73-3.14,1.61-4.77-.07-3.21-3.3-6.47-6.55-9.75-9.79-1.25-1.24-2.08-2.61-.67-4.09s2.9-.43,4.06.71c2.17,2.11,4.37,4.19,6.38,6.45,1.62,1.82,2.66,2.23,4.72.21,9.21-9,9.87-9,18.89.07,1.83,1.84,3.94,3.46,5.45,5.53,5.06,6.93,11.76,9.87,20.57,8.63-2.64-4.49-6.21-7.58-11.75-7.88-1.69-.09-3.4-.19-3.3-2.39.1-2.52,2.06-2.32,3.84-2.16A18.1,18.1,0,0,1,165.24,97c1.83,2.37,2.57,2,4.23-.09a17.83,17.83,0,0,1,13.74-7.06c1.49-.07,3.07,0,3.31,1.9.27,2.15-1.17,2.57-3,2.75a14.25,14.25,0,0,0-12.2,8.33c3-.31,5.45-.71,7.93-.78a17.36,17.36,0,0,1,12.59,4.75c1.15,1,2.12,2.28,1,3.71-1.26,1.61-2.7,1-4.11-.14-4.58-3.76-9.58-4.92-15.26-2.55-2.55,1.06-3.57,2.54-3.76,5.46-.34,5.25,1,9.23,5.14,12.8,5.44,4.69,10.22,10.14,15.37,15.16a9.82,9.82,0,0,1,3.17,7.67c-.14,10.08-.23,20.17,0,30.24.11,4.18-1.23,5.82-5.4,5.39-2-.2-4.41-.7-4.31,2.94.07,2.59.75,3.47,3.43,3.48,6.2,0,6.2.17,6.2,6.48,0,1.73.05,3.46,0,5.19-.18,4.25-2.69,6.87-7,7.25-1.28.12-2.59.06-3.88.06H44.18c-9.1,0-10.7-1.42-10.77-10.29-.13-15.12-.1-30.23-.14-45.35,0-1.88-.24-4.29,2.29-4.34s2.38,2.38,2.39,4.24c0,15.4.08,30.8-.05,46.19,0,3.62,1.26,4.69,4.8,4.67q35.88-.18,71.75,0c3.77,0,4.11-1,2.67-4.12-3.05-6.61-8.87-10.3-16.69-9.67-4,.32-4.94-.84-4.63-4.79A19.22,19.22,0,0,0,70,167c-3.1,1.09-4.78,1.08-5.51-2.64a6.15,6.15,0,0,0-6.06-5.21c-2.8-.18-3.76-1.55-3.23-4.29.92-4.75-.81-8.52-4.77-11.15s-8.1-2.36-12.17.1c-3.89,2.35-5,1.72-5-2.89,0-12.67.08-25.35,0-38a11,11,0,0,1,3.49-8.44c12-11.85,23.84-23.81,35.79-35.69,4.12-4.1,7.72-4.08,11.91,0,4.83,4.74,9.6,9.54,14.36,14.35,1.17,1.19,3,2.49,1.22,4.32s-3.36.27-4.7-1.07c-4.69-4.67-9.42-9.31-14-14.06-1.87-1.93-3.46-2.25-5.47-.25C70.28,67.66,64.62,73.17,59,78.71Zm86.17,24.4c-1.24-1.7-2.83-1-4.15-1-14.11,0-28.23.18-42.34.24-8.07,0-16.14.09-24.2,0-5.32-.06-8.46-2.93-8.31-7.26.15-4.18,3.28-6.8,8.3-6.88,3.17,0,6.34,0,9.51,0,1.72,0,3.86.26,3.91-2.2s-2-2.35-3.77-2.35q-14.48,0-28.95,0a4.46,4.46,0,0,0-3.55,1.16c-4.14,4.21-8.4,8.31-12.49,12.57-2,2.08-1.78,3.69,1.37,4.58,2.37.67,4.87,2,5.91,4.1,2.45,5,7.12,6.81,11.28,9.76,4.71,3.34,6.63,1.85,9.31-1.45a17.58,17.58,0,0,1,1.84-1.82c4-3.66,7.36-3.67,11.32.12,2.92,2.78,5.89,5.54,8.52,8.58,2.12,2.46,3.36,2.24,5.71,0,11.74-11,31.35-5.59,35.21,9.83,1.07,4.27,2.16,7,7.1,6.22.63-.1,1.34.43,2,.63,1.54.45,2.72,1.27,2.26,3.06s-2,1.86-3.49,1.39a10.91,10.91,0,0,0-7.18,0c-4,1.39-4.73.64-4.5-3.53.34-6.23-1.45-11.69-6.8-15.38-5.83-4-12-4.52-18.29-1.06-6,3.31-6.2,4.58-1.42,9.36,1.22,1.22,2.39,2.5,3.67,3.65a14.89,14.89,0,0,1,5.11,12.29c-.21,5.89,0,6-6,6-2.42,0-3.57.34-3.59,3.22,0,3.16,1.63,3.06,3.79,3,3.45-.07,6.92.12,10.37-.05a12.8,12.8,0,0,1,9.59,3.08c2.1,1.87,3.44,1.32,5.26-.56,7.53-7.74,15.2-15.34,22.88-22.94,4.1-4.06,7.22-4.07,11.65-.28.58.51.95,1.53,2.42,1,0-1.43,0-3,0-4.52.32-8,1.21-16.25-7.19-21.35a1.48,1.48,0,0,1-.3-.31c-1-1.1-1.25-2.3-.21-3.46s2.29-.79,3.45.05c1.34,1,2,2.79,4,3.06.45-4.87,0-5.61-4.1-7.2-5.53-2.16-10.42-.89-14.92,2.66-1.16.92-2.36,2-3.7.47s-.36-2.94.87-4.07C143.68,105.75,144.66,105,145.61,104.18ZM125,176.53c.31.91-1,2.94,1.64,3.27s2.82-1.09,2.79-3.08a2.32,2.32,0,0,1,2.27-2.64c1.8,0,2.41,1.37,2.52,2.92s0,2.83,2.22,2.82c10.38-.07,20.75,0,31.12,0,1.24,0,2.34-.11,2.31-1.78s-.1-3.84,2.28-3.9,2.42,2,2.47,3.78,1.28,1.91,2.68,1.92,2.09-.6,2.06-2.06c0-1.61-.09-3.52,2.06-3.62,2.53-.13,2.41,2,2.37,3.7-.05,1.93,1.16,2,2.56,2,1.7.05,2.29-.73,2.29-2.33a9.31,9.31,0,0,0-2.73-7q-13.15-13.09-26.25-26.27c-2.06-2.08-3.77-2.11-5.85,0-8.81,8.91-17.7,17.74-26.55,26.61A6.56,6.56,0,0,0,125,176.53Zm-21.5-30.46c.17-1.62-.85-3.56-2.58-5.29-7.75-7.7-15.51-15.4-23.18-23.19-2.07-2.11-3.7-2.16-5.78,0-6.13,6.27-12.32,12.5-18.63,18.59-1.88,1.81-1.81,2.68.39,4.06A12.3,12.3,0,0,1,59,146.86c.79,2.53,2.18,3.27,4.7,3.2,5.76-.15,11.52-.09,17.27,0,2.37,0,4.38,0,4.07-3.33a1.92,1.92,0,0,1,2.05-2.25,2.22,2.22,0,0,1,2.5,2.34c.07,1.58-.21,3.2,2.28,3.23s2.37-1.48,2.53-3.12c.14-1.38.66-2.56,2.38-2.44S99,145.72,99,147.14c0,1.85.27,3,2.57,2.87S103.4,148.3,103.54,146.07Zm16.59,49.39a68.64,68.64,0,0,1,2.37,6.83c.55,2.32,1.84,2.75,4,2.74,19.3-.08,38.61-.15,57.91,0,4.53.05,4.12-2.58,4.34-5.59.23-3.25-.87-4.12-4.11-4.08-17.14.16-34.28.07-51.42.07ZM92,166c3.66,4.38,3.66,4.38,8,4.38,2.45,0,4.89,0,7.34,0,1.9,0,4.23-.17,4.19,2.44s-2.58,2.12-4.33,2.22-3.74,0-5.61,0-2.63.21-2.18,2.69c.94,5.23,1.76,10,8.76,9.38a3.82,3.82,0,0,1,2.39.88c4.73,3.86,10.32,2.65,15.7,2.9,2.53.12,3.15-.89,3.17-3.26s-.74-3.3-3.21-3.22c-4.6.16-9.21,0-13.82.05-1.74,0-3.45-.34-3.4-2.36s1.71-2.61,3.46-2.3c5.32.93,7.83-.72,8.17-6.6.26-4.42-.38-7-4.78-7.14C108.18,165.81,100.44,166,92,166Zm96.58.16c0-6.94,0-12.91-.05-18.88a3.08,3.08,0,0,0-.9-1.89q-8.31-8.62-16.69-17.17a109.91,109.91,0,0,0-1,18.46,2.39,2.39,0,0,0,.6,1.55C176.27,154,182.06,159.71,188.58,166.17ZM40.35,137.63c3,0,6.23-.63,8.67-3.69a88.55,88.55,0,0,1,6.66-6.77c3.7-3.71,3.09-6.08-2-7.58a9.9,9.9,0,0,0-3.41-.42c-2.45.18-3.64-.67-4.09-3.23a10.47,10.47,0,0,0-5.52-7.84c-1.57-.83-2.71-1-2.7,1.38,0,8.79,0,17.57,0,26.36C38,137,38,138.29,40.35,137.63Zm116.19,46.85c-5.75,0-11.5-.08-17.25.05-2.11,0-5-1.29-5.09,3-.06,4.17,2.6,3.29,4.88,3.3q17.89,0,35.78,0c2.11,0,4.6.9,4.65-3.06.05-4.19-2.6-3.28-4.87-3.3C168.61,184.45,162.57,184.49,156.54,184.48ZM62.77,154.81c2.63,2.11,4.3,3.46,5.34,5.4.48.9.92,1.78,2.23,1.52,7.11-1.39,14.29-.55,21.44-.71,2.23-.05,2.56-1.15,2.54-3s-.09-3.32-2.66-3.29C82.39,154.88,73.12,154.81,62.77,154.81Z"/></g></g></svg>