<svg xmlns="http://www.w3.org/2000/svg" viewBox="0 0 107.02 151.66"><defs><style>.cls-1{fill:#c98b5f;}</style></defs><g id="Capa_2" data-name="Capa 2"><g id="Capa_1-2" data-name="Capa 1"><path class="cls-1" d="M61.08,0c2.18.5,4.4.85,6.53,1.52,21.57,6.75,35,21.14,38.63,43.47,3.18,19.48-3.49,35.89-18.24,49a1.51,1.51,0,0,0-.45,2.15q9,20,18,40.07a3.24,3.24,0,0,1-.11,3.57,3.07,3.07,0,0,1-3.4,1.05c-1-.23-2.1-.39-3.14-.58-3.07-.58-6.13-1.14-9.19-1.77a1.17,1.17,0,0,0-1.49.72c-1.79,3.25-3.63,6.47-5.44,9.71A17.83,17.83,0,0,1,81,151.66H77.43c-.31-.63-.82-1.11-1.12-1.76q-4.17-9-8.39-18-5.65-12.12-11.29-24.25a1.41,1.41,0,0,0-1.6-1,15,15,0,0,1-2.84,0,1.69,1.69,0,0,0-2,1.18q-9.7,21-19.48,41.86a5.71,5.71,0,0,1-1.42,2H26c-1.82-2.26-2.94-4.94-4.41-7.4-1-1.66-2-3.34-2.83-5.06a1.23,1.23,0,0,0-1.6-.72c-4.1.81-8.22,1.55-12.32,2.34a3,3,0,0,1-3.29-1,3.08,3.08,0,0,1-.2-3.45q8.81-18.82,17.56-37.65c.51-1.1,1.45-2.27,1.34-3.32S18.64,93.79,17.78,93C5,81.09-1.11,66.45.17,49A53.34,53.34,0,0,1,45.27.23c.23,0,.48,0,.64-.23Zm40,53.15a47.6,47.6,0,1,0-47.6,47.56A47.72,47.72,0,0,0,101.08,53.15Zm-21.7,89.21a1.81,1.81,0,0,0,.74-.94c1.4-2.47,2.78-4.95,4.19-7.41,1-1.79,1.9-2.2,3.89-1.84l8.61,1.6c.3.06.68.29.9,0s-.08-.66-.22-1Q90,116.16,82.58,99.47c-.43-1-.77-1-1.6-.47a51.13,51.13,0,0,1-17.47,6.69c-.85.16-1.11.33-.67,1.25,3.29,7,6.52,13.93,9.77,20.9C74.85,132.66,77.1,137.48,79.38,142.36Zm-52.06-.07c.42-.09.45-.37.54-.56Q36,124.26,44.18,106.78c.35-.74.14-.93-.57-1a51.5,51.5,0,0,1-17.28-6.51c-.84-.5-1-.15-1.34.53q-7.35,15.82-14.75,31.63c-.36.78-.71,1.57-1.07,2.35.48.27.86.06,1.23,0,2.87-.52,5.74-1.07,8.61-1.6a2.92,2.92,0,0,1,3.47,1.6c.6,1,1.16,2.06,1.74,3.09Z"/><path class="cls-1" d="M53.58,15.5A37.63,37.63,0,1,1,15.84,53.11,37.67,37.67,0,0,1,53.58,15.5ZM85.15,53.17a31.69,31.69,0,1,0-31.8,31.64A31.71,31.71,0,0,0,85.15,53.17Z"/><path class="cls-1" d="M38.83,71.46c.56-3.62,1.11-7.37,1.74-11.11A1.62,1.62,0,0,0,40,58.71c-2.61-2.42-5.16-4.88-7.76-7.31a3,3,0,0,1-1.08-3.28A3.07,3.07,0,0,1,34,46c3.48-.53,6.94-1.12,10.41-1.65a1.76,1.76,0,0,0,1.5-1.11c1.49-3.22,3-6.41,4.55-9.63a3,3,0,0,1,2.8-2,3,3,0,0,1,2.86,1.94c1.59,3.13,3.22,6.24,4.79,9.38A1.81,1.81,0,0,0,62.46,44c3.33.39,6.66.83,10,1.26a4.81,4.81,0,0,1,2.15.59,3,3,0,0,1,.33,4.71c-2.52,2.56-5,5.12-7.62,7.63A1.74,1.74,0,0,0,66.74,60c.7,3.56,1.33,7.13,2,10.7A3,3,0,0,1,64.42,74c-3.24-1.64-6.49-3.26-9.72-4.93a1.72,1.72,0,0,0-1.85,0c-3.17,1.77-6.35,3.52-9.56,5.22A3,3,0,0,1,38.83,71.46Zm23-5.5c-.45-2.53-.83-4.82-1.29-7.08a3.25,3.25,0,0,1,1-3.22c1.46-1.45,2.89-2.91,4.33-4.38.19-.2.57-.33.42-.78-2.14-.29-4.28-.63-6.44-.83a3.79,3.79,0,0,1-3.36-2.38c-.94-2-2-3.91-3.09-6-1.07,2.24-2.09,4.29-3,6.36a3.49,3.49,0,0,1-3,2.21c-2.24.3-4.47.72-6.93,1.13,1.84,1.75,3.48,3.34,5.16,4.88a3.46,3.46,0,0,1,1.15,3.39c-.4,2.25-.71,4.51-1.06,6.77.52.08.81-.22,1.14-.39,1.71-.92,3.41-1.83,5.09-2.78a3.31,3.31,0,0,1,3.48-.07c.8.43,1.61.83,2.42,1.23Z"/></g></g></svg>