<?xml version="1.0" encoding="utf-8"?>
<!-- Generator: Adobe Illustrator 26.0.0, SVG Export Plug-In . SVG Version: 6.00 Build 0)  -->
<svg version="1.1" id="Capa_1" xmlns="http://www.w3.org/2000/svg" xmlns:xlink="http://www.w3.org/1999/xlink" x="0px" y="0px"
	 viewBox="0 0 151.6 151.6" style="enable-background:new 0 0 151.6 151.6;" xml:space="preserve">
<style type="text/css">
	.st0{fill:#C98B5F;}
</style>
<g id="Capa_2_00000101797062538107068710000005119390867613307553_">
	<g id="Capa_1-2">
		<path class="st0" d="M84.6,87.8c1.3,0,2.4,1.1,2.4,2.4c0,1.3-1.1,2.4-2.4,2.4c-1.3,0-2.4-1.1-2.4-2.4c0,0,0-0.1,0-0.1
			C82.2,88.8,83.3,87.8,84.6,87.8z"/>
		<path class="st0" d="M70.6,64.7c-4.2,3-6.2,8.2-5,13.2c0.2,0.9,0.5,1.7,0.9,2.5c0.5,0.9,0.7,1.9,0.7,2.9c0,2.4,0.2,4.9,0.2,7.3
			c0,0.2,0.2,0.6-0.1,0.7s-0.5-0.1-0.7-0.3c-2.9-1.7-5.2-4.3-6.4-7.4c-4.4-9.7-1.1-19.8,8.1-25.7c0.2-0.1,0.3-0.2,0.5-0.3
			c1.6-0.5,1.9-1.7,1.8-3.3c-0.1-5,0-9.9,0-14.9v-1c-1.4,1.1-2.5,2-3.6,3c-4.5,3.6-8.4,7.7-11.8,12.3c-3.5,5-6.1,10.5-6.6,16.6
			c-0.7,9,2.7,16.3,9.8,21.8c2.8,2.2,6.1,3.8,9.6,4.6c0.6,0.1,0.8,0.4,0.7,1c0,1.9,0,3.8,0,5.6c0,0.5-0.1,0.8-0.7,0.6
			c-16.1-3.2-28.8-18-26.2-36c1.1-7.2,4.1-14.1,8.7-19.8c4.2-5.4,9-10.2,14.3-14.5c1.5-1.4,3.2-2.7,4.9-3.8c0.6-0.3,1-1,0.9-1.7
			c0-4.3,0-8.7,0-13c0-1.3,0.1-2.5,0.3-3.7c1-6.2,7.3-7.9,11.5-6c3.5,1.6,5.7,5.3,5.5,9.2c-0.3,3.8-1.6,7.4-3.7,10.5
			c-1.9,2.8-4.2,5.3-6.7,7.5c-0.4,0.3-0.6,0.8-0.6,1.2c0,6.6,0,13.3,0,19.9c0,0.7,0.2,0.8,0.9,0.8c8.3-0.8,15.6,1.3,21,8
			c6.6,8.3,6.9,20,0.7,28.7c-4.9,6.9-11.6,11-19.8,12.7c-0.7,0.2-0.9,0-0.9-0.8c0.1-1.8,0-3.6,0-5.5c0-0.6,0.2-0.8,0.8-1
			c5.2-1.2,9.8-4.2,13.2-8.3c5.8-7.2,5-15.6,0.7-21.4c-3.3-4.4-8-5.9-13.4-5.7c-0.7,0-1.5,0.2-2.2,0.2s-0.8,0.3-0.8,1
			c0,3,0,5.9,0,8.9c0,13,0,25.9,0,38.9c-0.1,0.7,0.3,1.3,1,1.4c4.6,1.6,6.8,5.1,7.4,9.8c0.8,6.5-0.4,13.2-3.4,19
			c-0.8,1.8-2,3.3-3.4,4.6c-3,2.6-6.3,2.6-9.2-0.1c-1.8-1.7-3.2-3.8-4.2-6.1c-2.5-5.1-3.5-10.8-3.2-16.4c0.1-1.6,0.4-3.1,1-4.6
			c1-2.8,3.2-5,6-6c1.6-0.6,1.7-0.7,1.7-2.5L70.6,64.7L70.6,64.7z M76.4,23.3c0.4,0.2,0.4-0.1,0.6-0.2c1.8-2.3,3.1-4.9,3.7-7.8
			c0.2-0.7,0.1-1.5-0.1-2.2c-0.3-1-1.3-1.6-2.3-1.3c-0.3,0.1-0.6,0.3-0.8,0.5c-0.7,0.7-1.1,1.6-1,2.6C76.4,17.7,76.4,20.6,76.4,23.3
			z"/>
	</g>
</g>
</svg>
