<svg xmlns="http://www.w3.org/2000/svg" viewBox="0 0 113.56 159.55"><defs><style>.cls-1{fill:#c98b5f;}</style></defs><g id="Capa_2" data-name="Capa 2"><g id="Capa_1-2" data-name="Capa 1"><path class="cls-1" d="M31.28,84.42a1.75,1.75,0,0,0-1-.09c-4.1,0-8.2,0-12.3,0a2.72,2.72,0,0,1-2.72-1.41,2.79,2.79,0,0,1,.31-3Q25.72,64.22,35.79,48.56c.15-.24.51-.48.36-.77s-.55-.13-.84-.13c-2.77,0-5.54,0-8.32,0a2.77,2.77,0,0,1-2.73-1.4,2.83,2.83,0,0,1,.3-3.06q13.5-20.88,27-41.78c1.26-2,3.61-1.87,4.93.17L75,30.39q4.17,6.45,8.33,12.92a2.69,2.69,0,0,1-.69,3.95,3.17,3.17,0,0,1-1.83.39h-8.5c-.22,0-.54-.13-.64.15s.13.38.24.56.37.54.52.84a2.69,2.69,0,0,1-.9,3.51A2.6,2.6,0,0,1,68,52.08c-1.31-1.91-2.59-3.85-3.77-5.85a2.61,2.61,0,0,1,2.35-3.9c2.92,0,5.85,0,8.77,0,.26,0,.6.14.75-.13s-.15-.48-.29-.7Q65.12,24.92,54.44,8.35c-.42-.66-.59-.7-1,0Q42.74,25,32,41.55c-.12.2-.4.39-.28.62s.49.14.75.14c2.83,0,5.66,0,8.5,0a2.72,2.72,0,0,1,2.41,4.37Q33.28,62.33,23.2,78l-.1.15c-.12.24-.44.45-.32.7s.49.14.74.15h5.79c2.23,0,4.46,0,6.69,0a2.76,2.76,0,0,1,2.73,1.41,2.81,2.81,0,0,1-.29,3.06L8.3,130.16c-.06.1-.14.2-.19.3s-.45.42-.28.7.44.1.67.11H57.25a3.29,3.29,0,0,1,2.37.65,2.66,2.66,0,0,1-1.76,4.68H45.92c-1.82,0-1.82,0-1.82,1.78,0,4.92,0,9.83,0,14.74,0,.79.15,1.09,1,1.08q10-.06,20.07,0c.77,0,1-.16,1-1,0-7.3,0-14.59,0-21.89a2.4,2.4,0,0,0-.73-1.83,10.86,10.86,0,0,1-2.75-5,.78.78,0,0,0-.92-.71c-2.33,0-4.65,0-7,0a6.39,6.39,0,0,1-6.45-6.44q-.06-13.2,0-26.4a6.42,6.42,0,0,1,6.45-6.45c1.93,0,3.86,0,5.79,0A3,3,0,0,1,63,85.55c1.11,1.24,2.27,2.43,3.35,3.68.44.51.74.56,1.33.17a11.8,11.8,0,0,1,18.12,7.46,5,5,0,0,0,2.1,3.32c2.8,2.09,5.52,4.29,8.27,6.44.28.22.57.41.86.62.24-.34.13-.65.15-.94a2.68,2.68,0,0,1,5.36,0c0,1.54,0,3.07,0,4.61A1.34,1.34,0,0,0,103,112a8.05,8.05,0,0,1,.12,11.83,1.89,1.89,0,0,0-.61,1.5q0,13.92,0,27.85c0,.82.24,1,1,1,2.36-.05,4.71,0,7.06,0a2.69,2.69,0,1,1,0,5.35H8.11a2.69,2.69,0,1,1,0-5.35H37.58c1.16,0,1.16,0,1.16-1.17,0-5.13,0-10.25,0-15.38,0-.82-.21-1-1-1q-17.26,0-34.54,0a3.13,3.13,0,0,1-2.41-.79,2.7,2.7,0,0,1-.23-3.49q4-6.27,8.09-12.54L31,85.07C31.13,84.88,31.33,84.71,31.28,84.42Zm40.2,56.45c0,3.89,0,7.78,0,11.66,0,1.32.33,1.65,1.66,1.65h6c1.29,0,1.59-.31,1.59-1.61q0-18.25,0-36.53A1.52,1.52,0,0,0,80,114.7c-2.08-1.6-4.12-3.24-6.2-4.84a2.76,2.76,0,0,1-1.21-2.31,2.54,2.54,0,0,1,1.52-2.38,2.64,2.64,0,0,1,2.89.38l13.45,10.53c1.75,1.38,3.5,2.77,5.27,4.12a2.65,2.65,0,0,0,3.21.16,2.78,2.78,0,0,0,1.23-2.9,3.3,3.3,0,0,0-1.44-2c-5.51-4.31-11-8.63-16.53-12.92a3.48,3.48,0,0,1-1.52-3.17A5.77,5.77,0,0,0,80.29,97a6.57,6.57,0,0,0-6.81-4.18,6.37,6.37,0,0,0-5.7,5.34,30.1,30.1,0,0,0-.13,3.56c-.05,6.51,0,13,0,19.53a6.45,6.45,0,0,0,2.59,5.41,3.07,3.07,0,0,1,1.27,2.65C71.46,133.16,71.47,137,71.48,140.87Zm14.6-21.42v1.22q0,16.44,0,32.9c0,.7.35.62.77.62h8.32c2,0,2,0,2-2v-25c0-.46.15-1-.63-1a8.18,8.18,0,0,1-4.47-2C90.14,122.59,88.2,121.11,86.08,119.45Zm-23.82-8.93c0-2.4,0-4.81,0-7.22,0-.64-.2-.82-.83-.81q-3.47,0-7,0c-.62,0-.83.17-.82.81,0,4.55,0,9.09,0,13.64,0,1.14.37,1.51,1.53,1.51,2,0,4.09,0,6.14,0,.69,0,.93-.18.92-.9C62.24,115.22,62.26,112.87,62.26,110.52ZM58.08,97.14h2.35a9.91,9.91,0,0,0,1.09,0c.35,0,.91.23,1-.32.15-1,1.25-2.09.69-2.93A14.36,14.36,0,0,0,59.59,90c-.85-.6-2.28-.11-3.45-.15-.37,0-.73,0-1.09,0-1,0-1.35.41-1.36,1.4,0,1.72,0,3.43,0,5.15,0,.62.22.77.79.75C55.67,97.12,56.88,97.14,58.08,97.14Z"/><path class="cls-1" d="M88,72.06a13.83,13.83,0,1,1-13.5-14A13.87,13.87,0,0,1,88,72.06Zm-5.36-.17a8.48,8.48,0,1,0-8.48,8.44A8.51,8.51,0,0,0,82.65,71.89Z"/></g></g></svg>