<svg xmlns="http://www.w3.org/2000/svg" viewBox="0 0 236.07 271.59"><defs><style>.cls-1{fill:#dbd69f;}.cls-2{fill:none;stroke:#6c2912;stroke-miterlimit:10;stroke-width:2px;}.cls-3{fill:#6c2912;}</style></defs><g id="Capa_2" data-name="Capa 2"><g id="Capa_1-2" data-name="Capa 1"><rect class="cls-1" width="236.07" height="271.59" rx="35.2"/><line class="cls-2" x1="38" y1="238.5" x2="198.07" y2="238.5"/><path class="cls-3" d="M209.39,208.85c-1.71,4.84-5.26,6.48-10.21,6.47q-82.45-.09-164.9,0a14.17,14.17,0,0,1-4.11-.44,8,8,0,0,1-5.73-7.69c0-5.54,0-11.08,0-16.62a8.08,8.08,0,0,1,7.19-8.33c10.48-1.4,21-2.71,31.46-4.07,2.68-.34,5.35-.75,8-1,.91-.1,1.08-.5,1-1.28-.15-2.83-.3-5.65-.39-8.47a1.63,1.63,0,0,0-.93-1.41,9.64,9.64,0,0,1-4.53-8.52c0-9.51,0-19,0-28.53,0-4.17.66-6.16,3.17-10.61-.76-.35-1.55-.65-2.28-1a11.75,11.75,0,0,1-6.62-10.8c-.06-13.24-.17-26.49,0-39.73.13-8.29,4.25-14.48,11.63-18.15,7.08-3.52,14.11-2.83,20.63,1.67a3.08,3.08,0,0,0,3.25.43A61.81,61.81,0,0,1,116,46.48c7.35-.19,14.43,1.55,21.3,4a3.9,3.9,0,0,0,4.05-.53c12.25-8.37,29.12-1.07,31.63,13.6a22.75,22.75,0,0,1,.31,3.94q0,18.88,0,37.75c0,6.47-2.46,10.2-8.38,12.72a4.41,4.41,0,0,0-.53.34,18.72,18.72,0,0,1,3.16,10.12c0,2.06-1,3.35-2.71,3.34s-2.61-1.25-2.72-3.19a12.82,12.82,0,0,0-6.36-10.79,51.35,51.35,0,0,1-4.89,15.55,21.42,21.42,0,0,1-2.36,3.83,6.35,6.35,0,0,0-1.65,5.49,33.84,33.84,0,0,1-2.27,18.81,75.69,75.69,0,0,0,13.6.44c2.39-.13,3.91-2,3.93-4.76,0-5.6,0-11.19,0-16.79,0-1.67.6-2.81,2.27-3.21a2.58,2.58,0,0,1,3.15,2.59c0,6.38.12,12.77-.07,19.14a8.63,8.63,0,0,1-4.15,6.86,2.41,2.41,0,0,0-1.22,2.17,160.35,160.35,0,0,1-3.89,28.35c-1.19,5.28-4.94,8.16-10.39,8.16q-30.79,0-61.59,0c-5.71,0-9.34-2.92-10.72-8.73-.38-1.6-.92-2.31-2.69-2.15a64,64,0,0,1-6.5,0c-2.11,0-3.5-1.25-3.43-2.9S64.21,188,66.27,188s4-.08,6,0c1.3.06,1.48-.49,1.33-1.6-.56-4.05-.54-4.08-4.57-3.56q-18,2.32-35.92,4.69c-2.38.31-3.21,1.24-3.22,3.7q0,7.41,0,14.81c0,2.69.88,3.59,3.54,3.6q12.74,0,25.47,0,70.35,0,140.69,0a8.19,8.19,0,0,0,2.68-.21c1.35-.47,1.75-1.68,1.75-3.06,0-7.76,0-15.53,0-23.3,0-1.17-.4-1.38-1.45-1.37-4,.06-8.07,0-12.1,0-2.07,0-3.35-1.07-3.36-2.72s1.26-2.7,3.35-2.7c3.85,0,7.71-.09,11.56,0,1.7,0,1.71-.54,1.22-1.85A12,12,0,0,0,190.39,167q-7.5,1-15,2c-2.16.29-3.59-.57-3.87-2.29s.82-2.85,2.93-3.14c5.48-.75,11-1.62,16.45-2.05,9-.7,16.19,4.86,18.18,13.79a2.83,2.83,0,0,0,.31.63ZM80.92,68.61A234.63,234.63,0,0,1,107.69,66a184.15,184.15,0,0,1,20.75.16A2.56,2.56,0,0,1,131,69a2.63,2.63,0,0,1-2.7,2.56c-.6,0-1.21,0-1.81,0a221,221,0,0,0-44.58,2.52c-3.16.48-3.17.42-3.83,3.46-.06.24-.13.47-.17.7-.2,1-.06,1.35,1.17,1.09a111,111,0,0,1,20.15-2.68,8.24,8.24,0,0,1,8.13,4.59,1.17,1.17,0,0,0,1.55.7,39,39,0,0,1,15.93,0,1.27,1.27,0,0,0,1.66-.8,8.1,8.1,0,0,1,7.84-4.47,110.7,110.7,0,0,1,20.51,2.69c.92.19,1.17.09,1.09-.87-.29-3.51-.66-3.93-4.17-4.41-.71-.09-1.42-.24-2.13-.33-3.58-.47-7.16-.89-10.72-1.4a2.64,2.64,0,0,1-2.48-3,2.76,2.76,0,0,1,3-2.44c.54,0,1.08.1,1.62.16l11.74,1.46a13.94,13.94,0,0,0-5.71-6.93c-13-8.18-26.81-11.86-42.06-8-7,1.79-13.78,4.19-19.53,8.82A14.91,14.91,0,0,0,80.92,68.61Zm8.33,92.87a19.74,19.74,0,0,1-.8-2.07,2.64,2.64,0,0,1,1.68-3.35,2.56,2.56,0,0,1,3.34,1.3,8.59,8.59,0,0,1,.39.81,3.71,3.71,0,0,0,3.94,2.49c2.34-.12,4.69,0,7,0,3.21,0,3.92-.79,3.87-4,0-1-.28-1.38-1.32-1.34-1.68.07-3.37.07-5,0a2.75,2.75,0,0,1-2.87-2.64c-.06-1.64,1-2.71,2.81-2.86.84-.07,1.68,0,2.53,0,4.22,0,4.19,0,3.9-4.2-.06-.89-.38-1.12-1.2-1.1-1.62,0-3.24,0-4.87,0-2,0-3.13-1.08-3.17-2.71s1.06-2.73,3-2.81c1.62-.07,3.24,0,4.87,0,.45,0,1,.14,1.24-.45a3.46,3.46,0,0,0-2.93-5c-2.52-.08-5,.08-7.57-.06a3.59,3.59,0,0,0-3.9,2.51c-.32.77-.59,1.57-.84,2.37a38,38,0,0,0-1.25,9.07c-.12,1.87-1.27,3-2.8,2.91a2.8,2.8,0,0,1-2.7-3.18,59.28,59.28,0,0,1,.53-6.1,2.43,2.43,0,0,0-.55-2.13,34.09,34.09,0,0,1-5.43-9.5,55.83,55.83,0,0,1-3.07-11.56c-4,2.38-6.2,5.87-6.29,10.23-.21,9.87-.1,19.74,0,29.6a4.14,4.14,0,0,0,3.86,4.26A76.83,76.83,0,0,0,89.25,161.48Zm29.17-33.12a57.67,57.67,0,0,0,9-.78A39.23,39.23,0,0,0,144.61,121c1.1-.78,1.4-1.46.78-2.78q-3.4-7.24-6.53-14.62a3.05,3.05,0,0,0-2.77-2,38.47,38.47,0,0,0-11.52.31c-5.82,1-11.93,1.4-17.79-.65a6.7,6.7,0,0,0-2.32-.29,55.89,55.89,0,0,0-7.52.78,2,2,0,0,0-1.7,1.33c-2.26,5.17-4.54,10.32-6.9,15.44a1.61,1.61,0,0,0,.66,2.37A38.79,38.79,0,0,0,94.26,124C101.42,127.38,109.06,128.29,118.42,128.36ZM96.76,188c5.23,0,10.46,0,15.69,0,.61,0,1.74.41,1.59-.78s1-2.7-.82-3.45c-8-3.35-10.72-8.14-9.39-16.53.1-.64.11-1.05-.7-1a65,65,0,0,0-7.39.15,150.77,150.77,0,0,1-16.16,1.27c-2.36.06-3.1,1.2-2.11,3.42a2.27,2.27,0,0,0,1.82,1.33,25.21,25.21,0,0,0,3.58.33c4.15.05,8.3,0,12.45.05a2.68,2.68,0,0,1,.18,5.36c-5.53,0-11.06.31-16.58-.19-.86-.08-1.09,0-1,.88.39,2.55.79,5.1,1.1,7.66.15,1.28.74,1.6,2,1.58C86.29,188,91.52,188,96.76,188ZM88.46,53.88a14.3,14.3,0,0,0-10.29-1.61A15.17,15.17,0,0,0,66,67.44c0,9.08,0,18.16,0,27.24,0,.4,0,.8.06,1.27a25.7,25.7,0,0,1,3.79-1.33c1.33-.24,1.71-.74,1.62-2.1a62,62,0,0,1,.67-13.47C73.8,68.37,77.81,59.2,88.46,53.88Zm57.06,0a2.88,2.88,0,0,0,.5.43c8.32,4.26,12.75,11.28,14.72,20.23a72.13,72.13,0,0,1,1.64,18.23c0,.56-.5,1.45.58,1.59A24,24,0,0,1,167.8,96V94.09c0-8.6,0-17.2,0-25.8a25,25,0,0,0-.29-3.76C166,54.47,154.37,48.75,145.52,53.86ZM132.36,160.61v0h2.71c3.55,0,4.41-.65,5.48-4.13a29.35,29.35,0,0,0,1.07-8.54,29.34,29.34,0,0,0-2.09-12.15,3.46,3.46,0,0,0-3.63-2.36c-2.28.11-4.57,0-6.85,0-3.3,0-4,.78-4,4.09,0,1.15.42,1.44,1.48,1.41a48,48,0,0,1,5.23.06,2.55,2.55,0,0,1,2.54,2.72,2.72,2.72,0,0,1-2.59,2.72c-1,.09-1.93,0-2.89,0-3.91,0-3.87,0-3.76,3.94,0,1,.31,1.4,1.34,1.36,1.62-.06,3.25-.06,4.87,0,2,.08,3.07,1.15,3,2.82s-1.23,2.66-3.18,2.7c-1.62,0-3.25,0-4.87,0-.39,0-.84-.12-1.1.37a3.43,3.43,0,0,0,2.65,4.87C129.35,160.69,130.86,160.61,132.36,160.61ZM137.14,188H151.4c3,0,3,0,3.53-3.07.2-1.12.42-2.24.58-3.37s.72-2.54.25-3.33c-.56-1-2,.11-3.09-.07a16.43,16.43,0,0,0-2.53,0h-20.4c-.68,0-1.4-.2-1.94.56a14.35,14.35,0,0,1-7.25,5.09c-1.75.63-.64,2.3-.77,3.47s.91.71,1.48.71C126.55,188,131.85,188,137.14,188ZM76.94,91.92c.19,2.1.32,4.2.59,6.28a38.09,38.09,0,0,0,5.3,15.9c.22.34.36.86.83.85s.52-.61.68-1c3.1-6.82,6.16-13.67,9.28-20.48.45-1,.22-1.2-.75-1.39a68.35,68.35,0,0,1-11.69-3.51C76.59,86.84,76.59,86.84,76.94,91.92Zm80-.13c0-1.2,0-2.4,0-3.6s-.31-1.21-1.28-.81a72.22,72.22,0,0,1-15,4.81c-.73.13-.85.45-.55,1.12q4.77,10.47,9.49,21c.48,1.06.84.74,1.28,0a32.71,32.71,0,0,0,2.57-5A53.88,53.88,0,0,0,157,91.79Zm-21.79,4.07c-.79-1.64-1.52-2.72-3.14-3.08a7.74,7.74,0,0,1-5.42-4.11,2,2,0,0,0-1.53-1.08,36,36,0,0,0-16.27,0,2.23,2.23,0,0,0-1.66,1.18,7.78,7.78,0,0,1-5.46,4.07,4,4,0,0,0-2.89,2.84,7.9,7.9,0,0,0,2.66-.18,39.89,39.89,0,0,1,8.69,1,32.41,32.41,0,0,0,14.46-.25,17.56,17.56,0,0,1,4.43-.75A34.91,34.91,0,0,1,135.17,95.86Zm-26.26,74.79a8,8,0,1,0,8-8A8,8,0,0,0,108.91,170.65Zm-11.52,23c-5,0-10.1,0-15.15,0-1.58,0-1.68.48-1.2,1.78.92,2.5,2.11,3.46,4.82,3.47q12.36,0,24.72,0c3.58,0,3.5,0,3.57-3.62,0-1.46-.54-1.65-1.79-1.64C107.37,193.64,102.38,193.61,97.39,193.61Zm39,0H123.22c-3.57,0-3.51,0-3.53,3.63,0,1.25.34,1.63,1.61,1.62,8.9-.05,17.8,0,26.7,0,2.68,0,3.87-1,4.8-3.5.51-1.39.22-1.77-1.25-1.75C146.5,193.65,141.44,193.61,136.39,193.61Zm5.64-20.9c3.12,0,6.25,0,9.37,0a14.76,14.76,0,0,0,3.39-.4c1.51-.38,2.12-1.7,1.82-3.84-.22-1.54-1.5-.73-2.27-.8-3.35-.28-6.72-.37-10.07-.64-4.3-.34-8.57-1.07-12.92-.85-1.07.06-1.7.05-1.26,1.47a8,8,0,0,1,.34,3.92c-.21,1.08.27,1.18,1.14,1.17C135.06,172.69,138.54,172.71,142,172.71ZM117,133.8c-2.78,0-2.78,0-2.7,2.81,0,.24,0,.48,0,.72v17.13c0,2.71,0,2.71,2.71,2.72,2.52,0,2.51,0,2.52-2.56,0-6.31-.09-12.63.13-18.93.06-1.69-.17-2.18-1.77-1.9A5.4,5.4,0,0,1,117,133.8ZM73,113.12c.36-.08,1-.22,1.65-.34.81-.14,1-.58.65-1.28a43.77,43.77,0,0,1-3-10.71c-.13-.92-.53-1.11-1.47-.81a6.82,6.82,0,0,0-4.82,7A6.92,6.92,0,0,0,73,113.12Zm94.78-6.8A6.91,6.91,0,0,0,163,100c-1-.35-1.44-.09-1.58.89a42.25,42.25,0,0,1-2.89,10.54c-.34.79-.14,1.13.71,1.39A6.76,6.76,0,0,0,167.79,106.32Zm-65-21.55a2.81,2.81,0,0,0-2.68-2.64,2.68,2.68,0,1,0,2.68,2.64Zm33.66.28A2.72,2.72,0,0,0,134,82.16a2.67,2.67,0,1,0,2.37,2.89ZM92.56,129.27a53.05,53.05,0,0,1-7-4,30.27,30.27,0,0,0,3.78,8A14.76,14.76,0,0,1,92.56,129.27Zm55.61-4a49.83,49.83,0,0,1-6,3.55c-.37.18-1.11.34-.4.95a25.08,25.08,0,0,1,2.74,3.41A29.62,29.62,0,0,0,148.17,125.28ZM84.72,84A37.25,37.25,0,0,0,92,86.23c0-.94,0-1.77,0-2.6,0-.58-.12-1-.78-.84C89.15,83.2,87,83.2,84.72,84Zm57.19,2.24A38.36,38.36,0,0,0,149,84a14.6,14.6,0,0,0-4.17-.87C141.81,82.78,141.8,82.82,141.91,86.23Z"/><path class="cls-3" d="M177.2,204.44H166a8.14,8.14,0,0,1-1.78-.17,2.55,2.55,0,0,1-2.13-2.73,2.62,2.62,0,0,1,2.3-2.61,5.19,5.19,0,0,1,1.25-.09h23.46a4.87,4.87,0,0,1,.54,0,2.79,2.79,0,1,1,0,5.57c-1.08.07-2.16,0-3.25,0Z"/><path class="cls-3" d="M137.86,113.35a6.69,6.69,0,0,1-3.63,6,19.25,19.25,0,0,1-3.42,1.57c-1.16.42-2.27.62-3,1.92a2.34,2.34,0,0,1-3.64.38,3.19,3.19,0,0,0-2.45-.75q-4.14.06-8.3,0c-1.47,0-2.85-.15-4.19,1a2.22,2.22,0,0,1-3.41-.84,3.18,3.18,0,0,0-2.23-1.52A14.23,14.23,0,0,1,99,119a6.66,6.66,0,0,1-2.86-7.39,6.9,6.9,0,0,1,6.53-5.29q14.17-.12,28.35,0A7,7,0,0,1,137.86,113.35Zm-21,3.83v-.07h2.34c4,0,4,0,3.93-4,0-1.2-.5-1.37-1.5-1.35-2.4,0-4.8,0-7.2,0-3.83,0-3.83,0-3.63,3.87a.54.54,0,0,1,0,.18c-.11.79.32,1.07,1,1.1ZM105.3,114c0-1.23.28-2.39-1.5-2.2-1.06.11-2.09.17-2.33,1.44-.16.87,2,2.54,3.19,2.43C106,115.53,105,114.38,105.3,114Zm23.26,0c.28.39-.71,1.47.54,1.69,1.07.19,3.39-1.52,3.26-2.36-.19-1.28-1.2-1.39-2.28-1.51C128.38,111.59,128.38,112.59,128.56,114Z"/></g></g></svg>