<svg xmlns="http://www.w3.org/2000/svg" viewBox="0 0 236.07 271.59"><defs><style>.cls-1{fill:#fdce76;}.cls-2{fill:none;stroke:#6c2912;stroke-miterlimit:10;stroke-width:2px;}.cls-3{fill:#6c2912;}</style></defs><g id="Capa_2" data-name="Capa 2"><g id="Capa_1-2" data-name="Capa 1"><rect class="cls-1" width="236.07" height="271.59" rx="35.2"/><line class="cls-2" x1="35.26" y1="237.8" x2="195.33" y2="237.8"/><path class="cls-3" d="M183.93,75.25c1.82-1.13,2.68-1.09,4.1.46,9.41,10.28,12.35,22.18,8.16,35.49-2,6.23-1.29,11.52,2.6,16.82,14.44,19.67,3.16,47.5-20.94,52a32.76,32.76,0,0,1-15.4-.88,1.82,1.82,0,0,0-2.2.41,37.52,37.52,0,0,1-28.49,11.9c-4.81,0-9.63,0-14.44,0a2,2,0,0,0-2.2,1.28,44.65,44.65,0,0,1-2.15,4c-1,1.78-1.89,2.07-3.89,1.39-1.34-1.31-1.27-2.66-.35-4.21a83.05,83.05,0,0,0,6.41-13.59,137.43,137.43,0,0,0,7.72-33.42,185.78,185.78,0,0,0,1.29-21.08,5,5,0,0,0-5.07-5.11,5.07,5.07,0,0,0-5,5c0,2.92-.33,5.8-.65,8.69a90.32,90.32,0,0,1-7.65,27.72A75.81,75.81,0,0,1,87.15,187.4a11,11,0,0,0-1.31,15.22,10.83,10.83,0,0,0,15.42,1.45,3.35,3.35,0,0,1,4-.54c1.24,1.95,1.07,3-.69,4.44a16.12,16.12,0,0,1-21.85-1.25,15.94,15.94,0,0,1-.1-22c.15-.16.29-.33.5-.57a44.31,44.31,0,0,1-5.41-4.91c-.6-.68-1.18-.28-1.82-.12-13.91,3.66-25.69.15-35.17-10.67a31.88,31.88,0,0,1-7.19-15.59c-.06-.3.09-.71-.39-.81V143c.82-1.46.8-3.15,1.26-4.72a32,32,0,0,1,5.35-10.7c3.73-4.81,4.46-10,2.48-15.74a35.2,35.2,0,0,1,27-46.3C81,63.42,91.5,66.72,100.24,75.1a2.32,2.32,0,0,0,2.47.74,28.62,28.62,0,0,1,7.32-.73c6.66,0,13.31,0,20,0a29.12,29.12,0,0,1,6,.75,1.65,1.65,0,0,0,1.74-.54,34.84,34.84,0,0,1,28.81-10.23,33.27,33.27,0,0,1,10.28,2.75,2.69,2.69,0,0,1,1.64,3.55c-1.15,1.61-2.55,1.56-4.27.9Q157.78,66,143.77,76.7c-1.46,1.13-1.43,1.11.17,1.89a37.39,37.39,0,0,1,20.26,23.28c1.27,4,1.59,8.19,2,12.35.62,5.6,1.28,11.2,1.92,16.79.62,5.38,1.19,10.76,1.89,16.13A40.88,40.88,0,0,1,169,164.22a42,42,0,0,1-4.62,10.12,26,26,0,0,0,13.86.49,28.12,28.12,0,0,0,16.14-44.36c-4.6-6.17-5.71-12.78-3.18-20A29.66,29.66,0,0,0,193,98.94a30.21,30.21,0,0,0-8.5-19.68C183.22,78,182.91,76.74,183.93,75.25Zm-55,62.26c-.43,4.18-.82,8.18-1.28,12.18-.1.95.48.69.92.62a32.12,32.12,0,0,0,10.21-3,11.83,11.83,0,0,1,11.12-.09c7.53,3.62,9.58,13.22,4.33,20.32-3.75,5.07-9.18,7.46-15.05,9a68.1,68.1,0,0,1-16.58,2.14c-.63,0-1.39-.19-1.71.68-.85,2.28-1.71,4.56-2.63,7,6.42-.27,12.69.39,18.93-.38a32.72,32.72,0,0,0,28.31-31.79,90.75,90.75,0,0,0-1-10.68c-1.35-11.78-2.59-23.56-4.06-35.31a32.5,32.5,0,0,0-31.78-28.07c-6.27,0-12.54-.16-18.81,0-13.79.43-23.65,7.05-29.66,19.43-2.47,5.08-2.73,10.66-3.36,16.14-1.32,11.49-2.71,23-3.83,34.49-1.19,12.27,3.36,22.15,13,29.72.76.6,1.18.49,1.74-.19,1.29-1.55,2.6-3.09,4-4.54.81-.83.58-1.17-.33-1.62a20.07,20.07,0,0,1-7.55-6.22c-5.52-7.67-2.58-18,6-20.84a13.1,13.1,0,0,1,10.5,1.09c4.75,2.42,4.77,2.36,6-2.71a49.48,49.48,0,0,0,1.28-6.3c-1.38.53-2.57,1-3.77,1.45a16,16,0,0,1-3.94.71c-7.63.81-16-4.9-17.95-12.28a2.6,2.6,0,0,1,1.79-3.29c1.36-.51,2.26.22,3,1.26a7.64,7.64,0,0,1,.55,1.38A12.53,12.53,0,0,0,107.71,132a3.3,3.3,0,0,0,1-2.15c.4-3.39-.28-7,2-10,.31-.41,0-.76-.11-1.09-1.88-6-9.45-9.69-15.36-7.62a13.08,13.08,0,0,0-7.42,6.14,2.77,2.77,0,0,1-3.47,1.17,2.84,2.84,0,0,1-1-3.78,10.14,10.14,0,0,1,.67-1.15,17.7,17.7,0,0,1,30.5,1.3c.52,1,.9,1.53,2.21,1.06a7.47,7.47,0,0,1,5,0c1.14.4,1.48,0,2-.93a17.13,17.13,0,0,1,15.1-9.56,17.7,17.7,0,0,1,8.61,33.45C141.07,142,135,141.38,128.91,137.51ZM74.73,70.05a21.27,21.27,0,0,0-4.9.49C51.39,74.4,41,92.6,47.1,110.47A20.31,20.31,0,0,1,44,130.36a27.52,27.52,0,0,0-5.39,21.79,28.17,28.17,0,0,0,33.65,22.73c1.2-.25,1.76-.47.88-1.91a36.23,36.23,0,0,1-5.24-22.58c.58-6.39,1.47-12.75,2.21-19.12.89-7.76,1.62-15.55,2.7-23.28,1.92-13.78,9.39-23.58,21.92-29.54,1.15-.55.92-.86.11-1.51A30.61,30.61,0,0,0,74.73,70.05Zm54.5,57.16c.25,1.57-.44,3.17,1,4.58a12.78,12.78,0,0,0,14.64,2.62,12.45,12.45,0,0,0,6.81-13.32c-.86-5.74-5.3-9.74-11.58-10.45-5-.56-10.57,2.93-12.41,7.88-.18.48-.49,1-.08,1.55A10.4,10.4,0,0,1,129.23,127.21Zm-6.35,46.34a50.89,50.89,0,0,0,9-.69c4.87-.71,9.63-1.86,13.9-4.46a13.21,13.21,0,0,0,5.52-5.91,8.32,8.32,0,0,0-1.61-9.31c-2.44-2.38-5.74-2.85-9.11-1.11a34,34,0,0,1-12.35,3.35c-1,.1-1.46.5-1.61,1.45-.29,1.76-.59,3.52-1,5.26-.2.89,0,1.12.88,1,5.77-1,11.31-2.54,16-6.28a2.84,2.84,0,0,1,1.46-.77,2.47,2.47,0,0,1,2.75,1.43c.69,1.43.06,2.49-1,3.36-4.86,3.92-10.57,5.87-16.6,7-1.59.3-3.67,0-4.65.91S123.38,171.81,122.88,173.55ZM94.1,151.08a7.73,7.73,0,0,0-7.7,9.54c.76,3.39,2.95,5.68,5.71,7.52,3.35,2.23,3.43,2.19,5.47-1.31.23-.38.42-.79.68-1.15.51-.69.44-1.11-.42-1.49a22.94,22.94,0,0,1-5.23-3.27c-1.5-1.23-1.8-2.64-.82-3.9s2.49-1.36,4-.17a27.33,27.33,0,0,0,4.36,2.79c.64.35,1.13.54,1.46-.43a35.92,35.92,0,0,1,1.58-3.86c.39-.86.15-1.11-.72-1.35a25.46,25.46,0,0,1-4.93-2A6.33,6.33,0,0,0,94.1,151.08Z"/><path class="cls-3" d="M139.83,118.05a7.24,7.24,0,0,0-7.25,6.12,3,3,0,0,0,2.08,3.66c1.46.35,2.67-.6,3.08-2.49.25-1.13.72-2.06,2-2.07s1.87,1,2.11,2.16c.34,1.66,1.47,2.63,2.82,2.46a2.85,2.85,0,0,0,2.36-3.31A7.26,7.26,0,0,0,139.83,118.05Z"/><path class="cls-3" d="M98.59,118.06a7.25,7.25,0,0,1,7.12,6.62,2.87,2.87,0,0,1-2.3,3.2,2.63,2.63,0,0,1-2.88-2.38c-.24-1.18-.65-2.22-2-2.23s-1.9,1.08-2.14,2.32A2.7,2.7,0,0,1,93.61,128a2.8,2.8,0,0,1-2.48-2.86A7.15,7.15,0,0,1,98.59,118.06Z"/><path class="cls-3" d="M139.83,118.05a7.26,7.26,0,0,1,7.21,6.53,2.85,2.85,0,0,1-2.36,3.31c-1.35.17-2.48-.8-2.82-2.46-.24-1.2-.72-2.18-2.11-2.16s-1.76.94-2,2.07c-.41,1.89-1.62,2.84-3.08,2.49a3,3,0,0,1-2.08-3.66A7.24,7.24,0,0,1,139.83,118.05Z"/></g></g></svg>