<svg xmlns="http://www.w3.org/2000/svg" viewBox="0 0 236.07 271.59"><defs><style>.cls-1{fill:#6c2912;}.cls-2{fill:none;stroke:#fdce76;stroke-miterlimit:10;stroke-width:2px;}.cls-3{fill:#fdce76;}</style></defs><g id="Capa_2" data-name="Capa 2"><g id="Capa_1-2" data-name="Capa 1"><rect class="cls-1" width="236.07" height="271.59" rx="35.2"/><line class="cls-2" x1="38.26" y1="237.8" x2="198.33" y2="237.8"/><path class="cls-3" d="M38.66,169.7v-1.86a5.14,5.14,0,0,1,2.8-2,23.58,23.58,0,0,1,14.83-.29,37.63,37.63,0,0,1,6.18,2.79c0-1.09-.06-2,0-2.82.3-3.63,2.5-5.6,6.14-5.75a17.43,17.43,0,0,1,7.61,1.53c.55-3.61,1.54-6.7,5.84-7.23-.25-.29-.37-.46-.51-.59a118.81,118.81,0,0,1-14.21-14.34C55.49,125,43.8,110.74,38.66,92.46v-3.4c1.84-3.67,3.69-4.64,7.68-3.92a29.69,29.69,0,0,1,4,1c7.5,2.45,14.14,6.54,20.72,10.77a6.55,6.55,0,0,0,2.24,1.26c-.66-4.14-1.2-8.21-1.46-12.3-.29-4.49-.25-9,1.13-13.29a5.37,5.37,0,0,1,7.91-3.26,21.1,21.1,0,0,1,3.14,2c4.89,3.63,8.72,8.28,12.31,13.13,2.32,3.13,4.51,6.35,6.76,9.54a2.06,2.06,0,0,0,.45-1.17,115.65,115.65,0,0,1,3.09-11.91c1.57-4.79,3.31-9.53,6.54-13.51,2.59-3.19,6.52-3.15,9.12,0a26.44,26.44,0,0,1,3.17,5.09A78.4,78.4,0,0,1,131,88.78c.43,1.73.82,3.45,1.28,5.43.49-.69.82-1.14,1.12-1.61a131.46,131.46,0,0,1,9.28-12.7c3.19-3.8,6.53-7.44,10.85-10s8.06-1.1,9.31,3.92c1.32,5.28,1,10.62.43,16-.29,2.79-.7,5.57-1.07,8.49,3.37-2.08,6.56-4.15,9.84-6,5.31-3,10.75-5.83,16.84-7,5.61-1.11,8.71,1.92,7.72,7.49a38.35,38.35,0,0,1-3.67,10.59c-9.66,19-22.76,35.3-38.36,49.7-.36.33-.9.52-1,1.16,4.2.52,5.14,3.67,5.7,7.16,1.36-.41,2.63-1,4-1.24a17.82,17.82,0,0,1,4.31-.21,5.46,5.46,0,0,1,5.2,4.26c.37,1.38.17,2.8.45,4.3a24.54,24.54,0,0,1,11.27-3.8,22.76,22.76,0,0,1,10.69,1.74,2.5,2.5,0,0,1,1.64,2.84,2.6,2.6,0,0,1-2.23,2.25,4.2,4.2,0,0,1-2.37-.53c-7-2.39-13.06-.23-18.72,3.83a11,11,0,0,0,1.8-.24,21.8,21.8,0,0,1,14.76,2.43,2.62,2.62,0,0,1,1.22,3.66,2.56,2.56,0,0,1-3.56,1.1c-5.62-3.17-11.26-2.51-16.93-.28-2.53,1-2.52,1-2.46,3.75,0,.31,0,.62,0,.93-.74,8.49-4.26,15.64-11.14,20.64-8.65,6.28-18.45,6.85-28.59,4.47-3.65-.86-6.53-2.72-8.13-6.23a2.67,2.67,0,0,0-2.62-1.94,2.72,2.72,0,0,0-2.77,1.93,10.53,10.53,0,0,1-6.79,5.85,36.25,36.25,0,0,1-20.38.43c-12.9-3.4-21-14.37-20.52-27.77,0-.48,0-.88-.52-1.14-6.1-2.81-12.25-4.24-18.63-.85-1.69.9-3.2.52-4-.9s-.21-2.91,1.5-3.8a21.2,21.2,0,0,1,12.8-2.49l3.14.4C56.06,170.52,50,168.53,43.12,171,40.76,171.79,40.12,171.62,38.66,169.7Zm124.2,15.69a21.88,21.88,0,0,1-17.31-1.84,14,14,0,0,0-9.3-1.28c-4.94.91-9.07,3.45-13,6.42s-7.22,2.89-11,0a47.32,47.32,0,0,0-6.07-3.93c-5.95-3.24-11.9-3.83-18-.43a17.94,17.94,0,0,1-8.6,2.07,30.24,30.24,0,0,1-6.92-.95,9.48,9.48,0,0,0,0,1.32c1.26,8.28,5.21,14.69,13.07,18.13,6.24,2.72,12.77,2.75,19.34,1.24,2.34-.53,4.37-1.43,5.36-3.87,1.44-3.56,4.25-4.72,7.91-4.57a7,7,0,0,1,6.71,4.52,6,6,0,0,0,4.14,3.59,33.32,33.32,0,0,0,14,.94q13.68-2,18.45-15A18.67,18.67,0,0,0,162.86,185.39ZM120.46,75.23v1.65c0,15.38,0,30.77,0,46.15a25,25,0,0,0,1.5,8.85,56.92,56.92,0,0,1,3.78,20.17c0,5-1.06,9.61-5.08,13.06,0,0,0,.17,0,.4a7.83,7.83,0,0,0,4.43-3.6,29.75,29.75,0,0,0,2.58-5.58c2.84-7.93,3.2-16.17,3.17-24.47a204.56,204.56,0,0,0-3.55-35.53A79.14,79.14,0,0,0,120.46,75.23Zm-5.55,90c-.71-.8-1.47-1.55-2.11-2.4-3.13-4.16-3.18-9-2.93-13.87a65.67,65.67,0,0,1,4.65-19.85,7.52,7.52,0,0,0,.52-2.69q0-24.85,0-49.71a1.76,1.76,0,0,0-.28-1.42,85.9,85.9,0,0,0-3.53,9.22c-3.21,9.82-4.5,20-5.57,30.21-1.09,10.41-1.53,20.83-.25,31.25a42.26,42.26,0,0,0,4.67,15.38A7.07,7.07,0,0,0,114.91,165.25ZM134.46,152a7,7,0,0,0,5.6-3.87,136.84,136.84,0,0,0,10.58-25.73c3.52-11.4,6.61-22.89,7.45-34.86a60.22,60.22,0,0,0,0-8.06,7,7,0,0,0-.81,1.49c-6.33,15.27-12.61,30.56-19,45.8-1.33,3.18-2.39,6.31-2,9.8a17.76,17.76,0,0,1-.13,2.62A89.39,89.39,0,0,1,134.46,152ZM77.62,79.51A59.07,59.07,0,0,0,78,94a172.72,172.72,0,0,0,5.74,25c3.09,10.33,6.75,20.44,12.09,29.89,1.26,2.23,3.12,2.51,5.19,3.25a89.44,89.44,0,0,1-1.81-19.65,5,5,0,0,0-.54-2.06L86.57,101.12Q82.1,90.32,77.62,79.51Zm112.53,16a4.31,4.31,0,0,0-.46.39Q171.54,114,153.41,132.11a3.75,3.75,0,0,0-.92,1.4A106.22,106.22,0,0,1,143.3,153c-.29.45-.53.84,0,1.34s.85,0,1.17-.23a59.38,59.38,0,0,0,6.23-4.81A182,182,0,0,0,184,108.73,54.69,54.69,0,0,0,190.15,95.49ZM45.82,95.38l-.47.41a45.86,45.86,0,0,0,3.4,7.85c5.94,11.25,13.48,21.4,21.75,31,6.09,7.08,12.5,13.83,20.21,19.21.4.28.8,1.14,1.53.4s0-1.15-.26-1.63A106,106,0,0,1,83.18,134a5.82,5.82,0,0,0-1.38-2.18Q64.15,114.21,46.51,96.56A5.46,5.46,0,0,1,45.82,95.38ZM82.45,77.2l17.12,41.28c.72-4.54,1.22-9,1.82-13.41.17-1.28.68-2.52-.15-3.87-3-4.9-6.16-9.73-9.67-14.31A51,51,0,0,0,82.45,77.2Zm53.21,41.28.24.07L153,77.37A8.2,8.2,0,0,0,150.81,79c-5.7,5.71-10.16,12.36-14.63,19-1.88,2.8-3,5.52-1.82,8.85a3.82,3.82,0,0,1,.06.77Q135,113.06,135.66,118.48ZM49.72,91.67l29,29.1c-1.31-4.55-2.64-9.27-3.65-14.08a1.89,1.89,0,0,0-.81-1.09A102.47,102.47,0,0,0,49.72,91.67Zm107,29.17L185.63,91.9c.07,0-.1,0-.23,0a100.36,100.36,0,0,0-24.18,13.67,2.07,2.07,0,0,0-.85,1.23C159.36,111.57,158.06,116.25,156.72,120.84ZM79,181.13a15.58,15.58,0,0,0,4.63-.68c.74-.2,1.06-.52.85-1.41a16.27,16.27,0,0,0-2.63-6c-2.75-3.69-5.93-6.87-10.74-7.65-3.22-.53-3.59-.07-3.25,3.2.41,4,2.56,7.05,5.11,9.94A7.21,7.21,0,0,0,79,181.13Zm77,0c1.68-.06,3.25.05,4.4-.85,4-3.14,6.87-7.07,7.33-12.35.23-2.63-.07-2.89-2.62-2.65a8.55,8.55,0,0,0-1.67.27,17.81,17.81,0,0,0-11.63,11.08c-1.51,3.82-1.58,3.46,2.43,4.31A15.72,15.72,0,0,0,156,181.16ZM154,163c0-.61-.07-1.23-.14-1.84-.14-1.19-.57-1.66-2-1.46-7.58,1.08-12.87,10.43-12.87,16,0,.78.35,1,1,1a13.86,13.86,0,0,1,4.54.75c1,.38,1.4.18,1.69-.89a21.93,21.93,0,0,1,6.42-10.52A3.25,3.25,0,0,0,154,163ZM96.5,175.48a14.6,14.6,0,0,0-1.32-5.42c-2.46-5.15-5.78-9.37-11.86-10.4-.38-.07-.77-.32-1.14.09-.83.91-.85,4.88,0,5.69a23.2,23.2,0,0,1,7.14,11.47c.2.78.55.93,1.33.65a13,13,0,0,1,4.53-.8C96.32,176.78,96.72,176.32,96.5,175.48Zm33.29-5.34a15.75,15.75,0,0,0,1.72,6.73c.27.5.46,1,1.26.76s.78-.63.79-1.26a23.49,23.49,0,0,1,6.15-15.24c.94-1.08.76-1.77-.62-3.59-.77-1-1.45-1-2.46-.37C131.61,160.1,130.21,164.89,129.79,170.14Zm-24.1-.07c-.07-.62-.16-1.48-.28-2.35-.66-4.48-2.54-8.19-6.61-10.56-1-.61-1.85-.61-2.42.47s-2.07,1.88-.68,3.44a23.35,23.35,0,0,1,6.21,15.36,1.1,1.1,0,0,0,.85,1.23c.81.25,1-.35,1.23-.83A15.81,15.81,0,0,0,105.69,170.07Zm12.06-33.21a43.35,43.35,0,0,0-2.44,17.9,9.25,9.25,0,0,0,1,3.7c.36.66.68,1.7,1.38,1.7s1.15-1.06,1.5-1.78a14.16,14.16,0,0,0,1.08-6A43.41,43.41,0,0,0,117.75,136.86ZM115,184c0-4.19,0-8.08,0-12a.94.94,0,0,0-.68-1.05c-1.1-.35-2.2-.75-3.38-1.16a19.9,19.9,0,0,1-2.22,9.48c-.26.5-.13.73.31,1A62.07,62.07,0,0,1,115,184Zm9.51-14.24a16.08,16.08,0,0,1-2.66,1c-1.27.21-1.48.9-1.43,2,.08,2.1,0,4.21,0,6.31V184a60.82,60.82,0,0,1,6-3.76c.45-.24.58-.47.32-1A19.56,19.56,0,0,1,124.53,169.77Z"/><path class="cls-3" d="M96.61,204.15a16.38,16.38,0,0,1-12-6.66,3.68,3.68,0,0,1,0-4.72c3-4,7-6.49,11.89-6.53,5.27,0,9.54,2.6,12.54,7a3.32,3.32,0,0,1,0,3.82A15.93,15.93,0,0,1,96.61,204.15Zm0-12.61a10.17,10.17,0,0,0-6.52,3.07c-.45.44-.36.73,0,1.12,4.16,4,8.78,4,13,.09.57-.52.48-.91,0-1.39A10.22,10.22,0,0,0,96.58,191.54Z"/><path class="cls-3" d="M138.87,204.15a16,16,0,0,1-12.31-7,3.61,3.61,0,0,1,.23-4.47c3-3.91,6.93-6.42,11.77-6.48,5.34-.06,9.65,2.58,12.66,7.06a3.37,3.37,0,0,1-.13,3.94A16.2,16.2,0,0,1,138.87,204.15Zm.28-12.59a10.6,10.6,0,0,0-6.8,2.9c-.5.53-.5.9,0,1.39,4.21,3.83,8.78,3.85,13-.09.5-.47.48-.77,0-1.23A9.93,9.93,0,0,0,139.15,191.56Z"/></g></g></svg>