<svg xmlns="http://www.w3.org/2000/svg" viewBox="0 0 236.07 271.59"><defs><style>.cls-1{fill:#6c2912;}.cls-2{fill:none;stroke:#fdce76;stroke-miterlimit:10;stroke-width:2px;}.cls-3{fill:#e9d1bd;}</style></defs><g id="Capa_2" data-name="Capa 2"><g id="Capa_1-2" data-name="Capa 1"><rect class="cls-1" width="236.07" height="271.59" rx="35.2"/><line class="cls-2" x1="38" y1="238.5" x2="198.07" y2="238.5"/><path class="cls-3" d="M101.79,53.89h2.5a4.45,4.45,0,0,1,1.89,4.53c-.08.56,0,1.15,0,1.72-.11.9.32,1.14,1.13,1.26a29.88,29.88,0,0,1,25.77,29.75c0,9.69,0,19.38,0,29.07a6.33,6.33,0,0,0,1.08,3.77c3.25,4.83,6.4,9.72,9.56,14.61,1.79,2.78.52,5.24-2.77,5.31-.89,0-1,.34-1,1.08,0,3.29,0,6.57,0,9.85,0,.32-.22.74.28,1l19.61-13.28c2.27-1.54,2.94-1.54,5.2,0q15.3,10.35,30.6,20.7a9.64,9.64,0,0,1,2.44,2.28V212.1a4.46,4.46,0,0,1-3.58,1.91q-38.46-.07-76.92,0c-2.29,0-3.28-.87-3.64-3.15.49-2.3,1.44-3.09,3.75-3.09,2.65,0,5.31,0,8,0,.81,0,1.19-.09,1.18-1.06q0-20.87,0-41.72c0-.83-.25-1-1-1q-22.72,0-45.46,0c-.8,0-1.06.19-1,1q0,20.85,0,41.72c0,1,.37,1.08,1.18,1.06,2.65,0,5.31,0,8,0,2.3,0,3.24.79,3.75,3.09-.37,2.28-1.36,3.15-3.65,3.15H41.63c-2.5,0-3.61-1.11-3.61-3.61q0-17,0-34.06a5.31,5.31,0,0,1,.55-2.39c2.3-4.65,4.59-9.29,6.83-14a3.62,3.62,0,0,1,3.68-2.28c5.31.07,10.62,0,15.94,0,.62,0,1.19.14,1.17-.89-.06-4,0-8,0-12,0-.7-.23-.83-.88-.86-3.53-.18-4.7-2.52-2.77-5.49,3.26-5,6.51-10,9.8-15A4.14,4.14,0,0,0,73,121c0-9.89,0-19.79,0-29.69a33.07,33.07,0,0,1,.67-6.66C76,73.06,86.35,63.15,98,61.5c1.68-.24,2-.83,1.9-2.3C99.72,57.16,99.8,55.18,101.79,53.89ZM103,94.22c-7.45,0-14.9,0-22.34,0-1.17,0-1.46.27-1.45,1.45q.09,11.56,0,23.12c0,1.18.29,1.45,1.45,1.44q22.33-.06,44.68,0c1.16,0,1.45-.27,1.45-1.44q-.09-11.57,0-23.12c0-1.18-.29-1.45-1.45-1.45C117.93,94.25,110.48,94.22,103,94.22Zm-.06-6.3h22.16c.69,0,1.47.26,1.24-1-2.25-12.69-15.06-21.71-27.54-19.08-10.19,2.16-16.57,8.45-19,18.66C79.52,87.69,79.72,88,81,88,88.3,87.89,95.64,87.92,103,87.92ZM73,193.34c0-4.43,0-8.86,0-13.28,0-.89-.25-1.13-1.13-1.12q-13.28,0-26.55,0c-.88,0-1.13.24-1.12,1.12q0,13.27,0,26.56c0,.88.23,1.14,1.12,1.12,3-.05,5.93-.07,8.9,0,1,0,1.28-.29,1.27-1.3,0-4.79,0-9.58,0-14.37,0-2.31,1.14-3.7,3-3.74s3.2,1.36,3.2,3.74c0,4.84,0,9.69,0,14.53,0,.87.22,1.15,1.12,1.13,3-.05,5.93-.06,8.9,0,1,0,1.29-.27,1.28-1.29C73,202.09,73,197.71,73,193.34Zm62.36-55.76c-2.38-3.64-4.68-7.14-6.94-10.66-.34-.53-.77-.43-1.21-.43H78.82c-.45,0-.87-.07-1.21.45-2.26,3.53-4.56,7-6.92,10.65ZM178.06,159c0,6.91,0,13.47,0,20,0,.82.24,1,1,1.08,2,.18,3.21,1.4,3.2,3.12s-1.14,2.9-3.23,3.12c-.83.08-1,.33-1,1.11q0,9.6,0,19.21c0,.9.27,1.12,1.14,1.11,3.85,0,7.7-.05,11.55,0,.91,0,1.11-.28,1.11-1.14q0-18.66,0-37.33c0-.51,0-1-.52-1.35C187,165,182.63,162.06,178.06,159Zm-31.26,0c-4.56,3.09-8.84,6-13.16,8.89-.6.4-.59.89-.59,1.47q0,18.58,0,37.17c0,.91.15,1.26,1.17,1.24,3.8-.07,7.6-.06,11.4,0,.92,0,1.24-.17,1.23-1.18-.05-6.35,0-12.7,0-19.05,0-.85-.19-1.12-1.08-1.21-2-.21-3.18-1.45-3.16-3.17s1.16-2.86,3.26-3.07c.71-.07,1-.21,1-1C146.79,172.48,146.8,165.87,146.8,159Zm15.61,48.66h8.28c.48,0,1.08.19,1-.69-.16-4.37.4-8.76-.31-13.1a9.18,9.18,0,0,0-18,0c-.7,4.18-.12,8.41-.32,12.62-.06,1.1.37,1.26,1.32,1.24C157.1,207.6,159.75,207.64,162.41,207.64Zm0-43.38c2.76,0,5.52,0,8.28,0,1,0,1.21-.28,1.18-1.22-.06-2.45,0-4.9,0-7.34a1.56,1.56,0,0,0-.76-1.53c-2.61-1.7-5.18-3.47-7.75-5.23a1.22,1.22,0,0,0-1.65-.07c-2.59,1.82-5.23,3.58-7.87,5.33a1.42,1.42,0,0,0-.75,1.37c0,2.55.05,5.1,0,7.65,0,.86.27,1,1.07,1C156.85,164.23,159.61,164.26,162.37,164.26Zm-82-6.56c2.39,0,4.79,0,7.18,0,.88,0,1.14-.23,1.13-1.12-.05-3.85-.05-7.71,0-11.56,0-.88-.24-1.13-1.12-1.12q-7,.06-14,0c-.88,0-1.14.23-1.13,1.12q.08,5.78,0,11.55c0,.88.23,1.15,1.12,1.13C75.79,157.65,78.08,157.7,80.37,157.7Zm22.83-13.76c-2.4,0-4.79,0-7.19,0-.88,0-1.13.23-1.12,1.12q.08,5.78,0,11.55c0,.88.24,1.13,1.12,1.13q7-.08,14,0c.88,0,1.14-.23,1.13-1.11q-.07-5.79,0-11.56c0-.88-.23-1.15-1.12-1.12C107.78,144,105.49,143.94,103.2,143.94Zm22.35,0c-2.35,0-4.69,0-7,0-.88,0-1.13.23-1.12,1.12q.06,5.78,0,11.55c0,.88.24,1.13,1.12,1.13q7-.08,14,0c.88,0,1.13-.23,1.12-1.12q-.06-5.78,0-11.55c0-.88-.23-1.14-1.12-1.12C130.23,144,127.89,143.94,125.55,143.94ZM46.39,172.45c.13.11.16.16.2.16,8.48,0,17,0,25.46.06.78,0,1-.28.94-1q-.06-3.36,0-6.72c0-.75-.2-1-1-1-6.87,0-13.75,0-20.62,0-.48,0-.9,0-1.17.53C49,167.19,47.67,169.83,46.39,172.45Zm116.06-1.94c-2.76,0-5.51,0-8.27,0-.84,0-1.17.16-1.15,1.09.07,2.44.06,4.88,0,7.32,0,.88.22,1.15,1.12,1.14q8.26-.06,16.52,0c.86,0,1.18-.19,1.15-1.11q-.09-3.66,0-7.33c0-.88-.24-1.13-1.12-1.12C168,170.55,165.2,170.52,162.45,170.51Z"/><path class="cls-3" d="M99.86,210.82c.45-2,1.46-3,3.1-3.09s2.79,1,3.25,3.09Q105.7,214,103,214C101.26,214,100.2,212.92,99.86,210.82Z"/><path class="cls-3" d="M94.59,185.81c0,3.07,0,6.13,0,9.2,0,2.07-1.31,3.55-3.1,3.57a3.25,3.25,0,0,1-3.14-3.52q0-9.19,0-18.4c0-2.07,1.3-3.55,3.1-3.57a3.25,3.25,0,0,1,3.14,3.52C94.6,179.68,94.59,182.74,94.59,185.81Z"/><path class="cls-3" d="M111.48,185.67c0-3,0-6,0-9a3.14,3.14,0,1,1,6.23,0q0,9.21,0,18.41a3.24,3.24,0,0,1-3.13,3.53c-1.79,0-3.1-1.49-3.1-3.56C111.47,191.91,111.48,188.79,111.48,185.67Z"/><path class="cls-3" d="M87.41,107.14c0-1.25,0-2.5,0-3.74a3.11,3.11,0,0,1,6.22-.05c.06,2.55,0,5.1,0,7.65a3.06,3.06,0,0,1-3.08,3.07,3.11,3.11,0,0,1-3.15-3.18C87.38,109.65,87.41,108.39,87.41,107.14Z"/><path class="cls-3" d="M106.16,107.15c0,1.25,0,2.5,0,3.75a3.12,3.12,0,1,1-6.24-.06c0-2.44,0-4.89,0-7.34a3.09,3.09,0,0,1,3.14-3.18,3.13,3.13,0,0,1,3.1,3.23C106.19,104.75,106.16,106,106.16,107.15Z"/><path class="cls-3" d="M118.66,107.28c0,1.25,0,2.5,0,3.75a3.11,3.11,0,0,1-6.22,0c-.05-2.55-.05-5.11,0-7.66a3.11,3.11,0,0,1,6.22,0C118.71,104.67,118.66,106,118.66,107.28Z"/></g></g></svg>