<svg xmlns="http://www.w3.org/2000/svg" viewBox="0 0 236.07 271.59"><defs><style>.cls-1{fill:#fdce76;}.cls-2{fill:none;stroke:#6c2912;stroke-miterlimit:10;stroke-width:2px;}.cls-3{fill:#6c2912;}</style></defs><g id="Capa_2" data-name="Capa 2"><g id="Capa_1-2" data-name="Capa 1"><rect class="cls-1" width="236.07" height="271.59" rx="35.2"/><line class="cls-2" x1="38" y1="238.5" x2="198.07" y2="238.5"/><path class="cls-3" d="M38,133.27q0-37.68,0-75.36c0-5,.57-5.45,5.46-4.51,15.33,2.94,30.67,5.84,46,8.94,2.77.56,3.5-.2,3.34-2.75a39,39,0,0,1,0-4.32,2.17,2.17,0,0,1,1.57-2.18,2.14,2.14,0,0,1,2.45,1,6.46,6.46,0,0,0,10,0c1.33-1.57,2.56-1.43,3.79.18,2.27,3,7.44,2.91,9.77-.05,1.41-1.78,2.66-1.68,4,.18,2,2.75,7.58,2.73,9.58,0,.7-1,1.42-1.64,2.67-1.26,1.41.43,1.69,1.63,1.7,2.86.05,4.09.23,8.19,0,12.26-.17,2.89.92,3.94,3.67,4.46,17.45,3.32,34.86,6.81,52.29,10.23,5.5,1.07,5.51,1,5.51,6.73v119c0,5.71-.19,5.89-5.86,5.89l-150.39,0c-5.2,0-5.5-.29-5.5-5.5Q38,171.14,38,133.27ZM79,210c10.81,0,21.62,0,32.43,0a5.57,5.57,0,0,0,4.92-2.27c3.57-4.52,7.15-9.07,11.08-13.27,2.53-2.7,3.22-5.69,3.31-9.15.06-2-.61-3-2.66-3.49-4.1-.89-8.17-2-12.21-3.07a3.82,3.82,0,0,0-4.41,1.39c-1.94,2.29-4,4.44-6.07,6.65-1.13,1.24-2.4,2.3-4,.86s-.39-2.59.58-3.7c1.5-1.72,3-3.46,4.52-5.14,1.35-1.48,1-2.18-.89-2.62-4.31-1-8.61-2.17-12.9-3.3a3.74,3.74,0,0,0-3.89,1.18C87,175.94,85,177.75,83,179.49a2.2,2.2,0,0,1-3.24,0c-1-1.06-.69-2.22.21-3.2.73-.8,1.58-1.48,2.32-2.27s2-1.27,1.8-2.48-1.7-1.14-2.68-1.4c-3.13-.83-6.27-1.67-9.44-2.31-8.77-1.78-17.19-5.47-26.44-4.61-2,.18-3.1.57-3.05,2.85.11,4.93,0,9.85,0,14.78a2.1,2.1,0,0,0,1.51,2.42c3,1.14,3.24,2.61.74,4.48a5.25,5.25,0,0,0-2.29,4.87c.12,4.57.18,9.14,0,13.69-.12,2.86.85,3.75,3.7,3.72C57.12,209.89,68.06,210,79,210ZM138.4,90.28v8.66c0,5.08,0,4.89,5,5.11,3.19.13,4.45-.93,4.06-4.09a21.77,21.77,0,0,1,0-3.61c.06-1.38.76-2.37,2.19-2.35s2.07,1.07,2.12,2.43c.06,1.68.11,3.36.08,5s.73,2.65,2.6,2.51a24,24,0,0,1,3.6,0c2.16.18,3.11-.71,3-2.89a50.06,50.06,0,0,1,.09-5,2.11,2.11,0,0,1,4.21,0c.12,1.8.08,3.6.14,5.4.05,1.23.13,2.28,1.81,2.59,5.86,1.11,7.3.05,7.41-5.71v-.36c.06-1.66-.23-3.8,2.11-3.88s2.21,2,2.27,3.71q.87,24.68,1.74,49.36c.38,10.59.4,10.51,10.58,13.32,2.93.81,3.8.15,3.78-2.89q-.15-26.14,0-52.29c0-2.35-.5-3.64-3.14-3.51-1.53.08-3.44.06-3.47-2.15,0-2.48,2-2.33,3.67-2.28,2.18.07,3.08-.88,2.92-3a18.14,18.14,0,0,1,0-3.61c.28-2.28-.84-3.23-2.92-3.63-17-3.28-34-6.55-50.91-10-2.67-.54-3.12.46-3,2.73C138.48,83.31,138.4,86.8,138.4,90.28Zm9,73.17h0c0-7.69-.08-15.38,0-23.07a8.73,8.73,0,0,1,6.5-8.53,9.16,9.16,0,0,1,10.13,3.67c1.95,2.91,1.36,6.26,1.45,9.46.26,9.67-1.55,7.05,7.75,10.18,2.86,1,3.26-.1,3.16-2.58q-.84-20.52-1.51-41c-.07-2.08-.72-3.05-2.95-3q-15.5.09-31,0c-2.15,0-3,.81-3.06,2.93-.17,5.76-.66,11.52-.8,17.25-.4,17.41-1.44,34.79-2,52.19-.32,10.17-1.89,8.37,8.56,8.67,2.81.08,3.82-.91,3.77-3.75C147.34,178.35,147.44,170.9,147.44,163.45Zm-15.85-.25h-.13c.18-3.72.38-7.44.53-11.17,0-1.15.37-2.66-1.24-3-2.7-.53-5.45-.86-8.19-1.13-1-.1-1.34.85-1.37,1.75,0,1.09,0,2.17,0,3.25,0,1.5-.23,3.1-2.13,3.18-2.19.1-2.3-1.63-2.39-3.27-.34-5.94-.35-5.94-6.38-6.58a15.2,15.2,0,0,1-2.15-.23c-2.92-.76-4,.45-3.79,3.31.1,1.54.11,3.44-2.12,3.45s-2.49-1.73-2.22-3.36c.6-3.67-1-5.05-4.52-5a17.54,17.54,0,0,1-3.21-.42c-2.07-.35-3.65-.12-3.48,2.58.1,1.51-.55,2.71-2.17,2.72-1.82,0-2.57-1.38-2.35-3,.38-2.81-1.15-3.58-3.48-3.77a30.58,30.58,0,0,1-4.29-.45c-1.77-.4-3-.47-3.22,1.89A2,2,0,0,1,71,145.94a2,2,0,0,1-2-2.1c.14-2.61-1.43-2.85-3.43-3a42.1,42.1,0,0,1-6.42-.84c-2-.44-2.92.07-2.89,2.25.06,4.81.07,9.61,0,14.42,0,1.93.79,2.79,2.58,3.23q34.62,8.56,69.2,17.22c2.38.59,3-.27,3-2.43C131.14,170.88,131.39,167,131.59,163.2Zm63.64,23.9V175.58c0-10,0-10-9.68-12.24a2,2,0,0,1-.35-.1c-2-.83-2.59.18-2.59,2s0,3.85-.09,5.77a2.12,2.12,0,0,1-1.93,2.24,2.26,2.26,0,0,1-2.46-2.12,13.94,13.94,0,0,1-.13-2.51c-.08-7.54-.07-7.54-7.42-9.63-4.8-1.36-4.78-1.36-5,3.65-.07,1.63.24,3.74-2.22,3.76s-2.16-2.1-2.21-3.74c-.2-6.51-.23-6.38-6.24-8.07-2.39-.67-3-.06-2.95,2.2q.07,15.5,0,31a3.33,3.33,0,0,0,2.41,3.48q18.88,8,37.68,16.23c2.78,1.22,3.26.17,3.21-2.37C195.16,199.11,195.23,193.11,195.23,187.1ZM92.74,91.65h0c0-7,0-13.93,0-20.89,0-1.82-.16-3.28-2.4-3.71-15.06-2.9-30.11-5.87-45.18-8.79-.89-.18-1.89-.42-2.49.75-1.58,3.11.32,7.83,3.58,8.67,1.47.38,3,.73,2.71,2.66S47.08,72.26,45.61,72c-2.51-.53-3.13.61-3.09,2.9.1,5,.08,10.08,0,15.12,0,2.25.07,4.32,3.12,3.79,2.36-.4,6.34,1.91,6.08-3.37-.07-1.48.17-3.12,2.09-3.21,2.15-.1,2.56,1.62,2.37,3.24-.45,4,2.31,3.37,4.66,3.4s5.07.45,4.58-3.47c-.18-1.5.18-3.1,2.09-3.17,2.15-.07,2.29,1.63,2.4,3.27.08,1.12-.48,2.77,1,3.11a13.43,13.43,0,0,0,7.12-.09c1.68-.56.81-2.53,1-3.87s.65-2.4,2.14-2.43c1.7,0,2.21,1.17,2.32,2.61.08,1,0,1.92,0,2.88,0,7.92,0,15.85,0,23.77,0,.91-.63,2.37,1.12,2.54,3,.28,8-4.44,8-7.51Q92.76,101.56,92.74,91.65Zm41.05-.83c0-8.89,0-17.78,0-26.67,0-2.08-.3-3.4-2.9-3.37-10.33.1-20.66.06-31,0-1.74,0-2.63.47-2.62,2.43,0,15.61,0,31.23,0,46.85,0,.77-.25,1.78,1,2,2.64.45,8.1-4.26,8.12-7,0-4.32-.12-8.66.09-13a8.62,8.62,0,0,1,8.28-8.42,8.78,8.78,0,0,1,9.48,7.06,20.42,20.42,0,0,1,.4,4.28c0,7.57.12,15.14,0,22.71,0,2.67.79,3.77,3.49,3.48,2.33-.24,5.08.89,5.23-3.35Q133.85,104.32,133.79,90.82ZM42.55,128.46c0,9,.13,18-.07,27-.08,4.12,2.63,3.11,4.86,3.22s4.5.34,4.4-3.32c-.21-7.92-.1-15.86,0-23.8,0-6.32,3.6-10.35,9-10.41s9.08,4,9.16,10.28c.08,5.89-.83,5,5.75,6.08,2.43.41,3.53-.21,3.5-2.92q-.17-16.41,0-32.81c0-2.66-.83-3.55-3.51-3.52q-14.79.19-29.57,0c-2.64,0-3.59.73-3.55,3.46C42.63,110.67,42.54,119.57,42.55,128.46Zm141,80.83c-.54-1.11-1.69-1.29-2.61-1.68-9.58-4.14-19.15-8.28-28.76-12.34-5.77-2.45-11.83-1.09-17.77-1.09-1.32,0-2,1.23-2.75,2.14q-4.16,5-8.24,10c-.71.89-2.21,1.66-1.66,2.92s2.14.69,3.26.7q27.72,0,55.45,0C181.42,209.94,182.57,210.37,183.51,209.29Zm-63.43-93.48c0-2.74,0-4.66,0-6.58,0-1-.27-2.31-1.51-1.8a60.07,60.07,0,0,0-8,4c-1.61,1-.74,2.86-.87,4.34s-.52,2.4-1.87,2.72a2,2,0,0,1-2.55-1.88c-.34-2.38-1.48-1.81-3-1.17-3.13,1.32-5.91,2.69-5,7a2.33,2.33,0,0,1-1.89,3,2,2,0,0,1-2.48-2c-.12-3.5-1.88-2.5-3.73-1.52-1,.51-1.92,1-2.88,1.48-1.25.66-2.74,1.09-2.61,3,.27,3.91-.65,7.87.53,11.74a.46.46,0,0,0,.3.18c3.93.65,7.89,2.39,11.76-.2,6-4,11.77-8.32,18-12C118.72,123.51,121.48,120.5,120.08,115.81Zm-18.42,24,.21,1q14.19,1.74,28.37,3.49c1.33.16,2-.53,2.07-1.86.19-4.91.39-9.82.56-14.73,0-.92-.27-1.78-1.31-1.81-3-.08-6.41-1.11-8.88.33C115.47,130.38,108.64,135.2,101.66,139.78Zm9.4-41.89H111c0,1.9,0,3.81,0,5.72,0,.69-.08,1.48.89,1.7,1.2.27,8.07-3.88,8.11-5.08a57.79,57.79,0,0,0-.08-8.22c-.26-2.45-2-3.74-4.49-3.71a4,4,0,0,0-4.34,3.86A54.72,54.72,0,0,0,111.06,97.89ZM161,145a32.18,32.18,0,0,0,0-5,4.49,4.49,0,0,0-6.11-3.72,4,4,0,0,0-2.73,3.86c0,3-1,6.17.76,9,.15.24.65.27,1,.41C160.39,152.31,161.05,151.89,161,145ZM65.38,132.18c0-4.34-1.62-6.45-4.69-6.38s-4.5,2.17-4.45,6.07c0,3.38,1.08,3.88,6.66,4.06C66.3,136,65.1,133.65,65.38,132.18Z"/><path class="cls-3" d="M53.08,181.51a2,2,0,0,1-2.24-1.14,2,2,0,0,1,.31-2.36,24,24,0,0,1,6.15-4.28,2.17,2.17,0,0,1,2.87.76c.82,1.18.17,2.13-.7,2.8C57.42,178.91,55.44,180.68,53.08,181.51Z"/><path class="cls-3" d="M98.19,194.11a3.51,3.51,0,0,1-3.2,3.07,1.79,1.79,0,0,1-2.06-2,3.34,3.34,0,0,1,3-3.41C97.35,191.64,98.17,192.42,98.19,194.11Z"/><path class="cls-3" d="M165.6,121.7c-.09,1.68.08,3.75-2.28,3.74s-2.15-2.1-2.17-3.75-.15-3.77,2.2-3.76S165.51,120,165.6,121.7Z"/><path class="cls-3" d="M151.91,121.61c-.14,1.55.3,3.69-2.08,3.82s-2.39-1.86-2.36-3.59-.27-3.74,2.07-3.88S151.81,119.88,151.91,121.61Z"/><path class="cls-3" d="M72.9,77.51c-1.57-.56-4.48.16-4.44-3,0-1.81,1.66-2.11,3.23-1.76,2,.43,4.75-.1,4.75,3C76.44,77.73,74.69,77.68,72.9,77.51Z"/><path class="cls-3" d="M58.81,74.7c-1.33-.28-3.68,0-3.68-2.77,0-1.7,1.37-2.16,2.81-1.89,1.88.36,4.51,0,4.56,2.91C62.53,74.84,60.81,74.93,58.81,74.7Z"/><path class="cls-3" d="M106.45,74c0-1.66-.16-3.73,2.11-3.82S111,72,111,73.74s.13,3.65-2.18,3.77S106.48,75.67,106.45,74Z"/><path class="cls-3" d="M120.12,74c0-1.66-.11-3.7,2.15-3.81s2.38,1.89,2.4,3.59,0,3.66-2.21,3.78S120.14,75.66,120.12,74Z"/><path class="cls-3" d="M56.23,111.86c-.07,1.47-.06,3.45-2.45,3.29s-2.09-2.22-2.08-3.87.11-3.73,2.42-3.56S56.21,109.93,56.23,111.86Z"/><path class="cls-3" d="M69.9,111.7c-.08,1.63,0,3.62-2.45,3.42s-2-2.25-2-3.87.08-3.71,2.4-3.52S69.86,110,69.9,111.7Z"/></g></g></svg>