<svg xmlns="http://www.w3.org/2000/svg" viewBox="0 0 236.07 271.59"><defs><style>.cls-1{fill:#c98b5f;}.cls-2{fill:none;stroke:#6c2912;stroke-miterlimit:10;stroke-width:2px;}.cls-3{fill:#6c2912;}</style></defs><g id="Capa_2" data-name="Capa 2"><g id="Capa_1-2" data-name="Capa 1"><rect class="cls-1" width="236.07" height="271.59" rx="35.2"/><line class="cls-2" x1="33.4" y1="237.8" x2="193.47" y2="237.8"/><path class="cls-3" d="M27.55,174.21q8.34-8.44,16.7-16.89a3.77,3.77,0,0,1,3-1.24c1.28.06,2.57,0,3.85,0a3.39,3.39,0,0,1,3.42,3.73,3.07,3.07,0,0,1-3.32,3c-2.15-.2-3.51.73-4.88,2.2-2.15,2.31-4.48,4.46-6.8,6.74a2.54,2.54,0,0,0,1.7.29c14.26,0,28.51,0,42.77,0,1.43,0,2-.29,1.87-1.83a52.24,52.24,0,0,1,0-5.87c0-1.13-.24-1.64-1.47-1.53a24.24,24.24,0,0,1-3.19,0,3.42,3.42,0,0,1-3.38-3.08,3.54,3.54,0,0,1,3.32-3.71c1.29-.06,2.58-.05,3.86,0,.74,0,1-.24,1-1,0-1.45,0-2.9,0-4.36a3.25,3.25,0,0,1,3.35-3.4h.16c1.45,0,3.37.46,4.2-.27,1-.86.26-2.83.32-4.32s.09-3.14,0-4.7a4.09,4.09,0,0,1,1.65-3.81,2.64,2.64,0,0,0,1.09-2.43c0-8.66,0-17.33,0-26,0-2.72.63-3.67,3.21-4.27,1.06-.25.81-.88.81-1.48q0-6.54,0-13.08a7.94,7.94,0,0,1,.55-2.93c2.77-7.23,5.46-14.5,8.29-21.71.78-2,.42-3.95.56-5.94,0-.68-.45-.59-.9-.66-2.1-.3-3.21-1.49-3.2-3.37s1.09-3,3.26-3.3c.65-.08.79-.28.86-.89.27-2.3,1.4-3.46,3.29-3.49s3.07,1,3.41,3.5c.09.63.29.79.9.88,2.14.33,3.2,1.52,3.17,3.4s-1.08,3-3.14,3.25c-.75.1-.91.37-.91,1a16.37,16.37,0,0,0,.94,6.55c2.7,6.78,5.21,13.64,7.85,20.45a9.33,9.33,0,0,1,.62,3.42c0,4.25,0,8.5,0,12.75,0,.91,0,1.48,1.21,1.69,2.07.36,2.82,1.52,2.82,3.9q0,13,0,26a3.09,3.09,0,0,0,1.19,2.91,3.75,3.75,0,0,1,1.48,3.37c-.07,2.57.1,5.15-.06,7.71-.1,1.63.51,2,2,1.86a19.36,19.36,0,0,1,2.85,0,3.23,3.23,0,0,1,3.27,3.3,33.13,33.13,0,0,1,0,3.86c-.11,1.24.27,1.6,1.55,1.58,7.83-.06,15.65,0,23.48,0,4.53,0,9.06,0,13.59,0a4.06,4.06,0,0,1,3.13,1.29q7.6,7.68,15.27,15.32a4.5,4.5,0,0,1,1.39,3.44c0,7.66,0,15.32,0,23,0,2.77-1.19,3.94-4,3.94q-81.84,0-163.69,0A4.85,4.85,0,0,1,27.55,201Zm65.09,1c0,6.6,0,13.19,0,19.79,0,1,.15,1.44,1.26,1.36a29.3,29.3,0,0,1,4.19,0c1.1.08,1.29-.38,1.27-1.35,0-2.68,0-5.37,0-8a58.93,58.93,0,0,1,.14-7.87,14,14,0,0,1,15.23-12.25c7.32.6,12.81,6.78,12.82,14.45,0,4.58,0,9.17,0,13.75,0,1,.26,1.39,1.31,1.32a24.87,24.87,0,0,1,3.86,0c1.25.11,1.58-.3,1.57-1.56q-.06-19.53,0-39.07c0-1.27-.28-1.68-1.63-1.67q-19.2.08-38.4,0c-1.41,0-1.61.49-1.6,1.72C92.67,162.25,92.64,168.73,92.64,175.21ZM187,172.08l.27-.38-8.55-8.43a1.57,1.57,0,0,0-1.24-.36q-17.61,0-35.21,0c-.94,0-1.29.27-1.26,1.24.05,2.23.05,4.47,0,6.7,0,.92.24,1.27,1.22,1.27Q164.63,172.07,187,172.08ZM123.46,129c0-6.56,0-13.09,0-19.62,0-.76-.34-1-1-1q-9,0-17.94,0c-.77,0-1.1.24-1.09,1.06,0,6.47,0,13,0,19.45C116.06,126.11,115,127.15,123.46,129Zm-69,50c-6.46,0-12.88,0-19.3,0-1.14,0-.88.77-.88,1.38,0,4.86,0,9.73,0,14.59,0,1.22.39,1.47,1.52,1.46,5.43-.06,10.85-.07,16.27,0,1.29,0,1.65-.31,1.69-1.64C53.89,189.48,53,184.21,54.47,178.93Zm117.79,0a15.5,15.5,0,0,1,.92,5.51c-.05,3.52,0,7,0,10.56,0,.81,0,1.35,1.11,1.34,5.76-.05,11.52,0,17.28,0,.81,0,1-.29,1-1.07q0-7.63,0-15.26c0-.77-.2-1.09-1-1.08C185.18,178.94,178.82,178.93,172.26,178.93Zm-51.49,9h0c0-2.4.07-4.8,0-7.2a7.32,7.32,0,0,0-14.63.06c-.09,4.8,0,9.6,0,14.39,0,1,.39,1.19,1.28,1.18,4.08,0,8.15,0,12.22,0,1,0,1.25-.3,1.22-1.24C120.73,192.69,120.77,190.29,120.77,187.89Zm-7.36-40.53c3.8,0,7.6-.05,11.4,0,1.12,0,1.42-.34,1.37-1.41-.07-2-.07-4,0-6a2.15,2.15,0,0,0-1-1.94,19.47,19.47,0,0,0-23.52,0,2.26,2.26,0,0,0-1,2.09c.06,2,.1,3.91,0,5.86-.07,1.24.4,1.47,1.52,1.45C105.92,147.32,109.67,147.36,113.41,147.36ZM75.67,178.93a16.87,16.87,0,0,1,.9,5.42c-.07,3.58,0,7.16,0,10.74,0,.92.22,1.28,1.21,1.25,2.34-.06,4.7-.06,7,0,.91,0,1.13-.31,1.13-1.16q-.06-7.55,0-15.1c0-.84-.19-1.18-1.11-1.17C81.83,179,78.87,178.93,75.67,178.93Zm75.39,0c-3.05,0-6.07,0-9.08,0-1,0-1,.52-1,1.26,0,5,0,10,0,14.92,0,.93.23,1.28,1.21,1.25,2.18-.07,4.37-.11,6.54,0,1.37.08,1.61-.41,1.65-1.68C150.5,189.45,149.68,184.19,151.06,178.93ZM69.77,189.38v-5.7A4.76,4.76,0,0,0,65.09,179a4.65,4.65,0,0,0-4.6,4.61c-.08,3.91,0,7.82,0,11.73,0,.85.34,1,1.09,1,2.41,0,4.81,0,7.21,0,.82,0,1-.3,1-1.07C69.75,193.29,69.77,191.33,69.77,189.38Zm96.62-.06h0c0-1.9.06-3.81,0-5.7a4.64,4.64,0,1,0-9.27,0c-.08,3.86,0,7.71,0,11.57,0,.9.31,1.14,1.16,1.12,2.35,0,4.7,0,7,0,.88,0,1.17-.26,1.15-1.14C166.35,193.23,166.39,191.27,166.39,189.32Zm-47-93.78c0-1.56,0-3.13,0-4.68,0-1-.29-1.26-1.24-1.25q-4.75.06-9.53,0c-1,0-1.25.33-1.23,1.27q.06,4.68,0,9.36c0,1,.33,1.27,1.26,1.26q4.77-.06,9.54,0c1,0,1.24-.36,1.21-1.28C119.39,98.66,119.43,97.1,119.43,95.54Zm-6-24.43C112,75,110.68,78.47,109.36,82c-.36,1,.43.7.83.7,2.18,0,4.35,0,6.53,0,1,0,1-.37.73-1.2C116.15,78.2,114.9,74.87,113.47,71.11Z"/><path class="cls-3" d="M66.11,162.91a3.41,3.41,0,0,1-3.41-3.19,3.54,3.54,0,0,1,3.55-3.62,3.43,3.43,0,0,1,3.35,3.76A3.31,3.31,0,0,1,66.11,162.91Z"/><path class="cls-3" d="M113.42,114.41a3.26,3.26,0,0,1,3.42,3.31,3.42,3.42,0,0,1-3.32,3.48,3.57,3.57,0,0,1-3.47-3.38A3.35,3.35,0,0,1,113.42,114.41Z"/></g></g></svg>