<svg xmlns="http://www.w3.org/2000/svg" viewBox="0 0 93.48 93.71"><defs><style>.cls-1{fill:#c98b5f;}</style></defs><g id="Capa_2" data-name="Capa 2"><g id="Capa_1-2" data-name="Capa 1"><path class="cls-1" d="M32.73,89.28c0-1.34,0-2.54,0-3.73A2,2,0,0,0,32,84.11a10.73,10.73,0,0,1-1.64-1.79,4.41,4.41,0,0,1-.75-2.47c0-1.2,0-2.4,0-3.6a4.46,4.46,0,0,1,4.51-4.5,5.16,5.16,0,0,0,4.49-1.89c1.87-2.07,3.93-4,5.89-6a4.81,4.81,0,0,1,3.74-1.55c1.07,0,2.14,0,3.21,0A4.61,4.61,0,0,1,56.09,67q0,2.39,0,4.77a4.64,4.64,0,0,1-4.36,4.61c-1.32.08-1.78.64-1.88,2a3.59,3.59,0,0,0,1.38,3.42A23.09,23.09,0,0,1,53,83.46a4.81,4.81,0,0,1,1.59,3.82c0,1.06,0,1.06,1,.68a42,42,0,0,0,4.18-1.83c.44-.22.69-.35.28-.88a4.41,4.41,0,0,1-.82-2.83q0-18.49,0-37a4.61,4.61,0,0,1,4.87-4.87c1.75,0,3.5,0,5.26,0,.56,0,.78-.1.78-.74,0-4.93,0-9.86,0-14.79a1.21,1.21,0,0,0-.38-.94,43,43,0,0,0-5-4.29.68.68,0,0,0-1,0c-.5.41-1.07.75-1.54,1.19s-.89.52-1.28-.14S59.6,19.74,59.7,19.1s1-.94,1.57-1.45a35.25,35.25,0,0,0-5.14-2.49c-.49-.2-.6.25-.86.44s-.37.58-.2,1q1.95,4.82,3.86,9.64c.37.93.77,1.85,1.07,2.81a4.18,4.18,0,0,1-.79,4.29c-1.6,1.72-3.37,3.3-5.11,5l-.53-.94c-2.23-4-4.48-8-6.69-12.06-.36-.66-.57-.83-1.18-.2C42.87,28,40,30.87,37.12,33.75a1.75,1.75,0,0,1-1.44.59c-1.2,0-2.4,0-3.73,0,.78,1.94,1.49,3.81,2.28,5.64a1.27,1.27,0,0,1-.32,1.68c-1.93,1.84-3.78,3.75-5.66,5.63-.22.22-.46.43-.77.72-1-2.45-2.06-4.77-2.85-7.19a4.32,4.32,0,0,0-3.07-3.05c-2.15-.7-4.22-1.64-6.32-2.5-.26-.1-.58-.13-.78-.48,2.22-2.21,4.45-4.42,6.66-6.65.33-.33.62-.22,1-.08,2,.79,3.9,1.56,6,2.38,0-1.28,0-2.47,0-3.65a2,2,0,0,1,.68-1.6c2.86-2.82,5.68-5.69,8.55-8.51.56-.55.58-.8-.16-1.12a7.7,7.7,0,0,1-1.77-1,4.11,4.11,0,0,0-4.15-.48A39.18,39.18,0,0,0,8,32.69a.94.94,0,0,0,.24,1.38c1.43,1.37,2.81,2.79,4.21,4.19a4.9,4.9,0,0,1-3.6,8.53c-1.56,0-3.12,0-4.67,0-.53,0-.79.14-.81.69-.05,1.62-.26,3.23-.2,4.85,0,.56.21.72.75.71,1.65,0,3.31,0,5,0a3.4,3.4,0,0,0,2.37-1c2.83-2.65,6.19-2.57,9,.19,1.29,1.28,2.74,2.45,3.06,4.38.44,2.58.19,5-1.87,6.89-1.09,1-2.11,2.11-3.18,3.15a3.33,3.33,0,0,0-1,2.14c-.33,3.69-2.35,5.75-6,6-.13.32.15.46.29.65a35.29,35.29,0,0,0,5.18,5.4c.44.37.5.58.1,1.06-1.6,1.94-1.59,2-3.4.25a42.1,42.1,0,0,1,14.85-70.5,2.31,2.31,0,0,0,1.09-.49L24,8.25c1.67-1.7,3.22-3.41,4.91-5a4.42,4.42,0,0,1,4.9-.75c3.85,1.52,7.7,3,11.53,4.62a1.38,1.38,0,0,0,1.83-.37,19.78,19.78,0,0,1,7.76-5.7,17.91,17.91,0,0,1,6.77-1c.54,0,.62.22.64.69A16.54,16.54,0,0,1,58.67,12c-.12.15-.22.32-.4.57a46.68,46.68,0,0,1,5.59,2.87c.29.18.47,0,.69-.12A111.16,111.16,0,0,1,81,6a1,1,0,0,0,.2-.17C79.31,4.85,77.48,3.9,75.62,3c-.6-.28-.67-.54-.33-1.07S75.79.2,76.44,0s1.32.52,2,.85C81,2.14,83.5,3.45,86.07,4.67c.7.33.7.62.39,1.22-1.52,3-3,6-4.47,9-.31.63-.58.67-1.17.37-2-1-2.06-1-1-3.1.41-.81.8-1.62,1.34-2.7A99.92,99.92,0,0,0,67,17.5c1.17,1,2.29,1.9,3.39,2.85.47.41.53-.08.68-.3A6.24,6.24,0,0,1,82.57,23.2q0,8.18,0,16.35c0,.79.16,1.06,1,1,1.78-.07,3.57,0,5.35,0a4.6,4.6,0,0,1,4.57,4.59q0,18.8,0,37.57a4.57,4.57,0,0,1-4.61,4.55Q77,87.3,65,87.27a3,3,0,0,0-1.56.41,41.76,41.76,0,0,1-23.9,5.78A40.82,40.82,0,0,1,26.63,90.6c-.54-.21-.75-.39-.48-1,.91-2.16.87-2.16,3.1-1.38C30.35,88.58,31.47,88.89,32.73,89.28Zm29.6-25.46q0,9.1,0,18.2c0,1.61.54,2.15,2.17,2.15H88.14c1.7,0,2.22-.52,2.22-2.2V45.87c0-1.68-.52-2.2-2.22-2.2H64.59c-1.76,0-2.26.5-2.26,2.25ZM47,19.15c.32.51.51.81.68,1.11,2.27,4.08,4.55,8.14,6.78,12.24.39.72.66.74,1.12.13a2.43,2.43,0,0,1,.48-.48c1.13-.84,1.16-1.82.63-3.08-1.8-4.33-3.49-8.7-5.26-13a1,1,0,0,1,.27-1.35c1.26-1.21,2.5-2.46,3.72-3.71A13.69,13.69,0,0,0,59,4.18c.17-.81-.1-.88-.78-.73a13.29,13.29,0,0,0-5.83,2.73,59,59,0,0,0-4.45,4.35,1.36,1.36,0,0,1-1.76.36C41.77,9.1,37.37,7.39,33,5.6a1.92,1.92,0,0,0-2.52.5,3.44,3.44,0,0,1-.27.27c-1.12,1.12-1.12,1.12.23,1.86,4,2.2,7.91,4.43,11.89,6.59.73.39.68.59.14,1.12C38.93,19.45,35.42,23,31.87,26.51a1.94,1.94,0,0,0-.7,1.69c.07,1-.31,2.26.18,2.81s1.89.12,2.88.21a1.83,1.83,0,0,0,1.61-.65c3.46-3.5,7-7,10.44-10.47A8.67,8.67,0,0,0,47,19.15Zm6,50.22V67.23a1.64,1.64,0,0,0-1.77-1.75c-.88,0-1.76,0-2.63,0a2.45,2.45,0,0,0-2,.82c-2.32,2.36-4.67,4.69-7,7a4.67,4.67,0,0,1-3.65,1.5c-.52,0-1,0-1.56,0-.79,0-1.51.42-1.54,1.21-.1,2.1-.72,4.33,1.47,5.95a4.22,4.22,0,0,1,1.55,3.72c0,1.13,0,2.27,0,3.4,0,.66.25.85.83.89,1.19.1,2.38.25,3.58.32a38.31,38.31,0,0,0,10.51-.93c.28-.06.67,0,.68-.52,0-1.33.21-2.69-1.13-3.61-.39-.28-.66-.72-1-1a6.61,6.61,0,0,1-2.54-6.06c.17-2.82,1.74-4.67,4.57-4.92A1.64,1.64,0,0,0,53,71.51C53,70.8,53,70.09,53,69.37ZM7,56.13c-.87,0-1.75.06-2.62,0s-.91.27-.8,1A42.79,42.79,0,0,0,7.77,69.89,2.8,2.8,0,0,0,11,71.74c1.86-.19,3-1.19,3.09-3.06a5.93,5.93,0,0,1,1.77-4.08c1.09-1.11,2.2-2.2,3.29-3.3a3.86,3.86,0,0,0,0-5.63L17.9,54.43c-1.49-1.47-3-1.51-4.51-.07a6,6,0,0,1-4.47,1.77C8.28,56.11,7.63,56.13,7,56.13ZM79.46,31.67c0-2.69,0-5.37,0-8.06a3.16,3.16,0,0,0-3.12-3.29,3.13,3.13,0,0,0-3.09,3.21c0,5.45,0,10.89,0,16.33,0,.55.15.72.71.71,1.55,0,3.11-.06,4.66,0,.77,0,.9-.25.89-.94C79.44,37,79.46,34.33,79.46,31.67Zm-59.59,2c2,.79,3.74,1.52,5.51,2.19A1.72,1.72,0,0,1,26.49,37c.58,1.54,1.22,3.06,1.8,4.6.23.62.45.89,1,.23a7.55,7.55,0,0,1,1.09-1.1.91.91,0,0,0,.24-1.26c-.67-1.61-1.31-3.23-1.94-4.85a1.24,1.24,0,0,0-.74-.82l-5.13-2c-.31-.12-.57-.23-.87.06C21.3,32.41,20.65,33,19.87,33.7ZM6.19,36.51A35.37,35.37,0,0,0,4.12,43c0,.27-.35.72.35.71,1.59,0,3.18,0,4.76,0a1.65,1.65,0,0,0,1.56-1.13,1.58,1.58,0,0,0-.38-1.79C9.05,39.34,7.66,38,6.19,36.51Z"/><path class="cls-1" d="M21.19,93.69c-.25,0-.5-.12-.76-.15-1.7-.26-1.71-.26-1.49-1.92A114.62,114.62,0,0,1,25.33,65.5,107.81,107.81,0,0,1,45.06,32.72c.41-.47.67-.56,1.12-.07s1.47,1,1.57,1.61-.83,1.14-1.31,1.7a104,104,0,0,0-22,43C23.36,83.46,22.65,88,22,92.61,21.94,93.07,22.15,93.84,21.19,93.69Z"/><path class="cls-1" d="M56.09,50.73c0,.78,0,1.55,0,2.33a2.92,2.92,0,0,1-3.09,3,4.41,4.41,0,0,0-4.25,1.82,3.48,3.48,0,0,1-3.17,1.35c-1.19-.07-2.39,0-3.59,0a3.14,3.14,0,0,1-3-3,4.29,4.29,0,0,1,1.57-3.87c.67-.56,1.22-1.25,1.87-1.84a3.19,3.19,0,0,0,1.31-2.62,2.88,2.88,0,0,1,2.78-2.62c2.27,0,4.54,0,6.81,0a3,3,0,0,1,2.8,2.85C56.12,49,56.09,49.85,56.09,50.73ZM50,48.41v-.07H47.34c-.37,0-.64,0-.59.51a3.75,3.75,0,0,1-1.53,3.28c-1,.91-1.9,1.86-2.82,2.81-.48.5-.44,1.17,0,1.17,1.88,0,3.88.51,5.22-1.52A3.81,3.81,0,0,1,51.39,53C53,53.1,53,53,53,51.38c0-1,.43-2.32-.21-2.87S50.93,48.41,50,48.41Z"/><path class="cls-1" d="M67.81,93.51c-2.53,0-2.52,0-2.38-2.52,0-.47.17-.61.62-.6,1.16,0,2.33,0,3.49,0,.4,0,.63.1.57.54v.19C70.18,93.51,70.18,93.51,67.81,93.51Z"/><path class="cls-1" d="M86.5,93.51c-2.53,0-2.52,0-2.38-2.52,0-.46.16-.61.62-.6,1.16,0,2.32,0,3.49,0,.39,0,.63.09.57.54v.19C88.87,93.51,88.87,93.51,86.5,93.51Z"/><path class="cls-1" d="M70.11,64c0,5.35,0,10.7,0,16,0,.7-.1,1-.93,1-2.2,0-2.2,0-2.2-2.23q0-15.51,0-31c0-.89.25-1.06,1.08-1,2,.06,2,0,2,2.08Z"/><path class="cls-1" d="M77.9,64c0,5.35,0,10.7,0,16,0,.7-.09,1-.92,1-2.2,0-2.2,0-2.2-2.23,0-10.34,0-20.68,0-31,0-.88.25-1.06,1.08-1,2.06.06,2.06,0,2.06,2.08Z"/><path class="cls-1" d="M85.69,64c0,5.38,0,10.77,0,16.15,0,.79-.23,1-1,.95-2.15,0-2.15,0-2.15-2.18,0-10.34,0-20.68,0-31,0-.91.26-1.13,1.12-1.1,2,.06,2,0,2,2Z"/></g></g></svg>