<svg xmlns="http://www.w3.org/2000/svg" viewBox="0 0 236.07 271.59"><defs><style>.cls-1{fill:#fdce76;}.cls-2{fill:none;stroke:#6c2912;stroke-miterlimit:10;stroke-width:2px;}.cls-3{fill:#6c2912;}</style></defs><g id="Capa_2" data-name="Capa 2"><g id="Capa_1-2" data-name="Capa 1"><rect class="cls-1" width="236.07" height="271.59" rx="35.2"/><line class="cls-2" x1="35.26" y1="237.8" x2="195.33" y2="237.8"/><path class="cls-3" d="M44.59,226c0-1.29.08-2.59,0-3.88-.09-1.14.37-1.44,1.42-1.36s2.06,0,3.41,0a20.44,20.44,0,0,1-3.46-5.5c-2.33-6.19-1.65-12.24,1.18-18,4.41-9,11.43-15,21.39-17a18.45,18.45,0,0,1,15.7,3.38c.91.7,1.18.21,1.64-.42,2.9-4,6.62-7,11.56-8.08,6.46-1.4,12,.63,16.52,5.24a26.42,26.42,0,0,1,7.43,16.17c.11,1,.31,1.36,1.41,1a39.57,39.57,0,0,1,10.61-2.11c.89-.07,1.09-.42,1.07-1.24-.17-6.83-.33-13.67-.44-20.51,0-1.14-.39-1.45-1.54-1.46-6.26-.06-12.54.35-18.79-.23-9.82-.91-18.57-9.33-20-19.06a51.73,51.73,0,0,1-.32-5.26c0-.83.15-1.19,1.09-1.18,7.92,0,15.85-.11,23.78.1a21.08,21.08,0,0,1,12.64,4.93l1.07.87a34,34,0,0,0-.88-5.78,89.22,89.22,0,0,0-2.57-9.89c-.27-.86-.53-1.19-1.6-.89a10.18,10.18,0,0,1-12.9-8.66c-.11-.89-.33-1.15-1.24-1.28a9.87,9.87,0,0,1-8.69-7.37,9.69,9.69,0,0,1,3.36-10.72c.81-.69.86-1,0-1.67-4.43-3.83-9-7.44-13.84-10.89-.43.52-.2,1.1-.23,1.63-.16,3.87.3,7.76-.29,11.63-1.22,7.91-8.49,15.53-19.36,15-.53,0-.92-.09-.9-.75.15-6.83-.42-13.67.32-20.48a16,16,0,0,1,4-8.58c.27-.31.54-.63.79-1,0,0,0-.1,0-.22A23.12,23.12,0,0,1,61.53,82.5a23.73,23.73,0,0,1-4.17-14.66c0-.68.12-1.06.93-1,5.27.18,10.56-.35,15.82.33C83.23,68.3,91.75,76.7,93,85.86c.27,1.89.77,3.42,2.63,4.31a22.47,22.47,0,0,1,2.79,1.92c0-2.48,0-4.68,0-6.87.14-7,3.1-12.44,9.16-16.07a18.62,18.62,0,0,1,10.59-2.36c.77,0,1,.33,1,1-.14,6.42.39,12.86-.29,19.25a16.86,16.86,0,0,1-8.15,12.75c-1.16.75-1.32,1.17-.19,2a12,12,0,0,1,2.4,2.2c1.09,1.41,2.68,1.36,4.14,1.75.78.21.81-.49,1.06-.87a10.24,10.24,0,0,1,17.85,1,10.05,10.05,0,0,1-2.53,12.25c-1,.83-1.26,1.27-.47,2.51a9.48,9.48,0,0,1,.51,9.48c-1.11,2.41-1.12,2.62.24,5.17a23.46,23.46,0,0,1,9.92-7.75,20.35,20.35,0,0,1,7.68-1.68c7.67,0,15.33,0,23-.06,1,0,1.21.25,1.24,1.21.34,12.17-7.43,22-19.28,24.17a49.07,49.07,0,0,1-9,.39c-2.95,0-5.91,0-8.86,0-.5,0-1.17-.25-1,.8a243.44,243.44,0,0,1,2,30,3,3,0,0,0,.18.59c.62-.63,1.13-1.18,1.67-1.7a22.88,22.88,0,0,1,16.51-6.71q10.8,0,21.6,0c.8,0,1.31,0,1.35,1.1a23.37,23.37,0,0,1-17.6,23.87,25,25,0,0,1-4.39.67c-.07.58.42.62.68.77a42.39,42.39,0,0,1,17.13,18.53,1.78,1.78,0,0,0,2,1.21c1.09-.08,2.18,0,3.27,0s1.5.22,1.42,1.36c-.1,1.29,0,2.59,0,3.88Zm69.05-5.34h57.72c-.6-1-1.07-1.88-1.59-2.7-10.41-16.29-30.28-21.32-47.22-14.93a1.74,1.74,0,0,0-1.25,1.68,30,30,0,0,1-1,4.68A26.42,26.42,0,0,1,113.64,220.64Zm36-25.46c2.59,0,5.18,0,7.77,0a18.08,18.08,0,0,0,17.64-14c.26-1.13,0-1.34-1.05-1.33-5.44,0-10.88-.09-16.31,0-8.79.22-15.58,5.71-17.53,13.93-.25,1.05-.13,1.46,1.1,1.42C144,195.12,146.8,195.18,149.59,195.18Zm-39.66-43.57c-3.74,0-6.79,0-9.85,0-1.13,0-1.26.38-1,1.34a17.77,17.77,0,0,0,14.74,13.69c6.33.77,12.72.15,19.07.3.4,0,.75-.06.71-.57a10.25,10.25,0,0,0-.24-2.92,17.62,17.62,0,0,0-12.18-11.18C117.21,151.13,113.2,151.85,109.93,151.61Zm49.89-20.54h-7a17.69,17.69,0,0,0-15.77,8.76,6,6,0,0,0-.86,5.68c.25.65.44.9,1.12.9,5.28,0,10.57.14,15.84-.09a18,18,0,0,0,16.71-13.81c.26-1.16,0-1.51-1.19-1.47C165.73,131.12,162.78,131.06,159.82,131.07Zm-58.26,89.68a12.67,12.67,0,0,0,9.66-5.14c6-7.84,6.68-16.45,3.13-25.47a16.77,16.77,0,0,0-7.51-8.78c-.81-.45-1.11-.36-1.34.55a18,18,0,0,1-2.57,4.92,11.3,11.3,0,0,0-1.45,3.06c-.92,3.52.13,6.54,2.07,9.5,3.69,5.65,3.65,11.44.07,17.18A12.2,12.2,0,0,0,101.56,220.75Zm-1-40.68a3.27,3.27,0,0,0-1.86,0A13.94,13.94,0,0,0,91,184.84C84.79,192.16,84,205,89.19,213.2a16.85,16.85,0,0,0,6.24,6.11c.63.33.95.41,1.17-.45a19.22,19.22,0,0,1,2.62-5.07,10.17,10.17,0,0,0,1.37-2.76,11.21,11.21,0,0,0-1.8-9.54c-3.91-5.82-3.92-11.77-.09-17.7A9.66,9.66,0,0,0,100.52,180.07Zm-18.87,8.08a12.7,12.7,0,0,0-10.56-3.1c-9.75,1.44-16.25,7.12-20,16.09a17.15,17.15,0,0,0-.83,10.64c.21.94.52,1.5,1.64.82a13.69,13.69,0,0,1,4.56-1.42c4.92-1,7.73-3.93,8.7-8.85,1.38-7,5.56-11.33,12.6-12.83A9.55,9.55,0,0,0,81.65,188.15ZM62.79,220.81c.93-.09,1.86-.13,2.77-.29,6.1-1,10.85-4.3,14.77-9a4.22,4.22,0,0,0,1-4.3,27.37,27.37,0,0,1-.45-11.68c.07-.51.56-1.48-.76-1.3-5.41.76-8.93,3.93-9.84,8.83C69,210.51,64.53,215,57.06,216.37A15.21,15.21,0,0,0,55,217c-.37.13-.92.17-1,.58s.45.64.77.86A13.16,13.16,0,0,0,62.79,220.81ZM68.64,72c-2,0-3.38,0-4.78,0-.73,0-1,.16-.84,1A17.8,17.8,0,0,0,74.8,86.32c4,1.5,8.27.91,12.45,1,1,0,.62-.64.53-1a17.71,17.71,0,0,0-6.49-10.44A17.93,17.93,0,0,0,68.64,72Zm45.28,7.52c0-2.3,0-4.21,0-6.12,0-.9-.15-1.18-1.13-.86a12.15,12.15,0,0,0-8.48,8.51c-1.35,4.74-.51,9.66-.61,14.5,0,1.08.86,1.53,2,1.06a12.59,12.59,0,0,0,7.64-8.38C114.23,85.27,113.82,82.2,113.92,79.55ZM78,117.7c5.35-1,9.82-5.8,10.06-11,.19-4.29,0-8.58.1-12.87,0-.91-.27-1-1.1-.74-4.42,1.43-7.47,4.35-8.52,8.82C77.35,107.11,78.3,112.42,78,117.7Zm43.66-7.22a5.09,5.09,0,1,0,5.12-5.12A5.1,5.1,0,0,0,121.68,110.48ZM124,130.89a5,5,0,1,0-4.88-5.25A4.93,4.93,0,0,0,124,130.89Zm-10-20.32a5,5,0,0,0-5,6.4,4.91,4.91,0,0,0,3.75,3.57,3.31,3.31,0,0,0,3.95-1.66,2.85,2.85,0,0,1,1-.93c.93-.54,1.22-1,.4-2a5.31,5.31,0,0,1-1.33-3.09C116.72,110.92,115.56,110.58,114,110.57ZM88.69,220.71A27.93,27.93,0,0,1,84.24,215a41.44,41.44,0,0,1-6,5.71Z"/></g></g></svg>