<svg xmlns="http://www.w3.org/2000/svg" viewBox="0 0 148.55 148.6"><defs><style>.cls-1{fill:#c98b5f;}</style></defs><g id="Capa_2" data-name="Capa 2"><g id="Capa_1-2" data-name="Capa 1"><path class="cls-1" d="M100.57,43.13c7.25-2.64,12.76-7,15.91-14.09.35-.78,0-.91-.5-1.16-2-1-4-1.95-6-2.95-5.63-2.83-7.63-8.93-4.73-14.36A10.6,10.6,0,0,1,120,6.25c4.58,2.58,7,6.6,7.71,11.92a20.48,20.48,0,0,1,5.86-2.1c4-.55,7.91-.09,11.17,2.53a9.66,9.66,0,0,1,3.41,10.72,10.47,10.47,0,0,1-8.36,7.83,10.28,10.28,0,0,1-6.94-1c-1.56-.77-3.13-1.51-4.67-2.31-.66-.34-.85-.18-.9.52-.58,8.12-3,15.75-6,23.27-.16.4-.54.79,0,1.32,3.25,3.17,3.88,7.25,3.43,11.46A33.58,33.58,0,0,1,113.83,92c-2.9,2.68-6.23,4.64-10.36,4.71a7.61,7.61,0,0,1-6.11-2.61c-.73-.83-1.1-.67-1.85-.07-7.89,6.33-16.45,11.47-26.18,14.46-4.75,1.47-9.58,2.28-14.56,1.4-2.39-.42-4.42-1.74-6.59-2.71-.47-.21-.43-.58-.39-1,1.31-13.33,3.88-26.33,10.27-38.28A34,34,0,0,1,68.17,56.48a3.22,3.22,0,0,0,1.33-2.3c1.78-10,6.5-18.07,15.26-23.49a11.4,11.4,0,0,1,8.43-1.75c4.25.89,7.12,4.65,7.37,9.52C100.64,40,100.57,41.52,100.57,43.13ZM86.29,94.73c6-3.24,15.24-11.92,20.11-18.84,5.54-7.88,9.26-16.64,12.41-25.67a59.1,59.1,0,0,0,3.65-17.29c0-.81.51-2-.77-2.24-1.11-.24-1,1-1.37,1.57a33.12,33.12,0,0,1-4.8,7c-4.46,4.76-10.13,7.45-16.13,9.57s-12.16,3.67-18.08,6c-8.16,3.19-15,8-19.25,15.89C56.7,80.83,54.49,91.87,53,103.1c-.12.87.25,1.19,1,1.49,2.86,1.16,5.77.89,8.68.39,6.54-1.14,12.52-3.77,18.33-6.88.91-.49.85-1.06.65-1.81A30.48,30.48,0,0,0,68.44,77.78c-1-.62-2.67-.86-2.75-1.94s1-2.21,1.48-3.34c.26-.58.53-.75,1.11-.38,1,.65,2.12,1.14,3,1.87s1.19.45,1.76-.39a18.36,18.36,0,0,1,7.31-6.67,8.86,8.86,0,0,1,6.22-.85c3.44.9,5.71,4,5.89,8.09.29,6.54-2.2,12-6.47,16.81-.52.58-.78,1-.42,1.8A17.2,17.2,0,0,1,86.29,94.73ZM74.7,52.46c6.29-3.12,12.73-4.88,19.1-6.87a2.11,2.11,0,0,0,1.78-2,22.45,22.45,0,0,0,.19-4.77c-.29-4.47-3.17-6.27-7.31-4.61a10.28,10.28,0,0,0-1.59.8C80.47,39.08,76.92,45.1,74.7,52.46Zm44.08,11.15-.33.57c-.29.63-.6,1.26-.88,1.89a72.27,72.27,0,0,1-16.13,22.75c-1.38,1.33-1.17,2.18.69,2.84a4.23,4.23,0,0,0,2.34.16A10.59,10.59,0,0,0,109,89.69a28.35,28.35,0,0,0,10.89-21.06A8,8,0,0,0,118.78,63.61Zm4-43.39c.08-4.59-2.15-8.33-5.7-10A5.78,5.78,0,0,0,109.45,13a5.37,5.37,0,0,0,2.48,7.46c2.83,1.43,5.72,2.76,8.54,4.22.88.46,1.13.19,1.45-.59A10.72,10.72,0,0,0,122.83,20.22Zm13.32.46a11.58,11.58,0,0,0-9.86,5.7c-.3.47-.62.87.2,1.26,3.1,1.45,6.12,3.07,9.25,4.44a5.72,5.72,0,0,0,7.47-3.32,5.33,5.33,0,0,0-3.13-7.29A10,10,0,0,0,136.15,20.68ZM87.69,75.54c0-.3,0-.6,0-.89-.21-3.72-2.39-4.93-5.64-3.1a15.75,15.75,0,0,0-5.47,5.59c-.36.56-.2.88.2,1.27a32.48,32.48,0,0,1,5.89,7.65c.39.69.69.69,1.14.07A19,19,0,0,0,87.69,75.54Z"/><path class="cls-1" d="M57.49,119.54c-3.42,2.28-6.57,4.35-9.67,6.48-.8.55-1.24.48-1.7-.36-.57-1-1.81-2.09-1.7-3s1.76-1.43,2.74-2.09c5-3.32,9.92-6.62,15.1-10.07v1.62q0,7.48,0,15c0,11-8.7,20.59-19.5,21.43a21.66,21.66,0,0,1-23.37-18.09,21.94,21.94,0,0,1-.24-3.42q0-26.81,0-53.6c0-1.2-.22-1.67-1.54-1.87C9.11,70.29,1.54,62.59.27,54.05-1.48,42.28,5.41,32,16.91,29.26c2.22-.54,2.22-.54,2.22-2.91,0-8.28,0-16.56,0-24.85,0-1.08.15-1.53,1.41-1.5,3.41.1,3.41,0,3.41,3.37,0,8,0,16.07,0,24.1,0,1.14.31,1.49,1.44,1.66,8.44,1.21,16.1,8.83,17.43,17.26,1.89,11.85-5.05,22.28-16.67,25-2.17.52-2.17.52-2.17,2.8q0,26,0,52.09c0,8.47,5.09,15,13.16,17,9.18,2.27,18.92-4.49,20.12-13.89C57.62,126.23,57.34,123.06,57.49,119.54ZM38.19,49.45a43.07,43.07,0,0,1-33.32,0A16.82,16.82,0,0,0,21.56,67.07,16.79,16.79,0,0,0,38.19,49.45ZM21.58,48a39.7,39.7,0,0,0,14.48-3c.81-.34,1.21-.6.72-1.57-3.2-6.28-8.29-9.81-15.34-9.77s-12,3.57-15.16,9.81c-.42.83-.2,1.15.62,1.49A39.92,39.92,0,0,0,21.58,48Z"/><path class="cls-1" d="M64.66,86.26a2.41,2.41,0,1,1-2.42,2.32A2.4,2.4,0,0,1,64.66,86.26Z"/></g></g></svg>